<svg width="13" height="9" viewBox="0 0 13 9" fill="none" xmlns="http://www.w3.org/2000/svg">
<path fill-rule="evenodd" clip-rule="evenodd" d="M12.2992 0.165219C12.3497 0.217458 12.3897 0.279517 12.417 0.34784C12.4443 0.416163 12.4583 0.489408 12.4583 0.56338C12.4583 0.637351 12.4443 0.710596 12.417 0.778919C12.3897 0.847242 12.3497 0.909301 12.2992 0.961541L4.71689 8.83478C4.66658 8.88715 4.60682 8.9287 4.54102 8.95706C4.47522 8.98541 4.40468 9 4.33344 9C4.2622 9 4.19167 8.98541 4.12587 8.95706C4.06007 8.9287 4.0003 8.88715 3.94999 8.83478L0.15883 4.89816C0.0571327 4.79256 0 4.64934 0 4.5C0 4.35066 0.0571327 4.20744 0.15883 4.10184C0.260527 3.99624 0.398458 3.93692 0.542279 3.93692C0.6861 3.93692 0.824031 3.99624 0.925728 4.10184L4.33344 7.64142L11.5323 0.165219C11.5826 0.112847 11.6424 0.0712953 11.7082 0.0429444C11.774 0.0145935 11.8445 0 11.9158 0C11.987 0 12.0575 0.0145935 12.1233 0.0429444C12.1891 0.0712953 12.2489 0.112847 12.2992 0.165219Z" fill="#4872F2"/>
</svg>
