<svg width="20" height="20" viewBox="0 0 20 20" fill="none" xmlns="http://www.w3.org/2000/svg">
<g clip-path="url(#clip0_4905_40750)">
<path fill-rule="evenodd" clip-rule="evenodd" d="M9.99992 0.833374C4.93742 0.833374 0.833252 4.93754 0.833252 10C0.833252 15.0625 4.93742 19.1667 9.99992 19.1667C15.0624 19.1667 19.1666 15.0625 19.1666 10C19.1666 4.93754 15.0624 0.833374 9.99992 0.833374ZM9.58325 5.00004C9.36224 5.00004 9.15028 5.08784 8.994 5.24412C8.83772 5.4004 8.74992 5.61236 8.74992 5.83337C8.74992 6.05439 8.83772 6.26635 8.994 6.42263C9.15028 6.57891 9.36224 6.66671 9.58325 6.66671H9.99992C10.2209 6.66671 10.4329 6.57891 10.5892 6.42263C10.7455 6.26635 10.8333 6.05439 10.8333 5.83337C10.8333 5.61236 10.7455 5.4004 10.5892 5.24412C10.4329 5.08784 10.2209 5.00004 9.99992 5.00004H9.58325ZM8.33325 8.33337C8.11224 8.33337 7.90028 8.42117 7.744 8.57745C7.58772 8.73373 7.49992 8.94569 7.49992 9.16671C7.49992 9.38772 7.58772 9.59968 7.744 9.75596C7.90028 9.91224 8.11224 10 8.33325 10H9.16659V12.5H8.33325C8.11224 12.5 7.90028 12.5878 7.744 12.7441C7.58772 12.9004 7.49992 13.1124 7.49992 13.3334C7.49992 13.5544 7.58772 13.7664 7.744 13.9226C7.90028 14.0789 8.11224 14.1667 8.33325 14.1667H11.6666C11.8876 14.1667 12.0996 14.0789 12.2558 13.9226C12.4121 13.7664 12.4999 13.5544 12.4999 13.3334C12.4999 13.1124 12.4121 12.9004 12.2558 12.7441C12.0996 12.5878 11.8876 12.5 11.6666 12.5H10.8333V9.16671C10.8333 8.94569 10.7455 8.73373 10.5892 8.57745C10.4329 8.42117 10.2209 8.33337 9.99992 8.33337H8.33325Z" fill="#4872F2"/>
</g>
<defs>
<clipPath id="clip0_4905_40750">
<rect width="20" height="20" fill="white"/>
</clipPath>
</defs>
</svg>
