<svg width="22" height="22" viewBox="0 0 22 22" fill="none" xmlns="http://www.w3.org/2000/svg">
<circle cx="11" cy="11" r="11" fill="#E3EAFF"/>
<path d="M16.7075 7.53906H5.04587C4.68857 7.53906 4.39893 7.82604 4.39893 8.18004V15.4921C4.39893 15.8461 4.68857 16.1331 5.04587 16.1331H16.7075C17.0648 16.1331 17.3545 15.8461 17.3545 15.4921V8.18004C17.3545 7.82604 17.0648 7.53906 16.7075 7.53906Z" stroke="#3C3C3C" stroke-width="0.8" stroke-linecap="round" stroke-linejoin="round"/>
<path d="M9.62787 5.86744H12.1268C12.2984 5.86744 12.4629 5.93497 12.5843 6.05518C12.7056 6.17538 12.7737 6.33842 12.7737 6.50842V7.54003H8.97815V6.50842C8.97815 6.42401 8.99497 6.34043 9.02766 6.26249C9.06035 6.18454 9.10825 6.11376 9.16862 6.0542C9.22899 5.99464 9.30063 5.94749 9.37944 5.91544C9.45826 5.88339 9.54268 5.86708 9.62787 5.86744V5.86744Z" stroke="#3C3C3C" stroke-width="0.8" stroke-linecap="round" stroke-linejoin="round"/>
<path d="M14.8997 16.1331V7.53906" stroke="#3C3C3C" stroke-width="0.8" stroke-linecap="round" stroke-linejoin="round"/>
<path d="M6.85742 7.53906V16.1331" stroke="#3C3C3C" stroke-width="0.8" stroke-linecap="round" stroke-linejoin="round"/>
</svg>
