<svg width="10" height="6" viewBox="0 0 10 6" fill="none" xmlns="http://www.w3.org/2000/svg">
<path fill-rule="evenodd" clip-rule="evenodd" d="M9.68318 0.142155C9.63674 0.0970938 9.58156 0.0613426 9.52082 0.0369492C9.46007 0.0125559 9.39495 5.02145e-09 9.32918 5.78042e-09C9.26342 6.53939e-09 9.1983 0.0125559 9.13755 0.0369492C9.07681 0.0613426 9.02163 0.0970938 8.97518 0.142155L4.91497 4.07236L0.854758 0.142155C0.760872 0.0512971 0.633533 0.000253352 0.500758 0.000253354C0.367983 0.000253357 0.240644 0.0512971 0.146758 0.142155C0.0528717 0.233013 0.000126843 0.356243 0.000126845 0.484736C0.000126846 0.613229 0.0528717 0.736459 0.146758 0.827317L4.56097 5.09914C4.60742 5.1442 4.66259 5.17995 4.72334 5.20434C4.78408 5.22874 4.8492 5.24129 4.91497 5.24129C4.98074 5.24129 5.04586 5.22874 5.10661 5.20434C5.16735 5.17995 5.22253 5.1442 5.26897 5.09914L9.68318 0.827317C9.72975 0.782369 9.76669 0.728973 9.7919 0.670188C9.8171 0.611402 9.83008 0.548382 9.83008 0.484736C9.83008 0.42109 9.8171 0.35807 9.7919 0.299284C9.76669 0.240498 9.72975 0.187102 9.68318 0.142155Z" fill="#4872F2"/>
</svg>
