<svg width="16" height="16" viewBox="0 0 16 16" fill="none" xmlns="http://www.w3.org/2000/svg">
<path d="M2.66671 7.33334L1.33337 10L3.60537 10.9087C3.9408 11.0428 4.24549 11.2437 4.50093 11.4991C4.75637 11.7546 4.95725 12.0592 5.09137 12.3947L6.00004 14.6667L8.66671 13.3333L7.86004 11.72C7.7144 11.4293 7.68003 11.0953 7.76339 10.781C7.84676 10.4667 8.04212 10.1937 8.31271 10.0133L9.33337 9.33334L12 14L14 11.3333L12.4734 6.354L12.95 5.878C13.8914 4.93667 14.7567 3.42334 13.6667 2.33334C12.5767 1.24334 11.06 2.10667 10.1227 3.05134L9.64271 3.52334L4.66671 2L2.00004 4L6.66671 6.66667L5.98671 7.68734C5.80646 7.95804 5.5335 8.15353 5.21918 8.23702C4.90486 8.32051 4.57086 8.28625 4.28004 8.14067L2.66671 7.33334Z" stroke="#3C3C3C" stroke-width="1.2" stroke-linecap="round" stroke-linejoin="round"/>
</svg>
