<svg width="128" height="26" viewBox="0 0 128 26" fill="none" xmlns="http://www.w3.org/2000/svg">
<rect width="128" height="26" rx="8" fill="#C9DEFF"/>
<path d="M34.5645 18H33.1582V10.6289H30.7207C30.6699 11.0312 30.6152 11.4609 30.5566 11.918C30.498 12.3711 30.4375 12.8262 30.375 13.2832C30.3125 13.7402 30.248 14.1738 30.1816 14.584C30.1191 14.9941 30.0547 15.3555 29.9883 15.668C29.8867 16.1914 29.7539 16.6367 29.5898 17.0039C29.4297 17.3672 29.2129 17.6445 28.9395 17.8359C28.666 18.0273 28.3086 18.123 27.8672 18.123C27.7188 18.123 27.5742 18.1094 27.4336 18.082C27.293 18.0586 27.166 18.0273 27.0527 17.9883V16.8281C27.1465 16.8633 27.2461 16.8945 27.3516 16.9219C27.4609 16.9453 27.5762 16.957 27.6973 16.957C27.9004 16.957 28.0625 16.8828 28.1836 16.7344C28.3086 16.582 28.4121 16.3672 28.4941 16.0898C28.5762 15.8086 28.6543 15.4766 28.7285 15.0938C28.7715 14.8633 28.8242 14.5586 28.8867 14.1797C28.9492 13.7969 29.0176 13.3555 29.0918 12.8555C29.166 12.3555 29.2422 11.8164 29.3203 11.2383C29.4023 10.6562 29.4805 10.0547 29.5547 9.43359H34.5645V18ZM35.7012 11.5137H37.2012L38.5312 15.2168C38.5898 15.3848 38.6426 15.5508 38.6895 15.7148C38.7402 15.875 38.7832 16.0332 38.8184 16.1895C38.8574 16.3457 38.8887 16.502 38.9121 16.6582H38.9473C38.9863 16.4551 39.041 16.2285 39.1113 15.9785C39.1855 15.7246 39.2676 15.4707 39.3574 15.2168L40.6348 11.5137H42.1172L39.334 18.8906C39.1738 19.3125 38.9766 19.6719 38.7422 19.9688C38.5117 20.2695 38.2383 20.4961 37.9219 20.6484C37.6055 20.8047 37.2441 20.8828 36.8379 20.8828C36.6426 20.8828 36.4727 20.8711 36.3281 20.8477C36.1836 20.8281 36.0605 20.8066 35.959 20.7832V19.6816C36.041 19.7012 36.1445 19.7188 36.2695 19.7344C36.3945 19.75 36.5234 19.7578 36.6562 19.7578C36.9023 19.7578 37.1152 19.709 37.2949 19.6113C37.4746 19.5137 37.627 19.375 37.752 19.1953C37.877 19.0195 37.9805 18.8184 38.0625 18.5918L38.291 17.9824L35.7012 11.5137ZM44.3086 11.5137V13.8633C44.3086 14.207 44.3984 14.4629 44.5781 14.6309C44.7578 14.7988 45.0156 14.8828 45.3516 14.8828C45.7266 14.8828 46.0703 14.832 46.3828 14.7305C46.6992 14.6289 47.0176 14.4922 47.3379 14.3203V11.5137H48.7148V18H47.3379V15.2578C47.0137 15.4492 46.6758 15.6094 46.3242 15.7383C45.9727 15.8672 45.5605 15.9316 45.0879 15.9316C44.416 15.9316 43.8887 15.7578 43.5059 15.4102C43.123 15.0625 42.9316 14.5664 42.9316 13.9219V11.5137H44.3086ZM59.8652 11.5137V18H50.6836V11.5137H52.0605V16.916H54.5801V11.5137H55.9629V16.916H58.4883V11.5137H59.8652ZM63.1641 11.5137V14.8242C63.1641 14.9297 63.1602 15.0645 63.1523 15.2285C63.1484 15.3887 63.1406 15.5566 63.1289 15.7324C63.1172 15.9043 63.1055 16.0625 63.0938 16.207C63.082 16.3516 63.0723 16.459 63.0645 16.5293L66.3281 11.5137H68.0039V18H66.6855V14.7246C66.6855 14.5527 66.6895 14.3535 66.6973 14.127C66.709 13.9004 66.7207 13.6816 66.7324 13.4707C66.748 13.2598 66.7578 13.0996 66.7617 12.9902L63.5098 18H61.8398V11.5137H63.1641ZM71.3086 11.5137V14.8242C71.3086 14.9297 71.3047 15.0645 71.2969 15.2285C71.293 15.3887 71.2852 15.5566 71.2734 15.7324C71.2617 15.9043 71.25 16.0625 71.2383 16.207C71.2266 16.3516 71.2168 16.459 71.209 16.5293L74.4727 11.5137H76.1484V18H74.8301V14.7246C74.8301 14.5527 74.834 14.3535 74.8418 14.127C74.8535 13.9004 74.8652 13.6816 74.877 13.4707C74.8926 13.2598 74.9023 13.0996 74.9062 12.9902L71.6543 18H69.9844V11.5137H71.3086ZM75.6621 8.7832C75.623 9.18555 75.5137 9.5332 75.334 9.82617C75.1582 10.1152 74.8906 10.3379 74.5312 10.4941C74.1719 10.6504 73.6992 10.7285 73.1133 10.7285C72.5078 10.7285 72.0293 10.6543 71.6777 10.5059C71.3262 10.3535 71.0723 10.1328 70.916 9.84375C70.7598 9.55078 70.666 9.19727 70.6348 8.7832H71.8887C71.9277 9.2168 72.041 9.50977 72.2285 9.66211C72.416 9.81055 72.7188 9.88477 73.1367 9.88477C73.4961 9.88477 73.7832 9.80469 73.998 9.64453C74.2168 9.48438 74.3477 9.19727 74.3906 8.7832H75.6621ZM86.7012 13.1777C86.7012 13.5527 86.5859 13.8594 86.3555 14.0977C86.1289 14.332 85.8164 14.4863 85.418 14.5605V14.6074C85.8438 14.6621 86.1992 14.8125 86.4844 15.0586C86.7695 15.3047 86.9121 15.6465 86.9121 16.084C86.9121 16.4551 86.8184 16.7852 86.6309 17.0742C86.4473 17.3594 86.1543 17.5859 85.752 17.7539C85.3535 17.918 84.832 18 84.1875 18H81.2461V11.5137H84.1758C84.6602 11.5137 85.0918 11.5664 85.4707 11.6719C85.8535 11.7773 86.1543 11.9512 86.373 12.1934C86.5918 12.4355 86.7012 12.7637 86.7012 13.1777ZM85.4766 16.0371C85.4766 15.7168 85.3535 15.4863 85.1074 15.3457C84.8652 15.2051 84.5098 15.1348 84.041 15.1348H82.6289V16.9863H84.0703C84.5078 16.9863 84.8516 16.9141 85.1016 16.7695C85.3516 16.6211 85.4766 16.377 85.4766 16.0371ZM85.3008 13.3008C85.3008 13.0469 85.2051 12.8594 85.0137 12.7383C84.8223 12.6133 84.5215 12.5508 84.1113 12.5508H82.6289V14.1211H83.9238C84.377 14.1211 84.7188 14.0566 84.9492 13.9277C85.1836 13.7949 85.3008 13.5859 85.3008 13.3008ZM88.4648 18V11.5137H89.8477V14.1035H91.1543C91.7637 14.1035 92.2656 14.1738 92.6602 14.3145C93.0547 14.4512 93.3477 14.6582 93.5391 14.9355C93.7305 15.2129 93.8262 15.5605 93.8262 15.9785C93.8262 16.3887 93.7344 16.7461 93.5508 17.0508C93.3672 17.3516 93.0801 17.5859 92.6895 17.7539C92.2988 17.918 91.7871 18 91.1543 18H88.4648ZM89.8477 16.9863H91.0605C91.4746 16.9863 91.8086 16.9121 92.0625 16.7637C92.3203 16.6113 92.4492 16.3613 92.4492 16.0137C92.4492 15.6895 92.3301 15.4609 92.0918 15.3281C91.8574 15.1914 91.5137 15.123 91.0605 15.123H89.8477V16.9863ZM94.8281 18V11.5137H96.2109V18H94.8281ZM97.8105 14.1094C97.8105 13.168 97.9141 12.3672 98.1211 11.707C98.3281 11.0469 98.6543 10.5176 99.0996 10.1191C99.5449 9.7207 100.123 9.44922 100.834 9.30469C101.295 9.19922 101.764 9.10938 102.24 9.03516C102.717 8.96094 103.193 8.88867 103.67 8.81836L103.857 10.0312C103.635 10.0586 103.396 10.0918 103.143 10.1309C102.889 10.166 102.633 10.2031 102.375 10.2422C102.121 10.2812 101.877 10.3223 101.643 10.3652C101.412 10.4043 101.205 10.4434 101.021 10.4824C100.654 10.5605 100.344 10.6895 100.09 10.8691C99.8398 11.0449 99.6445 11.3027 99.5039 11.6426C99.3633 11.9824 99.2793 12.4355 99.252 13.002H99.3281C99.4336 12.8418 99.5801 12.6816 99.7676 12.5215C99.9551 12.3613 100.182 12.2285 100.447 12.123C100.717 12.0137 101.023 11.959 101.367 11.959C101.906 11.959 102.363 12.0723 102.738 12.2988C103.117 12.5254 103.404 12.8535 103.6 13.2832C103.799 13.7129 103.898 14.2305 103.898 14.8359C103.898 15.5586 103.77 16.1641 103.512 16.6523C103.258 17.1367 102.902 17.502 102.445 17.748C101.988 17.9941 101.455 18.1172 100.846 18.1172C100.377 18.1172 99.9551 18.0293 99.5801 17.8535C99.209 17.6777 98.8906 17.4199 98.625 17.0801C98.3633 16.7363 98.1621 16.3164 98.0215 15.8203C97.8809 15.3203 97.8105 14.75 97.8105 14.1094ZM100.939 16.9863C101.252 16.9863 101.521 16.9199 101.748 16.7871C101.979 16.6543 102.156 16.4395 102.281 16.1426C102.41 15.8457 102.475 15.4531 102.475 14.9648C102.475 14.3633 102.365 13.8906 102.146 13.5469C101.932 13.1992 101.576 13.0254 101.08 13.0254C100.775 13.0254 100.496 13.0938 100.242 13.2305C99.9883 13.3672 99.7734 13.5273 99.5977 13.7109C99.4219 13.8906 99.2969 14.0488 99.2227 14.1855C99.2227 14.541 99.248 14.8848 99.2988 15.2168C99.3535 15.5488 99.4434 15.8496 99.5684 16.1191C99.6973 16.3848 99.873 16.5957 100.096 16.752C100.318 16.9082 100.6 16.9863 100.939 16.9863ZM111.223 14.7422C111.223 15.2812 111.152 15.7598 111.012 16.1777C110.871 16.5957 110.666 16.9492 110.396 17.2383C110.127 17.5234 109.803 17.7422 109.424 17.8945C109.045 18.043 108.617 18.1172 108.141 18.1172C107.695 18.1172 107.287 18.043 106.916 17.8945C106.545 17.7422 106.223 17.5234 105.949 17.2383C105.68 16.9492 105.471 16.5957 105.322 16.1777C105.174 15.7598 105.1 15.2812 105.1 14.7422C105.1 14.0273 105.223 13.4219 105.469 12.9258C105.719 12.4258 106.074 12.0449 106.535 11.7832C106.996 11.5215 107.545 11.3906 108.182 11.3906C108.779 11.3906 109.307 11.5215 109.764 11.7832C110.221 12.0449 110.578 12.4258 110.836 12.9258C111.094 13.4258 111.223 14.0312 111.223 14.7422ZM106.518 14.7422C106.518 15.2148 106.574 15.6191 106.688 15.9551C106.805 16.291 106.984 16.5488 107.227 16.7285C107.469 16.9043 107.781 16.9922 108.164 16.9922C108.547 16.9922 108.859 16.9043 109.102 16.7285C109.344 16.5488 109.521 16.291 109.635 15.9551C109.748 15.6191 109.805 15.2148 109.805 14.7422C109.805 14.2695 109.748 13.8691 109.635 13.541C109.521 13.209 109.344 12.957 109.102 12.7852C108.859 12.6094 108.545 12.5215 108.158 12.5215C107.588 12.5215 107.172 12.7129 106.91 13.0957C106.648 13.4785 106.518 14.0273 106.518 14.7422ZM116.133 11.3906C116.902 11.3906 117.52 11.6719 117.984 12.2344C118.453 12.7969 118.688 13.6328 118.688 14.7422C118.688 15.4766 118.578 16.0957 118.359 16.5996C118.145 17.0996 117.842 17.4785 117.451 17.7363C117.064 17.9902 116.613 18.1172 116.098 18.1172C115.77 18.1172 115.484 18.0742 115.242 17.9883C115 17.9023 114.793 17.791 114.621 17.6543C114.449 17.5137 114.305 17.3613 114.188 17.1973H114.105C114.125 17.3535 114.143 17.5273 114.158 17.7188C114.178 17.9062 114.188 18.0781 114.188 18.2344V20.877H112.805V11.5137H113.93L114.123 12.4102H114.188C114.309 12.2266 114.455 12.0566 114.627 11.9004C114.803 11.7441 115.014 11.6211 115.26 11.5312C115.51 11.4375 115.801 11.3906 116.133 11.3906ZM115.764 12.5156C115.385 12.5156 115.08 12.5918 114.85 12.7441C114.623 12.8926 114.457 13.1172 114.352 13.418C114.25 13.7188 114.195 14.0957 114.188 14.5488V14.7422C114.188 15.2227 114.236 15.6309 114.334 15.9668C114.436 16.2988 114.602 16.5527 114.832 16.7285C115.066 16.9004 115.383 16.9863 115.781 16.9863C116.117 16.9863 116.395 16.8945 116.613 16.7109C116.836 16.5273 117.002 16.2656 117.111 15.9258C117.221 15.5859 117.275 15.1855 117.275 14.7246C117.275 14.0254 117.15 13.4824 116.9 13.0957C116.654 12.709 116.275 12.5156 115.764 12.5156Z" fill="#3C3C3C"/>
<path d="M15.7369 8.8546L15.8902 7.27527C15.9509 6.6406 16.5435 6.20993 17.1422 6.3646C18.0429 6.59793 18.6755 7.4346 18.6755 8.39393V10.4173C18.6755 10.8673 18.6755 11.0926 18.7729 11.2573C18.8282 11.3513 18.9042 11.4306 18.9949 11.4873C19.1549 11.5879 19.3729 11.5879 19.8082 11.5879H20.0722C21.2075 11.5879 21.7749 11.5879 22.1242 11.8479C22.3862 12.0433 22.5709 12.3293 22.6442 12.6533C22.7415 13.0866 22.5235 13.6286 22.0869 14.7113L21.8695 15.2513C21.7435 15.564 21.6919 15.9018 21.7189 16.2379C21.8735 18.1539 20.3542 19.7679 18.4969 19.6619L11.5475 19.2626C10.7882 19.2193 10.4089 19.1973 10.0662 18.8939C9.72285 18.5906 9.65818 18.2779 9.52952 17.6533C9.25567 16.3243 9.26817 14.9523 9.56618 13.6286C9.75485 12.7966 10.5495 12.3486 11.3702 12.4553C13.5462 12.7353 15.5189 11.1093 15.7369 8.85527V8.8546Z" stroke="#3C3C3C" stroke-width="1.2" stroke-linecap="round" stroke-linejoin="round"/>
<path d="M12.6668 12.667L12.5755 12.9717C11.9842 14.9426 12.0161 17.0482 12.6668 19.0003" stroke="#3C3C3C" stroke-width="1.2" stroke-linecap="round" stroke-linejoin="round"/>
</svg>
