<svg width="108" height="26" viewBox="0 0 108 26" fill="none" xmlns="http://www.w3.org/2000/svg">
<rect width="108" height="26" rx="8" fill="#FFBCBC"/>
<path d="M34.8809 18H33.4805V14.1328H29.5312V18H28.125V9.43359H29.5312V12.9375H33.4805V9.43359H34.8809V18ZM39.5918 11.3906C40.1699 11.3906 40.666 11.5098 41.0801 11.748C41.4941 11.9863 41.8125 12.3242 42.0352 12.7617C42.2578 13.1992 42.3691 13.7227 42.3691 14.332V15.0703H38.0391C38.0547 15.6992 38.2227 16.1836 38.543 16.5234C38.8672 16.8633 39.3203 17.0332 39.9023 17.0332C40.3164 17.0332 40.6875 16.9941 41.0156 16.916C41.3477 16.834 41.6895 16.7148 42.041 16.5586V17.6777C41.7168 17.8301 41.3867 17.9414 41.0508 18.0117C40.7148 18.082 40.3125 18.1172 39.8438 18.1172C39.207 18.1172 38.6465 17.9941 38.1621 17.748C37.6816 17.498 37.3047 17.127 37.0312 16.6348C36.7617 16.1426 36.627 15.5312 36.627 14.8008C36.627 14.0742 36.75 13.457 36.9961 12.9492C37.2422 12.4414 37.5879 12.0547 38.0332 11.7891C38.4785 11.5234 38.998 11.3906 39.5918 11.3906ZM39.5918 12.4277C39.1582 12.4277 38.8066 12.5684 38.5371 12.8496C38.2715 13.1309 38.1152 13.543 38.0684 14.0859H41.0215C41.0176 13.7617 40.9629 13.4746 40.8574 13.2246C40.7559 12.9746 40.5996 12.7793 40.3887 12.6387C40.1816 12.498 39.916 12.4277 39.5918 12.4277ZM46.0605 11.5137H47.5605L48.8906 15.2168C48.9492 15.3848 49.002 15.5508 49.0488 15.7148C49.0996 15.875 49.1426 16.0332 49.1777 16.1895C49.2168 16.3457 49.248 16.502 49.2715 16.6582H49.3066C49.3457 16.4551 49.4004 16.2285 49.4707 15.9785C49.5449 15.7246 49.627 15.4707 49.7168 15.2168L50.9941 11.5137H52.4766L49.6934 18.8906C49.5332 19.3125 49.3359 19.6719 49.1016 19.9688C48.8711 20.2695 48.5977 20.4961 48.2812 20.6484C47.9648 20.8047 47.6035 20.8828 47.1973 20.8828C47.002 20.8828 46.832 20.8711 46.6875 20.8477C46.543 20.8281 46.4199 20.8066 46.3184 20.7832V19.6816C46.4004 19.7012 46.5039 19.7188 46.6289 19.7344C46.7539 19.75 46.8828 19.7578 47.0156 19.7578C47.2617 19.7578 47.4746 19.709 47.6543 19.6113C47.834 19.5137 47.9863 19.375 48.1113 19.1953C48.2363 19.0195 48.3398 18.8184 48.4219 18.5918L48.6504 17.9824L46.0605 11.5137ZM59.127 11.5137V18H57.7383V12.6035H54.8438V18H53.4609V11.5137H59.127ZM60.123 11.5137H61.623L62.9531 15.2168C63.0117 15.3848 63.0645 15.5508 63.1113 15.7148C63.1621 15.875 63.2051 16.0332 63.2402 16.1895C63.2793 16.3457 63.3105 16.502 63.334 16.6582H63.3691C63.4082 16.4551 63.4629 16.2285 63.5332 15.9785C63.6074 15.7246 63.6895 15.4707 63.7793 15.2168L65.0566 11.5137H66.5391L63.7559 18.8906C63.5957 19.3125 63.3984 19.6719 63.1641 19.9688C62.9336 20.2695 62.6602 20.4961 62.3438 20.6484C62.0273 20.8047 61.666 20.8828 61.2598 20.8828C61.0645 20.8828 60.8945 20.8711 60.75 20.8477C60.6055 20.8281 60.4824 20.8066 60.3809 20.7832V19.6816C60.4629 19.7012 60.5664 19.7188 60.6914 19.7344C60.8164 19.75 60.9453 19.7578 61.0781 19.7578C61.3242 19.7578 61.5371 19.709 61.7168 19.6113C61.8965 19.5137 62.0488 19.375 62.1738 19.1953C62.2988 19.0195 62.4023 18.8184 62.4844 18.5918L62.7129 17.9824L60.123 11.5137ZM70.1367 18.1172C69.5234 18.1172 68.9922 17.998 68.543 17.7598C68.0938 17.5215 67.748 17.1562 67.5059 16.6641C67.2637 16.1719 67.1426 15.5469 67.1426 14.7891C67.1426 14 67.2754 13.3555 67.541 12.8555C67.8066 12.3555 68.1738 11.9863 68.6426 11.748C69.1152 11.5098 69.6562 11.3906 70.2656 11.3906C70.6523 11.3906 71.002 11.4297 71.3145 11.5078C71.6309 11.582 71.8984 11.6738 72.1172 11.7832L71.707 12.8848C71.4688 12.7871 71.2246 12.7051 70.9746 12.6387C70.7246 12.5723 70.4844 12.5391 70.2539 12.5391C69.875 12.5391 69.5586 12.623 69.3047 12.791C69.0547 12.959 68.8672 13.209 68.7422 13.541C68.6211 13.873 68.5605 14.2852 68.5605 14.7773C68.5605 15.2539 68.623 15.6562 68.748 15.9844C68.873 16.3086 69.0586 16.5547 69.3047 16.7227C69.5508 16.8867 69.8535 16.9688 70.2129 16.9688C70.5684 16.9688 70.8867 16.9258 71.168 16.8398C71.4492 16.7539 71.7148 16.6426 71.9648 16.5059V17.7012C71.7188 17.8418 71.4551 17.9453 71.1738 18.0117C70.8926 18.082 70.5469 18.1172 70.1367 18.1172ZM78.3867 12.5977H76.2539V18H74.8828V12.5977H72.7617V11.5137H78.3867V12.5977ZM80.9648 11.5137V14.8242C80.9648 14.9297 80.9609 15.0645 80.9531 15.2285C80.9492 15.3887 80.9414 15.5566 80.9297 15.7324C80.918 15.9043 80.9062 16.0625 80.8945 16.207C80.8828 16.3516 80.873 16.459 80.8652 16.5293L84.1289 11.5137H85.8047V18H84.4863V14.7246C84.4863 14.5527 84.4902 14.3535 84.498 14.127C84.5098 13.9004 84.5215 13.6816 84.5332 13.4707C84.5488 13.2598 84.5586 13.0996 84.5625 12.9902L81.3105 18H79.6406V11.5137H80.9648ZM92.6836 12.5977H90.5508V18H89.1797V12.5977H87.0586V11.5137H92.6836V12.5977ZM96.5215 11.3906C97.0996 11.3906 97.5957 11.5098 98.0098 11.748C98.4238 11.9863 98.7422 12.3242 98.9648 12.7617C99.1875 13.1992 99.2988 13.7227 99.2988 14.332V15.0703H94.9688C94.9844 15.6992 95.1523 16.1836 95.4727 16.5234C95.7969 16.8633 96.25 17.0332 96.832 17.0332C97.2461 17.0332 97.6172 16.9941 97.9453 16.916C98.2773 16.834 98.6191 16.7148 98.9707 16.5586V17.6777C98.6465 17.8301 98.3164 17.9414 97.9805 18.0117C97.6445 18.082 97.2422 18.1172 96.7734 18.1172C96.1367 18.1172 95.5762 17.9941 95.0918 17.748C94.6113 17.498 94.2344 17.127 93.9609 16.6348C93.6914 16.1426 93.5566 15.5312 93.5566 14.8008C93.5566 14.0742 93.6797 13.457 93.9258 12.9492C94.1719 12.4414 94.5176 12.0547 94.9629 11.7891C95.4082 11.5234 95.9277 11.3906 96.5215 11.3906ZM96.5215 12.4277C96.0879 12.4277 95.7363 12.5684 95.4668 12.8496C95.2012 13.1309 95.0449 13.543 94.998 14.0859H97.9512C97.9473 13.7617 97.8926 13.4746 97.7871 13.2246C97.6855 12.9746 97.5293 12.7793 97.3184 12.6387C97.1113 12.498 96.8457 12.4277 96.5215 12.4277Z" fill="#3C3C3C"/>
<path d="M19.7885 7.40167C20.1358 6.96234 19.8085 6.33301 19.2311 6.33301H14.7538C14.5038 6.33301 14.2725 6.46101 14.1478 6.66767L10.7598 12.305C10.4925 12.749 10.8285 13.303 11.3651 13.303H13.6511L11.4978 18.6797C11.1865 19.3597 12.0278 19.9817 12.5931 19.4897L21.3325 11.2203H16.7665L19.7885 7.40167V7.40167Z" stroke="#3C3C3C" stroke-width="1.2" stroke-linecap="round" stroke-linejoin="round"/>
</svg>
