<svg width="172" height="24" viewBox="0 0 172 24" fill="none" xmlns="http://www.w3.org/2000/svg">
<rect width="172" height="24" rx="12" fill="#F57269"/>
<path d="M16 18.6667C12.6867 18.6667 10 16.9454 10 14V13.9414C10 12.5294 10.892 11.4 12.25 10.6667C13.5493 9.96537 14.3173 8.67337 14.1253 7.33337L13.75 5.33337L15.1407 5.86337C17.6453 6.81671 19.7313 8.47137 21.0833 10.574C21.6778 11.4874 21.9961 12.5529 22 13.6427V14C22 15.0414 21.664 15.93 21.0833 16.6434" stroke="white" stroke-width="1.2" stroke-linecap="round" stroke-linejoin="round"/>
<path d="M16 18.6667C14.8953 18.6667 14 17.7114 14 16.5334C14 15.6 14.6773 14.8527 15.2733 14.168L16 13.3334L16.7267 14.168C17.3227 14.8534 18 15.6 18 16.5334C18 17.7114 17.1047 18.6667 16 18.6667Z" stroke="white" stroke-width="1.2" stroke-linecap="round" stroke-linejoin="round"/>
<path d="M33.2168 8.43359V9.63477H29.5312V17H28.1309V8.43359H33.2168ZM40.2129 13.748C40.2129 14.8066 39.9414 15.6328 39.3984 16.2266C38.8555 16.8203 38.0996 17.1172 37.1309 17.1172C36.5254 17.1172 35.9902 16.9805 35.5254 16.707C35.0605 16.4336 34.7031 16.041 34.4531 15.5293C34.2031 15.0176 34.0781 14.4238 34.0781 13.748C34.0781 12.6973 34.3477 11.877 34.8867 11.2871C35.4258 10.6973 36.1855 10.4023 37.166 10.4023C38.1035 10.4023 38.8457 10.7051 39.3926 11.3105C39.9395 11.9121 40.2129 12.7246 40.2129 13.748ZM35.4961 13.748C35.4961 15.2441 36.0488 15.9922 37.1543 15.9922C38.248 15.9922 38.7949 15.2441 38.7949 13.748C38.7949 12.2676 38.2441 11.5273 37.1426 11.5273C36.5645 11.5273 36.1445 11.7188 35.8828 12.1016C35.625 12.4844 35.4961 13.0332 35.4961 13.748ZM45.0879 17.1172C44.2676 17.1172 43.6309 16.8223 43.1777 16.2324H43.0957C43.1504 16.7793 43.1777 17.1113 43.1777 17.2285V19.8828H41.8008V10.5195H42.9141C42.9453 10.6406 43.0098 10.9297 43.1074 11.3867H43.1777C43.6074 10.7305 44.252 10.4023 45.1113 10.4023C45.9199 10.4023 46.5488 10.6953 46.998 11.2812C47.4512 11.8672 47.6777 12.6895 47.6777 13.748C47.6777 14.8066 47.4473 15.6328 46.9863 16.2266C46.5293 16.8203 45.8965 17.1172 45.0879 17.1172ZM44.7539 11.5273C44.207 11.5273 43.8066 11.6875 43.5527 12.0078C43.3027 12.3281 43.1777 12.8398 43.1777 13.543V13.748C43.1777 14.5371 43.3027 15.1094 43.5527 15.4648C43.8027 15.8164 44.2109 15.9922 44.7773 15.9922C45.2539 15.9922 45.6211 15.7969 45.8789 15.4062C46.1367 15.0156 46.2656 14.459 46.2656 13.7363C46.2656 13.0098 46.1367 12.4609 45.8789 12.0898C45.625 11.7148 45.25 11.5273 44.7539 11.5273ZM49.9395 17H48.3984L50.2031 14.3457C49.7656 14.2207 49.4219 13.998 49.1719 13.6777C48.9219 13.3535 48.7969 12.9531 48.7969 12.4766C48.7969 11.8633 49.0156 11.3848 49.4531 11.041C49.8906 10.6934 50.4883 10.5195 51.2461 10.5195H54.1992V17H52.8164V14.5039H51.5098L49.9395 17ZM50.1387 12.4883C50.1387 12.8203 50.2637 13.0703 50.5137 13.2383C50.7676 13.4023 51.1074 13.4844 51.5332 13.4844H52.8164V11.5625H51.3164C50.9414 11.5625 50.6504 11.6426 50.4434 11.8027C50.2402 11.9629 50.1387 12.1914 50.1387 12.4883ZM57.3809 10.5195V12.8867C57.3809 13.5508 57.7246 13.8828 58.4121 13.8828C58.7441 13.8828 59.0684 13.8379 59.3848 13.748C59.7012 13.6543 60.041 13.5059 60.4043 13.3027V10.5195H61.7812V17H60.4043V14.252C60.0254 14.4863 59.6582 14.6602 59.3027 14.7734C58.9512 14.8828 58.5664 14.9375 58.1484 14.9375C57.4727 14.9375 56.9453 14.7637 56.5664 14.416C56.1875 14.0645 55.998 13.5742 55.998 12.9453V10.5195H57.3809ZM66.5801 17.1172C65.5723 17.1172 64.7832 16.8242 64.2129 16.2383C63.6465 15.6484 63.3633 14.8379 63.3633 13.8066C63.3633 12.748 63.627 11.916 64.1543 11.3105C64.6816 10.7051 65.4062 10.4023 66.3281 10.4023C67.1836 10.4023 67.8594 10.6621 68.3555 11.1816C68.8516 11.7012 69.0996 12.416 69.0996 13.3262V14.0703H64.7812C64.8008 14.6992 64.9707 15.1836 65.291 15.5234C65.6113 15.8594 66.0625 16.0273 66.6445 16.0273C67.0273 16.0273 67.3828 15.9922 67.7109 15.9219C68.043 15.8477 68.3984 15.7266 68.7773 15.5586V16.6777C68.4414 16.8379 68.1016 16.9512 67.7578 17.0176C67.4141 17.084 67.0215 17.1172 66.5801 17.1172ZM66.3281 11.4453C65.8906 11.4453 65.5391 11.584 65.2734 11.8613C65.0117 12.1387 64.8555 12.543 64.8047 13.0742H67.7461C67.7383 12.5391 67.6094 12.1348 67.3594 11.8613C67.1094 11.584 66.7656 11.4453 66.3281 11.4453ZM73.4941 17.1172C72.4863 17.1172 71.6973 16.8242 71.127 16.2383C70.5605 15.6484 70.2773 14.8379 70.2773 13.8066C70.2773 12.748 70.541 11.916 71.0684 11.3105C71.5957 10.7051 72.3203 10.4023 73.2422 10.4023C74.0977 10.4023 74.7734 10.6621 75.2695 11.1816C75.7656 11.7012 76.0137 12.416 76.0137 13.3262V14.0703H71.6953C71.7148 14.6992 71.8848 15.1836 72.2051 15.5234C72.5254 15.8594 72.9766 16.0273 73.5586 16.0273C73.9414 16.0273 74.2969 15.9922 74.625 15.9219C74.957 15.8477 75.3125 15.7266 75.6914 15.5586V16.6777C75.3555 16.8379 75.0156 16.9512 74.6719 17.0176C74.3281 17.084 73.9355 17.1172 73.4941 17.1172ZM73.2422 11.4453C72.8047 11.4453 72.4531 11.584 72.1875 11.8613C71.9258 12.1387 71.7695 12.543 71.7188 13.0742H74.6602C74.6523 12.5391 74.5234 12.1348 74.2734 11.8613C74.0234 11.584 73.6797 11.4453 73.2422 11.4453ZM86.3613 10.5195V17H84.9785V11.6094H82.0723V17H80.6953V10.5195H86.3613ZM91.623 17.1172C90.8027 17.1172 90.166 16.8223 89.7129 16.2324H89.6309C89.6855 16.7793 89.7129 17.1113 89.7129 17.2285V19.8828H88.3359V10.5195H89.4492C89.4805 10.6406 89.5449 10.9297 89.6426 11.3867H89.7129C90.1426 10.7305 90.7871 10.4023 91.6465 10.4023C92.4551 10.4023 93.084 10.6953 93.5332 11.2812C93.9863 11.8672 94.2129 12.6895 94.2129 13.748C94.2129 14.8066 93.9824 15.6328 93.5215 16.2266C93.0645 16.8203 92.4316 17.1172 91.623 17.1172ZM91.2891 11.5273C90.7422 11.5273 90.3418 11.6875 90.0879 12.0078C89.8379 12.3281 89.7129 12.8398 89.7129 13.543V13.748C89.7129 14.5371 89.8379 15.1094 90.0879 15.4648C90.3379 15.8164 90.7461 15.9922 91.3125 15.9922C91.7891 15.9922 92.1562 15.7969 92.4141 15.4062C92.6719 15.0156 92.8008 14.459 92.8008 13.7363C92.8008 13.0098 92.6719 12.4609 92.4141 12.0898C92.1602 11.7148 91.7852 11.5273 91.2891 11.5273ZM98.6426 17.1172C97.6348 17.1172 96.8457 16.8242 96.2754 16.2383C95.709 15.6484 95.4258 14.8379 95.4258 13.8066C95.4258 12.748 95.6895 11.916 96.2168 11.3105C96.7441 10.7051 97.4688 10.4023 98.3906 10.4023C99.2461 10.4023 99.9219 10.6621 100.418 11.1816C100.914 11.7012 101.162 12.416 101.162 13.3262V14.0703H96.8438C96.8633 14.6992 97.0332 15.1836 97.3535 15.5234C97.6738 15.8594 98.125 16.0273 98.707 16.0273C99.0898 16.0273 99.4453 15.9922 99.7734 15.9219C100.105 15.8477 100.461 15.7266 100.84 15.5586V16.6777C100.504 16.8379 100.164 16.9512 99.8203 17.0176C99.4766 17.084 99.084 17.1172 98.6426 17.1172ZM98.3906 11.4453C97.9531 11.4453 97.6016 11.584 97.3359 11.8613C97.0742 12.1387 96.918 12.543 96.8672 13.0742H99.8086C99.8008 12.5391 99.6719 12.1348 99.4219 11.8613C99.1719 11.584 98.8281 11.4453 98.3906 11.4453ZM108.943 19.291H107.66V17H103.219V19.291H101.947V15.9336H102.475C102.936 15.2734 103.301 14.4766 103.57 13.543C103.844 12.6055 104.006 11.5977 104.057 10.5195H107.994V15.9336H108.943V19.291ZM106.641 15.9336V11.5742H105.246C105.172 12.3789 105.016 13.1719 104.777 13.9531C104.543 14.7344 104.256 15.3945 103.916 15.9336H106.641ZM115.471 17H114.082V11.5977H112.295C112.186 12.9883 112.037 14.0742 111.85 14.8555C111.666 15.6367 111.424 16.207 111.123 16.5664C110.826 16.9258 110.439 17.1055 109.963 17.1055C109.662 17.1055 109.41 17.0625 109.207 16.9766V15.8984C109.352 15.9531 109.496 15.9805 109.641 15.9805C110.039 15.9805 110.352 15.5332 110.578 14.6387C110.809 13.7402 110.988 12.3672 111.117 10.5195H115.471V17ZM123.193 13.748C123.193 14.8066 122.922 15.6328 122.379 16.2266C121.836 16.8203 121.08 17.1172 120.111 17.1172C119.506 17.1172 118.971 16.9805 118.506 16.707C118.041 16.4336 117.684 16.041 117.434 15.5293C117.184 15.0176 117.059 14.4238 117.059 13.748C117.059 12.6973 117.328 11.877 117.867 11.2871C118.406 10.6973 119.166 10.4023 120.146 10.4023C121.084 10.4023 121.826 10.7051 122.373 11.3105C122.92 11.9121 123.193 12.7246 123.193 13.748ZM118.477 13.748C118.477 15.2441 119.029 15.9922 120.135 15.9922C121.229 15.9922 121.775 15.2441 121.775 13.748C121.775 12.2676 121.225 11.5273 120.123 11.5273C119.545 11.5273 119.125 11.7188 118.863 12.1016C118.605 12.4844 118.477 13.0332 118.477 13.748ZM127.975 13.666V10.5195H129.258V13.666L131.754 10.5195H133.207L130.658 13.6543L133.436 17H131.918L129.258 13.7129V17H127.975V13.7129L125.32 17H123.809L126.58 13.6543L124.037 10.5195H125.49L127.975 13.666ZM137.268 17.1172C136.26 17.1172 135.471 16.8242 134.9 16.2383C134.334 15.6484 134.051 14.8379 134.051 13.8066C134.051 12.748 134.314 11.916 134.842 11.3105C135.369 10.7051 136.094 10.4023 137.016 10.4023C137.871 10.4023 138.547 10.6621 139.043 11.1816C139.539 11.7012 139.787 12.416 139.787 13.3262V14.0703H135.469C135.488 14.6992 135.658 15.1836 135.979 15.5234C136.299 15.8594 136.75 16.0273 137.332 16.0273C137.715 16.0273 138.07 15.9922 138.398 15.9219C138.73 15.8477 139.086 15.7266 139.465 15.5586V16.6777C139.129 16.8379 138.789 16.9512 138.445 17.0176C138.102 17.084 137.709 17.1172 137.268 17.1172ZM137.016 11.4453C136.578 11.4453 136.227 11.584 135.961 11.8613C135.699 12.1387 135.543 12.543 135.492 13.0742H138.434C138.426 12.5391 138.297 12.1348 138.047 11.8613C137.797 11.584 137.453 11.4453 137.016 11.4453ZM142.729 10.5195V13.1211H145.781V10.5195H147.158V17H145.781V14.2051H142.729V17H141.352V10.5195H142.729ZM150.451 10.5195V13.8418C150.451 14.2285 150.42 14.7969 150.357 15.5469L153.609 10.5195H155.291V17H153.967V13.7363C153.967 13.5566 153.977 13.2656 153.996 12.8633C154.02 12.4609 154.039 12.168 154.055 11.9844L150.814 17H149.133V10.5195H150.451ZM160.084 17.1172C159.076 17.1172 158.287 16.8242 157.717 16.2383C157.15 15.6484 156.867 14.8379 156.867 13.8066C156.867 12.748 157.131 11.916 157.658 11.3105C158.186 10.7051 158.91 10.4023 159.832 10.4023C160.688 10.4023 161.363 10.6621 161.859 11.1816C162.355 11.7012 162.604 12.416 162.604 13.3262V14.0703H158.285C158.305 14.6992 158.475 15.1836 158.795 15.5234C159.115 15.8594 159.566 16.0273 160.148 16.0273C160.531 16.0273 160.887 15.9922 161.215 15.9219C161.547 15.8477 161.902 15.7266 162.281 15.5586V16.6777C161.945 16.8379 161.605 16.9512 161.262 17.0176C160.918 17.084 160.525 17.1172 160.084 17.1172ZM159.832 11.4453C159.395 11.4453 159.043 11.584 158.777 11.8613C158.516 12.1387 158.359 12.543 158.309 13.0742H161.25C161.242 12.5391 161.113 12.1348 160.863 11.8613C160.613 11.584 160.27 11.4453 159.832 11.4453Z" fill="white"/>
</svg>
