<svg width="35" height="35" viewBox="0 0 35 35" fill="none" xmlns="http://www.w3.org/2000/svg">
<rect width="35" height="35" rx="8" fill="#F7F7F7"/>
<ellipse cx="17.8438" cy="16.4338" rx="11.3438" ry="11.3088" fill="#D8ECFE"/>
<path fill-rule="evenodd" clip-rule="evenodd" d="M17.8438 27.7427C24.1087 27.7427 29.1875 22.6795 29.1875 16.4338C29.1875 10.1881 24.1087 5.125 17.8438 5.125C17.8438 5.125 17.8438 5.125 17.8438 5.125L17.8438 27.7427Z" fill="#C4E2FF"/>
<ellipse cx="18.0394" cy="16.2383" rx="8.01886" ry="7.99418" fill="#B3DAFE"/>
<path fill-rule="evenodd" clip-rule="evenodd" d="M17.8438 24.2312V8.24745C17.9088 8.2459 17.974 8.24512 18.0394 8.24512C22.4681 8.24512 26.0582 11.8242 26.0582 16.2393C26.0582 20.6544 22.4681 24.2335 18.0394 24.2335C17.974 24.2335 17.9088 24.2327 17.8438 24.2312Z" fill="#8AC9FE"/>
<path fill-rule="evenodd" clip-rule="evenodd" d="M13.2188 11.338C12.2706 11.1368 11.3379 11.7421 11.1354 12.69L10.5259 15.5441C10.3125 16.5433 10.7698 17.529 11.594 18.0332L9.93715 25.792L11.4675 26.1168L13.1244 18.3581C14.0833 18.2323 14.9036 17.5178 15.117 16.5185L15.7265 13.6644C15.9289 12.7165 15.3244 11.7849 14.3762 11.5837L13.2188 11.338Z" fill="#E2DEE2"/>
<path fill-rule="evenodd" clip-rule="evenodd" d="M10.7023 25.9545L13.7974 11.4609L14.3759 11.5837C15.324 11.785 15.9286 12.7165 15.7261 13.6644L15.1166 16.5186C14.9033 17.5178 14.0829 18.2323 13.124 18.3581L11.4671 26.1168L10.7023 25.9545Z" fill="#CBC4CC"/>
<path d="M10.8579 19.6094L13.1534 20.0966L11.3622 28.4844C11.2269 29.1181 10.6033 29.5228 9.96941 29.3883C9.33552 29.2537 8.93135 28.6309 9.06668 27.9972L10.8579 19.6094Z" fill="#685E68"/>
<path d="M12.6499 11.2178L13.4151 11.3802L12.5194 15.5746C12.4742 15.7859 12.2664 15.9208 12.0551 15.8759C11.8438 15.8311 11.7091 15.6235 11.7542 15.4122L12.6499 11.2178Z" fill="#B5ADB6"/>
<path d="M14.1802 11.543L14.9454 11.7054L14.0496 15.8998C14.0045 16.1111 13.7967 16.246 13.5854 16.2011C13.3741 16.1563 13.2393 15.9487 13.2844 15.7374L14.1802 11.543Z" fill="#B5ADB6"/>
<path fill-rule="evenodd" clip-rule="evenodd" d="M9.9691 29.3878L12.0054 19.8525L13.153 20.0961L11.3618 28.484C11.2264 29.1176 10.6029 29.5223 9.9691 29.3878Z" fill="#554E56"/>
<path fill-rule="evenodd" clip-rule="evenodd" d="M21.6915 11.6347C21.2712 11.7345 21.0119 12.156 21.1122 12.5762L22.8334 19.7796C22.9338 20.1998 23.3559 20.4595 23.7762 20.3597C24.1965 20.2599 24.4558 19.8384 24.3554 19.4182L22.6343 12.2148C22.5339 11.7946 22.1118 11.5349 21.6915 11.6347ZM22.3806 17.8854L21.1117 12.5745L20.8303 15.7576C20.7425 16.7501 21.4094 17.6589 22.3806 17.8854Z" fill="#E2DEE2"/>
<path fill-rule="evenodd" clip-rule="evenodd" d="M23.7766 20.3607L21.6919 11.6357C22.1122 11.536 22.5342 11.7957 22.6346 12.2158L24.3557 19.4193C24.456 19.8394 24.1968 20.2609 23.7766 20.3607Z" fill="#CBC4CC"/>
<path d="M22.4536 19.873L24.7367 19.3309L26.73 27.6734C26.8806 28.3036 26.4916 28.9359 25.8611 29.0856C25.2306 29.2354 24.5975 28.8458 24.4469 28.2155L22.4536 19.873Z" fill="#685E68"/>
<path fill-rule="evenodd" clip-rule="evenodd" d="M25.8612 29.0862L23.5952 19.6025L24.7369 19.3314L26.7302 27.6739C26.8808 28.3042 26.4918 28.9365 25.8613 29.0862C25.8613 29.0862 25.8612 29.0862 25.8612 29.0862Z" fill="#554E56"/>
</svg>
