<svg width="118" height="24" viewBox="0 0 118 24" fill="none" xmlns="http://www.w3.org/2000/svg">
<rect width="118" height="24" rx="8" fill="#FFECBC"/>
<path d="M30.6152 8.43359C31.7207 8.43359 32.5273 8.66016 33.0352 9.11328C33.543 9.56641 33.7969 10.2012 33.7969 11.0176C33.7969 11.3887 33.7383 11.7422 33.6211 12.0781C33.5078 12.4102 33.3203 12.7051 33.0586 12.9629C32.7969 13.2168 32.4512 13.418 32.0215 13.5664C31.5957 13.7148 31.0703 13.7891 30.4453 13.7891H29.5312V17H28.125V8.43359H30.6152ZM30.5215 9.59961H29.5312V12.6172H30.2988C30.7402 12.6172 31.1152 12.5664 31.4238 12.4648C31.7324 12.3594 31.9668 12.1934 32.127 11.9668C32.2871 11.7402 32.3672 11.4414 32.3672 11.0703C32.3672 10.5742 32.2168 10.2051 31.916 9.96289C31.6191 9.7207 31.1543 9.59961 30.5215 9.59961ZM37.9512 10.3906C38.5293 10.3906 39.0254 10.5098 39.4395 10.748C39.8535 10.9863 40.1719 11.3242 40.3945 11.7617C40.6172 12.1992 40.7285 12.7227 40.7285 13.332V14.0703H36.3984C36.4141 14.6992 36.582 15.1836 36.9023 15.5234C37.2266 15.8633 37.6797 16.0332 38.2617 16.0332C38.6758 16.0332 39.0469 15.9941 39.375 15.916C39.707 15.834 40.0488 15.7148 40.4004 15.5586V16.6777C40.0762 16.8301 39.7461 16.9414 39.4102 17.0117C39.0742 17.082 38.6719 17.1172 38.2031 17.1172C37.5664 17.1172 37.0059 16.9941 36.5215 16.748C36.041 16.498 35.6641 16.127 35.3906 15.6348C35.1211 15.1426 34.9863 14.5312 34.9863 13.8008C34.9863 13.0742 35.1094 12.457 35.3555 11.9492C35.6016 11.4414 35.9473 11.0547 36.3926 10.7891C36.8379 10.5234 37.3574 10.3906 37.9512 10.3906ZM37.9512 11.4277C37.5176 11.4277 37.166 11.5684 36.8965 11.8496C36.6309 12.1309 36.4746 12.543 36.4277 13.0859H39.3809C39.377 12.7617 39.3223 12.4746 39.2168 12.2246C39.1152 11.9746 38.959 11.7793 38.748 11.6387C38.541 11.498 38.2754 11.4277 37.9512 11.4277ZM46.3008 10.5137H47.8184L45.1348 13.6309L48.0469 17H46.459L43.6641 13.707V17H42.2812V10.5137H43.6641V13.6602L46.3008 10.5137ZM54.8438 13.7422C54.8438 14.2812 54.7734 14.7598 54.6328 15.1777C54.4922 15.5957 54.2871 15.9492 54.0176 16.2383C53.748 16.5234 53.4238 16.7422 53.0449 16.8945C52.666 17.043 52.2383 17.1172 51.7617 17.1172C51.3164 17.1172 50.9082 17.043 50.5371 16.8945C50.166 16.7422 49.8438 16.5234 49.5703 16.2383C49.3008 15.9492 49.0918 15.5957 48.9434 15.1777C48.7949 14.7598 48.7207 14.2812 48.7207 13.7422C48.7207 13.0273 48.8438 12.4219 49.0898 11.9258C49.3398 11.4258 49.6953 11.0449 50.1562 10.7832C50.6172 10.5215 51.166 10.3906 51.8027 10.3906C52.4004 10.3906 52.9277 10.5215 53.3848 10.7832C53.8418 11.0449 54.1992 11.4258 54.457 11.9258C54.7148 12.4258 54.8438 13.0312 54.8438 13.7422ZM50.1387 13.7422C50.1387 14.2148 50.1953 14.6191 50.3086 14.9551C50.4258 15.291 50.6055 15.5488 50.8477 15.7285C51.0898 15.9043 51.4023 15.9922 51.7852 15.9922C52.168 15.9922 52.4805 15.9043 52.7227 15.7285C52.9648 15.5488 53.1426 15.291 53.2559 14.9551C53.3691 14.6191 53.4258 14.2148 53.4258 13.7422C53.4258 13.2695 53.3691 12.8691 53.2559 12.541C53.1426 12.209 52.9648 11.957 52.7227 11.7852C52.4805 11.6094 52.166 11.5215 51.7793 11.5215C51.209 11.5215 50.793 11.7129 50.5312 12.0957C50.2695 12.4785 50.1387 13.0273 50.1387 13.7422ZM63.9434 10.5137V17H62.666V13.2969C62.666 13.0547 62.6719 12.8125 62.6836 12.5703C62.6953 12.3281 62.7109 12.0977 62.7305 11.8789H62.6953L60.7207 17H59.6367L57.6797 11.873H57.6387C57.6582 12.0957 57.6719 12.3262 57.6797 12.5645C57.6914 12.8027 57.6973 13.0605 57.6973 13.3379V17H56.4199V10.5137H58.3418L60.1934 15.3594L62.0742 10.5137H63.9434ZM68.4785 10.3906C69.0566 10.3906 69.5527 10.5098 69.9668 10.748C70.3809 10.9863 70.6992 11.3242 70.9219 11.7617C71.1445 12.1992 71.2559 12.7227 71.2559 13.332V14.0703H66.9258C66.9414 14.6992 67.1094 15.1836 67.4297 15.5234C67.7539 15.8633 68.207 16.0332 68.7891 16.0332C69.2031 16.0332 69.5742 15.9941 69.9023 15.916C70.2344 15.834 70.5762 15.7148 70.9277 15.5586V16.6777C70.6035 16.8301 70.2734 16.9414 69.9375 17.0117C69.6016 17.082 69.1992 17.1172 68.7305 17.1172C68.0938 17.1172 67.5332 16.9941 67.0488 16.748C66.5684 16.498 66.1914 16.127 65.918 15.6348C65.6484 15.1426 65.5137 14.5312 65.5137 13.8008C65.5137 13.0742 65.6367 12.457 65.8828 11.9492C66.1289 11.4414 66.4746 11.0547 66.9199 10.7891C67.3652 10.5234 67.8848 10.3906 68.4785 10.3906ZM68.4785 11.4277C68.0449 11.4277 67.6934 11.5684 67.4238 11.8496C67.1582 12.1309 67.002 12.543 66.9551 13.0859H69.9082C69.9043 12.7617 69.8496 12.4746 69.7441 12.2246C69.6426 11.9746 69.4863 11.7793 69.2754 11.6387C69.0684 11.498 68.8027 11.4277 68.4785 11.4277ZM74.1914 10.5137V13.1211H77.2266V10.5137H78.6094V17H77.2266V14.1992H74.1914V17H72.8086V10.5137H74.1914ZM85.875 10.5137V15.9336H86.8125V19.2852H85.541V17H81.0645V19.2852H79.793V15.9336H80.3203C80.6484 15.457 80.9219 14.9258 81.1406 14.3398C81.3633 13.7539 81.5352 13.1367 81.6562 12.4883C81.7812 11.8359 81.8594 11.1777 81.8906 10.5137H85.875ZM84.5098 11.5684H83.0742C83.0273 12.0957 82.9473 12.6211 82.834 13.1445C82.7207 13.6641 82.5742 14.1621 82.3945 14.6387C82.2188 15.1113 82.0078 15.543 81.7617 15.9336H84.5098V11.5684ZM87.041 10.5137H88.541L89.8711 14.2168C89.9297 14.3848 89.9824 14.5508 90.0293 14.7148C90.0801 14.875 90.123 15.0332 90.1582 15.1895C90.1973 15.3457 90.2285 15.502 90.252 15.6582H90.2871C90.3262 15.4551 90.3809 15.2285 90.4512 14.9785C90.5254 14.7246 90.6074 14.4707 90.6973 14.2168L91.9746 10.5137H93.457L90.6738 17.8906C90.5137 18.3125 90.3164 18.6719 90.082 18.9688C89.8516 19.2695 89.5781 19.4961 89.2617 19.6484C88.9453 19.8047 88.584 19.8828 88.1777 19.8828C87.9824 19.8828 87.8125 19.8711 87.668 19.8477C87.5234 19.8281 87.4004 19.8066 87.2988 19.7832V18.6816C87.3809 18.7012 87.4844 18.7188 87.6094 18.7344C87.7344 18.75 87.8633 18.7578 87.9961 18.7578C88.2422 18.7578 88.4551 18.709 88.6348 18.6113C88.8145 18.5137 88.9668 18.375 89.0918 18.1953C89.2168 18.0195 89.3203 17.8184 89.4023 17.5918L89.6309 16.9824L87.041 10.5137ZM97.0254 10.3906C97.6035 10.3906 98.0996 10.5098 98.5137 10.748C98.9277 10.9863 99.2461 11.3242 99.4688 11.7617C99.6914 12.1992 99.8027 12.7227 99.8027 13.332V14.0703H95.4727C95.4883 14.6992 95.6562 15.1836 95.9766 15.5234C96.3008 15.8633 96.7539 16.0332 97.3359 16.0332C97.75 16.0332 98.1211 15.9941 98.4492 15.916C98.7812 15.834 99.123 15.7148 99.4746 15.5586V16.6777C99.1504 16.8301 98.8203 16.9414 98.4844 17.0117C98.1484 17.082 97.7461 17.1172 97.2773 17.1172C96.6406 17.1172 96.0801 16.9941 95.5957 16.748C95.1152 16.498 94.7383 16.127 94.4648 15.6348C94.1953 15.1426 94.0605 14.5312 94.0605 13.8008C94.0605 13.0742 94.1836 12.457 94.4297 11.9492C94.6758 11.4414 95.0215 11.0547 95.4668 10.7891C95.9121 10.5234 96.4316 10.3906 97.0254 10.3906ZM97.0254 11.4277C96.5918 11.4277 96.2402 11.5684 95.9707 11.8496C95.7051 12.1309 95.5488 12.543 95.502 13.0859H98.4551C98.4512 12.7617 98.3965 12.4746 98.291 12.2246C98.1895 11.9746 98.0332 11.7793 97.8223 11.6387C97.6152 11.498 97.3496 11.4277 97.0254 11.4277ZM108.873 10.5137V17H107.596V13.2969C107.596 13.0547 107.602 12.8125 107.613 12.5703C107.625 12.3281 107.641 12.0977 107.66 11.8789H107.625L105.65 17H104.566L102.609 11.873H102.568C102.588 12.0957 102.602 12.3262 102.609 12.5645C102.621 12.8027 102.627 13.0605 102.627 13.3379V17H101.35V10.5137H103.271L105.123 15.3594L107.004 10.5137H108.873Z" fill="#3C3C3C"/>
<path d="M16.0002 18.6663C19.6821 18.6663 22.6668 15.6816 22.6668 11.9997C22.6668 8.31778 19.6821 5.33301 16.0002 5.33301C12.3183 5.33301 9.3335 8.31778 9.3335 11.9997C9.3335 15.6816 12.3183 18.6663 16.0002 18.6663Z" stroke="#3C3C3C" stroke-width="1.2" stroke-linecap="round" stroke-linejoin="round"/>
<path d="M12.6665 10H13.9998" stroke="#3C3C3C" stroke-width="1.2" stroke-linecap="round" stroke-linejoin="round"/>
<path d="M18.6665 10.0335V9.9668" stroke="#3C3C3C" stroke-width="1.2" stroke-linecap="round" stroke-linejoin="round"/>
<path d="M18.6668 14C18.3335 14.6667 17.4735 15.3333 16.0002 15.3333C14.5268 15.3333 13.6668 14.6667 13.3335 14" stroke="#3C3C3C" stroke-width="1.2" stroke-linecap="round" stroke-linejoin="round"/>
</svg>
