<svg width="35" height="35" viewBox="0 0 35 35" fill="none" xmlns="http://www.w3.org/2000/svg">
<rect width="35" height="35" rx="8" fill="#F7F7F7"/>
<path d="M13.9921 5.44306C14.5427 5.2891 15.6533 5.06871 16.0624 5.0322C16.7298 4.9727 18.3462 4.99955 18.9803 5.08074C21.7941 5.44092 24.325 6.66579 26.3014 8.62389C27.3671 9.6798 28.1072 10.7159 28.7524 12.055C29.1043 12.7854 29.5264 13.8697 29.4777 13.9183C29.4661 13.9299 28.9651 14.087 28.3643 14.2675C27.7635 14.4479 27.1983 14.62 27.1084 14.6498C26.9597 14.6991 26.9375 14.6868 26.8638 14.5144C26.1893 12.9358 25.2349 11.4672 24.2222 10.4493C21.9602 8.17576 18.8132 7.32773 15.21 8.02073C13.3063 8.38684 11.4293 9.47315 10.1253 10.9634C9.4541 11.7306 9.45622 11.7098 10.0512 11.6669C10.3236 11.6473 10.9669 11.614 11.4807 11.593C12.3721 11.5565 12.4148 11.5599 12.4148 11.6672C12.4148 11.8069 5.69091 18.9393 5.53463 18.9654C5.44537 18.9804 5.41873 18.9357 5.39317 18.7284C5.36523 18.5014 4.99723 9.46261 5.00002 9.07166C5.00067 8.9855 5.03801 8.90087 5.08303 8.88363C5.13285 8.86455 5.51848 9.18853 6.06644 9.7099L6.96794 10.5676L7.20787 10.2239C8.72993 8.04283 11.3845 6.17221 13.9921 5.44306Z" fill="#A2CC39"/>
<path d="M26.3692 21.4677C26.7604 20.573 27.1051 19.3394 27.1981 18.5015C27.2207 18.2978 27.2425 18.1314 27.2464 18.1318C27.6781 18.174 29.8887 18.367 29.9456 18.3675C30.0525 18.3684 30.0033 18.8927 29.8036 19.8793C29.5921 20.9238 28.9148 22.872 28.763 22.872C28.7353 22.872 28.1632 22.6067 27.4917 22.2826L26.2707 21.6932L26.3692 21.4677Z" fill="#66831E"/>
<path d="M6 22.7151L7.22621 22.1436C8.48174 21.5582 8.54142 21.5343 8.54142 21.6152C8.54142 21.641 8.67766 21.901 8.84414 22.193C9.17627 22.7754 9.77792 23.5928 10.2816 24.1461L10.6053 24.5017L10.3016 24.8276C10.1345 25.0069 9.7074 25.4602 9.35237 25.835L8.70689 26.5165L8.2639 26.0425C7.45574 25.1776 6.6963 24.0935 6.17301 23.0577L6 22.7151Z" fill="#66831E"/>
<path d="M21.4116 26.3616C22.1542 26.0483 23.2472 25.3673 23.8136 24.8651C23.9441 24.7494 24.0538 24.6537 24.0573 24.6523C24.0867 24.6409 25.8598 26.6123 25.8598 26.6564C25.8598 26.7634 25.1225 27.3819 24.4957 27.8005C23.911 28.1911 22.19 29.0944 22.0306 29.0944C21.9907 29.0944 21.9393 29.0477 21.9164 28.9907C21.4394 27.8017 21 26.5789 21.0372 26.5442C21.0638 26.5194 21.2322 26.4372 21.4116 26.3616Z" fill="#66831E"/>
<path d="M12.7728 28.8972C12.8154 28.7938 13.0484 28.2094 13.2906 27.5986C13.5329 26.9878 13.7335 26.4879 13.7365 26.4875C13.7396 26.4872 13.8998 26.5419 14.0924 26.6091C14.8016 26.8565 15.8235 27.0799 16.5614 27.149L17.3192 27.2198V28.61V30.0002L16.652 29.9589C15.4408 29.884 14.6492 29.7284 13.4208 29.3241L12.6953 29.0853L12.7728 28.8972Z" fill="#66831E"/>
</svg>
