<svg width="35" height="35" viewBox="0 0 35 35" fill="none" xmlns="http://www.w3.org/2000/svg">
<rect width="35" height="35" rx="8" fill="#F7F7F7"/>
<path d="M18.0352 16.9648V19.7833H22.4391C22.58 17.6695 21.206 17.0236 20.5013 16.9648H18.0352Z" fill="#D8D5D5"/>
<rect x="18.0352" y="28.5908" width="8.8078" height="1.40925" fill="#3C3C3C"/>
<rect x="22.6152" y="27.1816" width="1.40925" height="1.40925" fill="#3C3C3C"/>
<rect x="12.0469" y="27.1816" width="1.40925" height="1.40925" fill="#737373"/>
<rect x="9.22852" y="28.5908" width="8.8078" height="1.40925" fill="#737373"/>
<path d="M18.0352 22.6016V27.1816H26.843C27.4067 23.7994 24.964 22.719 23.6721 22.6016H18.0352Z" fill="#A2BBFF"/>
<rect x="10.9883" y="16.9648" width="7.04624" height="2.81849" fill="#E7E7E7"/>
<path d="M18.0355 22.6015V27.1815H9.75621L5 5.69051C7.95942 3.85849 9.52133 6.10154 9.93236 7.45207L13.1032 22.6015H18.0355Z" fill="#4872F2"/>
<path d="M20.8535 9.21332V13.0888C21.2763 15.6254 23.9656 16.7293 25.2574 16.9642H25.4336V5.33789H25.2574C22.0161 5.47882 20.971 7.98023 20.8535 9.21332Z" fill="#145087"/>
<path d="M20.8535 9.21332V13.0888C21.2763 15.6254 23.9656 16.7293 25.2574 16.9642H25.4336V5.33789H25.2574C22.0161 5.47882 20.971 7.98023 20.8535 9.21332Z" fill="white" fill-opacity="0.1"/>
<path d="M30.0137 9.21332V13.0888C29.5909 15.6254 26.9016 16.7293 25.6098 16.9642H25.4336V5.33789H25.6098C28.851 5.47882 29.8962 7.98023 30.0137 9.21332Z" fill="#145087"/>
<path d="M22.2637 9.683V12.6189C22.5564 14.5406 24.4182 15.3769 25.3125 15.5549H25.4345V6.74707H25.3125C23.0686 6.85383 22.345 8.74884 22.2637 9.683Z" fill="#4872F2"/>
<path d="M28.6035 9.683V12.6189C28.3108 14.5406 26.449 15.3769 25.5547 15.5549H25.4327V6.74707H25.5547C27.7986 6.85383 28.5222 8.74884 28.6035 9.683Z" fill="#A2BBFF"/>
<path d="M22.2637 9.91788H22.616H24.5537H25.4345V6.74707H25.3125C23.0686 6.85383 22.2637 8.68479 22.2637 9.91788Z" fill="#E7E7E7"/>
<path d="M28.6035 9.91788H27.2163H26.2254H25.4327V6.74707H25.5547C27.7986 6.86011 28.6035 8.68479 28.6035 9.91788Z" fill="#D8D5D5"/>
</svg>
