<svg width="35" height="34" viewBox="0 0 35 34" fill="none" xmlns="http://www.w3.org/2000/svg">
<path d="M17.7285 16.2717V20.1049H23.7179C23.9095 17.23 22.0408 16.3516 21.0825 16.2717H17.7285Z" fill="#D8D5D5"/>
<rect x="17.7285" y="32.0835" width="11.9787" height="1.91659" fill="#3C3C3C"/>
<rect x="23.9567" y="30.1667" width="1.91659" height="1.91659" fill="#3C3C3C"/>
<rect x="9.58569" y="30.1667" width="1.91659" height="1.91659" fill="#737373"/>
<rect x="5.74915" y="32.0835" width="11.9787" height="1.91659" fill="#737373"/>
<path d="M17.7285 23.9385V30.1674H29.7072C30.4738 25.5676 27.1517 24.0982 25.3949 23.9385H17.7285Z" fill="#A2BBFF"/>
<rect x="8.14282" y="16.2717" width="9.58294" height="3.83317" fill="#E7E7E7"/>
<path d="M17.7284 23.9381V30.1671H6.46848L0 0.939095C4.02483 -1.55247 6.14905 1.4981 6.70806 3.33483L11.0204 23.9381H17.7284Z" fill="#4872F2"/>
<path d="M21.5625 5.73131V11.0019C22.1375 14.4518 25.795 15.9531 27.5518 16.2725H27.7914V0.460693H27.5518C23.1437 0.652352 21.7222 4.05429 21.5625 5.73131Z" fill="#145087"/>
<path d="M21.5625 5.73131V11.0019C22.1375 14.4518 25.795 15.9531 27.5518 16.2725H27.7914V0.460693H27.5518C23.1437 0.652352 21.7222 4.05429 21.5625 5.73131Z" fill="white" fill-opacity="0.1"/>
<path d="M34.0188 5.73131V11.0019C33.4438 14.4518 29.7863 15.9531 28.0295 16.2725H27.7899V0.460693H28.0295C32.4376 0.652352 33.8591 4.05429 34.0188 5.73131Z" fill="#145087"/>
<path d="M23.4812 6.37229V10.3652C23.8793 12.9787 26.4114 14.1161 27.6277 14.3581H27.7935V2.37939H27.6277C24.5759 2.52459 23.5918 5.10182 23.4812 6.37229Z" fill="#4872F2"/>
<path d="M32.103 6.37229V10.3652C31.705 12.9787 29.1729 14.1161 27.9566 14.3581H27.7907V2.37939H27.9566C31.0084 2.52459 31.9925 5.10182 32.103 6.37229Z" fill="#A2BBFF"/>
<path d="M23.4812 6.69172H23.9603H26.5957H27.7935V2.37939H27.6277C24.5759 2.52459 23.4812 5.0147 23.4812 6.69172Z" fill="#E7E7E7"/>
<path d="M32.103 6.69172H30.2164H28.8688H27.7907V2.37939H27.9566C31.0084 2.53313 32.103 5.0147 32.103 6.69172Z" fill="#D8D5D5"/>
</svg>
