<svg width="117" height="26" viewBox="0 0 117 26" fill="none" xmlns="http://www.w3.org/2000/svg">
<rect width="117" height="26" rx="8" fill="#DAF0A2"/>
<path d="M28.125 9.43359H30.6738C31.7793 9.43359 32.6133 9.59375 33.1758 9.91406C33.7383 10.2344 34.0195 10.7871 34.0195 11.5723C34.0195 11.9004 33.9609 12.1973 33.8438 12.4629C33.7305 12.7246 33.5645 12.9414 33.3457 13.1133C33.127 13.2812 32.8574 13.3945 32.5371 13.4531V13.5117C32.8691 13.5703 33.1641 13.6738 33.4219 13.8223C33.6836 13.9707 33.8887 14.1836 34.0371 14.4609C34.1895 14.7383 34.2656 15.0977 34.2656 15.5391C34.2656 16.0625 34.1406 16.5078 33.8906 16.875C33.6445 17.2422 33.291 17.5215 32.8301 17.7129C32.373 17.9043 31.8301 18 31.2012 18H28.125V9.43359ZM29.5312 12.9668H30.8789C31.5156 12.9668 31.957 12.8633 32.2031 12.6562C32.4492 12.4492 32.5723 12.1465 32.5723 11.748C32.5723 11.3418 32.4258 11.0488 32.1328 10.8691C31.8438 10.6895 31.3828 10.5996 30.75 10.5996H29.5312V12.9668ZM29.5312 14.1035V16.8223H31.0137C31.6699 16.8223 32.1309 16.6953 32.3965 16.4414C32.6621 16.1875 32.7949 15.8438 32.7949 15.4102C32.7949 15.1445 32.7344 14.9141 32.6133 14.7188C32.4961 14.5234 32.3027 14.373 32.0332 14.2676C31.7637 14.1582 31.4004 14.1035 30.9434 14.1035H29.5312ZM38.4375 11.3906C39.2578 11.3906 39.877 11.5723 40.2949 11.9355C40.7168 12.2988 40.9277 12.8652 40.9277 13.6348V18H39.9492L39.6855 17.0801H39.6387C39.4551 17.3145 39.2656 17.5078 39.0703 17.6602C38.875 17.8125 38.6484 17.9258 38.3906 18C38.1367 18.0781 37.8262 18.1172 37.459 18.1172C37.0723 18.1172 36.7266 18.0469 36.4219 17.9062C36.1172 17.7617 35.877 17.543 35.7012 17.25C35.5254 16.957 35.4375 16.5859 35.4375 16.1367C35.4375 15.4688 35.6855 14.9668 36.1816 14.6309C36.6816 14.2949 37.4355 14.1094 38.4434 14.0742L39.5684 14.0332V13.6934C39.5684 13.2441 39.4629 12.9238 39.252 12.7324C39.0449 12.541 38.752 12.4453 38.373 12.4453C38.0488 12.4453 37.7344 12.4922 37.4297 12.5859C37.125 12.6797 36.8281 12.7949 36.5391 12.9316L36.0938 11.959C36.4102 11.791 36.7695 11.6543 37.1719 11.5488C37.5781 11.4434 38 11.3906 38.4375 11.3906ZM39.5625 14.9004L38.7246 14.9297C38.0371 14.9531 37.5547 15.0703 37.2773 15.2812C37 15.4922 36.8613 15.7812 36.8613 16.1484C36.8613 16.4688 36.957 16.7031 37.1484 16.8516C37.3398 16.9961 37.5918 17.0684 37.9043 17.0684C38.3809 17.0684 38.7754 16.9336 39.0879 16.6641C39.4043 16.3906 39.5625 15.9902 39.5625 15.4629V14.9004ZM52.0371 11.5137V18H42.8555V11.5137H44.2324V16.916H46.752V11.5137H48.1348V16.916H50.6602V11.5137H52.0371ZM56.5547 11.3906C57.375 11.3906 57.9941 11.5723 58.4121 11.9355C58.834 12.2988 59.0449 12.8652 59.0449 13.6348V18H58.0664L57.8027 17.0801H57.7559C57.5723 17.3145 57.3828 17.5078 57.1875 17.6602C56.9922 17.8125 56.7656 17.9258 56.5078 18C56.2539 18.0781 55.9434 18.1172 55.5762 18.1172C55.1895 18.1172 54.8438 18.0469 54.5391 17.9062C54.2344 17.7617 53.9941 17.543 53.8184 17.25C53.6426 16.957 53.5547 16.5859 53.5547 16.1367C53.5547 15.4688 53.8027 14.9668 54.2988 14.6309C54.7988 14.2949 55.5527 14.1094 56.5605 14.0742L57.6855 14.0332V13.6934C57.6855 13.2441 57.5801 12.9238 57.3691 12.7324C57.1621 12.541 56.8691 12.4453 56.4902 12.4453C56.166 12.4453 55.8516 12.4922 55.5469 12.5859C55.2422 12.6797 54.9453 12.7949 54.6562 12.9316L54.2109 11.959C54.5273 11.791 54.8867 11.6543 55.2891 11.5488C55.6953 11.4434 56.1172 11.3906 56.5547 11.3906ZM57.6797 14.9004L56.8418 14.9297C56.1543 14.9531 55.6719 15.0703 55.3945 15.2812C55.1172 15.4922 54.9785 15.7812 54.9785 16.1484C54.9785 16.4688 55.0742 16.7031 55.2656 16.8516C55.457 16.9961 55.709 17.0684 56.0215 17.0684C56.498 17.0684 56.8926 16.9336 57.2051 16.6641C57.5215 16.3906 57.6797 15.9902 57.6797 15.4629V14.9004ZM66.1055 11.3906C66.582 11.3906 67.0098 11.4551 67.3887 11.584C67.7715 11.709 68.0742 11.8984 68.2969 12.1523C68.5195 12.4062 68.6309 12.7227 68.6309 13.1016C68.6309 13.4922 68.5176 13.8047 68.291 14.0391C68.0684 14.2695 67.7656 14.4355 67.3828 14.5371V14.5898C67.6523 14.6562 67.8965 14.752 68.1152 14.877C68.334 14.998 68.5078 15.1621 68.6367 15.3691C68.7695 15.5723 68.8359 15.834 68.8359 16.1543C68.8359 16.5176 68.7285 16.8477 68.5137 17.1445C68.3027 17.4414 67.9785 17.6777 67.541 17.8535C67.1035 18.0293 66.5469 18.1172 65.8711 18.1172C65.5469 18.1172 65.2383 18.0996 64.9453 18.0645C64.6562 18.0332 64.3926 17.9883 64.1543 17.9297C63.916 17.8672 63.709 17.793 63.5332 17.707V16.5234C63.8027 16.6523 64.1289 16.7695 64.5117 16.875C64.8945 16.9766 65.3047 17.0273 65.7422 17.0273C66.0664 17.0273 66.3594 16.998 66.6211 16.9395C66.8867 16.877 67.0957 16.7754 67.248 16.6348C67.4043 16.4941 67.4824 16.3066 67.4824 16.0723C67.4824 15.8574 67.4141 15.6797 67.2773 15.5391C67.1406 15.3984 66.9355 15.2949 66.6621 15.2285C66.3887 15.1582 66.043 15.123 65.625 15.123H64.8516V14.1094H65.5312C66.1055 14.1094 66.5547 14.0469 66.8789 13.9219C67.207 13.793 67.3711 13.5703 67.3711 13.2539C67.3711 12.9883 67.2559 12.7891 67.0254 12.6562C66.7949 12.5234 66.4414 12.457 65.9648 12.457C65.6367 12.457 65.3125 12.4941 64.9922 12.5684C64.6719 12.6387 64.3516 12.7402 64.0312 12.873L63.5977 11.8594C63.9531 11.7148 64.334 11.6016 64.7402 11.5195C65.1465 11.4336 65.6016 11.3906 66.1055 11.3906ZM72.8672 11.3906C73.6875 11.3906 74.3066 11.5723 74.7246 11.9355C75.1465 12.2988 75.3574 12.8652 75.3574 13.6348V18H74.3789L74.1152 17.0801H74.0684C73.8848 17.3145 73.6953 17.5078 73.5 17.6602C73.3047 17.8125 73.0781 17.9258 72.8203 18C72.5664 18.0781 72.2559 18.1172 71.8887 18.1172C71.502 18.1172 71.1562 18.0469 70.8516 17.9062C70.5469 17.7617 70.3066 17.543 70.1309 17.25C69.9551 16.957 69.8672 16.5859 69.8672 16.1367C69.8672 15.4688 70.1152 14.9668 70.6113 14.6309C71.1113 14.2949 71.8652 14.1094 72.873 14.0742L73.998 14.0332V13.6934C73.998 13.2441 73.8926 12.9238 73.6816 12.7324C73.4746 12.541 73.1816 12.4453 72.8027 12.4453C72.4785 12.4453 72.1641 12.4922 71.8594 12.5859C71.5547 12.6797 71.2578 12.7949 70.9688 12.9316L70.5234 11.959C70.8398 11.791 71.1992 11.6543 71.6016 11.5488C72.0078 11.4434 72.4297 11.3906 72.8672 11.3906ZM73.9922 14.9004L73.1543 14.9297C72.4668 14.9531 71.9844 15.0703 71.707 15.2812C71.4297 15.4922 71.291 15.7812 71.291 16.1484C71.291 16.4688 71.3867 16.7031 71.5781 16.8516C71.7695 16.9961 72.0215 17.0684 72.334 17.0684C72.8105 17.0684 73.2051 16.9336 73.5176 16.6641C73.834 16.3906 73.9922 15.9902 73.9922 15.4629V14.9004ZM86.4668 11.5137V16.9395H87.4043V20.2793H86.1094V18H77.2852V11.5137H78.6621V16.916H81.1816V11.5137H82.5645V16.916H85.0898V11.5137H86.4668ZM89.9062 11.5137V14.8242C89.9062 14.9297 89.9023 15.0645 89.8945 15.2285C89.8906 15.3887 89.8828 15.5566 89.8711 15.7324C89.8594 15.9043 89.8477 16.0625 89.8359 16.207C89.8242 16.3516 89.8145 16.459 89.8066 16.5293L93.0703 11.5137H94.7461V18H93.4277V14.7246C93.4277 14.5527 93.4316 14.3535 93.4395 14.127C93.4512 13.9004 93.4629 13.6816 93.4746 13.4707C93.4902 13.2598 93.5 13.0996 93.5039 12.9902L90.252 18H88.582V11.5137H89.9062ZM101.625 12.5977H99.4922V18H98.1211V12.5977H96V11.5137H101.625V12.5977ZM105.422 11.3906C106.242 11.3906 106.861 11.5723 107.279 11.9355C107.701 12.2988 107.912 12.8652 107.912 13.6348V18H106.934L106.67 17.0801H106.623C106.439 17.3145 106.25 17.5078 106.055 17.6602C105.859 17.8125 105.633 17.9258 105.375 18C105.121 18.0781 104.811 18.1172 104.443 18.1172C104.057 18.1172 103.711 18.0469 103.406 17.9062C103.102 17.7617 102.861 17.543 102.686 17.25C102.51 16.957 102.422 16.5859 102.422 16.1367C102.422 15.4688 102.67 14.9668 103.166 14.6309C103.666 14.2949 104.42 14.1094 105.428 14.0742L106.553 14.0332V13.6934C106.553 13.2441 106.447 12.9238 106.236 12.7324C106.029 12.541 105.736 12.4453 105.357 12.4453C105.033 12.4453 104.719 12.4922 104.414 12.5859C104.109 12.6797 103.812 12.7949 103.523 12.9316L103.078 11.959C103.395 11.791 103.754 11.6543 104.156 11.5488C104.562 11.4434 104.984 11.3906 105.422 11.3906ZM106.547 14.9004L105.709 14.9297C105.021 14.9531 104.539 15.0703 104.262 15.2812C103.984 15.4922 103.846 15.7812 103.846 16.1484C103.846 16.4688 103.941 16.7031 104.133 16.8516C104.324 16.9961 104.576 17.0684 104.889 17.0684C105.365 17.0684 105.76 16.9336 106.072 16.6641C106.389 16.3906 106.547 15.9902 106.547 15.4629V14.9004Z" fill="#3C3C3C"/>
<path d="M16.7647 19.131L17.8781 18.3523C19.3014 17.3559 20.4031 15.9658 21.0482 14.3525C21.6932 12.7392 21.8535 10.9727 21.5094 9.26967C21.4924 9.18575 21.4563 9.10686 21.404 9.03912C21.3516 8.97137 21.2843 8.91659 21.2074 8.87901L16.0001 6.33301L10.7934 8.87901C10.7163 8.91651 10.6489 8.97126 10.5964 9.03901C10.544 9.10676 10.5078 9.18569 10.4907 9.26967C10.1467 10.9728 10.3071 12.7393 10.9522 14.3526C11.5974 15.966 12.6992 17.356 14.1227 18.3523L15.2361 19.131C15.4601 19.2878 15.7269 19.3718 16.0004 19.3718C16.2738 19.3718 16.5407 19.2878 16.7647 19.131V19.131Z" stroke="#3C3C3C" stroke-width="1.2" stroke-linecap="round" stroke-linejoin="round"/>
</svg>
