<svg width="24" height="24" viewBox="0 0 24 24" fill="none" xmlns="http://www.w3.org/2000/svg">
<path d="M7.20711 14.0605L6.70711 13.5605H18V14.0605H7.20711Z" fill="#4872F2" stroke="#4872F2"/>
<path d="M7.40657 13.5605L9.88488 16.0321L9.5318 16.3852L6.70711 13.5605H7.40657Z" fill="#4872F2" stroke="#4872F2"/>
<path d="M16.7929 9.93916L17.2929 10.4392H6V9.93916H16.7929Z" fill="#4872F2" stroke="#4872F2"/>
<path d="M16.5934 10.4392L14.1151 7.96754L14.4682 7.61446L17.2929 10.4392H16.5934Z" fill="#4872F2" stroke="#4872F2"/>
<path d="M12 23.25C18.2132 23.25 23.25 18.2132 23.25 12C23.25 5.7868 18.2132 0.75 12 0.75C5.7868 0.75 0.75 5.7868 0.75 12C0.75 18.2132 5.7868 23.25 12 23.25Z" stroke="#4872F2" stroke-width="1.5"/>
</svg>
