<svg width="27" height="26" viewBox="0 0 27 26" fill="none" xmlns="http://www.w3.org/2000/svg">
<path d="M7.20711 16.0605L6.70711 15.5605H18V16.0605H7.20711Z" fill="#FFB800" stroke="#FFB800"/>
<path d="M7.40657 15.5605L9.88488 18.0321L9.5318 18.3852L6.70711 15.5605H7.40657Z" stroke="#FFB800"/>
<path d="M16.7929 11.9392L17.2929 12.4392H6V11.9392H16.7929Z" fill="#FFB800" stroke="#FFB800"/>
<path d="M16.5934 12.4392L14.1151 9.96755L14.4682 9.61447L17.2929 12.4392H16.5934Z" stroke="#FFB800"/>
<path d="M12 25.25C18.2132 25.25 23.25 20.2132 23.25 14C23.25 7.7868 18.2132 2.75 12 2.75C5.7868 2.75 0.75 7.7868 0.75 14C0.75 20.2132 5.7868 25.25 12 25.25Z" stroke="#FFB800" stroke-width="1.5"/>
<path d="M21.5 11C24.5376 11 27 8.53757 27 5.5C27 2.46243 24.5376 0 21.5 0C18.4624 0 16 2.46243 16 5.5C16 8.53757 18.4624 11 21.5 11Z" fill="#4872F2"/>
<path d="M20.6529 9V7.66667H20V7.02941H20.6529V6.15686H20V5.41176H20.6529V2H22.0638C22.7192 2 23.2045 2.1732 23.5197 2.51961C23.8399 2.86601 24 3.36928 24 4.02941C24 4.69608 23.8274 5.21895 23.4822 5.59804C23.137 5.97059 22.6291 6.15686 21.9587 6.15686H21.3283V7.02941H22.5666V7.66667H21.3283V9H20.6529ZM21.8612 5.41176C22.3164 5.41176 22.6692 5.31373 22.9193 5.11765C23.1745 4.92157 23.3021 4.56863 23.3021 4.05882C23.3021 3.61438 23.197 3.28431 22.9869 3.06863C22.7767 2.85294 22.449 2.7451 22.0038 2.7451H21.3283V5.41176H21.8612Z" fill="white"/>
</svg>
