<svg width="24" height="26" viewBox="0 0 24 26" fill="none" xmlns="http://www.w3.org/2000/svg">
<path d="M7.20711 15.0605L6.70711 14.5605H18V15.0605H7.20711Z" fill="#B9B9B9" stroke="#B9B9B9"/>
<path d="M7.40657 14.5605L9.88488 17.0321L9.5318 17.3852L6.70711 14.5605H7.40657Z" stroke="#B9B9B9"/>
<path d="M16.7929 10.9391L17.2929 11.4391H6V10.9391H16.7929Z" fill="#B9B9B9" stroke="#B9B9B9"/>
<path d="M16.5934 11.4391L14.1151 8.96753L14.4682 8.61446L17.2929 11.4391H16.5934Z" stroke="#B9B9B9"/>
<path d="M12 24.25C18.2132 24.25 23.25 19.2132 23.25 13C23.25 6.7868 18.2132 1.75 12 1.75C5.7868 1.75 0.75 6.7868 0.75 13C0.75 19.2132 5.7868 24.25 12 24.25Z" stroke="#B9B9B9" stroke-width="1.5"/>
<path d="M0.541981 1.48158L22.6611 24.6061" stroke="#B9B9B9" stroke-width="1.5"/>
</svg>