<svg width="24" height="24" viewBox="0 0 24 24" fill="none" xmlns="http://www.w3.org/2000/svg">
<path d="M2.39713 10.9562C3.35052 6.15555 7.59266 2.52344 12.6705 2.52344C18.4471 2.52344 23.147 7.22336 23.147 12.9999C23.147 18.7765 18.4471 23.4764 12.6705 23.4764V21.8646C17.5582 21.8646 21.5353 17.8876 21.5353 12.9999C21.5353 8.1122 17.5582 4.13519 12.6705 4.13519C8.24624 4.13519 4.58029 7.39577 3.92109 11.638L3.756 12.8802L2.78388 13.3813L2.22266 12.5595L2.39713 10.9562Z" fill="#B9B9B9"/>
<path d="M3.05623 11.9788L2.50006 14.042L6.83013 11.542L6.07577 10.2355L3.05623 11.9788Z" fill="#B9B9B9"/>
<path d="M3.05657 11.9887L2.50006 14.042L0 9.71191L1.30656 8.95757L3.05657 11.9887Z" fill="#B9B9B9"/>
<path d="M2.54198 1.48158L23.2787 23.1608" stroke="#B9B9B9" stroke-width="1.5"/>
</svg>
