<svg width="24" height="24" viewBox="0 0 24 24" fill="none" xmlns="http://www.w3.org/2000/svg">
<g clip-path="url(#clip0)">
<path d="M3.25016 9.9562C4.20355 5.15555 8.44569 1.52344 13.5236 1.52344C19.3001 1.52344 24 6.22336 24 11.9999C24 17.7765 19.3001 22.4764 13.5236 22.4764V20.8646C18.4113 20.8646 22.3883 16.8876 22.3883 11.9999C22.3883 7.1122 18.4113 3.13519 13.5236 3.13519C9.09927 3.13519 5.43332 6.39577 4.77411 10.638L4.60903 11.8802L3.63691 12.3813L3.07568 11.5595L3.25016 9.9562Z" fill="#4872F2"/>
<path d="M3.90926 10.9788L3.35309 13.042L7.68315 10.542L6.9288 9.23546L3.90926 10.9788Z" fill="#4872F2"/>
<path d="M3.9096 10.9887L3.35309 13.042L0.853027 8.71191L2.15959 7.95757L3.9096 10.9887Z" fill="#4872F2"/>
</g>
<defs>
<clipPath id="clip0">
<rect width="24" height="24" fill="white"/>
</clipPath>
</defs>
</svg>