<svg width="27" height="26" viewBox="0 0 27 26" fill="none" xmlns="http://www.w3.org/2000/svg">
<path d="M3.25016 11.9562C4.20355 7.15555 8.44569 3.52344 13.5236 3.52344C19.3001 3.52344 24 8.22336 24 13.9999C24 19.7765 19.3001 24.4764 13.5236 24.4764V22.8646C18.4113 22.8646 22.3883 18.8876 22.3883 13.9999C22.3883 9.1122 18.4113 5.13519 13.5236 5.13519C9.09927 5.13519 5.43332 8.39577 4.77411 12.638L4.60903 13.8802L3.63691 14.3813L3.07568 13.5595L3.25016 11.9562Z" fill="#FFB800"/>
<path d="M3.90926 12.9788L3.35309 15.042L7.68315 12.542L6.9288 11.2355L3.90926 12.9788Z" fill="#FFB800"/>
<path d="M3.9096 12.9887L3.35309 15.042L0.853027 10.7119L2.15959 9.95757L3.9096 12.9887Z" fill="#FFB800"/>
<path d="M21.5 11C24.5376 11 27 8.53757 27 5.5C27 2.46243 24.5376 0 21.5 0C18.4624 0 16 2.46243 16 5.5C16 8.53757 18.4624 11 21.5 11Z" fill="#4872F2"/>
<path d="M20.6529 9V7.66667H20V7.02941H20.6529V6.15686H20V5.41176H20.6529V2H22.0638C22.7192 2 23.2045 2.1732 23.5197 2.51961C23.8399 2.86601 24 3.36928 24 4.02941C24 4.69608 23.8274 5.21895 23.4822 5.59804C23.137 5.97059 22.6291 6.15686 21.9587 6.15686H21.3283V7.02941H22.5666V7.66667H21.3283V9H20.6529ZM21.8612 5.41176C22.3164 5.41176 22.6692 5.31373 22.9193 5.11765C23.1745 4.92157 23.3021 4.56863 23.3021 4.05882C23.3021 3.61438 23.197 3.28431 22.9869 3.06863C22.7767 2.85294 22.449 2.7451 22.0038 2.7451H21.3283V5.41176H21.8612Z" fill="white"/>
</svg>
