<svg width="26" height="26" viewBox="0 0 26 26" fill="none" xmlns="http://www.w3.org/2000/svg">
<circle cx="13" cy="13" r="13" fill="#EDF1FE"/>
<path d="M19.7466 8.90967H5.96464C5.54238 8.90967 5.20007 9.24882 5.20007 9.66719V18.3087C5.20007 18.7271 5.54238 19.0663 5.96464 19.0663H19.7466C20.1689 19.0663 20.5112 18.7271 20.5112 18.3087V9.66719C20.5112 9.24882 20.1689 8.90967 19.7466 8.90967Z" stroke="#4872F2" stroke-linecap="round" stroke-linejoin="round"/>
<path d="M11.3789 6.93311H14.3322C14.535 6.93311 14.7295 7.01292 14.8729 7.15498C15.0162 7.29705 15.0968 7.48972 15.0968 7.69063V8.90981H10.6111V7.69063C10.6111 7.59088 10.631 7.49211 10.6696 7.39999C10.7082 7.30787 10.7648 7.22422 10.8362 7.15383C10.9075 7.08345 10.9922 7.02772 11.0853 6.98984C11.1785 6.95196 11.2783 6.93268 11.3789 6.93311V6.93311Z" stroke="#4872F2" stroke-linecap="round" stroke-linejoin="round"/>
<path d="M17.6068 19.0663V8.90967" stroke="#4872F2" stroke-linecap="round" stroke-linejoin="round"/>
<path d="M8.10388 8.90967V19.0663" stroke="#4872F2" stroke-linecap="round" stroke-linejoin="round"/>
</svg>
