<svg width="40" height="40" viewBox="0 0 40 40" fill="none" xmlns="http://www.w3.org/2000/svg">
  <path d="M37.6 40C38.9255 40 40.0075 38.9245 39.928 37.6014C39.6617 33.1688 38.6588 28.8056 36.9552 24.6927C34.945 19.8396 31.9986 15.4301 28.2843 11.7157C24.5699 8.00138 20.1604 5.05501 15.3073 3.04482C11.1944 1.34119 6.83123 0.338256 2.39859 0.0719775C1.07549 -0.00750356 0 1.07452 0 2.4C0 3.72548 1.07577 4.79148 2.39817 4.88179C6.20004 5.14141 9.94001 6.01708 13.4705 7.47944C17.7411 9.2484 21.6215 11.8412 24.8902 15.1098C28.1588 18.3785 30.7516 22.2589 32.5206 26.5295C33.9829 30.06 34.8586 33.8 35.1182 37.6018C35.2085 38.9242 36.2745 40 37.6 40Z" fill="#A3B5F1"/>
</svg>