<svg width="50" height="24" viewBox="0 0 50 24" fill="none" xmlns="http://www.w3.org/2000/svg">
<path d="M26.7932 8.28739C26.3628 8.72688 26.3628 9.43944 26.7932 9.87894C27.2235 10.3184 27.9213 10.3184 28.3517 9.87894L36.1444 1.92117C36.5748 1.48168 36.5748 0.769117 36.1444 0.329621C35.7141 -0.109874 35.0163 -0.109874 34.5859 0.329621L26.7932 8.28739Z" fill="#FFCD00"/>
<path d="M26.7932 1.39159C26.3628 1.83108 26.3628 2.54364 26.7932 2.98314C27.2235 3.42263 27.9213 3.42263 28.3517 2.98314L29.3907 1.9221C29.8211 1.48261 29.8211 0.770046 29.3907 0.33055C28.9603 -0.108945 28.2626 -0.108945 27.8322 0.330551L26.7932 1.39159Z" fill="#FFCD00"/>
<path d="M35.886 12.7963C35.4555 13.2357 35.4555 13.9482 35.886 14.3876C36.3164 14.8271 37.0143 14.8271 37.4447 14.3876L49.6549 1.92222C50.0854 1.48278 50.0854 0.770311 49.6549 0.330872C49.2245 -0.108567 48.5266 -0.108568 48.0962 0.330871L35.886 12.7963Z" fill="#FFCD00"/>
<path d="M31.989 9.87885C31.5586 10.3183 31.5586 11.0308 31.989 11.4702C32.4194 11.9096 33.1173 11.9096 33.5478 11.4702L42.9002 1.92222C43.3307 1.48279 43.3307 0.770321 42.9002 0.330885C42.4698 -0.108551 41.7719 -0.108551 41.3415 0.330885L31.989 9.87885Z" fill="#FFCD00"/>
<path d="M38.7437 18.366C38.3132 17.9266 38.3132 17.2141 38.7437 16.7747L48.0962 7.2267C48.5266 6.78726 49.2245 6.78726 49.6549 7.2267C50.0854 7.66613 50.0854 8.3786 49.6549 8.81804L40.3024 18.366C39.872 18.8054 39.1741 18.8054 38.7437 18.366Z" fill="#FFCD00"/>
<path d="M47.057 23.6704C46.6266 23.231 46.6266 22.5185 47.057 22.0791L48.0962 21.0182C48.5266 20.5787 49.2245 20.5787 49.655 21.0182C50.0854 21.4576 50.0854 22.1701 49.655 22.6095L48.6158 23.6704C48.1854 24.1098 47.4875 24.1098 47.057 23.6704Z" fill="#FFCD00"/>
<path d="M40.3024 23.6704C39.872 23.231 39.872 22.5185 40.3024 22.0791L48.0962 14.1224C48.5267 13.683 49.2246 13.683 49.655 14.1224C50.0854 14.5618 50.0854 15.2743 49.655 15.7137L41.8612 23.6704C41.4308 24.1099 40.7329 24.1099 40.3024 23.6704Z" fill="#FFCD00"/>
<path d="M35.5234 24C36.4959 24.0019 37.2603 23.1736 37.1009 22.1936C36.349 17.5701 32.7681 13.9143 28.2396 13.1466C27.2797 12.9838 26.4684 13.7643 26.4702 14.7571L26.4702 22.1877C26.4721 23.1805 27.2729 23.9981 28.2454 24H35.5234Z" fill="#FFCD00"/>
<path fill-rule="evenodd" clip-rule="evenodd" d="M11.345 11.114C11.6083 10.9053 11.7663 10.7272 11.7663 10.4408C11.7663 10.1004 11.4879 9.89172 11.1493 9.89172C10.8109 9.89172 10.5701 10.0851 10.5701 10.4487C10.5701 10.7583 10.7733 10.9827 10.9538 11.1603L11.0967 11.2998L11.345 11.114ZM12.2102 13.5977L10.9086 12.2128L10.6905 12.3597C10.3671 12.5842 10.209 12.8628 10.209 13.211C10.209 13.7679 10.6078 14.0619 11.1795 14.0619C11.5858 14.0619 11.932 13.907 12.2102 13.5977ZM13.3465 12.0659C13.5958 12.0659 13.7882 12.2952 13.722 12.5424C13.6198 12.9239 13.4645 13.2824 13.2563 13.5899L13.6669 14.0203C13.8098 14.1701 13.8096 14.4101 13.6664 14.5596C13.5198 14.7128 13.2796 14.7128 13.133 14.5596L12.7422 14.151L12.6466 14.2399C12.2179 14.6113 11.6987 14.8125 11.1493 14.8125C10.1034 14.8125 9.36625 14.2631 9.36625 13.2342C9.36625 12.4758 9.84014 12.0427 10.2917 11.7409L10.391 11.676L10.2917 11.5553C9.96814 11.1604 9.78759 10.8975 9.78759 10.4334C9.78759 9.71382 10.3142 9.1875 11.1267 9.1875C11.932 9.1875 12.5488 9.6517 12.5488 10.4176C12.5488 11.0134 12.15 11.3616 11.5481 11.795L12.6918 13.0098C12.7946 12.8336 12.872 12.6277 12.928 12.4137C12.9799 12.2156 13.1469 12.0659 13.3465 12.0659Z" fill="#E73C3E"/>
<path fill-rule="evenodd" clip-rule="evenodd" d="M0.183653 1.3125C0.183653 0.587626 0.75922 0 1.46922 0H5.14226C5.75083 0 6.24417 0.50368 6.24417 1.125C6.24417 1.74632 5.75083 2.25 5.14226 2.25H2.93843C2.63415 2.25 2.38748 2.50184 2.38748 2.8125V4.12458C2.38748 4.43524 2.63415 4.68708 2.93843 4.68708H4.88917C5.39643 4.68708 5.80764 5.10691 5.80764 5.62479C5.80764 6.14267 5.39643 6.5625 4.88917 6.5625H2.93843C2.63415 6.5625 2.38748 6.81434 2.38748 7.125L2.38748 9.75C2.38748 10.3713 1.89413 10.875 1.28556 10.875C0.676995 10.875 0.183652 10.3713 0.183652 9.75L0.183653 1.3125Z" fill="#E73C3E"/>
<path fill-rule="evenodd" clip-rule="evenodd" d="M8.63164 0C9.24021 0 9.73355 0.50368 9.73355 1.125V4.125C9.73355 4.95343 10.2845 5.8125 11.2028 5.8125C12.121 5.8125 12.672 4.95343 12.672 4.125V1.125C12.672 0.50368 13.1653 0 13.7739 0C14.3825 0 14.8758 0.50368 14.8758 1.125V4.125C14.8758 6.19607 13.2313 7.6875 11.2028 7.6875C9.1742 7.6875 7.52972 6.19607 7.52972 4.125V1.125C7.52972 0.50368 8.02307 0 8.63164 0Z" fill="#E73C3E"/>
<path fill-rule="evenodd" clip-rule="evenodd" d="M16.1614 1.125C16.1614 0.50368 16.6547 0 17.2633 0H17.2887C17.6861 0 18.0527 0.218437 18.2481 0.571672L21.3035 6.09375C21.3035 6.09375 21.3036 3.28224 21.3036 1.12484C21.3036 0.503522 21.797 0 22.4056 0C23.0141 0 23.5075 0.50368 23.5075 1.125V9.75C23.5075 10.3713 23.0141 10.875 22.4056 10.875H22.3799C21.9826 10.875 21.616 10.6566 21.4205 10.3033L18.3651 4.78125C18.3651 4.78125 18.3652 7.51104 18.3652 9.75032C18.3652 10.3716 17.8719 10.875 17.2633 10.875C16.6547 10.875 16.1614 10.3713 16.1614 9.75V1.125Z" fill="#E73C3E"/>
<path fill-rule="evenodd" clip-rule="evenodd" d="M16.1614 14.25C16.1614 13.6287 16.6547 13.125 17.2633 13.125H17.2887C17.6861 13.125 18.0527 13.3434 18.2481 13.6967L21.3035 19.2188C21.3035 19.2188 21.3036 16.4072 21.3036 14.2498C21.3036 13.6285 21.797 13.125 22.4056 13.125C23.0141 13.125 23.5075 13.6287 23.5075 14.25V22.875C23.5075 23.4963 23.0141 24 22.4056 24H22.3799C21.9826 24 21.616 23.7816 21.4205 23.4283L18.3651 17.9062C18.3651 17.9062 18.3652 20.636 18.3652 22.8753C18.3652 23.4966 17.8719 24 17.2633 24C16.6547 24 16.1614 23.4963 16.1614 22.875V14.25Z" fill="#E73C3E"/>
<path fill-rule="evenodd" clip-rule="evenodd" d="M8.63209 16.3125C9.24066 16.3125 9.73401 16.8162 9.73401 17.4375V20.4375C9.73401 21.2659 10.285 22.125 11.2032 22.125C12.1215 22.125 12.6724 21.2659 12.6724 20.4375V17.4375C12.6724 16.8162 13.1658 16.3125 13.7744 16.3125C14.3829 16.3125 14.8763 16.8162 14.8763 17.4375V20.4375C14.8763 22.5086 13.2318 24 11.2032 24C9.17466 24 7.53018 22.5086 7.53018 20.4375V17.4375C7.53018 16.8162 8.02353 16.3125 8.63209 16.3125Z" fill="#E73C3E"/>
<path d="M6.61147 20.9177C6.61147 21.8728 6.28078 22.6252 5.61941 23.1751C4.96265 23.725 4.0469 24 2.87214 24C2.0137 24 1.23382 23.8665 0.532514 23.5994C0.198994 23.4724 0 23.1337 0 22.7702C0 22.0724 0.705576 21.6152 1.35437 21.8349C1.4879 21.8801 1.61457 21.9193 1.73438 21.9523C2.21076 22.0826 2.56699 22.1105 2.96011 22.1105C3.43186 22.1105 3.79262 22.0164 4.04237 21.8283C4.29674 21.6402 4.42393 21.3604 4.42393 20.989C4.42393 20.7815 4.36843 20.5982 4.25743 20.4391C4.14643 20.2751 3.98224 20.1183 3.76487 19.9688C3.55212 19.8192 3.19358 19.6177 2.5322 19.2897C1.91245 18.9858 1.44763 18.6939 1.13776 18.4142C0.82788 18.1344 0.580441 17.8088 0.39544 17.4374C0.210439 17.066 0.117938 16.6318 0.117938 16.135C0.117938 15.1992 0.420877 14.4636 1.02676 13.9281C1.63726 13.3927 2.47901 13.125 3.55202 13.125C4.07927 13.125 4.58109 13.1901 5.05747 13.3204C5.27555 13.3794 5.49792 13.4494 5.72456 13.5302C6.19922 13.6996 6.41257 14.2481 6.22335 14.7237C6.02837 15.2138 5.4813 15.4393 4.99008 15.2711C4.81996 15.2128 4.66436 15.1655 4.52327 15.1292C4.17177 15.0376 3.92347 15 3.58121 15C3.17421 15 2.86202 15.0989 2.64465 15.2967C2.42727 15.4944 2.31858 15.7525 2.31858 16.0709C2.31858 16.2686 2.36252 16.4423 2.4504 16.5918C2.53827 16.7365 2.67702 16.8788 2.86665 17.0187C3.0609 17.1538 3.41789 17.3916 4.13477 17.7485C5.0829 18.2212 5.73272 18.6964 6.08422 19.1739C6.43572 19.6466 6.61147 20.2279 6.61147 20.9177Z" fill="#E73C3E"/>
</svg>