<svg width="107" height="26" viewBox="0 0 107 26" fill="none" xmlns="http://www.w3.org/2000/svg">
<rect width="107" height="26" rx="8" fill="#FFECBC"/>
<path d="M34.4473 18H32.8477L30.6914 14.4902L28.5234 18H27.0176L29.8652 13.5586L27.2109 9.43359H28.7637L30.7559 12.6797L32.7363 9.43359H34.2422L31.5762 13.5996L34.4473 18ZM36.7852 11.5137V14.8242C36.7852 14.9297 36.7812 15.0645 36.7734 15.2285C36.7695 15.3887 36.7617 15.5566 36.75 15.7324C36.7383 15.9043 36.7266 16.0625 36.7148 16.207C36.7031 16.3516 36.6934 16.459 36.6855 16.5293L39.9492 11.5137H41.625V18H40.3066V14.7246C40.3066 14.5527 40.3105 14.3535 40.3184 14.127C40.3301 13.9004 40.3418 13.6816 40.3535 13.4707C40.3691 13.2598 40.3789 13.0996 40.3828 12.9902L37.1309 18H35.4609V11.5137H36.7852ZM48.5039 12.5977H46.3711V18H45V12.5977H42.8789V11.5137H48.5039V12.5977ZM58.541 11.5137V18H57.1523V12.6035H54.2578V18H52.875V11.5137H58.541ZM63.8438 11.3906C64.6133 11.3906 65.2305 11.6719 65.6953 12.2344C66.1641 12.7969 66.3984 13.6328 66.3984 14.7422C66.3984 15.4766 66.2891 16.0957 66.0703 16.5996C65.8555 17.0996 65.5527 17.4785 65.1621 17.7363C64.7754 17.9902 64.3242 18.1172 63.8086 18.1172C63.4805 18.1172 63.1953 18.0742 62.9531 17.9883C62.7109 17.9023 62.5039 17.791 62.332 17.6543C62.1602 17.5137 62.0156 17.3613 61.8984 17.1973H61.8164C61.8359 17.3535 61.8535 17.5273 61.8691 17.7188C61.8887 17.9062 61.8984 18.0781 61.8984 18.2344V20.877H60.5156V11.5137H61.6406L61.834 12.4102H61.8984C62.0195 12.2266 62.166 12.0566 62.3379 11.9004C62.5137 11.7441 62.7246 11.6211 62.9707 11.5312C63.2207 11.4375 63.5117 11.3906 63.8438 11.3906ZM63.4746 12.5156C63.0957 12.5156 62.791 12.5918 62.5605 12.7441C62.334 12.8926 62.168 13.1172 62.0625 13.418C61.9609 13.7188 61.9062 14.0957 61.8984 14.5488V14.7422C61.8984 15.2227 61.9473 15.6309 62.0449 15.9668C62.1465 16.2988 62.3125 16.5527 62.543 16.7285C62.7773 16.9004 63.0938 16.9863 63.4922 16.9863C63.8281 16.9863 64.1055 16.8945 64.3242 16.7109C64.5469 16.5273 64.7129 16.2656 64.8223 15.9258C64.9316 15.5859 64.9863 15.1855 64.9863 14.7246C64.9863 14.0254 64.8613 13.4824 64.6113 13.0957C64.3652 12.709 63.9863 12.5156 63.4746 12.5156ZM73.7344 14.7422C73.7344 15.2812 73.6641 15.7598 73.5234 16.1777C73.3828 16.5957 73.1777 16.9492 72.9082 17.2383C72.6387 17.5234 72.3145 17.7422 71.9355 17.8945C71.5566 18.043 71.1289 18.1172 70.6523 18.1172C70.207 18.1172 69.7988 18.043 69.4277 17.8945C69.0566 17.7422 68.7344 17.5234 68.4609 17.2383C68.1914 16.9492 67.9824 16.5957 67.834 16.1777C67.6855 15.7598 67.6113 15.2812 67.6113 14.7422C67.6113 14.0273 67.7344 13.4219 67.9805 12.9258C68.2305 12.4258 68.5859 12.0449 69.0469 11.7832C69.5078 11.5215 70.0566 11.3906 70.6934 11.3906C71.291 11.3906 71.8184 11.5215 72.2754 11.7832C72.7324 12.0449 73.0898 12.4258 73.3477 12.9258C73.6055 13.4258 73.7344 14.0312 73.7344 14.7422ZM69.0293 14.7422C69.0293 15.2148 69.0859 15.6191 69.1992 15.9551C69.3164 16.291 69.4961 16.5488 69.7383 16.7285C69.9805 16.9043 70.293 16.9922 70.6758 16.9922C71.0586 16.9922 71.3711 16.9043 71.6133 16.7285C71.8555 16.5488 72.0332 16.291 72.1465 15.9551C72.2598 15.6191 72.3164 15.2148 72.3164 14.7422C72.3164 14.2695 72.2598 13.8691 72.1465 13.541C72.0332 13.209 71.8555 12.957 71.6133 12.7852C71.3711 12.6094 71.0566 12.5215 70.6699 12.5215C70.0996 12.5215 69.6836 12.7129 69.4219 13.0957C69.1602 13.4785 69.0293 14.0273 69.0293 14.7422ZM80.6133 11.5137V16.9336H81.5508V20.2852H80.2793V18H75.8027V20.2852H74.5312V16.9336H75.0586C75.3867 16.457 75.6602 15.9258 75.8789 15.3398C76.1016 14.7539 76.2734 14.1367 76.3945 13.4883C76.5195 12.8359 76.5977 12.1777 76.6289 11.5137H80.6133ZM79.248 12.5684H77.8125C77.7656 13.0957 77.6855 13.6211 77.5723 14.1445C77.459 14.6641 77.3125 15.1621 77.1328 15.6387C76.957 16.1113 76.7461 16.543 76.5 16.9336H79.248V12.5684ZM85.3008 11.3906C86.1211 11.3906 86.7402 11.5723 87.1582 11.9355C87.5801 12.2988 87.791 12.8652 87.791 13.6348V18H86.8125L86.5488 17.0801H86.502C86.3184 17.3145 86.1289 17.5078 85.9336 17.6602C85.7383 17.8125 85.5117 17.9258 85.2539 18C85 18.0781 84.6895 18.1172 84.3223 18.1172C83.9355 18.1172 83.5898 18.0469 83.2852 17.9062C82.9805 17.7617 82.7402 17.543 82.5645 17.25C82.3887 16.957 82.3008 16.5859 82.3008 16.1367C82.3008 15.4688 82.5488 14.9668 83.0449 14.6309C83.5449 14.2949 84.2988 14.1094 85.3066 14.0742L86.4316 14.0332V13.6934C86.4316 13.2441 86.3262 12.9238 86.1152 12.7324C85.9082 12.541 85.6152 12.4453 85.2363 12.4453C84.9121 12.4453 84.5977 12.4922 84.293 12.5859C83.9883 12.6797 83.6914 12.7949 83.4023 12.9316L82.957 11.959C83.2734 11.791 83.6328 11.6543 84.0352 11.5488C84.4414 11.4434 84.8633 11.3906 85.3008 11.3906ZM86.4258 14.9004L85.5879 14.9297C84.9004 14.9531 84.418 15.0703 84.1406 15.2812C83.8633 15.4922 83.7246 15.7812 83.7246 16.1484C83.7246 16.4688 83.8203 16.7031 84.0117 16.8516C84.2031 16.9961 84.4551 17.0684 84.7676 17.0684C85.2441 17.0684 85.6387 16.9336 85.9512 16.6641C86.2676 16.3906 86.4258 15.9902 86.4258 15.4629V14.9004ZM98.1328 11.5137L95.5898 14.6426L98.3613 18H96.8496L94.1953 14.707V18H92.9121V14.707L90.2578 18H88.7461L91.5176 14.6426L88.9746 11.5137H90.4336L92.9121 14.6602V11.5137H94.1953V14.6602L96.6797 11.5137H98.1328Z" fill="#3C3C3C"/>
<path d="M15.3827 6.75501C15.5961 6.19234 16.4034 6.19234 16.6174 6.75501L17.9974 10.5777C18.0941 10.831 18.3401 10.9997 18.6147 10.9997H22.0061C22.6327 10.9997 22.9061 11.7797 22.4134 12.1617L20.0001 14.333C19.8919 14.4161 19.8129 14.5313 19.7744 14.6621C19.7358 14.7929 19.7397 14.9325 19.7854 15.061L20.6667 18.7963C20.8814 19.3963 20.1867 19.9117 19.6614 19.5423L16.3834 17.4623C16.2711 17.3834 16.1373 17.3411 16.0001 17.3411C15.8628 17.3411 15.729 17.3834 15.6167 17.4623L12.3387 19.5423C11.8141 19.9117 11.1187 19.3957 11.3334 18.7963L12.2147 15.061C12.2604 14.9325 12.2643 14.7929 12.2257 14.6621C12.1872 14.5313 12.1082 14.4161 12.0001 14.333L9.58672 12.1617C9.09338 11.7797 9.36805 10.9997 9.99338 10.9997H13.3847C13.5182 11.0001 13.6488 10.96 13.759 10.8847C13.8692 10.8093 13.954 10.7023 14.0021 10.5777L15.3821 6.75501H15.3827Z" stroke="#3C3C3C" stroke-width="1.2" stroke-linecap="round" stroke-linejoin="round"/>
</svg>
