<svg width="147" height="26" viewBox="0 0 147 26" fill="none" xmlns="http://www.w3.org/2000/svg">
<rect width="147" height="26" rx="8" fill="#DAF0A2"/>
<path d="M29.3359 9.43359V16.7988H30.4316V20.3672H29.0781V18H23.418V20.3672H22.0645V16.7988H22.7266C22.9844 16.3262 23.2285 15.8105 23.459 15.252C23.6895 14.6895 23.9004 14.0957 24.0918 13.4707C24.2832 12.8457 24.4453 12.1953 24.5781 11.5195C24.7148 10.8398 24.8164 10.1445 24.8828 9.43359H29.3359ZM27.9355 10.6348H26.043C25.9961 11.084 25.916 11.5762 25.8027 12.1113C25.6934 12.6426 25.5566 13.1855 25.3926 13.7402C25.2285 14.2949 25.0449 14.834 24.8418 15.3574C24.6426 15.8809 24.4316 16.3613 24.209 16.7988H27.9355V10.6348ZM37.0176 18H35.6289V12.5918H33.8301C33.752 13.5762 33.6543 14.418 33.5371 15.1172C33.4199 15.8164 33.2734 16.3867 33.0977 16.8281C32.9219 17.2656 32.7051 17.5859 32.4473 17.7891C32.1895 17.9922 31.8789 18.0938 31.5156 18.0938C31.3555 18.0938 31.2109 18.082 31.082 18.0586C30.9531 18.0391 30.8379 18.0078 30.7363 17.9648V16.8809C30.8027 16.9043 30.875 16.9238 30.9531 16.9395C31.0312 16.9551 31.1113 16.9629 31.1934 16.9629C31.3379 16.9629 31.4707 16.9043 31.5918 16.7871C31.7168 16.666 31.832 16.4766 31.9375 16.2188C32.043 15.9609 32.1387 15.6211 32.2246 15.1992C32.3105 14.7734 32.3887 14.2578 32.459 13.6523C32.5293 13.043 32.5918 12.3301 32.6465 11.5137H37.0176V18ZM39.6426 18H38.1074L39.918 15.3516C39.6719 15.2734 39.4414 15.1582 39.2266 15.0059C39.0156 14.8496 38.8438 14.6465 38.7109 14.3965C38.5781 14.1426 38.5117 13.834 38.5117 13.4707C38.5117 12.8379 38.7383 12.3535 39.1914 12.0176C39.6445 11.6816 40.2363 11.5137 40.9668 11.5137H43.9082V18H42.5312V15.4922H41.2246L39.6426 18ZM39.8594 13.4824C39.8594 13.8105 39.9824 14.0605 40.2285 14.2324C40.4746 14.4004 40.8105 14.4844 41.2363 14.4844H42.5312V12.5508H41.0371C40.627 12.5508 40.3281 12.6406 40.1406 12.8203C39.9531 12.9961 39.8594 13.2168 39.8594 13.4824ZM53.0078 11.5137H54.5254L51.8418 14.6309L54.7539 18H53.166L50.3711 14.707V18H48.9883V11.5137H50.3711V14.6602L53.0078 11.5137ZM61.5508 14.7422C61.5508 15.2812 61.4805 15.7598 61.3398 16.1777C61.1992 16.5957 60.9941 16.9492 60.7246 17.2383C60.4551 17.5234 60.1309 17.7422 59.752 17.8945C59.373 18.043 58.9453 18.1172 58.4688 18.1172C58.0234 18.1172 57.6152 18.043 57.2441 17.8945C56.873 17.7422 56.5508 17.5234 56.2773 17.2383C56.0078 16.9492 55.7988 16.5957 55.6504 16.1777C55.502 15.7598 55.4277 15.2812 55.4277 14.7422C55.4277 14.0273 55.5508 13.4219 55.7969 12.9258C56.0469 12.4258 56.4023 12.0449 56.8633 11.7832C57.3242 11.5215 57.873 11.3906 58.5098 11.3906C59.1074 11.3906 59.6348 11.5215 60.0918 11.7832C60.5488 12.0449 60.9062 12.4258 61.1641 12.9258C61.4219 13.4258 61.5508 14.0312 61.5508 14.7422ZM56.8457 14.7422C56.8457 15.2148 56.9023 15.6191 57.0156 15.9551C57.1328 16.291 57.3125 16.5488 57.5547 16.7285C57.7969 16.9043 58.1094 16.9922 58.4922 16.9922C58.875 16.9922 59.1875 16.9043 59.4297 16.7285C59.6719 16.5488 59.8496 16.291 59.9629 15.9551C60.0762 15.6191 60.1328 15.2148 60.1328 14.7422C60.1328 14.2695 60.0762 13.8691 59.9629 13.541C59.8496 13.209 59.6719 12.957 59.4297 12.7852C59.1875 12.6094 58.873 12.5215 58.4863 12.5215C57.916 12.5215 57.5 12.7129 57.2383 13.0957C56.9766 13.4785 56.8457 14.0273 56.8457 14.7422ZM70.6504 11.5137V18H69.373V14.2969C69.373 14.0547 69.3789 13.8125 69.3906 13.5703C69.4023 13.3281 69.418 13.0977 69.4375 12.8789H69.4023L67.4277 18H66.3438L64.3867 12.873H64.3457C64.3652 13.0957 64.3789 13.3262 64.3867 13.5645C64.3984 13.8027 64.4043 14.0605 64.4043 14.3379V18H63.127V11.5137H65.0488L66.9004 16.3594L68.7812 11.5137H70.6504ZM75.1445 11.3906C75.9648 11.3906 76.584 11.5723 77.002 11.9355C77.4238 12.2988 77.6348 12.8652 77.6348 13.6348V18H76.6562L76.3926 17.0801H76.3457C76.1621 17.3145 75.9727 17.5078 75.7773 17.6602C75.582 17.8125 75.3555 17.9258 75.0977 18C74.8438 18.0781 74.5332 18.1172 74.166 18.1172C73.7793 18.1172 73.4336 18.0469 73.1289 17.9062C72.8242 17.7617 72.584 17.543 72.4082 17.25C72.2324 16.957 72.1445 16.5859 72.1445 16.1367C72.1445 15.4688 72.3926 14.9668 72.8887 14.6309C73.3887 14.2949 74.1426 14.1094 75.1504 14.0742L76.2754 14.0332V13.6934C76.2754 13.2441 76.1699 12.9238 75.959 12.7324C75.752 12.541 75.459 12.4453 75.0801 12.4453C74.7559 12.4453 74.4414 12.4922 74.1367 12.5859C73.832 12.6797 73.5352 12.7949 73.2461 12.9316L72.8008 11.959C73.1172 11.791 73.4766 11.6543 73.8789 11.5488C74.2852 11.4434 74.707 11.3906 75.1445 11.3906ZM76.2695 14.9004L75.4316 14.9297C74.7441 14.9531 74.2617 15.0703 73.9844 15.2812C73.707 15.4922 73.5684 15.7812 73.5684 16.1484C73.5684 16.4688 73.6641 16.7031 73.8555 16.8516C74.0469 16.9961 74.2988 17.0684 74.6113 17.0684C75.0879 17.0684 75.4824 16.9336 75.7949 16.6641C76.1113 16.3906 76.2695 15.9902 76.2695 15.4629V14.9004ZM80.9453 11.5137V14.1211H83.9805V11.5137H85.3633V18H83.9805V15.1992H80.9453V18H79.5625V11.5137H80.9453ZM92.6289 11.5137V16.9336H93.5664V20.2852H92.2949V18H87.8184V20.2852H86.5469V16.9336H87.0742C87.4023 16.457 87.6758 15.9258 87.8945 15.3398C88.1172 14.7539 88.2891 14.1367 88.4102 13.4883C88.5352 12.8359 88.6133 12.1777 88.6445 11.5137H92.6289ZM91.2637 12.5684H89.8281C89.7812 13.0957 89.7012 13.6211 89.5879 14.1445C89.4746 14.6641 89.3281 15.1621 89.1484 15.6387C88.9727 16.1113 88.7617 16.543 88.5156 16.9336H91.2637V12.5684ZM96.0977 11.5137V14.8242C96.0977 14.9297 96.0938 15.0645 96.0859 15.2285C96.082 15.3887 96.0742 15.5566 96.0625 15.7324C96.0508 15.9043 96.0391 16.0625 96.0273 16.207C96.0156 16.3516 96.0059 16.459 95.998 16.5293L99.2617 11.5137H100.938V18H99.6191V14.7246C99.6191 14.5527 99.623 14.3535 99.6309 14.127C99.6426 13.9004 99.6543 13.6816 99.666 13.4707C99.6816 13.2598 99.6914 13.0996 99.6953 12.9902L96.4434 18H94.7734V11.5137H96.0977ZM106.246 11.3906C107.016 11.3906 107.633 11.6719 108.098 12.2344C108.566 12.7969 108.801 13.6328 108.801 14.7422C108.801 15.4766 108.691 16.0957 108.473 16.5996C108.258 17.0996 107.955 17.4785 107.564 17.7363C107.178 17.9902 106.727 18.1172 106.211 18.1172C105.883 18.1172 105.598 18.0742 105.355 17.9883C105.113 17.9023 104.906 17.791 104.734 17.6543C104.562 17.5137 104.418 17.3613 104.301 17.1973H104.219C104.238 17.3535 104.256 17.5273 104.271 17.7188C104.291 17.9062 104.301 18.0781 104.301 18.2344V20.877H102.918V11.5137H104.043L104.236 12.4102H104.301C104.422 12.2266 104.568 12.0566 104.74 11.9004C104.916 11.7441 105.127 11.6211 105.373 11.5312C105.623 11.4375 105.914 11.3906 106.246 11.3906ZM105.877 12.5156C105.498 12.5156 105.193 12.5918 104.963 12.7441C104.736 12.8926 104.57 13.1172 104.465 13.418C104.363 13.7188 104.309 14.0957 104.301 14.5488V14.7422C104.301 15.2227 104.35 15.6309 104.447 15.9668C104.549 16.2988 104.715 16.5527 104.945 16.7285C105.18 16.9004 105.496 16.9863 105.895 16.9863C106.23 16.9863 106.508 16.8945 106.727 16.7109C106.949 16.5273 107.115 16.2656 107.225 15.9258C107.334 15.5859 107.389 15.1855 107.389 14.7246C107.389 14.0254 107.264 13.4824 107.014 13.0957C106.768 12.709 106.389 12.5156 105.877 12.5156ZM116.137 14.7422C116.137 15.2812 116.066 15.7598 115.926 16.1777C115.785 16.5957 115.58 16.9492 115.311 17.2383C115.041 17.5234 114.717 17.7422 114.338 17.8945C113.959 18.043 113.531 18.1172 113.055 18.1172C112.609 18.1172 112.201 18.043 111.83 17.8945C111.459 17.7422 111.137 17.5234 110.863 17.2383C110.594 16.9492 110.385 16.5957 110.236 16.1777C110.088 15.7598 110.014 15.2812 110.014 14.7422C110.014 14.0273 110.137 13.4219 110.383 12.9258C110.633 12.4258 110.988 12.0449 111.449 11.7832C111.91 11.5215 112.459 11.3906 113.096 11.3906C113.693 11.3906 114.221 11.5215 114.678 11.7832C115.135 12.0449 115.492 12.4258 115.75 12.9258C116.008 13.4258 116.137 14.0312 116.137 14.7422ZM111.432 14.7422C111.432 15.2148 111.488 15.6191 111.602 15.9551C111.719 16.291 111.898 16.5488 112.141 16.7285C112.383 16.9043 112.695 16.9922 113.078 16.9922C113.461 16.9922 113.773 16.9043 114.016 16.7285C114.258 16.5488 114.436 16.291 114.549 15.9551C114.662 15.6191 114.719 15.2148 114.719 14.7422C114.719 14.2695 114.662 13.8691 114.549 13.541C114.436 13.209 114.258 12.957 114.016 12.7852C113.773 12.6094 113.459 12.5215 113.072 12.5215C112.502 12.5215 112.086 12.7129 111.824 13.0957C111.562 13.4785 111.432 14.0273 111.432 14.7422ZM123.174 13.1777C123.174 13.5527 123.059 13.8594 122.828 14.0977C122.602 14.332 122.289 14.4863 121.891 14.5605V14.6074C122.316 14.6621 122.672 14.8125 122.957 15.0586C123.242 15.3047 123.385 15.6465 123.385 16.084C123.385 16.4551 123.291 16.7852 123.104 17.0742C122.92 17.3594 122.627 17.5859 122.225 17.7539C121.826 17.918 121.305 18 120.66 18H117.719V11.5137H120.648C121.133 11.5137 121.564 11.5664 121.943 11.6719C122.326 11.7773 122.627 11.9512 122.846 12.1934C123.064 12.4355 123.174 12.7637 123.174 13.1777ZM121.949 16.0371C121.949 15.7168 121.826 15.4863 121.58 15.3457C121.338 15.2051 120.982 15.1348 120.514 15.1348H119.102V16.9863H120.543C120.98 16.9863 121.324 16.9141 121.574 16.7695C121.824 16.6211 121.949 16.377 121.949 16.0371ZM121.773 13.3008C121.773 13.0469 121.678 12.8594 121.486 12.7383C121.295 12.6133 120.994 12.5508 120.584 12.5508H119.102V14.1211H120.396C120.85 14.1211 121.191 14.0566 121.422 13.9277C121.656 13.7949 121.773 13.5859 121.773 13.3008ZM128.957 11.5137H130.475L127.791 14.6309L130.703 18H129.115L126.32 14.707V18H124.938V11.5137H126.32V14.6602L128.957 11.5137ZM133.082 11.5137V14.8242C133.082 14.9297 133.078 15.0645 133.07 15.2285C133.066 15.3887 133.059 15.5566 133.047 15.7324C133.035 15.9043 133.023 16.0625 133.012 16.207C133 16.3516 132.99 16.459 132.982 16.5293L136.246 11.5137H137.922V18H136.604V14.7246C136.604 14.5527 136.607 14.3535 136.615 14.127C136.627 13.9004 136.639 13.6816 136.65 13.4707C136.666 13.2598 136.676 13.0996 136.68 12.9902L133.428 18H131.758V11.5137H133.082Z" fill="#3C3C3C"/>
<path d="M8 13L12.125 17L19 9" stroke="#3C3C3C" stroke-width="1.5" stroke-linecap="round" stroke-linejoin="round"/>
</svg>
