<svg width="120" height="26" viewBox="0 0 120 26" fill="none" xmlns="http://www.w3.org/2000/svg">
<rect width="120" height="26" rx="8" fill="#FFECBC"/>
<path d="M34.3359 9.43359V16.7988H35.4316V20.3672H34.0781V18H28.418V20.3672H27.0645V16.7988H27.7266C27.9844 16.3262 28.2285 15.8105 28.459 15.252C28.6895 14.6895 28.9004 14.0957 29.0918 13.4707C29.2832 12.8457 29.4453 12.1953 29.5781 11.5195C29.7148 10.8398 29.8164 10.1445 29.8828 9.43359H34.3359ZM32.9355 10.6348H31.043C30.9961 11.084 30.916 11.5762 30.8027 12.1113C30.6934 12.6426 30.5566 13.1855 30.3926 13.7402C30.2285 14.2949 30.0449 14.834 29.8418 15.3574C29.6426 15.8809 29.4316 16.3613 29.209 16.7988H32.9355V10.6348ZM42.0176 18H40.6289V12.5918H38.8301C38.752 13.5762 38.6543 14.418 38.5371 15.1172C38.4199 15.8164 38.2734 16.3867 38.0977 16.8281C37.9219 17.2656 37.7051 17.5859 37.4473 17.7891C37.1895 17.9922 36.8789 18.0938 36.5156 18.0938C36.3555 18.0938 36.2109 18.082 36.082 18.0586C35.9531 18.0391 35.8379 18.0078 35.7363 17.9648V16.8809C35.8027 16.9043 35.875 16.9238 35.9531 16.9395C36.0312 16.9551 36.1113 16.9629 36.1934 16.9629C36.3379 16.9629 36.4707 16.9043 36.5918 16.7871C36.7168 16.666 36.832 16.4766 36.9375 16.2188C37.043 15.9609 37.1387 15.6211 37.2246 15.1992C37.3105 14.7734 37.3887 14.2578 37.459 13.6523C37.5293 13.043 37.5918 12.3301 37.6465 11.5137H42.0176V18ZM44.6426 18H43.1074L44.918 15.3516C44.6719 15.2734 44.4414 15.1582 44.2266 15.0059C44.0156 14.8496 43.8438 14.6465 43.7109 14.3965C43.5781 14.1426 43.5117 13.834 43.5117 13.4707C43.5117 12.8379 43.7383 12.3535 44.1914 12.0176C44.6445 11.6816 45.2363 11.5137 45.9668 11.5137H48.9082V18H47.5312V15.4922H46.2246L44.6426 18ZM44.8594 13.4824C44.8594 13.8105 44.9824 14.0605 45.2285 14.2324C45.4746 14.4004 45.8105 14.4844 46.2363 14.4844H47.5312V12.5508H46.0371C45.627 12.5508 45.3281 12.6406 45.1406 12.8203C44.9531 12.9961 44.8594 13.2168 44.8594 13.4824ZM58.1953 11.5137V12.5977H55.3711V18H53.9883V11.5137H58.1953ZM58.4707 11.5137H59.9707L61.3008 15.2168C61.3594 15.3848 61.4121 15.5508 61.459 15.7148C61.5098 15.875 61.5527 16.0332 61.5879 16.1895C61.627 16.3457 61.6582 16.502 61.6816 16.6582H61.7168C61.7559 16.4551 61.8105 16.2285 61.8809 15.9785C61.9551 15.7246 62.0371 15.4707 62.127 15.2168L63.4043 11.5137H64.8867L62.1035 18.8906C61.9434 19.3125 61.7461 19.6719 61.5117 19.9688C61.2812 20.2695 61.0078 20.4961 60.6914 20.6484C60.375 20.8047 60.0137 20.8828 59.6074 20.8828C59.4121 20.8828 59.2422 20.8711 59.0977 20.8477C58.9531 20.8281 58.8301 20.8066 58.7285 20.7832V19.6816C58.8105 19.7012 58.9141 19.7188 59.0391 19.7344C59.1641 19.75 59.293 19.7578 59.4258 19.7578C59.6719 19.7578 59.8848 19.709 60.0645 19.6113C60.2441 19.5137 60.3965 19.375 60.5215 19.1953C60.6465 19.0195 60.75 18.8184 60.832 18.5918L61.0605 17.9824L58.4707 11.5137ZM69.1992 11.3906C69.9688 11.3906 70.5859 11.6719 71.0508 12.2344C71.5195 12.7969 71.7539 13.6328 71.7539 14.7422C71.7539 15.4766 71.6445 16.0957 71.4258 16.5996C71.2109 17.0996 70.9082 17.4785 70.5176 17.7363C70.1309 17.9902 69.6797 18.1172 69.1641 18.1172C68.8359 18.1172 68.5508 18.0742 68.3086 17.9883C68.0664 17.9023 67.8594 17.791 67.6875 17.6543C67.5156 17.5137 67.3711 17.3613 67.2539 17.1973H67.1719C67.1914 17.3535 67.209 17.5273 67.2246 17.7188C67.2441 17.9062 67.2539 18.0781 67.2539 18.2344V20.877H65.8711V11.5137H66.9961L67.1895 12.4102H67.2539C67.375 12.2266 67.5215 12.0566 67.6934 11.9004C67.8691 11.7441 68.0801 11.6211 68.3262 11.5312C68.5762 11.4375 68.8672 11.3906 69.1992 11.3906ZM68.8301 12.5156C68.4512 12.5156 68.1465 12.5918 67.916 12.7441C67.6895 12.8926 67.5234 13.1172 67.418 13.418C67.3164 13.7188 67.2617 14.0957 67.2539 14.5488V14.7422C67.2539 15.2227 67.3027 15.6309 67.4004 15.9668C67.502 16.2988 67.668 16.5527 67.8984 16.7285C68.1328 16.9004 68.4492 16.9863 68.8477 16.9863C69.1836 16.9863 69.4609 16.8945 69.6797 16.7109C69.9023 16.5273 70.0684 16.2656 70.1777 15.9258C70.2871 15.5859 70.3418 15.1855 70.3418 14.7246C70.3418 14.0254 70.2168 13.4824 69.9668 13.0957C69.7207 12.709 69.3418 12.5156 68.8301 12.5156ZM80.8652 11.5137V18H79.5879V14.2969C79.5879 14.0547 79.5938 13.8125 79.6055 13.5703C79.6172 13.3281 79.6328 13.0977 79.6523 12.8789H79.6172L77.6426 18H76.5586L74.6016 12.873H74.5605C74.5801 13.0957 74.5938 13.3262 74.6016 13.5645C74.6133 13.8027 74.6191 14.0605 74.6191 14.3379V18H73.3418V11.5137H75.2637L77.1152 16.3594L78.9961 11.5137H80.8652ZM85.3594 11.3906C86.1797 11.3906 86.7988 11.5723 87.2168 11.9355C87.6387 12.2988 87.8496 12.8652 87.8496 13.6348V18H86.8711L86.6074 17.0801H86.5605C86.377 17.3145 86.1875 17.5078 85.9922 17.6602C85.7969 17.8125 85.5703 17.9258 85.3125 18C85.0586 18.0781 84.748 18.1172 84.3809 18.1172C83.9941 18.1172 83.6484 18.0469 83.3438 17.9062C83.0391 17.7617 82.7988 17.543 82.623 17.25C82.4473 16.957 82.3594 16.5859 82.3594 16.1367C82.3594 15.4688 82.6074 14.9668 83.1035 14.6309C83.6035 14.2949 84.3574 14.1094 85.3652 14.0742L86.4902 14.0332V13.6934C86.4902 13.2441 86.3848 12.9238 86.1738 12.7324C85.9668 12.541 85.6738 12.4453 85.2949 12.4453C84.9707 12.4453 84.6562 12.4922 84.3516 12.5859C84.0469 12.6797 83.75 12.7949 83.4609 12.9316L83.0156 11.959C83.332 11.791 83.6914 11.6543 84.0938 11.5488C84.5 11.4434 84.9219 11.3906 85.3594 11.3906ZM86.4844 14.9004L85.6465 14.9297C84.959 14.9531 84.4766 15.0703 84.1992 15.2812C83.9219 15.4922 83.7832 15.7812 83.7832 16.1484C83.7832 16.4688 83.8789 16.7031 84.0703 16.8516C84.2617 16.9961 84.5137 17.0684 84.8262 17.0684C85.3027 17.0684 85.6973 16.9336 86.0098 16.6641C86.3262 16.3906 86.4844 15.9902 86.4844 15.4629V14.9004ZM91.1602 11.5137V14.1211H94.1953V11.5137H95.5781V18H94.1953V15.1992H91.1602V18H89.7773V11.5137H91.1602ZM103.289 14.7422C103.289 15.2812 103.219 15.7598 103.078 16.1777C102.938 16.5957 102.732 16.9492 102.463 17.2383C102.193 17.5234 101.869 17.7422 101.49 17.8945C101.111 18.043 100.684 18.1172 100.207 18.1172C99.7617 18.1172 99.3535 18.043 98.9824 17.8945C98.6113 17.7422 98.2891 17.5234 98.0156 17.2383C97.7461 16.9492 97.5371 16.5957 97.3887 16.1777C97.2402 15.7598 97.166 15.2812 97.166 14.7422C97.166 14.0273 97.2891 13.4219 97.5352 12.9258C97.7852 12.4258 98.1406 12.0449 98.6016 11.7832C99.0625 11.5215 99.6113 11.3906 100.248 11.3906C100.846 11.3906 101.373 11.5215 101.83 11.7832C102.287 12.0449 102.645 12.4258 102.902 12.9258C103.16 13.4258 103.289 14.0312 103.289 14.7422ZM98.584 14.7422C98.584 15.2148 98.6406 15.6191 98.7539 15.9551C98.8711 16.291 99.0508 16.5488 99.293 16.7285C99.5352 16.9043 99.8477 16.9922 100.23 16.9922C100.613 16.9922 100.926 16.9043 101.168 16.7285C101.41 16.5488 101.588 16.291 101.701 15.9551C101.814 15.6191 101.871 15.2148 101.871 14.7422C101.871 14.2695 101.814 13.8691 101.701 13.541C101.588 13.209 101.41 12.957 101.168 12.7852C100.926 12.6094 100.611 12.5215 100.225 12.5215C99.6543 12.5215 99.2383 12.7129 98.9766 13.0957C98.7148 13.4785 98.584 14.0273 98.584 14.7422ZM110.326 13.1777C110.326 13.5527 110.211 13.8594 109.98 14.0977C109.754 14.332 109.441 14.4863 109.043 14.5605V14.6074C109.469 14.6621 109.824 14.8125 110.109 15.0586C110.395 15.3047 110.537 15.6465 110.537 16.084C110.537 16.4551 110.443 16.7852 110.256 17.0742C110.072 17.3594 109.779 17.5859 109.377 17.7539C108.979 17.918 108.457 18 107.812 18H104.871V11.5137H107.801C108.285 11.5137 108.717 11.5664 109.096 11.6719C109.479 11.7773 109.779 11.9512 109.998 12.1934C110.217 12.4355 110.326 12.7637 110.326 13.1777ZM109.102 16.0371C109.102 15.7168 108.979 15.4863 108.732 15.3457C108.49 15.2051 108.135 15.1348 107.666 15.1348H106.254V16.9863H107.695C108.133 16.9863 108.477 16.9141 108.727 16.7695C108.977 16.6211 109.102 16.377 109.102 16.0371ZM108.926 13.3008C108.926 13.0469 108.83 12.8594 108.639 12.7383C108.447 12.6133 108.146 12.5508 107.736 12.5508H106.254V14.1211H107.549C108.002 14.1211 108.344 14.0566 108.574 13.9277C108.809 13.7949 108.926 13.5859 108.926 13.3008Z" fill="#3C3C3C"/>
<path d="M15.3335 10.333V6.99967C15.3335 6.82286 15.2633 6.65329 15.1382 6.52827C15.0132 6.40325 14.8436 6.33301 14.6668 6.33301H10.0002C9.82335 6.33301 9.65378 6.40325 9.52876 6.52827C9.40373 6.65329 9.3335 6.82286 9.3335 6.99967V10.333C9.3335 11.0403 9.61445 11.7185 10.1145 12.2186C10.6146 12.7187 11.2929 12.9997 12.0002 12.9997H12.6668C13.3741 12.9997 14.0524 12.7187 14.5524 12.2186C15.0525 11.7185 15.3335 11.0403 15.3335 10.333Z" stroke="#3C3C3C" stroke-width="1.05" stroke-linecap="round" stroke-linejoin="round"/>
<path d="M18 15.6663V6.33301H20C20.7072 6.33301 21.3855 6.61396 21.8856 7.11406C22.3857 7.61415 22.6667 8.29243 22.6667 8.99967V15.6663H20" stroke="#3C3C3C" stroke-width="1.05" stroke-linecap="round" stroke-linejoin="round"/>
<path d="M18 15.667V19.0003C18 19.1771 18.0702 19.3467 18.1953 19.4717C18.3203 19.5968 18.4899 19.667 18.6667 19.667H19.3333C19.5101 19.667 19.6797 19.5968 19.8047 19.4717C19.9298 19.3467 20 19.1771 20 19.0003V15.667" stroke="#3C3C3C" stroke-width="1.05" stroke-linecap="round" stroke-linejoin="round"/>
<path d="M11.3335 13V19C11.3335 19.1768 11.4037 19.3464 11.5288 19.4714C11.6538 19.5964 11.8234 19.6667 12.0002 19.6667H12.6668C12.8436 19.6667 13.0132 19.5964 13.1382 19.4714C13.2633 19.3464 13.3335 19.1768 13.3335 19V13" stroke="#3C3C3C" stroke-width="1.05" stroke-linecap="round" stroke-linejoin="round"/>
<path d="M11.3335 8.99967V6.33301" stroke="#3C3C3C" stroke-width="1.05" stroke-linecap="round" stroke-linejoin="round"/>
<path d="M13.3335 8.99967V6.33301" stroke="#3C3C3C" stroke-width="1.05" stroke-linecap="round" stroke-linejoin="round"/>
</svg>
