<svg width="18" height="18" viewBox="0 0 18 18" fill="none" xmlns="http://www.w3.org/2000/svg">
<path fill-rule="evenodd" clip-rule="evenodd" d="M9 16.875C11.0886 16.875 13.0916 16.0453 14.5685 14.5685C16.0453 13.0916 16.875 11.0886 16.875 9C16.875 6.91142 16.0453 4.90838 14.5685 3.43153C13.0916 1.95468 11.0886 1.125 9 1.125C6.91142 1.125 4.90838 1.95468 3.43153 3.43153C1.95468 4.90838 1.125 6.91142 1.125 9C1.125 11.0886 1.95468 13.0916 3.43153 14.5685C4.90838 16.0453 6.91142 16.875 9 16.875ZM9 18C11.3869 18 13.6761 17.0518 15.364 15.364C17.0518 13.6761 18 11.3869 18 9C18 6.61305 17.0518 4.32387 15.364 2.63604C13.6761 0.948212 11.3869 0 9 0C6.61305 0 4.32387 0.948212 2.63604 2.63604C0.948212 4.32387 0 6.61305 0 9C0 11.3869 0.948212 13.6761 2.63604 15.364C4.32387 17.0518 6.61305 18 9 18Z" fill="#4872F2"/>
<path d="M10.0463 7.41149L7.47007 7.73436L7.37782 8.16186L7.88407 8.25524C8.21482 8.33399 8.28007 8.45324 8.20807 8.78286L7.37782 12.6844C7.15957 13.6935 7.49594 14.1682 8.28682 14.1682C8.89994 14.1682 9.61207 13.8847 9.93494 13.4955L10.0339 13.0275C9.80894 13.2255 9.48044 13.3042 9.26219 13.3042C8.95282 13.3042 8.84032 13.0871 8.92019 12.7046L10.0463 7.41149Z" fill="#4872F2"/>
<path d="M9 6.1875C9.62132 6.1875 10.125 5.68382 10.125 5.0625C10.125 4.44118 9.62132 3.9375 9 3.9375C8.37868 3.9375 7.875 4.44118 7.875 5.0625C7.875 5.68382 8.37868 6.1875 9 6.1875Z" fill="#4872F2"/>
</svg>
