<svg width="30" height="30" viewBox="0 0 30 30" fill="none" xmlns="http://www.w3.org/2000/svg">
<rect width="30" height="30" rx="8" fill="#F7F7F7"/>
<path d="M10.7937 26.0145C10.7957 25.4724 10.5918 25.032 10.3379 25.031C10.0841 25.03 9.87608 25.4694 9.87404 26.0116C9.872 26.5538 10.0759 26.9941 10.3298 26.9951C10.5836 26.9961 10.7916 26.5567 10.7937 26.0145Z" fill="#5B5B57"/>
<path d="M11.6155 25.0359L10.3584 25.0312L10.3504 26.9953L11.6075 27L11.6155 25.0359Z" fill="#5B5B57"/>
<g opacity="0.27">
<g opacity="0.27">
<path opacity="0.27" d="M11.5919 25.6279L9.93213 25.622C9.89543 25.762 9.87402 25.9224 9.87402 26.0937C9.87402 26.2014 9.88116 26.3041 9.89645 26.401L11.5899 26.4069L11.5919 25.6279Z" fill="white"/>
</g>
</g>
<path d="M12.0593 26.0192C12.0613 25.477 11.8574 25.0366 11.6036 25.0356C11.3497 25.0347 11.1417 25.4741 11.1397 26.0162C11.1376 26.5584 11.3415 26.9988 11.5954 26.9998C11.8503 26.9998 12.0572 26.5613 12.0593 26.0192Z" fill="#5B5B57"/>
<g opacity="0.57">
<g opacity="0.57">
<path opacity="0.57" d="M11.9692 25.9762C11.9712 25.5094 11.804 25.1307 11.5971 25.1297C11.3891 25.1287 11.2198 25.5065 11.2178 25.9733C11.2158 26.4401 11.3829 26.8188 11.5899 26.8198C11.7979 26.8208 11.9671 26.443 11.9692 25.9762Z" fill="#5B5B57"/>
</g>
</g>
<path d="M18.7468 26.0145C18.7488 25.4723 18.5449 25.0319 18.291 25.0309C18.0372 25.03 17.8292 25.4694 17.8272 26.0115C17.8251 26.5537 18.029 26.9941 18.2829 26.9951C18.5368 26.996 18.7447 26.5566 18.7468 26.0145Z" fill="#5B5B57"/>
<path d="M19.5696 25.0358L18.3125 25.0311L18.3045 26.9952L19.5616 26.9999L19.5696 25.0358Z" fill="#5B5B57"/>
<g opacity="0.27">
<g opacity="0.27">
<path opacity="0.27" d="M19.545 25.6279L17.8853 25.622C17.8486 25.762 17.8271 25.9224 17.8271 26.0937C17.8271 26.2014 17.8343 26.3041 17.8496 26.401L19.543 26.4069L19.545 25.6279Z" fill="white"/>
</g>
</g>
<path d="M19.9968 26.0192C19.9988 25.477 19.7949 25.0366 19.5411 25.0356C19.2872 25.0347 19.0792 25.4741 19.0772 26.0162C19.0751 26.5584 19.279 26.9988 19.5329 26.9998C19.7868 26.9998 19.9937 26.5613 19.9968 26.0192Z" fill="#5B5B57"/>
<g opacity="0.57">
<g opacity="0.57">
<path opacity="0.57" d="M19.9223 25.9762C19.9244 25.5094 19.7572 25.1306 19.5502 25.1296C19.3422 25.1287 19.173 25.5064 19.1709 25.9732C19.1689 26.44 19.3361 26.8188 19.543 26.8197C19.751 26.8207 19.9203 26.443 19.9223 25.9762Z" fill="#5B5B57"/>
</g>
</g>
<path d="M21.2543 25.4005H9.17188V25.9749H21.2543V25.4005Z" fill="#3D3D3B"/>
<path d="M18.3238 6.58359V3.36601C18.3238 3.16387 18.1599 3 17.9578 3C17.7557 3 17.5918 3.16387 17.5918 3.36601V6.58359C17.5918 6.78573 17.7557 6.9496 17.9578 6.9496C18.1599 6.9496 18.3238 6.78573 18.3238 6.58359Z" fill="#B6BFF0"/>
<path d="M12.7301 6.58358V3.36601C12.7301 3.16387 12.5662 3 12.3641 3C12.1619 3 11.998 3.16387 11.998 3.36601V6.58358C11.998 6.78573 12.1619 6.9496 12.3641 6.9496C12.5662 6.9496 12.7301 6.78573 12.7301 6.58358Z" fill="#B6BFF0"/>
<path d="M18.8108 4.32458H11.4363C11.0559 4.32458 10.748 4.11319 10.748 3.8519V3.47415C10.748 3.21285 11.0559 3.00146 11.4363 3.00146H18.8108C19.1912 3.00146 19.499 3.21285 19.499 3.47415V3.8519C19.499 4.11221 19.1912 4.32458 18.8108 4.32458Z" fill="#604640"/>
<g opacity="0.11">
<g opacity="0.11">
<path opacity="0.11" d="M19.4965 4.00114V3.32295C19.4965 3.14484 19.2855 3 19.0262 3H18.687C18.4277 3 18.2168 3.14484 18.2168 3.32295V4.00114C18.2168 4.17925 18.4277 4.32409 18.687 4.32409H19.0262C19.2855 4.32409 19.4965 4.17925 19.4965 4.00114Z" fill="white"/>
</g>
</g>
<path d="M22.7455 6.35352H7.25182C7.11214 6.35352 7 6.46214 7 6.59523V25.5151C7 25.6492 7.11316 25.7569 7.25182 25.7569H22.7455C22.8852 25.7569 22.9974 25.6482 22.9974 25.5151V6.59523C22.9974 6.46214 22.8852 6.35352 22.7455 6.35352Z" fill="#E06D6A"/>
<path d="M21.9098 8.0495H8.32678C8.27579 8.0495 8.23438 8.07495 8.23438 8.10626V12.5737C8.23438 12.605 8.27579 12.6305 8.32678 12.6305H21.9098C21.9608 12.6305 22.0022 12.605 22.0022 12.5737V8.10724C22.0022 8.07593 21.9608 8.0495 21.9098 8.0495Z" fill="#EE8787"/>
<path d="M21.9082 13.4711H8.32838C8.2758 13.4711 8.23438 13.4975 8.23438 13.5288V23.5823C8.23438 23.6146 8.27739 23.64 8.32838 23.64H21.9082C21.9608 23.64 22.0022 23.6136 22.0022 23.5823V13.5298C22.0022 13.4975 21.9608 13.4711 21.9082 13.4711Z" fill="#EE8787"/>
</svg>
