<svg width="35" height="35" viewBox="0 0 35 35" fill="none" xmlns="http://www.w3.org/2000/svg">
<rect width="35" height="35" rx="8" fill="#F7F7F7"/>
<path d="M26.1727 5.625H15.5859V25.6687H26.1727V5.625Z" fill="#BCDBFD"/>
<path d="M15.5859 25.668H29.9992V26.6702C29.9992 28.3306 28.7143 29.6767 27.1293 29.6767H15.5859V25.668Z" fill="#9BBAD9"/>
<path d="M15.5859 25.668H4.9992V26.6702C4.9992 28.3306 6.2841 29.6767 7.8691 29.6767H15.5859V25.668Z" fill="#BCDBFD"/>
<path d="M5 25.668H10.8036V26.6702C10.8036 28.3306 9.51867 29.6767 7.93367 29.6767H7.8699C6.2849 29.6767 5 28.3306 5 26.6702V25.668Z" fill="#E8F7FF"/>
<path d="M15.5867 5.625H5V25.6687H15.5867V5.625Z" fill="#E8F7FF"/>
<path d="M7.44922 9.90137H10.9877V11.7874H7.44922V9.90137Z" fill="#9BBAD9"/>
<path d="M13.0371 9.90137H16.5755V11.7874H13.0371V9.90137Z" fill="#9BBAD9"/>
<path d="M18.8711 9.90137H22.4095V11.7874H18.8711V9.90137Z" fill="#9BBAD9"/>
<path d="M7.44922 13.75H10.9877V15.636H7.44922V13.75Z" fill="#9BBAD9"/>
</svg>
