<svg width="335" height="434" viewBox="0 0 335 434" fill="none" xmlns="http://www.w3.org/2000/svg">
<g clip-path="url(#clip0_581_23969)">
<rect width="335" height="434" rx="16" fill="#FFFCE6"/>
<path d="M32.2266 59.7227V71.998H34.0527V77.9453H31.7969V74H22.3633V77.9453H20.1074V71.998H21.2109C21.6406 71.2103 22.0475 70.3509 22.4316 69.4199C22.8158 68.4824 23.1673 67.4928 23.4863 66.4512C23.8053 65.4095 24.0755 64.3255 24.2969 63.1992C24.5247 62.0664 24.694 60.9076 24.8047 59.7227H32.2266ZM29.8926 61.7246H26.7383C26.6602 62.4733 26.5267 63.2936 26.3379 64.1855C26.1556 65.071 25.9277 65.9759 25.6543 66.9004C25.3809 67.8249 25.0749 68.7233 24.7363 69.5957C24.4043 70.4681 24.0527 71.2689 23.6816 71.998H29.8926V61.7246ZM45.7031 68.5703C45.7031 69.4688 45.5859 70.2663 45.3516 70.9629C45.1172 71.6595 44.7754 72.2487 44.3262 72.7305C43.877 73.2057 43.3366 73.5703 42.7051 73.8242C42.0736 74.0716 41.3607 74.1953 40.5664 74.1953C39.8242 74.1953 39.1439 74.0716 38.5254 73.8242C37.9069 73.5703 37.3698 73.2057 36.9141 72.7305C36.4648 72.2487 36.1165 71.6595 35.8691 70.9629C35.6217 70.2663 35.498 69.4688 35.498 68.5703C35.498 67.3789 35.7031 66.3698 36.1133 65.543C36.5299 64.7096 37.1224 64.0749 37.8906 63.6387C38.6589 63.2025 39.5736 62.9844 40.6348 62.9844C41.6309 62.9844 42.5098 63.2025 43.2715 63.6387C44.0332 64.0749 44.6289 64.7096 45.0586 65.543C45.4883 66.3763 45.7031 67.3854 45.7031 68.5703ZM37.8613 68.5703C37.8613 69.3581 37.9557 70.0319 38.1445 70.5918C38.3398 71.1517 38.6393 71.5814 39.043 71.8809C39.4466 72.1738 39.9674 72.3203 40.6055 72.3203C41.2435 72.3203 41.7643 72.1738 42.168 71.8809C42.5716 71.5814 42.8678 71.1517 43.0566 70.5918C43.2454 70.0319 43.3398 69.3581 43.3398 68.5703C43.3398 67.7826 43.2454 67.1152 43.0566 66.5684C42.8678 66.015 42.5716 65.5951 42.168 65.3086C41.7643 65.0156 41.2402 64.8691 40.5957 64.8691C39.6452 64.8691 38.9518 65.1882 38.5156 65.8262C38.0794 66.4642 37.8613 67.3789 37.8613 68.5703ZM57.7832 63.1895V74H55.4688V65.0059H50.6445V74H48.3398V63.1895H57.7832ZM70.6445 68.5703C70.6445 69.4688 70.5273 70.2663 70.293 70.9629C70.0586 71.6595 69.7168 72.2487 69.2676 72.7305C68.8184 73.2057 68.278 73.5703 67.6465 73.8242C67.015 74.0716 66.3021 74.1953 65.5078 74.1953C64.7656 74.1953 64.0853 74.0716 63.4668 73.8242C62.8483 73.5703 62.3112 73.2057 61.8555 72.7305C61.4062 72.2487 61.0579 71.6595 60.8105 70.9629C60.5632 70.2663 60.4395 69.4688 60.4395 68.5703C60.4395 67.3789 60.6445 66.3698 61.0547 65.543C61.4714 64.7096 62.0638 64.0749 62.832 63.6387C63.6003 63.2025 64.515 62.9844 65.5762 62.9844C66.5723 62.9844 67.4512 63.2025 68.2129 63.6387C68.9746 64.0749 69.5703 64.7096 70 65.543C70.4297 66.3763 70.6445 67.3854 70.6445 68.5703ZM62.8027 68.5703C62.8027 69.3581 62.8971 70.0319 63.0859 70.5918C63.2812 71.1517 63.5807 71.5814 63.9844 71.8809C64.388 72.1738 64.9089 72.3203 65.5469 72.3203C66.1849 72.3203 66.7057 72.1738 67.1094 71.8809C67.513 71.5814 67.8092 71.1517 67.998 70.5918C68.1868 70.0319 68.2812 69.3581 68.2812 68.5703C68.2812 67.7826 68.1868 67.1152 67.998 66.5684C67.8092 66.015 67.513 65.5951 67.1094 65.3086C66.7057 65.0156 66.1816 64.8691 65.5371 64.8691C64.5866 64.8691 63.8932 65.1882 63.457 65.8262C63.0208 66.4642 62.8027 67.3789 62.8027 68.5703ZM82.1777 74H79.8633V64.9863H76.8652C76.735 66.627 76.5723 68.0299 76.377 69.1953C76.1816 70.3607 75.9375 71.3112 75.6445 72.0469C75.3516 72.776 74.9902 73.3099 74.5605 73.6484C74.1309 73.987 73.6133 74.1562 73.0078 74.1562C72.7409 74.1562 72.5 74.1367 72.2852 74.0977C72.0703 74.0651 71.8783 74.013 71.709 73.9414V72.1348C71.8197 72.1738 71.9401 72.2064 72.0703 72.2324C72.2005 72.2585 72.334 72.2715 72.4707 72.2715C72.7116 72.2715 72.9329 72.1738 73.1348 71.9785C73.3431 71.7767 73.5352 71.4609 73.7109 71.0312C73.8867 70.6016 74.0462 70.0352 74.1895 69.332C74.3327 68.6224 74.4629 67.763 74.5801 66.7539C74.6973 65.7383 74.8014 64.5501 74.8926 63.1895H82.1777V74ZM87.7734 63.1895V67.5352H92.832V63.1895H95.1367V74H92.832V69.332H87.7734V74H85.4688V63.1895H87.7734ZM100.625 63.1895V68.707C100.625 68.8828 100.618 69.1074 100.605 69.3809C100.599 69.6478 100.586 69.9277 100.566 70.2207C100.547 70.5072 100.527 70.7708 100.508 71.0117C100.488 71.2526 100.472 71.4316 100.459 71.5488L105.898 63.1895H108.691V74H106.494V68.541C106.494 68.2546 106.501 67.9225 106.514 67.5449C106.533 67.1673 106.553 66.8027 106.572 66.4512C106.598 66.0996 106.615 65.8327 106.621 65.6504L101.201 74H98.418V63.1895H100.625ZM120.156 64.9961H116.602V74H114.316V64.9961H110.781V63.1895H120.156V64.9961ZM126.553 62.9844C127.516 62.9844 128.343 63.1829 129.033 63.5801C129.723 63.9772 130.254 64.5404 130.625 65.2695C130.996 65.9987 131.182 66.8711 131.182 67.8867V69.1172H123.965C123.991 70.1654 124.271 70.9727 124.805 71.5391C125.345 72.1055 126.1 72.3887 127.07 72.3887C127.76 72.3887 128.379 72.3236 128.926 72.1934C129.479 72.0566 130.049 71.8581 130.635 71.5977V73.4629C130.094 73.7168 129.544 73.9023 128.984 74.0195C128.424 74.1367 127.754 74.1953 126.973 74.1953C125.911 74.1953 124.977 73.9902 124.17 73.5801C123.369 73.1634 122.741 72.5449 122.285 71.7246C121.836 70.9043 121.611 69.8854 121.611 68.668C121.611 67.457 121.816 66.4284 122.227 65.582C122.637 64.7357 123.213 64.0911 123.955 63.6484C124.697 63.2057 125.563 62.9844 126.553 62.9844ZM126.553 64.7129C125.83 64.7129 125.244 64.9473 124.795 65.416C124.352 65.8848 124.092 66.5716 124.014 67.4766H128.936C128.929 66.9362 128.838 66.4577 128.662 66.041C128.493 65.6243 128.232 65.2988 127.881 65.0645C127.536 64.8301 127.093 64.7129 126.553 64.7129ZM142.666 74H140.352V64.9863H137.354C137.223 66.627 137.061 68.0299 136.865 69.1953C136.67 70.3607 136.426 71.3112 136.133 72.0469C135.84 72.776 135.479 73.3099 135.049 73.6484C134.619 73.987 134.102 74.1562 133.496 74.1562C133.229 74.1562 132.988 74.1367 132.773 74.0977C132.559 74.0651 132.367 74.013 132.197 73.9414V72.1348C132.308 72.1738 132.428 72.2064 132.559 72.2324C132.689 72.2585 132.822 72.2715 132.959 72.2715C133.2 72.2715 133.421 72.1738 133.623 71.9785C133.831 71.7767 134.023 71.4609 134.199 71.0312C134.375 70.6016 134.535 70.0352 134.678 69.332C134.821 68.6224 134.951 67.763 135.068 66.7539C135.186 65.7383 135.29 64.5501 135.381 63.1895H142.666V74ZM148.262 67.5059H150.947C151.963 67.5059 152.803 67.623 153.467 67.8574C154.137 68.0853 154.639 68.4303 154.971 68.8926C155.303 69.3548 155.469 69.9342 155.469 70.6309C155.469 71.3145 155.312 71.9102 155 72.418C154.688 72.9193 154.199 73.3099 153.535 73.5898C152.878 73.8633 152.018 74 150.957 74H145.957V63.1895H148.262V67.5059ZM153.164 70.6895C153.164 70.1491 152.962 69.7682 152.559 69.5469C152.155 69.319 151.579 69.2051 150.83 69.2051H148.262V72.3105H150.85C151.533 72.3105 152.09 72.1868 152.52 71.9395C152.949 71.6855 153.164 71.2689 153.164 70.6895ZM160.312 63.1895V67.5352H165.371V63.1895H167.676V74H165.371V69.332H160.312V74H158.008V63.1895H160.312ZM170.957 74V63.1895H173.262V67.5059H175.439C176.455 67.5059 177.292 67.623 177.949 67.8574C178.607 68.0853 179.095 68.4303 179.414 68.8926C179.733 69.3548 179.893 69.9342 179.893 70.6309C179.893 71.3145 179.74 71.9102 179.434 72.418C179.128 72.9193 178.649 73.3099 177.998 73.5898C177.347 73.8633 176.494 74 175.439 74H170.957ZM173.262 72.3105H175.283C175.973 72.3105 176.53 72.1868 176.953 71.9395C177.383 71.6855 177.598 71.2689 177.598 70.6895C177.598 70.1491 177.399 69.7682 177.002 69.5469C176.611 69.319 176.038 69.2051 175.283 69.2051H173.262V72.3105ZM181.562 74V63.1895H183.867V74H181.562ZM191.455 62.9844C192.419 62.9844 193.245 63.1829 193.936 63.5801C194.626 63.9772 195.156 64.5404 195.527 65.2695C195.898 65.9987 196.084 66.8711 196.084 67.8867V69.1172H188.867C188.893 70.1654 189.173 70.9727 189.707 71.5391C190.247 72.1055 191.003 72.3887 191.973 72.3887C192.663 72.3887 193.281 72.3236 193.828 72.1934C194.382 72.0566 194.951 71.8581 195.537 71.5977V73.4629C194.997 73.7168 194.447 73.9023 193.887 74.0195C193.327 74.1367 192.656 74.1953 191.875 74.1953C190.814 74.1953 189.88 73.9902 189.072 73.5801C188.271 73.1634 187.643 72.5449 187.188 71.7246C186.738 70.9043 186.514 69.8854 186.514 68.668C186.514 67.457 186.719 66.4284 187.129 65.582C187.539 64.7357 188.115 64.0911 188.857 63.6484C189.6 63.2057 190.465 62.9844 191.455 62.9844ZM191.455 64.7129C190.732 64.7129 190.146 64.9473 189.697 65.416C189.255 65.8848 188.994 66.5716 188.916 67.4766H193.838C193.831 66.9362 193.74 66.4577 193.564 66.041C193.395 65.6243 193.135 65.2988 192.783 65.0645C192.438 64.8301 191.995 64.7129 191.455 64.7129ZM202.236 63.1895H204.736L206.953 69.3613C207.051 69.6413 207.139 69.918 207.217 70.1914C207.301 70.4583 207.373 70.722 207.432 70.9824C207.497 71.2428 207.549 71.5033 207.588 71.7637H207.646C207.712 71.4251 207.803 71.0475 207.92 70.6309C208.044 70.2077 208.18 69.7845 208.33 69.3613L210.459 63.1895H212.93L208.291 75.4844C208.024 76.1875 207.695 76.7865 207.305 77.2812C206.921 77.7826 206.465 78.1602 205.938 78.4141C205.41 78.6745 204.808 78.8047 204.131 78.8047C203.805 78.8047 203.522 78.7852 203.281 78.7461C203.04 78.7135 202.835 78.6777 202.666 78.6387V76.8027C202.803 76.8353 202.975 76.8646 203.184 76.8906C203.392 76.9167 203.607 76.9297 203.828 76.9297C204.238 76.9297 204.593 76.8483 204.893 76.6855C205.192 76.5228 205.446 76.2917 205.654 75.9922C205.863 75.6992 206.035 75.3639 206.172 74.9863L206.553 73.9707L202.236 63.1895ZM218.926 74.1953C217.904 74.1953 217.018 73.9967 216.27 73.5996C215.521 73.2025 214.945 72.5938 214.541 71.7734C214.137 70.9531 213.936 69.9115 213.936 68.6484C213.936 67.3333 214.157 66.2591 214.6 65.4258C215.042 64.5924 215.654 63.9772 216.436 63.5801C217.223 63.1829 218.125 62.9844 219.141 62.9844C219.785 62.9844 220.368 63.0495 220.889 63.1797C221.416 63.3034 221.862 63.4564 222.227 63.6387L221.543 65.4746C221.146 65.3118 220.739 65.1751 220.322 65.0645C219.906 64.9538 219.505 64.8984 219.121 64.8984C218.49 64.8984 217.962 65.0384 217.539 65.3184C217.122 65.5983 216.81 66.015 216.602 66.5684C216.4 67.1217 216.299 67.8086 216.299 68.6289C216.299 69.4232 216.403 70.0938 216.611 70.6406C216.82 71.181 217.129 71.5911 217.539 71.8711C217.949 72.1445 218.454 72.2812 219.053 72.2812C219.645 72.2812 220.176 72.2096 220.645 72.0664C221.113 71.9232 221.556 71.7376 221.973 71.5098V73.502C221.562 73.7363 221.123 73.9089 220.654 74.0195C220.186 74.1367 219.609 74.1953 218.926 74.1953ZM233.408 74H231.094V64.9863H228.096C227.965 66.627 227.803 68.0299 227.607 69.1953C227.412 70.3607 227.168 71.3112 226.875 72.0469C226.582 72.776 226.221 73.3099 225.791 73.6484C225.361 73.987 224.844 74.1562 224.238 74.1562C223.971 74.1562 223.73 74.1367 223.516 74.0977C223.301 74.0651 223.109 74.013 222.939 73.9414V72.1348C223.05 72.1738 223.171 72.2064 223.301 72.2324C223.431 72.2585 223.564 72.2715 223.701 72.2715C223.942 72.2715 224.163 72.1738 224.365 71.9785C224.574 71.7767 224.766 71.4609 224.941 71.0312C225.117 70.6016 225.277 70.0352 225.42 69.332C225.563 68.6224 225.693 67.763 225.811 66.7539C225.928 65.7383 226.032 64.5501 226.123 63.1895H233.408V74ZM235.068 63.1895H237.568L239.785 69.3613C239.883 69.6413 239.971 69.918 240.049 70.1914C240.133 70.4583 240.205 70.722 240.264 70.9824C240.329 71.2428 240.381 71.5033 240.42 71.7637H240.479C240.544 71.4251 240.635 71.0475 240.752 70.6309C240.876 70.2077 241.012 69.7845 241.162 69.3613L243.291 63.1895H245.762L241.123 75.4844C240.856 76.1875 240.527 76.7865 240.137 77.2812C239.753 77.7826 239.297 78.1602 238.77 78.4141C238.242 78.6745 237.64 78.8047 236.963 78.8047C236.637 78.8047 236.354 78.7852 236.113 78.7461C235.872 78.7135 235.667 78.6777 235.498 78.6387V76.8027C235.635 76.8353 235.807 76.8646 236.016 76.8906C236.224 76.9167 236.439 76.9297 236.66 76.9297C237.07 76.9297 237.425 76.8483 237.725 76.6855C238.024 76.5228 238.278 76.2917 238.486 75.9922C238.695 75.6992 238.867 75.3639 239.004 74.9863L239.385 73.9707L235.068 63.1895ZM254.414 63.1895V64.9961H249.707V74H247.402V63.1895H254.414ZM258.711 63.1895V68.707C258.711 68.8828 258.704 69.1074 258.691 69.3809C258.685 69.6478 258.672 69.9277 258.652 70.2207C258.633 70.5072 258.613 70.7708 258.594 71.0117C258.574 71.2526 258.558 71.4316 258.545 71.5488L263.984 63.1895H266.777V74H264.58V68.541C264.58 68.2546 264.587 67.9225 264.6 67.5449C264.619 67.1673 264.639 66.8027 264.658 66.4512C264.684 66.0996 264.701 65.8327 264.707 65.6504L259.287 74H256.504V63.1895H258.711Z" fill="#2E2E32"/>
<path d="M28.9414 44H27.7793V39.29H22.5293V44H21.3672V34.0059H22.5293V38.2646H27.7793V34.0059H28.9414V44ZM35.1033 36.3711C35.7413 36.3711 36.2882 36.5124 36.7439 36.7949C37.1997 37.0775 37.5483 37.474 37.7898 37.9844C38.0314 38.4902 38.1521 39.0827 38.1521 39.7617V40.4658H32.9773C32.991 41.3454 33.2098 42.0153 33.6336 42.4756C34.0574 42.9359 34.6544 43.166 35.4246 43.166C35.8986 43.166 36.3178 43.1227 36.6824 43.0361C37.047 42.9495 37.4253 42.8219 37.8172 42.6533V43.6514C37.4389 43.82 37.063 43.943 36.6893 44.0205C36.3201 44.098 35.8826 44.1367 35.3768 44.1367C34.6567 44.1367 34.0278 43.9909 33.49 43.6992C32.9568 43.403 32.5421 42.9701 32.2459 42.4004C31.9497 41.8307 31.8016 41.1335 31.8016 40.3086C31.8016 39.502 31.936 38.8047 32.2049 38.2168C32.4783 37.6243 32.8611 37.1686 33.3533 36.8496C33.8501 36.5306 34.4334 36.3711 35.1033 36.3711ZM35.0896 37.3008C34.4835 37.3008 34.0005 37.499 33.6404 37.8955C33.2804 38.292 33.0662 38.8457 32.9979 39.5566H36.9627C36.9581 39.11 36.8875 38.7181 36.7508 38.3809C36.6186 38.0391 36.4158 37.7747 36.1424 37.5879C35.8689 37.3965 35.518 37.3008 35.0896 37.3008ZM47.0443 36.3711C47.6049 36.3711 48.0902 36.4486 48.5004 36.6035C48.9105 36.7539 49.2273 36.9749 49.4506 37.2666C49.6739 37.5583 49.7855 37.9137 49.7855 38.333C49.7855 38.7842 49.6625 39.1442 49.4164 39.4131C49.1703 39.682 48.8308 39.8757 48.3979 39.9941V40.0488C48.7032 40.1309 48.9789 40.2493 49.225 40.4043C49.4757 40.5547 49.6739 40.7552 49.8197 41.0059C49.9701 41.252 50.0453 41.5596 50.0453 41.9287C50.0453 42.348 49.9314 42.7262 49.7035 43.0635C49.4757 43.3962 49.1293 43.6582 48.6645 43.8496C48.1996 44.041 47.6117 44.1367 46.9008 44.1367C46.5499 44.1367 46.2172 44.1162 45.9027 44.0752C45.5883 44.0387 45.3035 43.984 45.0482 43.9111C44.793 43.8382 44.5697 43.7516 44.3783 43.6514V42.6191C44.6973 42.7741 45.071 42.9108 45.4994 43.0293C45.9278 43.1478 46.3904 43.207 46.8871 43.207C47.2699 43.207 47.614 43.1637 47.9193 43.0771C48.2247 42.986 48.4662 42.8424 48.6439 42.6465C48.8262 42.446 48.9174 42.1839 48.9174 41.8604C48.9174 41.5641 48.8376 41.3203 48.6781 41.1289C48.5186 40.9329 48.2794 40.7894 47.9604 40.6982C47.6459 40.6025 47.2471 40.5547 46.7641 40.5547H45.7592V39.625H46.5863C47.2289 39.625 47.7416 39.5339 48.1244 39.3516C48.5072 39.1693 48.6986 38.8617 48.6986 38.4287C48.6986 38.055 48.5505 37.777 48.2543 37.5947C47.9581 37.4079 47.5342 37.3145 46.9828 37.3145C46.5727 37.3145 46.2104 37.3577 45.8959 37.4443C45.5814 37.5264 45.2419 37.6449 44.8773 37.7998L44.474 36.8906C44.866 36.7174 45.2761 36.5876 45.7045 36.501C46.1329 36.4144 46.5795 36.3711 47.0443 36.3711ZM55.3869 36.3848C56.2801 36.3848 56.9432 36.5853 57.3762 36.9863C57.8091 37.3874 58.0256 38.0277 58.0256 38.9072V44H57.1984L56.9797 42.8926H56.925C56.7154 43.166 56.4966 43.3962 56.2687 43.583C56.0409 43.7653 55.7766 43.9043 55.4758 44C55.1796 44.0911 54.815 44.1367 54.382 44.1367C53.9263 44.1367 53.5207 44.057 53.1652 43.8975C52.8143 43.738 52.5363 43.4964 52.3312 43.1729C52.1307 42.8493 52.0305 42.4391 52.0305 41.9424C52.0305 41.195 52.3267 40.6208 52.9191 40.2197C53.5116 39.8187 54.4139 39.5999 55.6262 39.5635L56.9182 39.5088V39.0508C56.9182 38.4036 56.7792 37.9502 56.5012 37.6904C56.2232 37.4307 55.8312 37.3008 55.3254 37.3008C54.9335 37.3008 54.5598 37.3577 54.2043 37.4717C53.8488 37.5856 53.5116 37.7201 53.1926 37.875L52.8439 37.0137C53.1812 36.8405 53.5686 36.6924 54.0061 36.5693C54.4436 36.4463 54.9038 36.3848 55.3869 36.3848ZM56.9045 40.3086L55.7629 40.3564C54.8286 40.3929 54.1701 40.5456 53.7873 40.8145C53.4045 41.0833 53.2131 41.4639 53.2131 41.9561C53.2131 42.3844 53.343 42.7012 53.6027 42.9062C53.8625 43.1113 54.2066 43.2139 54.635 43.2139C55.3003 43.2139 55.8449 43.0293 56.2687 42.6602C56.6926 42.291 56.9045 41.7373 56.9045 40.999V40.3086ZM60.6738 39.502C60.6738 38.4355 60.7764 37.5264 60.9814 36.7744C61.1865 36.0179 61.5033 35.4118 61.9316 34.9561C62.3646 34.4958 62.9206 34.1813 63.5996 34.0127C64.1829 33.8532 64.7754 33.7165 65.377 33.6025C65.9785 33.484 66.5641 33.3815 67.1338 33.2949L67.332 34.293C67.0449 34.334 66.7441 34.3818 66.4297 34.4365C66.1152 34.4867 65.8008 34.5413 65.4863 34.6006C65.1719 34.6553 64.8757 34.7145 64.5977 34.7783C64.3197 34.8376 64.0736 34.8991 63.8594 34.9629C63.472 35.0677 63.137 35.25 62.8545 35.5098C62.5765 35.7695 62.3555 36.1273 62.1914 36.583C62.0319 37.0387 61.9362 37.613 61.9043 38.3057H61.9863C62.123 38.1051 62.3099 37.9069 62.5469 37.7109C62.7839 37.515 63.0664 37.3532 63.3945 37.2256C63.7227 37.0934 64.0918 37.0273 64.502 37.0273C65.1491 37.0273 65.6891 37.1686 66.1221 37.4512C66.555 37.7292 66.8809 38.1211 67.0996 38.627C67.3184 39.1328 67.4277 39.7253 67.4277 40.4043C67.4277 41.2201 67.2865 41.9059 67.0039 42.4619C66.7259 43.0179 66.334 43.4372 65.8281 43.7197C65.3223 43.9977 64.7275 44.1367 64.0439 44.1367C63.5153 44.1367 63.0413 44.0342 62.6221 43.8291C62.2074 43.624 61.8542 43.3232 61.5625 42.9268C61.2754 42.5303 61.0544 42.0449 60.8994 41.4707C60.749 40.8965 60.6738 40.2402 60.6738 39.502ZM64.1328 43.1934C64.5658 43.1934 64.9372 43.1022 65.2471 42.9199C65.5615 42.7376 65.8031 42.4505 65.9717 42.0586C66.1449 41.6621 66.2314 41.1471 66.2314 40.5137C66.2314 39.7207 66.0788 39.1009 65.7734 38.6543C65.4727 38.2031 64.9896 37.9775 64.3242 37.9775C63.9095 37.9775 63.5335 38.0664 63.1963 38.2441C62.859 38.4173 62.5742 38.6247 62.3418 38.8662C62.1094 39.1077 61.9408 39.3242 61.8359 39.5156C61.8359 39.9805 61.8701 40.4316 61.9385 40.8691C62.0068 41.3066 62.1253 41.7008 62.2939 42.0518C62.4626 42.4027 62.695 42.6807 62.9912 42.8857C63.292 43.0908 63.6725 43.1934 64.1328 43.1934ZM68.907 36.5078H70.1238L71.7781 40.8555C71.8738 41.1107 71.9627 41.3568 72.0447 41.5938C72.1268 41.8262 72.1997 42.0495 72.2635 42.2637C72.3273 42.4779 72.3774 42.6852 72.4139 42.8857H72.4617C72.5255 42.6579 72.6167 42.3594 72.7352 41.9902C72.8536 41.6165 72.9813 41.236 73.118 40.8486L74.6834 36.5078H75.907L72.6463 45.1006C72.4731 45.5609 72.2703 45.9619 72.0379 46.3037C71.81 46.6455 71.532 46.9076 71.2039 47.0898C70.8758 47.2767 70.4793 47.3701 70.0145 47.3701C69.8003 47.3701 69.6111 47.3564 69.4471 47.3291C69.283 47.3063 69.1417 47.279 69.0232 47.2471V46.3379C69.1235 46.3607 69.2443 46.3812 69.3855 46.3994C69.5314 46.4176 69.6818 46.4268 69.8367 46.4268C70.1193 46.4268 70.3631 46.3721 70.5682 46.2627C70.7778 46.1579 70.9578 46.0029 71.1082 45.7979C71.2586 45.5928 71.3885 45.349 71.4979 45.0664L71.908 44.0137L68.907 36.5078ZM83.2926 36.5078V43.0361H84.3658V46.5908H83.2652V44H77.9605V46.5908H76.8736V43.0361H77.4615C77.8899 42.4437 78.2454 41.7943 78.5279 41.0879C78.8105 40.3815 79.0247 39.641 79.1705 38.8662C79.3163 38.0869 79.3938 37.3008 79.4029 36.5078H83.2926ZM82.192 37.4102H80.4146C80.3736 38.0755 80.2757 38.7523 80.1207 39.4404C79.9703 40.1286 79.7698 40.7848 79.5191 41.4092C79.2685 42.029 78.9768 42.5713 78.6441 43.0361H82.192V37.4102ZM87.6977 39.5977H89.9945C90.6326 39.5977 91.1635 39.6774 91.5873 39.8369C92.0111 39.9964 92.3279 40.2334 92.5375 40.5479C92.7517 40.8623 92.8588 41.252 92.8588 41.7168C92.8588 42.1816 92.754 42.585 92.5443 42.9268C92.3393 43.2686 92.0202 43.5329 91.5873 43.7197C91.1589 43.9066 90.6052 44 89.9262 44H86.5561V36.5078H87.6977V39.5977ZM91.7172 41.7715C91.7172 41.3112 91.5531 40.9922 91.225 40.8145C90.9014 40.6322 90.448 40.541 89.8646 40.541H87.6977V43.0771H89.8715C90.4184 43.0771 90.8627 42.9769 91.2045 42.7764C91.5463 42.5713 91.7172 42.2363 91.7172 41.7715ZM100.62 37.4717H98.1525V44H97.0314V37.4717H94.5979V36.5078H100.62V37.4717ZM105.688 36.3711C106.326 36.3711 106.873 36.5124 107.329 36.7949C107.785 37.0775 108.133 37.474 108.375 37.9844C108.617 38.4902 108.737 39.0827 108.737 39.7617V40.4658H103.562C103.576 41.3454 103.795 42.0153 104.219 42.4756C104.643 42.9359 105.24 43.166 106.01 43.166C106.484 43.166 106.903 43.1227 107.268 43.0361C107.632 42.9495 108.01 42.8219 108.402 42.6533V43.6514C108.024 43.82 107.648 43.943 107.274 44.0205C106.905 44.098 106.468 44.1367 105.962 44.1367C105.242 44.1367 104.613 43.9909 104.075 43.6992C103.542 43.403 103.127 42.9701 102.831 42.4004C102.535 41.8307 102.387 41.1335 102.387 40.3086C102.387 39.502 102.521 38.8047 102.79 38.2168C103.063 37.6243 103.446 37.1686 103.938 36.8496C104.435 36.5306 105.019 36.3711 105.688 36.3711ZM105.675 37.3008C105.069 37.3008 104.586 37.499 104.226 37.8955C103.866 38.292 103.651 38.8457 103.583 39.5566H107.548C107.543 39.11 107.473 38.7181 107.336 38.3809C107.204 38.0391 107.001 37.7747 106.728 37.5879C106.454 37.3965 106.103 37.3008 105.675 37.3008ZM121.191 36.5078V43.0361H122.264V46.5908H121.164V44H115.859V46.5908H114.772V43.0361H115.36C115.788 42.4437 116.144 41.7943 116.426 41.0879C116.709 40.3815 116.923 39.641 117.069 38.8662C117.215 38.0869 117.292 37.3008 117.301 36.5078H121.191ZM120.09 37.4102H118.313C118.272 38.0755 118.174 38.7523 118.019 39.4404C117.869 40.1286 117.668 40.7848 117.418 41.4092C117.167 42.029 116.875 42.5713 116.543 43.0361H120.09V37.4102ZM130.914 40.2402C130.914 40.8555 130.835 41.4046 130.675 41.8877C130.516 42.3708 130.286 42.7786 129.985 43.1113C129.684 43.444 129.319 43.6992 128.891 43.877C128.467 44.0501 127.986 44.1367 127.449 44.1367C126.947 44.1367 126.487 44.0501 126.068 43.877C125.653 43.6992 125.293 43.444 124.988 43.1113C124.687 42.7786 124.452 42.3708 124.284 41.8877C124.12 41.4046 124.037 40.8555 124.037 40.2402C124.037 39.4199 124.176 38.7227 124.454 38.1484C124.732 37.5697 125.129 37.1299 125.644 36.8291C126.163 36.5238 126.781 36.3711 127.496 36.3711C128.18 36.3711 128.777 36.5238 129.287 36.8291C129.802 37.1344 130.201 37.5765 130.484 38.1553C130.771 38.7295 130.914 39.4245 130.914 40.2402ZM125.213 40.2402C125.213 40.8418 125.293 41.3636 125.453 41.8057C125.612 42.2477 125.858 42.5895 126.191 42.8311C126.524 43.0726 126.952 43.1934 127.476 43.1934C127.996 43.1934 128.422 43.0726 128.754 42.8311C129.092 42.5895 129.34 42.2477 129.499 41.8057C129.659 41.3636 129.739 40.8418 129.739 40.2402C129.739 39.6432 129.659 39.1283 129.499 38.6953C129.34 38.2578 129.094 37.9206 128.761 37.6836C128.428 37.4466 127.998 37.3281 127.469 37.3281C126.69 37.3281 126.118 37.5856 125.753 38.1006C125.393 38.6156 125.213 39.3288 125.213 40.2402ZM133.187 39.502C133.187 38.4355 133.289 37.5264 133.494 36.7744C133.699 36.0179 134.016 35.4118 134.445 34.9561C134.877 34.4958 135.433 34.1813 136.113 34.0127C136.696 33.8532 137.288 33.7165 137.89 33.6025C138.491 33.484 139.077 33.3815 139.647 33.2949L139.845 34.293C139.558 34.334 139.257 34.3818 138.943 34.4365C138.628 34.4867 138.314 34.5413 137.999 34.6006C137.685 34.6553 137.389 34.7145 137.111 34.7783C136.833 34.8376 136.586 34.8991 136.372 34.9629C135.985 35.0677 135.65 35.25 135.367 35.5098C135.089 35.7695 134.868 36.1273 134.704 36.583C134.545 37.0387 134.449 37.613 134.417 38.3057H134.499C134.636 38.1051 134.823 37.9069 135.06 37.7109C135.297 37.515 135.579 37.3532 135.907 37.2256C136.236 37.0934 136.605 37.0273 137.015 37.0273C137.662 37.0273 138.202 37.1686 138.635 37.4512C139.068 37.7292 139.394 38.1211 139.613 38.627C139.831 39.1328 139.941 39.7253 139.941 40.4043C139.941 41.2201 139.799 41.9059 139.517 42.4619C139.239 43.0179 138.847 43.4372 138.341 43.7197C137.835 43.9977 137.24 44.1367 136.557 44.1367C136.028 44.1367 135.554 44.0342 135.135 43.8291C134.72 43.624 134.367 43.3232 134.075 42.9268C133.788 42.5303 133.567 42.0449 133.412 41.4707C133.262 40.8965 133.187 40.2402 133.187 39.502ZM136.646 43.1934C137.079 43.1934 137.45 43.1022 137.76 42.9199C138.074 42.7376 138.316 42.4505 138.485 42.0586C138.658 41.6621 138.744 41.1471 138.744 40.5137C138.744 39.7207 138.592 39.1009 138.286 38.6543C137.986 38.2031 137.502 37.9775 136.837 37.9775C136.422 37.9775 136.046 38.0664 135.709 38.2441C135.372 38.4173 135.087 38.6247 134.855 38.8662C134.622 39.1077 134.454 39.3242 134.349 39.5156C134.349 39.9805 134.383 40.4316 134.451 40.8691C134.52 41.3066 134.638 41.7008 134.807 42.0518C134.975 42.4027 135.208 42.6807 135.504 42.8857C135.805 43.0908 136.185 43.1934 136.646 43.1934ZM145.405 36.3848C146.299 36.3848 146.962 36.5853 147.395 36.9863C147.827 37.3874 148.044 38.0277 148.044 38.9072V44H147.217L146.998 42.8926H146.943C146.734 43.166 146.515 43.3962 146.287 43.583C146.059 43.7653 145.795 43.9043 145.494 44C145.198 44.0911 144.833 44.1367 144.4 44.1367C143.945 44.1367 143.539 44.057 143.184 43.8975C142.833 43.738 142.555 43.4964 142.35 43.1729C142.149 42.8493 142.049 42.4391 142.049 41.9424C142.049 41.195 142.345 40.6208 142.938 40.2197C143.53 39.8187 144.432 39.5999 145.645 39.5635L146.937 39.5088V39.0508C146.937 38.4036 146.798 37.9502 146.52 37.6904C146.242 37.4307 145.85 37.3008 145.344 37.3008C144.952 37.3008 144.578 37.3577 144.223 37.4717C143.867 37.5856 143.53 37.7201 143.211 37.875L142.862 37.0137C143.2 36.8405 143.587 36.6924 144.024 36.5693C144.462 36.4463 144.922 36.3848 145.405 36.3848ZM146.923 40.3086L145.781 40.3564C144.847 40.3929 144.188 40.5456 143.806 40.8145C143.423 41.0833 143.231 41.4639 143.231 41.9561C143.231 42.3844 143.361 42.7012 143.621 42.9062C143.881 43.1113 144.225 43.2139 144.653 43.2139C145.319 43.2139 145.863 43.0293 146.287 42.6602C146.711 42.291 146.923 41.7373 146.923 40.999V40.3086ZM157.036 38.3877C157.036 38.8571 156.899 39.224 156.626 39.4883C156.352 39.748 155.999 39.9235 155.566 40.0146V40.0693C156.036 40.1331 156.439 40.3018 156.776 40.5752C157.118 40.8441 157.289 41.2565 157.289 41.8125C157.289 42.2409 157.186 42.6191 156.981 42.9473C156.776 43.2754 156.455 43.5329 156.017 43.7197C155.58 43.9066 155.01 44 154.308 44H151.082V36.5078H154.281C154.819 36.5078 155.293 36.5693 155.703 36.6924C156.118 36.8109 156.443 37.0068 156.68 37.2803C156.917 37.5537 157.036 37.9229 157.036 38.3877ZM156.106 41.8125C156.106 41.3704 155.938 41.0514 155.6 40.8555C155.268 40.6595 154.782 40.5615 154.144 40.5615H152.223V43.0771H154.172C154.801 43.0771 155.279 42.9814 155.607 42.79C155.94 42.5941 156.106 42.2682 156.106 41.8125ZM155.881 38.5176C155.881 38.1621 155.751 37.8978 155.491 37.7246C155.231 37.5469 154.805 37.458 154.213 37.458H152.223V39.6113H154.014C154.63 39.6113 155.095 39.5225 155.409 39.3447C155.723 39.167 155.881 38.8913 155.881 38.5176ZM160.901 36.5078V41.2178C160.901 41.3089 160.899 41.4274 160.894 41.5732C160.89 41.7145 160.883 41.8672 160.874 42.0312C160.865 42.1908 160.855 42.3457 160.846 42.4961C160.842 42.6419 160.835 42.7627 160.826 42.8584L164.914 36.5078H166.308V44H165.249V39.4062C165.249 39.2604 165.251 39.0736 165.255 38.8457C165.26 38.6178 165.267 38.3945 165.276 38.1758C165.285 37.9525 165.292 37.7793 165.296 37.6562L161.222 44H159.821V36.5078H160.901ZM174.528 37.4717H172.06V44H170.939V37.4717H168.505V36.5078H174.528V37.4717ZM177.853 39.5977H180.15C180.788 39.5977 181.319 39.6774 181.742 39.8369C182.166 39.9964 182.483 40.2334 182.693 40.5479C182.907 40.8623 183.014 41.252 183.014 41.7168C183.014 42.1816 182.909 42.585 182.699 42.9268C182.494 43.2686 182.175 43.5329 181.742 43.7197C181.314 43.9066 180.76 44 180.081 44H176.711V36.5078H177.853V39.5977ZM181.872 41.7715C181.872 41.3112 181.708 40.9922 181.38 40.8145C181.057 40.6322 180.603 40.541 180.02 40.541H177.853V43.0771H180.027C180.573 43.0771 181.018 42.9769 181.36 42.7764C181.701 42.5713 181.872 42.2363 181.872 41.7715Z" fill="#7E8389"/>
<path d="M367.496 246.898C364.755 245.682 361.94 244.601 359.055 243.68L252.663 303.554C251.962 306.459 251.419 309.423 251.031 312.44L367.496 246.898Z" fill="#FDF1DC"/>
<path d="M400.005 272.538C398.409 270.452 396.717 268.442 394.935 266.517L253.536 346.092C254.26 348.631 255.101 351.116 256.053 353.548L400.005 272.538Z" fill="#FDF1DC"/>
<path d="M406.844 283.002C405.662 280.854 404.393 278.763 403.033 276.736L258.084 358.306C259.12 360.53 260.252 362.697 261.473 364.808L406.844 283.002Z" fill="#FDF1DC"/>
<path d="M405.182 366.219L333.472 406.575C333.559 406.575 333.644 406.58 333.728 406.58C338.837 406.58 343.828 406.096 348.683 405.218L396.09 378.539C399.482 374.725 402.534 370.607 405.182 366.219Z" fill="#FDF1DC"/>
<path d="M373.124 249.637L250.443 318.676C250.364 320.165 250.319 321.662 250.319 323.168C250.319 324.64 250.359 326.101 250.435 327.553L380.707 254.242C378.269 252.578 375.739 251.038 373.124 249.637Z" fill="#FDF1DC"/>
<path d="M391.177 262.724C389.283 260.923 387.304 259.211 385.247 257.593L250.935 333.176C251.248 335.797 251.678 338.378 252.227 340.92L391.177 262.724Z" fill="#FDF1DC"/>
<path d="M416.959 328.449L295.041 397.06C298.388 398.816 301.861 400.361 305.459 401.656L415.495 339.733C416.233 336.054 416.72 332.285 416.959 328.449Z" fill="#FDF1DC"/>
<path d="M409.595 357.831C411.247 354.219 412.652 350.47 413.78 346.603L312.205 403.763C316.036 404.782 319.974 405.531 324.002 405.998L409.595 357.831Z" fill="#FDF1DC"/>
<path d="M329.025 239.896C302.448 241.377 279.2 255.296 264.991 275.931L329.025 239.896Z" fill="#FDF1DC"/>
<path d="M413.79 299.773L272.186 379.463C274.184 381.644 276.304 383.711 278.522 385.672L415.814 308.412C415.288 305.476 414.615 302.593 413.79 299.773Z" fill="#FDF1DC"/>
<path d="M412.181 294.776C411.294 292.324 410.29 289.929 409.183 287.59L264.173 369.194C265.611 371.361 267.148 373.456 268.778 375.477L412.181 294.776Z" fill="#FDF1DC"/>
<path d="M417.124 322.451C417.099 319.552 416.927 316.686 416.612 313.866L282.773 389.184C285.037 390.935 287.387 392.573 289.827 394.088L417.124 322.451Z" fill="#FDF1DC"/>
<path d="M254.7 296.501L351.949 241.772C347.867 240.863 343.673 240.252 339.392 239.965L259.657 284.836C257.717 288.571 256.059 292.467 254.7 296.501Z" fill="#FDF1DC"/>
<path d="M234.913 408.53H234.734C233.831 408.53 232.911 408.509 231.997 408.468C231.798 408.459 231.644 408.291 231.653 408.091C231.662 407.892 231.829 407.744 232.03 407.747C232.932 407.788 233.842 407.809 234.734 407.809H234.913C235.112 407.809 235.274 407.971 235.274 408.169C235.274 408.368 235.112 408.53 234.913 408.53ZM237.813 408.45C237.621 408.45 237.462 408.301 237.452 408.108C237.443 407.909 237.596 407.74 237.795 407.729C238.746 407.681 239.712 407.608 240.667 407.512C240.891 407.479 241.043 407.637 241.063 407.834C241.083 408.033 240.938 408.211 240.74 408.23C239.773 408.326 238.793 408.4 237.831 408.449C237.825 408.45 237.819 408.45 237.813 408.45ZM229.122 408.268C229.111 408.268 229.1 408.268 229.089 408.267C228.114 408.174 227.139 408.058 226.189 407.92C225.992 407.892 225.856 407.709 225.885 407.512C225.911 407.316 226.08 407.177 226.293 407.208C227.23 407.343 228.193 407.457 229.156 407.548C229.355 407.566 229.5 407.743 229.481 407.941C229.463 408.129 229.307 408.268 229.122 408.268ZM243.581 407.872C243.405 407.872 243.252 407.744 243.224 407.565C243.195 407.368 243.33 407.185 243.527 407.155C244.47 407.015 245.423 406.846 246.365 406.657C246.571 406.62 246.751 406.745 246.79 406.938C246.83 407.134 246.703 407.324 246.509 407.364C245.555 407.555 244.589 407.726 243.635 407.868C243.616 407.871 243.598 407.872 243.581 407.872ZM223.383 407.442C223.36 407.442 223.337 407.44 223.314 407.435C222.371 407.253 221.412 407.042 220.464 406.808C220.27 406.76 220.153 406.564 220.199 406.371C220.247 406.178 220.45 406.062 220.636 406.106C221.574 406.339 222.521 406.547 223.452 406.727C223.648 406.765 223.775 406.954 223.737 407.15C223.704 407.322 223.552 407.442 223.383 407.442ZM249.264 406.732C249.102 406.732 248.955 406.623 248.915 406.46C248.866 406.267 248.983 406.069 249.176 406.021C250.099 405.787 251.033 405.527 251.953 405.245C252.141 405.192 252.345 405.294 252.404 405.485C252.461 405.675 252.355 405.876 252.164 405.936C251.233 406.22 250.287 406.485 249.354 406.72C249.323 406.729 249.294 406.732 249.264 406.732ZM217.754 406.056C217.72 406.056 217.685 406.051 217.651 406.04C216.727 405.764 215.793 405.46 214.876 405.135C214.687 405.069 214.588 404.863 214.656 404.676C214.722 404.489 214.93 404.389 215.115 404.456C216.023 404.776 216.945 405.077 217.857 405.351C218.048 405.407 218.157 405.609 218.099 405.798C218.052 405.954 217.908 406.056 217.754 406.056ZM254.809 405.034C254.662 405.034 254.523 404.943 254.469 404.796C254.402 404.609 254.499 404.401 254.686 404.334C255.595 404.005 256.496 403.654 257.366 403.292C257.553 403.213 257.762 403.301 257.838 403.485C257.915 403.669 257.829 403.88 257.645 403.956C256.765 404.324 255.851 404.678 254.932 405.013C254.891 405.027 254.85 405.034 254.809 405.034ZM212.284 404.119C212.237 404.119 212.191 404.111 212.147 404.093C211.252 403.725 210.351 403.328 209.471 402.915C209.291 402.83 209.213 402.615 209.298 402.435C209.383 402.255 209.6 402.18 209.778 402.262C210.647 402.67 211.537 403.062 212.421 403.425C212.605 403.502 212.694 403.713 212.618 403.896C212.56 404.034 212.426 404.119 212.284 404.119ZM260.145 402.804C260.012 402.804 259.882 402.728 259.82 402.599C259.735 402.419 259.811 402.204 259.991 402.118C260.855 401.706 261.718 401.268 262.558 400.817C262.729 400.723 262.95 400.789 263.045 400.964C263.139 401.139 263.074 401.357 262.898 401.451C262.05 401.909 261.176 402.352 260.301 402.769C260.251 402.793 260.198 402.804 260.145 402.804ZM207.026 401.648C206.969 401.648 206.91 401.635 206.857 401.606C205.988 401.144 205.131 400.663 204.311 400.172C204.14 400.069 204.085 399.848 204.186 399.678C204.287 399.503 204.508 399.452 204.68 399.553C205.49 400.038 206.336 400.514 207.194 400.97C207.37 401.063 207.436 401.281 207.343 401.457C207.28 401.58 207.154 401.648 207.026 401.648ZM265.243 400.06C265.12 400.06 265.001 399.998 264.934 399.885C264.831 399.714 264.886 399.493 265.056 399.391C265.866 398.902 266.684 398.383 267.485 397.843C267.65 397.729 267.873 397.775 267.985 397.94C268.096 398.105 268.053 398.33 267.888 398.44C267.075 398.986 266.248 399.515 265.429 400.008C265.37 400.043 265.306 400.06 265.243 400.06ZM202.041 398.675C201.972 398.675 201.902 398.655 201.841 398.614C201.032 398.076 200.228 397.511 199.45 396.938C199.29 396.82 199.255 396.594 199.374 396.434C199.494 396.274 199.72 396.241 199.878 396.358C200.647 396.925 201.442 397.482 202.24 398.014C202.407 398.124 202.451 398.347 202.341 398.514C202.271 398.618 202.157 398.675 202.041 398.675ZM270.049 396.83C269.939 396.83 269.83 396.781 269.76 396.685C269.64 396.526 269.674 396.301 269.833 396.181C270.598 395.609 271.361 395.01 272.099 394.401C272.254 394.274 272.481 394.299 272.608 394.449C272.733 394.603 272.712 394.831 272.559 394.958C271.811 395.574 271.039 396.179 270.264 396.758C270.2 396.806 270.125 396.83 270.049 396.83ZM197.373 395.232C197.293 395.232 197.213 395.205 197.145 395.15C196.395 394.539 195.649 393.9 194.93 393.251C194.783 393.117 194.77 392.89 194.904 392.742C195.037 392.594 195.267 392.582 195.412 392.715C196.123 393.356 196.86 393.987 197.601 394.593C197.755 394.718 197.779 394.945 197.652 395.1C197.582 395.186 197.478 395.232 197.373 395.232ZM274.517 393.142C274.418 393.142 274.321 393.102 274.251 393.023C274.116 392.877 274.127 392.648 274.275 392.515C274.984 391.87 275.685 391.199 276.36 390.522C276.501 390.382 276.729 390.381 276.871 390.522C277.012 390.661 277.012 390.889 276.871 391.032C276.189 391.716 275.479 392.395 274.761 393.047C274.69 393.111 274.605 393.142 274.517 393.142ZM193.065 391.348C192.974 391.348 192.881 391.313 192.811 391.244C192.129 390.564 191.449 389.856 190.791 389.136C190.658 388.989 190.667 388.761 190.814 388.626C190.961 388.492 191.19 388.502 191.324 388.648C191.973 389.361 192.645 390.061 193.318 390.73C193.461 390.871 193.461 391.099 193.321 391.239C193.252 391.313 193.158 391.348 193.065 391.348ZM278.611 389.033C278.526 389.033 278.438 389.002 278.369 388.94C278.222 388.806 278.21 388.578 278.344 388.43C278.982 387.724 279.614 386.989 280.224 386.245C280.351 386.09 280.579 386.068 280.731 386.195C280.886 386.322 280.909 386.548 280.782 386.702C280.165 387.456 279.523 388.199 278.878 388.914C278.807 388.993 278.71 389.033 278.611 389.033ZM189.159 387.068C189.054 387.068 188.952 387.022 188.881 386.937C188.265 386.195 187.659 385.423 187.076 384.643C186.956 384.484 186.989 384.259 187.149 384.139C187.31 384.022 187.535 384.052 187.654 384.212C188.228 384.98 188.829 385.743 189.435 386.477C189.562 386.63 189.541 386.857 189.387 386.984C189.321 387.041 189.24 387.068 189.159 387.068ZM282.284 384.546C282.209 384.546 282.133 384.523 282.069 384.475C281.909 384.357 281.874 384.131 281.993 383.971C282.563 383.202 283.121 382.408 283.653 381.611C283.762 381.444 283.985 381.4 284.153 381.51C284.319 381.62 284.363 381.844 284.253 382.01C283.715 382.817 283.15 383.622 282.574 384.399C282.502 384.495 282.393 384.546 282.284 384.546ZM185.689 382.43C185.573 382.43 185.459 382.373 185.391 382.27C184.858 381.48 184.33 380.655 183.82 379.816C183.717 379.645 183.771 379.423 183.941 379.32C184.113 379.217 184.334 379.271 184.437 379.441C184.939 380.27 185.463 381.088 185.988 381.868C186.099 382.033 186.055 382.257 185.891 382.368C185.829 382.41 185.759 382.43 185.689 382.43ZM285.504 379.719C285.44 379.719 285.377 379.702 285.319 379.668C285.148 379.565 285.093 379.344 285.194 379.174C285.687 378.348 286.165 377.503 286.614 376.661C286.708 376.485 286.925 376.422 287.103 376.513C287.278 376.607 287.344 376.826 287.25 377.002C286.796 377.853 286.312 378.709 285.813 379.544C285.747 379.655 285.626 379.719 285.504 379.719ZM182.69 377.475C182.562 377.475 182.438 377.407 182.373 377.287C181.912 376.433 181.467 375.56 181.052 374.69C180.966 374.51 181.042 374.295 181.223 374.209C181.4 374.125 181.617 374.199 181.703 374.38C182.115 375.238 182.552 376.101 183.008 376.944C183.102 377.119 183.037 377.338 182.863 377.432C182.807 377.461 182.748 377.475 182.69 377.475ZM288.234 374.595C288.182 374.595 288.13 374.583 288.081 374.561C287.9 374.475 287.822 374.261 287.907 374.081C288.316 373.215 288.709 372.326 289.075 371.438C289.149 371.256 289.362 371.168 289.547 371.243C289.73 371.319 289.819 371.53 289.742 371.715C289.37 372.613 288.973 373.512 288.56 374.388C288.499 374.519 288.37 374.595 288.234 374.595ZM180.194 372.255C180.053 372.255 179.92 372.172 179.861 372.034C179.489 371.148 179.135 370.236 178.802 369.323C178.734 369.136 178.831 368.93 179.019 368.86C179.208 368.795 179.412 368.89 179.481 369.077C179.808 369.979 180.161 370.88 180.527 371.755C180.604 371.938 180.517 372.149 180.334 372.227C180.288 372.247 180.24 372.255 180.194 372.255ZM290.447 369.226C290.406 369.226 290.366 369.219 290.326 369.204C290.139 369.137 290.041 368.931 290.108 368.744C290.423 367.862 290.726 366.939 291.009 365.999C291.066 365.808 291.263 365.694 291.459 365.758C291.649 365.815 291.757 366.016 291.7 366.207C291.414 367.159 291.107 368.095 290.787 368.986C290.735 369.134 290.596 369.226 290.447 369.226ZM178.221 366.813C178.066 366.813 177.923 366.713 177.876 366.559C177.596 365.647 177.331 364.702 177.089 363.75C177.04 363.557 177.157 363.361 177.35 363.312C177.54 363.266 177.74 363.379 177.788 363.572C178.027 364.513 178.29 365.447 178.567 366.347C178.624 366.537 178.518 366.739 178.328 366.798C178.292 366.807 178.256 366.813 178.221 366.813ZM292.12 363.668C292.092 363.668 292.063 363.666 292.033 363.657C291.84 363.609 291.721 363.415 291.771 363.221C291.997 362.302 292.208 361.355 292.394 360.407C292.431 360.211 292.612 360.086 292.817 360.122C293.012 360.16 293.139 360.349 293.101 360.545C292.914 361.505 292.702 362.464 292.47 363.396C292.43 363.558 292.281 363.668 292.12 363.668ZM176.793 361.193C176.624 361.193 176.475 361.075 176.439 360.904C176.251 359.97 176.08 359.005 175.933 358.032C175.903 357.835 176.038 357.65 176.234 357.62C176.428 357.591 176.615 357.726 176.645 357.921C176.792 358.882 176.961 359.837 177.147 360.759C177.187 360.955 177.06 361.145 176.866 361.185C176.841 361.191 176.815 361.193 176.793 361.193ZM293.231 357.979C293.214 357.979 293.197 357.977 293.179 357.975C292.981 357.946 292.845 357.764 292.874 357.566C293.012 356.623 293.128 355.659 293.218 354.706C293.238 354.507 293.411 354.347 293.611 354.381C293.81 354.399 293.955 354.576 293.936 354.774C293.844 355.74 293.728 356.715 293.587 357.671C293.562 357.849 293.408 357.979 293.231 357.979ZM175.928 355.463C175.746 355.463 175.589 355.325 175.569 355.139C175.472 354.172 175.396 353.194 175.345 352.231C175.335 352.032 175.487 351.863 175.687 351.852C175.878 351.866 176.056 351.996 176.066 352.194C176.115 353.145 176.191 354.111 176.288 355.066C176.307 355.265 176.163 355.441 175.965 355.462C175.952 355.463 175.939 355.463 175.928 355.463ZM293.782 352.209C293.776 352.209 293.77 352.209 293.764 352.209C293.565 352.199 293.412 352.03 293.42 351.831C293.464 350.93 293.486 350 293.486 349.07V348.95C293.486 348.751 293.648 348.59 293.846 348.59C294.044 348.59 294.206 348.752 294.206 348.95V349.07C294.206 350.012 294.184 350.953 294.141 351.866C294.132 352.058 293.974 352.209 293.782 352.209ZM175.622 349.674C175.423 349.674 175.262 349.512 175.262 349.313V349.07C175.262 348.107 175.286 347.125 175.332 346.155C175.341 345.956 175.522 345.806 175.709 345.811C175.909 345.82 176.063 345.99 176.053 346.188C176.007 347.149 175.983 348.118 175.983 349.07V349.313C175.983 349.512 175.821 349.674 175.622 349.674ZM293.77 346.411C293.579 346.411 293.42 346.262 293.41 346.069C293.362 345.11 293.29 344.142 293.196 343.194C293.176 342.995 293.321 342.819 293.52 342.8C293.722 342.767 293.895 342.927 293.915 343.124C294.009 344.083 294.082 345.062 294.132 346.032C294.141 346.231 293.987 346.4 293.789 346.411C293.783 346.411 293.776 346.411 293.77 346.411ZM175.902 343.64C175.891 343.64 175.88 343.64 175.867 343.639C175.668 343.619 175.523 343.443 175.543 343.244C175.639 342.268 175.758 341.293 175.898 340.35C175.927 340.152 176.109 340.01 176.307 340.045C176.504 340.073 176.64 340.258 176.611 340.453C176.473 341.387 176.356 342.349 176.262 343.313C176.244 343.5 176.086 343.64 175.902 343.64ZM293.197 340.644C293.022 340.644 292.868 340.516 292.841 340.337C292.698 339.386 292.532 338.431 292.345 337.497C292.305 337.302 292.432 337.113 292.628 337.073C292.828 337.034 293.012 337.162 293.052 337.356C293.24 338.302 293.409 339.268 293.553 340.229C293.583 340.427 293.448 340.609 293.251 340.639C293.233 340.643 293.215 340.644 293.197 340.644ZM176.747 337.904C176.724 337.904 176.7 337.902 176.676 337.898C176.482 337.86 176.354 337.669 176.393 337.474C176.582 336.52 176.796 335.562 177.031 334.626C177.079 334.434 177.271 334.308 177.468 334.364C177.661 334.412 177.779 334.608 177.73 334.801C177.499 335.726 177.287 336.673 177.1 337.615C177.067 337.786 176.916 337.904 176.747 337.904ZM292.063 334.961C291.901 334.961 291.755 334.853 291.714 334.687C291.48 333.758 291.22 332.824 290.941 331.913C290.883 331.723 290.989 331.521 291.18 331.462C291.37 331.409 291.573 331.511 291.631 331.701C291.912 332.624 292.177 333.57 292.413 334.513C292.461 334.705 292.345 334.901 292.151 334.949C292.121 334.958 292.092 334.961 292.063 334.961ZM178.148 332.282C178.113 332.282 178.08 332.278 178.044 332.266C177.852 332.209 177.745 332.007 177.803 331.817C178.081 330.898 178.39 329.964 178.72 329.039C178.786 328.85 179 328.756 179.18 328.82C179.367 328.886 179.466 329.094 179.399 329.281C179.074 330.193 178.768 331.118 178.493 332.025C178.446 332.182 178.303 332.282 178.148 332.282ZM290.37 329.415C290.223 329.415 290.084 329.323 290.03 329.176C289.71 328.284 289.36 327.382 288.991 326.497C288.914 326.313 289 326.102 289.184 326.025C289.37 325.947 289.579 326.035 289.656 326.218C290.03 327.115 290.386 328.028 290.709 328.931C290.777 329.12 290.68 329.326 290.492 329.393C290.452 329.407 290.41 329.415 290.37 329.415ZM180.107 326.812C180.06 326.812 180.014 326.803 179.968 326.784C179.784 326.707 179.697 326.496 179.774 326.313C180.144 325.42 180.543 324.521 180.96 323.641C181.043 323.462 181.258 323.385 181.44 323.471C181.62 323.555 181.697 323.771 181.611 323.951C181.199 324.819 180.806 325.707 180.439 326.589C180.383 326.729 180.247 326.812 180.107 326.812ZM288.147 324.075C288.011 324.075 287.883 323.999 287.822 323.869C287.406 322.997 286.969 322.134 286.523 321.303C286.429 321.128 286.494 320.911 286.67 320.816C286.843 320.72 287.062 320.787 287.157 320.963C287.611 321.803 288.052 322.678 288.473 323.56C288.558 323.74 288.482 323.954 288.302 324.04C288.251 324.064 288.199 324.075 288.147 324.075ZM182.592 321.564C182.534 321.564 182.476 321.55 182.421 321.522C182.246 321.428 182.18 321.209 182.273 321.033C182.736 320.17 183.221 319.315 183.717 318.493C183.818 318.321 184.041 318.266 184.211 318.369C184.382 318.472 184.437 318.694 184.334 318.864C183.845 319.676 183.366 320.519 182.91 321.374C182.845 321.495 182.719 321.564 182.592 321.564ZM285.407 318.978C285.284 318.978 285.166 318.917 285.098 318.803C284.604 317.983 284.082 317.164 283.552 316.375C283.441 316.21 283.485 315.986 283.649 315.875C283.814 315.762 284.038 315.806 284.149 315.972C284.687 316.772 285.215 317.6 285.715 318.431C285.818 318.602 285.763 318.823 285.592 318.926C285.536 318.961 285.47 318.978 285.407 318.978ZM185.582 316.589C185.513 316.589 185.442 316.569 185.382 316.528C185.216 316.417 185.172 316.193 185.282 316.027C185.82 315.224 186.387 314.422 186.966 313.642C187.085 313.482 187.311 313.449 187.471 313.568C187.63 313.687 187.664 313.912 187.544 314.072C186.972 314.843 186.412 315.635 185.881 316.429C185.812 316.532 185.698 316.589 185.582 316.589ZM282.18 314.17C282.07 314.17 281.961 314.12 281.891 314.025C281.318 313.255 280.719 312.492 280.113 311.758C279.987 311.604 280.008 311.377 280.161 311.25C280.317 311.122 280.543 311.146 280.67 311.299C281.283 312.044 281.887 312.815 282.468 313.594C282.588 313.754 282.554 313.98 282.395 314.099C282.33 314.146 282.254 314.17 282.18 314.17ZM189.041 311.933C188.96 311.933 188.878 311.906 188.811 311.851C188.657 311.725 188.635 311.497 188.762 311.344C189.373 310.601 190.014 309.857 190.67 309.135C190.805 308.989 191.033 308.978 191.179 309.11C191.327 309.244 191.339 309.472 191.205 309.62C190.557 310.334 189.923 311.068 189.32 311.802C189.247 311.887 189.145 311.933 189.041 311.933ZM278.496 309.696C278.397 309.696 278.3 309.657 278.23 309.578C277.583 308.868 276.912 308.166 276.238 307.494C276.097 307.353 276.097 307.125 276.238 306.984C276.378 306.843 276.606 306.843 276.748 306.983C277.431 307.664 278.109 308.375 278.762 309.093C278.898 309.241 278.887 309.469 278.738 309.603C278.669 309.665 278.583 309.696 278.496 309.696ZM192.938 307.638C192.845 307.638 192.753 307.603 192.683 307.532C192.542 307.392 192.542 307.164 192.683 307.022C193.372 306.333 194.083 305.656 194.796 305.011C194.942 304.875 195.17 304.888 195.306 305.036C195.44 305.183 195.429 305.412 195.28 305.545C194.576 306.183 193.873 306.851 193.192 307.532C193.122 307.603 193.03 307.638 192.938 307.638ZM274.391 305.602C274.305 305.602 274.218 305.571 274.149 305.508C273.443 304.869 272.708 304.236 271.965 303.627C271.81 303.501 271.788 303.273 271.915 303.119C272.041 302.966 272.27 302.943 272.421 303.069C273.174 303.686 273.917 304.327 274.633 304.975C274.78 305.108 274.792 305.336 274.659 305.484C274.587 305.562 274.49 305.602 274.391 305.602ZM197.231 303.744C197.126 303.744 197.024 303.699 196.952 303.612C196.825 303.458 196.847 303.231 197.003 303.104C197.762 302.481 198.536 301.878 199.301 301.309C199.463 301.192 199.687 301.225 199.807 301.384C199.925 301.544 199.892 301.77 199.732 301.888C198.974 302.449 198.21 303.046 197.46 303.662C197.393 303.718 197.312 303.744 197.231 303.744ZM269.906 301.924C269.832 301.924 269.755 301.901 269.692 301.853C268.924 301.285 268.131 300.726 267.332 300.194C267.166 300.083 267.122 299.859 267.232 299.694C267.343 299.526 267.565 299.484 267.732 299.593C268.541 300.134 269.344 300.699 270.12 301.274C270.28 301.393 270.315 301.619 270.196 301.779C270.125 301.874 270.016 301.924 269.906 301.924ZM201.883 300.29C201.767 300.29 201.653 300.233 201.582 300.13C201.473 299.965 201.516 299.741 201.683 299.63C202.488 299.09 203.317 298.565 204.144 298.069C204.317 297.965 204.534 298.021 204.64 298.193C204.741 298.364 204.686 298.585 204.515 298.687C203.697 299.177 202.879 299.696 202.083 300.229C202.023 300.27 201.951 300.29 201.883 300.29ZM265.081 298.701C265.018 298.701 264.954 298.684 264.897 298.649C264.068 298.154 263.223 297.675 262.383 297.227C262.208 297.133 262.142 296.914 262.236 296.739C262.33 296.563 262.547 296.498 262.725 296.591C263.573 297.045 264.428 297.53 265.267 298.031C265.438 298.133 265.493 298.354 265.392 298.525C265.324 298.638 265.204 298.701 265.081 298.701ZM206.846 297.307C206.718 297.307 206.592 297.238 206.528 297.117C206.435 296.941 206.499 296.722 206.675 296.629C207.526 296.173 208.401 295.731 209.274 295.316C209.458 295.231 209.669 295.308 209.755 295.487C209.841 295.667 209.765 295.882 209.584 295.967C208.72 296.378 207.857 296.814 207.016 297.264C206.961 297.293 206.903 297.307 206.846 297.307ZM259.959 295.965C259.907 295.965 259.855 295.954 259.806 295.93C258.937 295.52 258.047 295.127 257.165 294.762C256.981 294.686 256.893 294.476 256.969 294.292C257.045 294.105 257.256 294.019 257.441 294.096C258.336 294.465 259.234 294.863 260.113 295.279C260.293 295.364 260.371 295.579 260.284 295.759C260.224 295.888 260.095 295.965 259.959 295.965ZM212.075 294.828C211.934 294.828 211.799 294.743 211.742 294.605C211.665 294.422 211.752 294.211 211.937 294.135C212.825 293.766 213.738 293.412 214.652 293.086C214.834 293.021 215.044 293.115 215.113 293.304C215.18 293.491 215.083 293.697 214.894 293.765C213.992 294.088 213.091 294.437 212.213 294.802C212.168 294.819 212.121 294.828 212.075 294.828ZM254.59 293.746C254.549 293.746 254.509 293.74 254.469 293.725C253.57 293.404 252.647 293.1 251.725 292.822C251.535 292.765 251.427 292.564 251.484 292.373C251.541 292.184 251.739 292.073 251.934 292.132C252.866 292.413 253.802 292.72 254.712 293.045C254.899 293.112 254.998 293.319 254.931 293.506C254.878 293.654 254.739 293.746 254.59 293.746ZM217.526 292.872C217.37 292.872 217.228 292.772 217.181 292.617C217.123 292.425 217.23 292.225 217.422 292.166C218.356 291.882 219.302 291.621 220.234 291.388C220.434 291.336 220.621 291.457 220.67 291.65C220.719 291.843 220.602 292.039 220.409 292.087C219.489 292.317 218.555 292.576 217.63 292.857C217.596 292.867 217.561 292.872 217.526 292.872ZM249.034 292.069C249.006 292.069 248.977 292.066 248.947 292.059C248.017 291.828 247.07 291.618 246.133 291.434C245.938 291.396 245.811 291.207 245.848 291.01C245.886 290.816 246.078 290.684 246.271 290.726C247.221 290.913 248.179 291.126 249.121 291.358C249.314 291.406 249.431 291.602 249.383 291.795C249.345 291.96 249.196 292.069 249.034 292.069ZM223.149 291.463C222.98 291.463 222.829 291.344 222.796 291.173C222.756 290.978 222.883 290.788 223.079 290.75C224.024 290.562 224.992 290.394 225.954 290.252C226.146 290.221 226.334 290.359 226.363 290.556C226.392 290.753 226.255 290.936 226.06 290.965C225.109 291.105 224.154 291.271 223.22 291.456C223.196 291.461 223.172 291.463 223.149 291.463ZM243.346 290.951C243.329 290.951 243.313 290.949 243.294 290.948C242.344 290.81 241.382 290.693 240.431 290.602C240.234 290.583 240.089 290.406 240.107 290.208C240.127 290.01 240.272 289.864 240.502 289.883C241.463 289.976 242.437 290.094 243.399 290.233C243.596 290.262 243.732 290.445 243.703 290.642C243.677 290.822 243.522 290.951 243.346 290.951ZM228.884 290.615C228.701 290.615 228.543 290.476 228.524 290.29C228.505 290.092 228.65 289.915 228.849 289.895C229.808 289.801 230.787 289.729 231.757 289.681C231.764 289.68 231.77 289.68 231.775 289.68C231.967 289.68 232.126 289.83 232.136 290.023C232.145 290.222 231.992 290.391 231.793 290.4C230.834 290.449 229.866 290.52 228.918 290.613C228.908 290.614 228.895 290.615 228.884 290.615ZM237.574 290.396C237.568 290.396 237.563 290.396 237.557 290.395C236.622 290.352 235.671 290.329 234.734 290.329C234.535 290.329 234.344 290.168 234.344 289.969C234.344 289.77 234.476 289.609 234.675 289.609H234.734C235.682 289.609 236.644 289.631 237.591 289.677C237.79 289.686 237.944 289.855 237.935 290.053C237.925 290.245 237.766 290.396 237.574 290.396Z" fill="#3C251D"/>
<path d="M212.826 379.942C213.651 376.396 216.568 372.893 215.366 369.566C211.797 366.907 207.482 364.792 202.639 363.843C200.616 363.446 198.478 363.171 196.294 362.978C196.205 363.257 196.123 363.535 196.055 363.807C195.393 366.524 195.01 369.792 197.004 371.757C197.79 372.529 198.857 372.984 199.591 373.803C201.074 375.46 200.812 378.122 200.622 380.149C200.521 381.249 200.2 382.336 199.542 383.223C196.962 386.71 192.659 384.12 191.595 380.889C190.714 378.21 191.274 375.309 191.373 372.493C191.494 369.16 190.94 365.804 189.768 362.677C186.5 362.654 183.236 362.808 180.129 363.109C179.405 365.28 179.739 367.831 181.212 369.602C182.895 371.626 185.646 372.523 187.041 374.89C187.584 375.81 187.794 376.94 187.45 377.955C186.716 380.132 184.251 380.208 182.653 379.209C181.422 378.439 180.597 377.182 179.84 375.944C178.066 373.04 176.455 370.034 175.017 366.947C174.549 365.938 174.078 364.9 173.407 364.026C169.34 364.759 165.889 365.742 163.59 366.868C163.355 369.353 164.713 372.028 167.002 373.145C168.089 373.675 169.314 373.895 170.368 374.487C171.419 375.083 172.31 376.265 172.002 377.434C171.599 378.953 169.53 379.333 168.047 378.809C165.103 377.775 163.472 374.743 161.527 372.303C160.624 371.17 159.406 370.126 158.096 369.471C153.545 371.57 150.123 373.079 149.128 374.242C147.766 375.833 145.202 373.361 144.193 377.595C143.188 381.828 146.253 383.076 149.855 387.395C150.572 388.252 151.282 389.199 152.026 390.204C155.843 388.347 159.458 385.777 163.905 385.865C165.709 385.901 167.457 386.625 168.747 387.886C169.137 388.265 169.51 388.74 169.546 389.29C169.579 389.762 169.36 390.214 169.117 390.616C166.92 394.293 162.153 396.222 158.017 395.102C157.225 394.889 156.249 394.673 155.411 394.699C157.192 396.955 159.311 399.362 162.045 401.782C163.492 403.062 165.594 403.429 167.339 402.597C168.338 402.122 169.297 401.549 170.194 400.943C173.429 398.756 176.533 396.045 180.486 395.616C181.432 395.515 182.427 395.688 183.17 396.281C185.22 397.912 183.924 400.94 182.558 403.029C181.009 405.396 179.156 407.973 176.37 408.474C175.234 408.677 174.045 408.507 172.938 408.831C172.356 409.001 171.802 409.401 171.458 409.892C174.818 412.983 178.564 415.612 191.418 419.577C191.425 419.577 191.431 419.574 191.438 419.574C192.833 418.343 194.093 416.83 195.318 415.458C197.597 412.908 200.2 410.645 203.039 408.743C203.942 408.137 205.187 408.085 206.035 408.766C207.482 409.925 206.47 411.997 205.442 413.386C204.185 415.088 202.924 416.791 201.667 418.494C201.038 419.342 200.416 420.35 200.079 421.362C212.662 422.675 219.223 417.174 220.356 413.445C220.409 412.714 220.484 411.988 220.589 411.264C220.389 407.037 217.092 402.086 218.166 399.441C220.952 392.588 226.001 393.341 225.86 385.78C225.808 383.095 224.557 379.883 222.377 376.74C220.491 376.953 218.745 378.024 218.192 379.831C217.681 381.498 218.038 383.691 216.571 384.631C215.488 385.325 213.929 384.752 213.228 383.672C212.537 382.594 212.534 381.196 212.826 379.942ZM200.537 402.793C200.521 403.363 200.292 403.907 200.017 404.404C199.034 406.192 197.636 407.829 196.006 409.06C194.745 410.013 191.53 411.585 190.092 410.416C189.709 410.105 189.45 409.594 189.392 408.825C189.32 407.888 189.719 406.981 190.204 406.176C191.471 404.057 193.399 402.355 195.636 401.313C196.549 400.888 197.846 400.239 198.854 400.524C199.787 400.79 200.567 401.834 200.537 402.793ZM178.38 388.354C179.002 388.773 179.045 389.565 178.881 390.253C178.302 392.712 176.108 394.326 173.603 393.661C173.204 393.557 172.804 393.393 172.526 393.088C172.064 392.571 172.074 391.772 172.313 391.121C172.608 390.322 173.118 389.379 173.75 388.799C174.575 388.046 177.192 387.548 178.38 388.354ZM180.616 382.598C180.643 382.824 180.649 383.063 180.548 383.266C180.492 383.377 180.407 383.472 180.322 383.567C180.037 383.878 179.755 384.192 179.47 384.507C179.392 384.592 179.31 384.683 179.202 384.726C179.101 384.765 178.986 384.762 178.878 384.749C178.197 384.664 177.581 384.258 177.136 383.734C176.691 383.21 176.403 382.568 176.177 381.92C175.996 381.399 175.852 380.839 175.957 380.299C176.062 379.759 176.481 379.242 177.031 379.192C177.182 379.179 177.332 379.199 177.48 379.228C179.087 379.54 180.417 380.967 180.616 382.598ZM209.46 384.448C209.787 384.775 210.075 385.158 210.203 385.603C210.347 386.108 210.272 386.645 210.18 387.162C210.006 388.167 209.787 389.163 209.519 390.145C209.407 390.551 209.273 390.983 208.942 391.248C208.431 391.661 207.682 391.507 207.066 391.278C206.428 391.042 205.796 390.738 205.318 390.253C204.198 389.117 204.185 387.309 204.398 385.728C204.535 384.716 204.863 383.551 205.815 383.181C206.277 383 206.798 383.056 207.276 383.187C208.097 383.41 208.857 383.848 209.46 384.448Z" fill="#AEAF71"/>
<path d="M240.663 406.576C240.686 406.628 240.696 406.691 240.686 406.753C240.663 406.933 240.496 407.061 240.316 407.038C229.769 405.649 211.139 398.868 197.537 393.918C190.969 391.527 185.295 389.461 182.217 388.617C172.849 386.043 144.985 378.623 144.707 378.548C144.53 378.502 144.425 378.319 144.471 378.145C144.517 377.969 144.7 377.864 144.874 377.91C145.156 377.982 173.023 385.404 182.391 387.978C185.495 388.829 191.179 390.899 197.763 393.296C211.335 398.236 229.926 405.004 240.401 406.383C240.522 406.396 240.62 406.471 240.663 406.576Z" fill="#697055"/>
<path d="M266.872 336.143C263.463 333.635 258.235 332.745 256.784 328.899C257.926 323.853 260.139 318.722 263.699 314.221C265.185 312.341 266.865 310.483 268.649 308.66C268.935 308.838 269.221 309.02 269.484 309.21C272.124 311.11 274.933 313.706 274.654 316.949C274.546 318.226 273.946 319.434 273.919 320.714C273.861 323.299 276.105 325.451 277.804 327.099C278.725 327.993 279.832 328.713 281.082 328.999C285.996 330.129 287.842 324.588 286.337 320.927C285.091 317.897 282.401 315.754 280.184 313.343C277.557 310.487 275.51 307.105 274.182 303.46C277.05 300.968 280.049 298.638 283.024 296.552C285.304 297.926 286.937 300.43 286.975 303.107C287.018 306.165 285.265 309.04 285.826 312.182C286.043 313.405 286.712 314.562 287.78 315.196C290.075 316.566 292.308 314.767 292.966 312.677C293.473 311.067 293.248 309.334 292.981 307.666C292.354 303.758 291.503 299.884 290.443 296.072C290.094 294.826 289.727 293.553 289.657 292.272C293.805 289.846 297.594 288.105 300.477 287.362C302.562 289.382 303.387 292.772 302.206 295.484C301.645 296.773 300.728 297.895 300.248 299.215C299.768 300.538 299.877 302.252 301.034 303.053C302.535 304.09 304.652 302.86 305.565 301.281C307.38 298.143 306.533 294.23 306.409 290.605C306.351 288.921 306.637 287.079 307.299 285.508C312.906 283.922 317.074 282.668 318.827 282.943C321.23 283.318 321.628 279.193 325.718 282.173C329.809 285.152 328.04 288.569 328.129 295.109C328.145 296.409 328.23 297.783 328.334 299.234C323.555 300.48 318.424 300.94 314.562 304.381C312.995 305.778 312 307.739 311.811 309.829C311.753 310.46 311.784 311.16 312.167 311.675C312.496 312.116 313.03 312.348 313.552 312.522C318.273 314.109 323.942 312.209 326.752 308.095C327.289 307.306 327.99 306.381 328.748 305.77C328.88 309.109 328.826 312.836 328.241 317.042C327.932 319.267 326.349 321.183 324.178 321.767C322.936 322.1 321.655 322.32 320.405 322.464C315.893 322.974 311.103 322.928 307.291 325.54C306.378 326.163 305.631 327.072 305.422 328.156C304.845 331.143 308.278 332.842 311.064 333.655C314.222 334.576 317.809 335.45 320.645 333.786C321.802 333.109 322.723 332.056 323.946 331.507C324.588 331.217 325.382 331.151 326.055 331.325C325.424 336.596 324.105 341.746 315.746 354.973C315.739 354.976 315.735 354.98 315.727 354.984C313.564 354.949 311.308 354.566 309.187 354.284C305.244 353.754 301.239 353.723 297.288 354.187C296.03 354.334 294.893 355.228 294.657 356.474C294.258 358.591 296.711 359.659 298.673 360.108C301.073 360.661 303.472 361.21 305.871 361.764C307.067 362.039 308.378 362.456 309.443 363.095C299.32 373.768 289.367 373.868 285.544 371.434C284.944 370.827 284.328 370.242 283.69 369.681C280.672 365.796 279.84 358.931 276.891 357.407C269.248 353.46 265.356 357.941 259.768 351.157C257.783 348.746 256.463 344.962 256.01 340.539C257.837 339.304 260.19 338.925 262.043 340.105C263.754 341.193 265.096 343.402 267.101 343.12C268.583 342.911 269.527 341.231 269.33 339.745C269.136 338.267 268.08 337.029 266.872 336.143ZM295.001 347.04C295.446 347.531 296.061 347.837 296.68 348.069C298.902 348.905 301.374 349.292 303.743 349.149C305.577 349.036 309.605 347.996 309.992 345.879C310.097 345.31 309.938 344.668 309.408 343.944C308.762 343.062 307.724 342.563 306.687 342.214C303.967 341.301 300.972 341.255 298.213 342.029C297.087 342.342 295.45 342.752 294.773 343.766C294.15 344.702 294.254 346.212 295.001 347.04ZM303.657 317.534C303.425 318.373 303.986 319.105 304.652 319.588C307.02 321.322 310.182 321.09 311.892 318.609C312.163 318.215 312.399 317.77 312.407 317.29C312.426 316.485 311.811 315.784 311.107 315.394C310.244 314.91 309.079 314.465 308.08 314.43C306.788 314.384 304.099 315.92 303.657 317.534ZM297.334 314.14C297.481 314.36 297.656 314.577 297.899 314.678C298.035 314.736 298.182 314.755 298.325 314.775C298.813 314.836 299.3 314.898 299.784 314.96C299.919 314.976 300.059 314.995 300.186 314.949C300.306 314.906 300.403 314.817 300.492 314.724C301.03 314.132 301.266 313.312 301.262 312.511C301.258 311.71 301.03 310.928 300.736 310.185C300.5 309.589 300.206 308.986 299.707 308.587C299.207 308.188 298.445 308.049 297.919 308.421C297.776 308.521 297.659 308.653 297.551 308.792C296.371 310.286 296.278 312.549 297.334 314.14ZM273.254 337.578C273.211 338.116 273.246 338.67 273.47 339.161C273.726 339.714 274.198 340.132 274.666 340.519C275.579 341.274 276.527 341.99 277.506 342.655C277.913 342.93 278.358 343.209 278.849 343.193C279.611 343.17 280.161 342.466 280.532 341.8C280.919 341.108 281.244 340.365 281.302 339.575C281.434 337.725 280.08 336.12 278.694 334.885C277.808 334.096 276.639 333.31 275.517 333.705C274.976 333.895 274.554 334.34 274.233 334.815C273.671 335.632 273.331 336.592 273.254 337.578Z" fill="#96965F"/>
<path d="M260.012 382.77C260.031 382.835 260.07 382.893 260.124 382.944C260.283 383.087 260.527 383.071 260.666 382.917C268.935 373.718 280.262 353.643 288.535 338.988C292.529 331.911 295.981 325.796 298.059 322.724C304.389 313.371 323.393 285.753 323.583 285.475C323.703 285.3 323.66 285.061 323.486 284.941C323.312 284.821 323.072 284.863 322.952 285.037C322.759 285.316 303.755 312.938 297.424 322.291C295.327 325.39 291.867 331.516 287.866 338.609C279.612 353.236 268.305 373.266 260.097 382.402C260 382.503 259.973 382.646 260.012 382.77Z" fill="#697055"/>
<path d="M228.663 423.907C228.673 421.105 227.662 418.829 226.402 418.824C225.143 418.819 224.111 421.09 224.101 423.892C224.091 426.694 225.103 428.97 226.362 428.975C227.621 428.98 228.653 426.709 228.663 423.907Z" fill="#5B5B57"/>
<path d="M232.646 418.85L226.41 418.826L226.371 428.976L232.607 429L232.646 418.85Z" fill="#5B5B57"/>
<g opacity="0.27">
<g opacity="0.27">
<path opacity="0.27" d="M232.623 421.908L224.389 421.877C224.207 422.601 224.101 423.43 224.101 424.315C224.101 424.871 224.136 425.403 224.212 425.903L232.613 425.934L232.623 421.908Z" fill="white"/>
</g>
</g>
<path d="M234.895 423.931C234.905 421.129 233.894 418.853 232.634 418.848C231.375 418.843 230.343 421.114 230.333 423.916C230.323 426.718 231.335 428.994 232.594 428.999C233.858 428.999 234.885 426.733 234.895 423.931Z" fill="#5B5B57"/>
<g opacity="0.57">
<g opacity="0.57">
<path opacity="0.57" d="M234.48 423.708C234.49 421.296 233.661 419.339 232.634 419.334C231.602 419.328 230.763 421.281 230.753 423.693C230.742 426.106 231.572 428.063 232.598 428.068C233.63 428.073 234.47 426.121 234.48 423.708Z" fill="#5B5B57"/>
</g>
</g>
<path d="M268.124 423.907C268.134 421.105 267.123 418.829 265.863 418.824C264.604 418.819 263.572 421.09 263.562 423.892C263.552 426.694 264.563 428.97 265.823 428.975C267.082 428.98 268.114 426.709 268.124 423.907Z" fill="#5B5B57"/>
<path d="M272.104 418.85L265.868 418.826L265.829 428.976L272.065 429L272.104 418.85Z" fill="#5B5B57"/>
<g opacity="0.27">
<g opacity="0.27">
<path opacity="0.27" d="M272.084 421.908L263.85 421.877C263.668 422.601 263.562 423.43 263.562 424.315C263.562 424.871 263.597 425.403 263.673 425.903L272.074 425.934L272.084 421.908Z" fill="white"/>
</g>
</g>
<path d="M274.36 423.931C274.37 421.129 273.359 418.853 272.1 418.848C270.84 418.843 269.809 421.114 269.798 423.916C269.788 426.718 270.8 428.994 272.059 428.999C273.318 428.999 274.345 426.733 274.36 423.931Z" fill="#5B5B57"/>
<g opacity="0.57">
<g opacity="0.57">
<path opacity="0.57" d="M273.94 423.708C273.95 421.296 273.121 419.339 272.094 419.334C271.062 419.328 270.223 421.281 270.212 423.693C270.202 426.106 271.032 428.063 272.059 428.068C273.09 428.073 273.93 426.121 273.94 423.708Z" fill="#5B5B57"/>
</g>
</g>
<path d="M280.559 420.734H220.622V423.703H280.559V420.734Z" fill="#3D3D3B"/>
<path d="M268.587 294.923H264.956V325.38H268.587V294.923Z" fill="#B6BFF0"/>
<path d="M246.621 294.923H242.99V325.38H246.621V294.923Z" fill="#B6BFF0"/>
<path d="M268.999 299.409H242.826C241.476 299.409 240.383 298.316 240.383 296.966V295.014C240.383 293.663 241.476 292.571 242.826 292.571H268.999C270.349 292.571 271.442 293.663 271.442 295.014V296.966C271.442 298.311 270.349 299.409 268.999 299.409Z" fill="#604640"/>
<g opacity="0.11">
<g opacity="0.11">
<path opacity="0.11" d="M271.445 297.74V294.235C271.445 293.315 270.696 292.566 269.775 292.566H268.572C267.651 292.566 266.903 293.315 266.903 294.235V297.74C266.903 298.661 267.651 299.409 268.572 299.409H269.775C270.696 299.409 271.445 298.661 271.445 297.74Z" fill="white"/>
</g>
</g>
<path d="M290.527 322.299H213.667C212.974 322.299 212.418 322.86 212.418 323.548V421.326C212.418 422.019 212.979 422.575 213.667 422.575H290.527C291.22 422.575 291.776 422.014 291.776 421.326V323.548C291.776 322.86 291.22 322.299 290.527 322.299Z" fill="#E06D6A"/>
<path d="M280.962 322.299H262.244C268.217 322.299 273.062 327.139 273.062 333.117V411.762C273.062 417.735 268.222 422.58 262.244 422.58H280.962C286.935 422.58 291.78 417.74 291.78 411.762V333.117C291.775 327.144 286.935 322.299 280.962 322.299Z" fill="#E06D6A"/>
<path d="M276.127 322.299H262.244C263.372 322.299 264.454 322.471 265.476 322.789H272.83C278.524 322.789 283.152 327.422 283.152 333.112V411.757C283.152 417.452 278.519 422.079 272.83 422.079H265.476C264.454 422.398 263.372 422.57 262.244 422.57H276.127C280.76 421.154 284.138 416.845 284.138 411.752V333.107C284.133 328.029 280.755 323.715 276.127 322.299Z" fill="#B0B0B0"/>
<path d="M261.947 331.064H218.831C218.669 331.064 218.538 331.196 218.538 331.358V354.446C218.538 354.607 218.669 354.739 218.831 354.739H261.947C262.108 354.739 262.24 354.607 262.24 354.446V331.363C262.24 331.201 262.108 331.064 261.947 331.064Z" fill="#E27C7C"/>
<path d="M261.942 359.083H218.836C218.67 359.083 218.538 359.219 218.538 359.381V411.337C218.538 411.504 218.675 411.636 218.836 411.636H261.942C262.109 411.636 262.24 411.499 262.24 411.337V359.386C262.24 359.219 262.109 359.083 261.942 359.083Z" fill="#E27C7C"/>
<path d="M255.79 334.59H221.358V335.571H255.79V334.59Z" fill="#D1D7E0"/>
<path d="M284.893 335.568H282.435V338.683H284.893V335.568Z" fill="#D1D7E0"/>
<path d="M285.165 340.561L284.446 338.462C284.426 338.401 284.366 338.355 284.3 338.355H283.091C283.025 338.355 282.965 338.396 282.944 338.462L282.226 340.561C281.882 341.567 282.631 342.614 283.698 342.614C284.765 342.614 285.508 341.567 285.165 340.561ZM283.662 342.032C282.975 342.032 282.489 341.355 282.712 340.702L283.177 339.342C283.192 339.301 283.228 339.276 283.273 339.276H284.057C284.102 339.276 284.138 339.301 284.153 339.342L284.618 340.702C284.836 341.355 284.35 342.032 283.662 342.032Z" fill="#D1D7E0"/>
<path d="M256.324 333.603H253.866V336.718H256.324V333.603Z" fill="#B0B0B0"/>
<path d="M256.589 338.594L255.871 336.495C255.85 336.435 255.79 336.389 255.724 336.389H254.515C254.45 336.389 254.389 336.43 254.369 336.495L253.65 338.594C253.307 339.601 254.055 340.648 255.122 340.648C256.184 340.653 256.933 339.606 256.589 338.594ZM255.092 340.066C254.404 340.066 253.919 339.388 254.141 338.736L254.606 337.375C254.621 337.335 254.657 337.31 254.702 337.31H255.486C255.532 337.31 255.567 337.335 255.582 337.375L256.048 338.736C256.26 339.388 255.78 340.066 255.092 340.066Z" fill="#B0B0B0"/>
<path d="M255.79 366.375H221.358V367.356H255.79V366.375Z" fill="#D1D7E0"/>
<path d="M256.324 365.395H253.866V368.51H256.324V365.395Z" fill="#B0B0B0"/>
<path d="M256.589 370.382L255.871 368.283C255.85 368.222 255.79 368.177 255.724 368.177H254.515C254.45 368.177 254.389 368.217 254.369 368.283L253.65 370.382C253.307 371.388 254.055 372.435 255.122 372.435C256.184 372.44 256.933 371.393 256.589 370.382ZM255.092 371.854C254.404 371.854 253.919 371.176 254.141 370.523L254.606 369.163C254.621 369.123 254.657 369.097 254.702 369.097H255.486C255.532 369.097 255.567 369.123 255.582 369.163L256.048 370.523C256.26 371.176 255.78 371.854 255.092 371.854Z" fill="#B0B0B0"/>
<path d="M276.19 361.555V359.057H282.76C282.76 359.057 287.569 371.559 282.76 385.796H276.989V383.49C276.984 383.48 281.546 370.785 276.19 361.555Z" fill="#E06D6A"/>
<path d="M288.959 367.356L278.373 367.655V374.366H288.959V367.356Z" fill="#F7F3C3"/>
<g opacity="0.29">
<g opacity="0.29">
<path opacity="0.29" d="M287.296 369.688H279.775C279.765 369.688 279.76 369.683 279.76 369.673V369.385C279.76 369.375 279.765 369.37 279.775 369.37H287.296C287.306 369.37 287.311 369.375 287.311 369.385V369.673C287.311 369.683 287.306 369.688 287.296 369.688Z" fill="black"/>
</g>
</g>
<g opacity="0.29">
<g opacity="0.29">
<path opacity="0.29" d="M287.296 371.267H279.775C279.765 371.267 279.76 371.262 279.76 371.252V370.963C279.76 370.953 279.765 370.948 279.775 370.948H287.296C287.306 370.948 287.311 370.953 287.311 370.963V371.252C287.311 371.262 287.306 371.267 287.296 371.267Z" fill="black"/>
</g>
</g>
<g opacity="0.29">
<g opacity="0.29">
<path opacity="0.29" d="M287.296 372.106H279.775C279.765 372.106 279.76 372.101 279.76 372.091V371.803C279.76 371.793 279.765 371.788 279.775 371.788H287.296C287.306 371.788 287.311 371.793 287.311 371.803V372.091C287.311 372.101 287.306 372.106 287.296 372.106Z" fill="black"/>
</g>
</g>
<path d="M28.3756 531.61C2.40664 530.03 -21.6377 514.13 -36.2881 492.554C-58.3303 460.088 -67.1028 407.397 -40.7511 374.83C-15.2377 343.298 31.4765 340.334 67.5864 353.005C92.951 361.905 115.212 380.872 125.415 405.738C149.251 463.828 90.6932 533.455 30.6025 531.711C29.8587 531.689 29.1164 531.655 28.3756 531.61Z" fill="#FDF1DC"/>
</g>
<defs>
<clipPath id="clip0_581_23969">
<rect width="335" height="434" rx="16" fill="white"/>
</clipPath>
</defs>
</svg>
