<svg width="1170" height="350" viewBox="0 0 1170 350" fill="none" xmlns="http://www.w3.org/2000/svg">
<g clip-path="url(#clip0_205_7713)">
<rect width="1170" height="350" rx="28" fill="#FFFCE6"/>
<path d="M755.432 338.824C718.8 336.594 684.882 314.167 664.216 283.731C633.123 237.934 620.749 163.607 657.921 117.668C693.91 73.1885 759.806 69.0077 810.743 86.8807C846.523 99.4365 877.924 126.191 892.316 161.267C925.94 243.21 843.338 341.427 758.573 338.966C757.524 338.935 756.477 338.887 755.432 338.824Z" fill="#FDF1DC"/>
<path d="M1207.52 -90.0476C1200.49 -93.1662 1193.27 -95.9382 1185.87 -98.2988L913.014 55.2551C911.216 62.7051 909.823 70.3066 908.827 78.0453L1207.52 -90.0476Z" fill="#FDF1DC"/>
<path d="M1290.89 -24.2902C1286.8 -29.6394 1282.46 -34.7937 1277.89 -39.7314L915.251 164.348C917.107 170.859 919.265 177.234 921.705 183.471L1290.89 -24.2902Z" fill="#FDF1DC"/>
<path d="M1308.43 2.55173C1305.4 -2.95631 1302.14 -8.31995 1298.66 -13.5176L926.917 195.68C929.574 201.383 932.476 206.941 935.609 212.356L1308.43 2.55173Z" fill="#FDF1DC"/>
<path d="M1304.17 215.971L1120.26 319.469C1120.49 319.469 1120.7 319.483 1120.92 319.483C1134.02 319.483 1146.82 318.241 1159.27 315.989L1280.85 247.568C1289.55 237.786 1297.38 227.225 1304.17 215.971Z" fill="#FDF1DC"/>
<path d="M1221.95 -83.022L907.318 94.0368C907.116 97.8557 907 101.696 907 105.558C907 109.334 907.101 113.08 907.296 116.805L1241.4 -71.2118C1235.14 -75.4782 1228.65 -79.4269 1221.95 -83.022Z" fill="#FDF1DC"/>
<path d="M1268.26 -49.4546C1263.4 -54.0747 1258.32 -58.4639 1253.05 -62.6147L908.588 131.228C909.39 137.949 910.494 144.569 911.902 151.087L1268.26 -49.4546Z" fill="#FDF1DC"/>
<path d="M1334.38 119.107L1021.7 295.068C1030.28 299.573 1039.19 303.536 1048.42 306.857L1330.62 148.048C1332.51 138.613 1333.76 128.946 1334.38 119.107Z" fill="#FDF1DC"/>
<path d="M1315.49 194.459C1319.73 185.198 1323.33 175.582 1326.23 165.663L1065.72 312.258C1075.55 314.871 1085.65 316.791 1095.98 317.99L1315.49 194.459Z" fill="#FDF1DC"/>
<path d="M1326.25 45.562L963.091 249.937C968.217 255.532 973.653 260.831 979.341 265.862L1331.44 67.7169C1330.09 60.1876 1328.37 52.7954 1326.25 45.562Z" fill="#FDF1DC"/>
<path d="M1322.12 32.7478C1319.84 26.4601 1317.27 20.3168 1314.43 14.3179L942.532 223.602C946.221 229.161 950.162 234.531 954.342 239.715L1322.12 32.7478Z" fill="#FDF1DC"/>
<path d="M1334.8 103.724C1334.74 96.2888 1334.3 88.9399 1333.49 81.7065L990.242 274.871C996.046 279.361 1002.07 283.562 1008.33 287.446L1334.8 103.724Z" fill="#FDF1DC"/>
<path d="M918.24 37.172L1167.65 -103.186C1157.18 -105.517 1146.42 -107.084 1135.44 -107.82L930.953 7.25672C925.979 16.8363 921.727 26.8273 918.24 37.172Z" fill="#FDF1DC"/>
<path d="M855.642 327.333H855.195C852.945 327.333 850.653 327.279 848.375 327.179C847.879 327.155 847.496 326.736 847.517 326.238C847.541 325.743 847.956 325.375 848.458 325.381C850.704 325.484 852.972 325.535 855.195 325.535H855.642C856.138 325.535 856.54 325.939 856.54 326.433C856.542 326.929 856.138 327.333 855.642 327.333ZM862.867 327.134C862.39 327.134 861.993 326.762 861.969 326.281C861.946 325.785 862.328 325.364 862.822 325.336C865.193 325.217 867.599 325.035 869.981 324.796C870.538 324.715 870.917 325.108 870.966 325.599C871.015 326.095 870.654 326.538 870.162 326.585C867.751 326.824 865.31 327.01 862.914 327.132C862.899 327.134 862.882 327.134 862.867 327.134ZM841.212 326.681C841.184 326.681 841.156 326.681 841.128 326.676C838.7 326.446 836.27 326.157 833.904 325.813C833.412 325.743 833.072 325.287 833.145 324.796C833.211 324.309 833.632 323.96 834.162 324.037C836.496 324.375 838.897 324.659 841.295 324.886C841.791 324.93 842.152 325.371 842.105 325.864C842.06 326.332 841.671 326.681 841.212 326.681ZM877.242 325.693C876.803 325.693 876.421 325.375 876.352 324.928C876.28 324.437 876.615 323.982 877.107 323.907C879.456 323.556 881.831 323.137 884.178 322.665C884.691 322.573 885.14 322.885 885.238 323.366C885.336 323.853 885.02 324.328 884.537 324.426C882.16 324.903 879.753 325.328 877.376 325.683C877.329 325.691 877.284 325.693 877.242 325.693ZM826.91 324.621C826.854 324.621 826.796 324.616 826.739 324.603C824.39 324.15 822 323.625 819.638 323.041C819.153 322.922 818.862 322.434 818.977 321.953C819.097 321.473 819.602 321.182 820.065 321.293C822.404 321.872 824.762 322.392 827.083 322.84C827.57 322.934 827.887 323.405 827.793 323.894C827.711 324.321 827.331 324.621 826.91 324.621ZM891.403 322.851C890.999 322.851 890.633 322.582 890.533 322.174C890.411 321.693 890.701 321.201 891.182 321.082C893.482 320.498 895.81 319.851 898.102 319.148C898.572 319.015 899.08 319.269 899.226 319.744C899.369 320.218 899.104 320.72 898.63 320.868C896.308 321.577 893.951 322.236 891.627 322.823C891.55 322.845 891.477 322.851 891.403 322.851ZM812.883 321.167C812.8 321.167 812.712 321.156 812.627 321.129C810.325 320.44 807.997 319.682 805.712 318.872C805.242 318.707 804.996 318.194 805.165 317.729C805.33 317.263 805.847 317.013 806.308 317.181C808.57 317.979 810.868 318.729 813.14 319.41C813.617 319.551 813.888 320.054 813.743 320.526C813.627 320.913 813.268 321.167 812.883 321.167ZM905.219 318.622C904.852 318.622 904.508 318.393 904.373 318.028C904.204 317.562 904.446 317.045 904.914 316.876C907.177 316.057 909.424 315.181 911.591 314.279C912.057 314.083 912.577 314.303 912.767 314.76C912.959 315.22 912.743 315.745 912.286 315.936C910.093 316.852 907.816 317.735 905.525 318.568C905.423 318.605 905.322 318.622 905.219 318.622ZM799.253 316.342C799.137 316.342 799.022 316.32 798.913 316.275C796.681 315.359 794.437 314.369 792.244 313.341C791.795 313.13 791.6 312.593 791.812 312.144C792.026 311.696 792.566 311.51 793.009 311.713C795.174 312.73 797.393 313.707 799.595 314.613C800.054 314.803 800.276 315.329 800.086 315.786C799.941 316.13 799.607 316.342 799.253 316.342ZM918.517 313.065C918.183 313.065 917.861 312.875 917.707 312.553C917.493 312.106 917.683 311.569 918.132 311.356C920.285 310.328 922.435 309.236 924.527 308.114C924.955 307.879 925.506 308.043 925.742 308.479C925.977 308.915 925.814 309.458 925.376 309.693C923.262 310.834 921.084 311.939 918.904 312.978C918.78 313.038 918.647 313.065 918.517 313.065ZM786.152 310.185C786.009 310.185 785.863 310.15 785.731 310.08C783.565 308.928 781.43 307.729 779.387 306.507C778.959 306.25 778.822 305.699 779.075 305.276C779.327 304.84 779.878 304.712 780.306 304.964C782.324 306.171 784.433 307.357 786.571 308.494C787.009 308.725 787.174 309.27 786.943 309.708C786.785 310.014 786.47 310.185 786.152 310.185ZM931.218 306.227C930.912 306.227 930.617 306.073 930.448 305.791C930.192 305.366 930.329 304.814 930.754 304.56C932.772 303.342 934.809 302.047 936.805 300.702C937.216 300.418 937.774 300.534 938.051 300.944C938.329 301.354 938.22 301.916 937.81 302.19C935.784 303.551 933.723 304.868 931.682 306.096C931.536 306.184 931.376 306.227 931.218 306.227ZM773.729 302.775C773.558 302.775 773.384 302.726 773.231 302.624C771.215 301.284 769.212 299.875 767.273 298.448C766.874 298.153 766.788 297.591 767.083 297.191C767.382 296.792 767.947 296.71 768.34 297.001C770.257 298.416 772.237 299.803 774.227 301.128C774.641 301.401 774.75 301.959 774.477 302.374C774.304 302.634 774.019 302.775 773.729 302.775ZM943.194 298.179C942.921 298.179 942.649 298.057 942.474 297.817C942.175 297.42 942.26 296.86 942.656 296.561C944.562 295.135 946.465 293.644 948.303 292.124C948.69 291.808 949.254 291.872 949.571 292.246C949.883 292.629 949.831 293.197 949.449 293.513C947.585 295.048 945.661 296.557 943.731 297.999C943.571 298.119 943.385 298.179 943.194 298.179ZM762.098 294.195C761.898 294.195 761.699 294.129 761.53 293.992C759.66 292.468 757.802 290.876 756.011 289.258C755.643 288.925 755.611 288.361 755.945 287.991C756.278 287.624 756.851 287.594 757.212 287.925C758.984 289.521 760.82 291.094 762.667 292.603C763.05 292.915 763.11 293.481 762.793 293.866C762.618 294.082 762.359 294.195 762.098 294.195ZM954.329 288.987C954.083 288.987 953.841 288.889 953.666 288.692C953.328 288.327 953.356 287.758 953.726 287.425C955.491 285.818 957.24 284.147 958.922 282.458C959.273 282.11 959.841 282.108 960.194 282.458C960.544 282.807 960.544 283.375 960.194 283.73C958.495 285.435 956.725 287.128 954.936 288.752C954.76 288.91 954.547 288.987 954.329 288.987ZM751.364 284.518C751.135 284.518 750.904 284.431 750.731 284.258C749.03 282.565 747.337 280.8 745.697 279.007C745.364 278.639 745.387 278.071 745.753 277.735C746.121 277.402 746.691 277.426 747.025 277.791C748.643 279.567 750.317 281.311 751.994 282.978C752.349 283.328 752.349 283.897 752.001 284.247C751.828 284.431 751.595 284.518 751.364 284.518ZM964.531 278.748C964.317 278.748 964.099 278.671 963.928 278.518C963.56 278.184 963.531 277.616 963.864 277.246C965.454 275.487 967.03 273.656 968.549 271.803C968.866 271.416 969.434 271.361 969.813 271.677C970.2 271.993 970.255 272.557 969.939 272.94C968.402 274.818 966.803 276.671 965.196 278.453C965.018 278.65 964.777 278.748 964.531 278.748ZM741.63 273.852C741.369 273.852 741.115 273.739 740.937 273.525C739.402 271.677 737.891 269.753 736.44 267.811C736.141 267.413 736.222 266.853 736.622 266.554C737.021 266.264 737.583 266.336 737.878 266.736C739.311 268.649 740.807 270.551 742.318 272.38C742.634 272.762 742.581 273.327 742.198 273.643C742.034 273.786 741.833 273.852 741.63 273.852ZM973.682 267.567C973.496 267.567 973.305 267.512 973.147 267.392C972.747 267.097 972.662 266.533 972.957 266.135C974.378 264.218 975.768 262.24 977.093 260.254C977.367 259.84 977.922 259.728 978.339 260.004C978.754 260.278 978.863 260.835 978.589 261.25C977.249 263.261 975.84 265.266 974.404 267.202C974.227 267.441 973.955 267.567 973.682 267.567ZM732.984 262.295C732.695 262.295 732.411 262.154 732.24 261.898C730.912 259.929 729.596 257.871 728.326 255.781C728.069 255.356 728.204 254.803 728.627 254.546C729.055 254.29 729.606 254.424 729.863 254.847C731.115 256.914 732.419 258.951 733.727 260.895C734.005 261.306 733.896 261.863 733.486 262.141C733.332 262.246 733.157 262.295 732.984 262.295ZM981.706 255.54C981.548 255.54 981.389 255.497 981.246 255.414C980.819 255.157 980.682 254.606 980.934 254.183C982.163 252.123 983.354 250.018 984.472 247.919C984.707 247.481 985.248 247.325 985.69 247.551C986.126 247.786 986.291 248.331 986.058 248.77C984.925 250.89 983.719 253.022 982.477 255.104C982.311 255.382 982.011 255.54 981.706 255.54ZM725.511 249.949C725.192 249.949 724.882 249.778 724.72 249.479C723.572 247.353 722.463 245.177 721.428 243.008C721.214 242.561 721.405 242.025 721.854 241.811C722.296 241.6 722.837 241.786 723.051 242.237C724.077 244.374 725.167 246.526 726.302 248.624C726.537 249.062 726.374 249.607 725.94 249.842C725.801 249.913 725.654 249.949 725.511 249.949ZM988.509 242.771C988.379 242.771 988.249 242.743 988.127 242.687C987.678 242.474 987.483 241.939 987.695 241.491C988.713 239.332 989.692 237.118 990.604 234.906C990.79 234.451 991.32 234.233 991.78 234.419C992.237 234.609 992.457 235.135 992.267 235.595C991.34 237.834 990.35 240.074 989.322 242.256C989.17 242.583 988.847 242.771 988.509 242.771ZM719.291 236.941C718.94 236.941 718.607 236.734 718.461 236.389C717.534 234.182 716.651 231.91 715.821 229.634C715.653 229.168 715.894 228.655 716.362 228.482C716.833 228.32 717.341 228.555 717.514 229.023C718.329 231.269 719.207 233.515 720.12 235.695C720.312 236.15 720.096 236.678 719.639 236.87C719.526 236.922 719.406 236.941 719.291 236.941ZM994.024 229.393C993.922 229.393 993.821 229.376 993.723 229.339C993.257 229.17 993.011 228.658 993.178 228.192C993.964 225.995 994.719 223.695 995.424 221.351C995.565 220.877 996.057 220.592 996.544 220.75C997.019 220.894 997.288 221.394 997.145 221.87C996.433 224.242 995.668 226.574 994.871 228.794C994.74 229.164 994.394 229.393 994.024 229.393ZM714.374 223.381C713.988 223.381 713.633 223.131 713.515 222.746C712.816 220.475 712.156 218.12 711.553 215.748C711.431 215.267 711.722 214.779 712.203 214.656C712.677 214.542 713.175 214.824 713.295 215.305C713.891 217.65 714.545 219.977 715.236 222.219C715.379 222.693 715.114 223.195 714.639 223.343C714.552 223.366 714.462 223.381 714.374 223.381ZM998.192 215.545C998.122 215.545 998.049 215.538 997.974 215.517C997.493 215.397 997.198 214.914 997.322 214.429C997.887 212.14 998.41 209.779 998.874 207.417C998.968 206.93 999.419 206.618 999.928 206.708C1000.42 206.802 1000.73 207.272 1000.64 207.761C1000.17 210.155 999.642 212.544 999.064 214.865C998.964 215.269 998.594 215.545 998.192 215.545ZM710.815 209.377C710.394 209.377 710.022 209.082 709.935 208.657C709.465 206.329 709.039 203.923 708.672 201.5C708.599 201.008 708.934 200.549 709.422 200.474C709.907 200.401 710.373 200.737 710.448 201.224C710.813 203.618 711.234 205.996 711.698 208.296C711.797 208.783 711.48 209.257 710.997 209.356C710.935 209.371 710.871 209.377 710.815 209.377ZM1000.96 201.367C1000.92 201.367 1000.88 201.363 1000.83 201.357C1000.34 201.286 999.999 200.831 1000.07 200.339C1000.42 197.989 1000.7 195.586 1000.93 193.212C1000.98 192.716 1001.41 192.317 1001.91 192.402C1002.4 192.447 1002.76 192.887 1002.72 193.381C1002.49 195.789 1002.2 198.217 1001.85 200.6C1001.79 201.045 1001.4 201.367 1000.96 201.367ZM708.661 195.099C708.206 195.099 707.814 194.755 707.765 194.291C707.524 191.881 707.333 189.444 707.207 187.045C707.184 186.549 707.562 186.128 708.06 186.1C708.535 186.134 708.979 186.459 709.005 186.953C709.127 189.323 709.315 191.729 709.556 194.11C709.606 194.606 709.247 195.044 708.753 195.095C708.721 195.099 708.689 195.099 708.661 195.099ZM1002.33 186.989C1002.32 186.989 1002.3 186.989 1002.29 186.989C1001.79 186.965 1001.41 186.542 1001.43 186.049C1001.54 183.803 1001.6 181.486 1001.6 179.167V178.868C1001.6 178.372 1002 177.971 1002.49 177.971C1002.99 177.971 1003.39 178.374 1003.39 178.868V179.167C1003.39 181.516 1003.34 183.86 1003.23 186.134C1003.21 186.613 1002.81 186.989 1002.33 186.989ZM707.898 180.672C707.402 180.672 707 180.268 707 179.774V179.167C707 176.767 707.06 174.32 707.175 171.903C707.199 171.408 707.65 171.034 708.116 171.046C708.614 171.07 708.996 171.493 708.973 171.987C708.857 174.38 708.798 176.795 708.798 179.167V179.774C708.798 180.268 708.394 180.672 707.898 180.672ZM1002.3 172.542C1001.83 172.542 1001.43 172.171 1001.41 171.69C1001.29 169.3 1001.11 166.888 1000.87 164.526C1000.82 164.03 1001.18 163.592 1001.68 163.543C1002.18 163.462 1002.61 163.859 1002.66 164.351C1002.9 166.74 1003.08 169.181 1003.2 171.598C1003.23 172.094 1002.85 172.515 1002.35 172.542C1002.34 172.542 1002.32 172.542 1002.3 172.542ZM708.597 165.638C708.569 165.638 708.541 165.638 708.509 165.633C708.013 165.584 707.652 165.146 707.701 164.65C707.94 162.218 708.238 159.788 708.586 157.438C708.657 156.946 709.112 156.591 709.603 156.679C710.095 156.749 710.435 157.209 710.362 157.696C710.018 160.023 709.727 162.419 709.492 164.823C709.447 165.289 709.054 165.638 708.597 165.638ZM1000.88 158.171C1000.44 158.171 1000.06 157.852 999.988 157.406C999.633 155.036 999.218 152.657 998.752 150.33C998.654 149.845 998.97 149.372 999.458 149.274C999.956 149.176 1000.42 149.494 1000.51 149.979C1000.98 152.334 1001.41 154.743 1001.76 157.138C1001.84 157.63 1001.5 158.085 1001.01 158.16C1000.96 158.168 1000.92 158.171 1000.88 158.171ZM710.7 151.345C710.644 151.345 710.585 151.338 710.525 151.328C710.04 151.234 709.721 150.759 709.819 150.272C710.29 147.896 710.824 145.508 711.41 143.175C711.529 142.698 712.006 142.382 712.498 142.523C712.979 142.643 713.274 143.13 713.15 143.611C712.575 145.917 712.047 148.276 711.581 150.622C711.497 151.05 711.121 151.345 710.7 151.345ZM998.051 144.01C997.647 144.01 997.282 143.741 997.181 143.329C996.598 141.012 995.95 138.685 995.253 136.415C995.11 135.941 995.375 135.439 995.85 135.291C996.324 135.159 996.829 135.413 996.974 135.887C997.675 138.187 998.333 140.544 998.921 142.893C999.043 143.374 998.752 143.861 998.269 143.98C998.194 144.004 998.122 144.01 998.051 144.01ZM714.193 137.334C714.105 137.334 714.022 137.324 713.932 137.296C713.455 137.153 713.188 136.65 713.331 136.176C714.026 133.885 714.795 131.558 715.616 129.254C715.781 128.784 716.315 128.549 716.764 128.709C717.23 128.874 717.476 129.391 717.309 129.857C716.499 132.13 715.736 134.434 715.052 136.693C714.934 137.086 714.58 137.334 714.193 137.334ZM993.832 130.19C993.464 130.19 993.12 129.961 992.985 129.596C992.188 127.371 991.314 125.125 990.395 122.92C990.202 122.46 990.418 121.934 990.876 121.744C991.34 121.548 991.861 121.768 992.051 122.225C992.985 124.46 993.87 126.734 994.676 128.985C994.845 129.455 994.604 129.968 994.135 130.137C994.035 130.171 993.932 130.19 993.832 130.19ZM719.073 123.704C718.957 123.704 718.842 123.683 718.728 123.633C718.269 123.443 718.051 122.918 718.243 122.46C719.167 120.235 720.161 117.996 721.199 115.803C721.407 115.357 721.941 115.164 722.396 115.378C722.843 115.589 723.036 116.126 722.822 116.575C721.796 118.737 720.815 120.951 719.902 123.148C719.761 123.497 719.423 123.704 719.073 123.704ZM988.291 116.885C987.954 116.885 987.635 116.694 987.481 116.372C986.447 114.198 985.357 112.048 984.245 109.978C984.01 109.542 984.172 108.999 984.611 108.764C985.042 108.524 985.59 108.691 985.825 109.129C986.955 111.223 988.056 113.403 989.104 115.6C989.317 116.049 989.127 116.583 988.678 116.797C988.552 116.857 988.422 116.885 988.291 116.885ZM725.265 110.627C725.122 110.627 724.976 110.593 724.84 110.523C724.404 110.287 724.239 109.742 724.472 109.304C725.624 107.152 726.834 105.024 728.069 102.974C728.322 102.547 728.877 102.41 729.301 102.667C729.726 102.923 729.863 103.477 729.606 103.9C728.388 105.924 727.195 108.024 726.058 110.153C725.896 110.454 725.583 110.627 725.265 110.627ZM981.464 104.184C981.159 104.184 980.864 104.03 980.695 103.748C979.464 101.703 978.164 99.664 976.843 97.6979C976.565 97.2855 976.674 96.7277 977.085 96.4499C977.495 96.1699 978.053 96.2789 978.331 96.6935C979.671 98.6874 980.985 100.75 982.232 102.821C982.488 103.246 982.351 103.797 981.926 104.054C981.785 104.141 981.622 104.184 981.464 104.184ZM732.716 98.2301C732.545 98.2301 732.368 98.1809 732.218 98.0783C731.804 97.8005 731.695 97.2428 731.968 96.8303C733.308 94.83 734.721 92.8297 736.166 90.8871C736.461 90.4875 737.026 90.4063 737.423 90.7012C737.821 90.9982 737.904 91.5603 737.605 91.9578C736.179 93.879 734.785 95.8537 733.462 97.8304C733.289 98.089 733.005 98.2301 732.716 98.2301ZM973.423 92.2014C973.149 92.2014 972.878 92.0775 972.703 91.8402C971.275 89.9233 969.783 88.0213 968.272 86.192C967.96 85.8073 968.011 85.2431 968.393 84.9268C968.78 84.6063 969.345 84.6661 969.661 85.0486C971.187 86.9036 972.694 88.827 974.141 90.7674C974.44 91.1649 974.355 91.7291 973.959 92.0262C973.797 92.1437 973.609 92.2014 973.423 92.2014ZM741.335 86.6279C741.134 86.6279 740.931 86.5617 740.762 86.4249C740.379 86.1086 740.324 85.5423 740.64 85.1598C742.164 83.3091 743.761 81.4562 745.394 79.6568C745.732 79.2914 746.3 79.2636 746.664 79.5948C747.031 79.9282 747.061 80.4945 746.728 80.8642C745.114 82.6444 743.534 84.4716 742.032 86.3009C741.85 86.5147 741.596 86.6279 741.335 86.6279ZM964.242 81.0544C963.997 81.0544 963.755 80.9561 963.58 80.7595C961.968 78.99 960.297 77.2419 958.616 75.5664C958.266 75.216 958.266 74.6475 958.616 74.297C958.965 73.9444 959.533 73.9444 959.888 74.2928C961.59 75.9917 963.278 77.7612 964.907 79.5521C965.245 79.9197 965.217 80.4881 964.847 80.8215C964.674 80.9775 964.46 81.0544 964.242 81.0544ZM751.045 75.9255C750.815 75.9255 750.586 75.8379 750.411 75.6626C750.06 75.3121 750.06 74.7437 750.411 74.3911C752.127 72.675 753.899 70.9867 755.675 69.3796C756.041 69.042 756.609 69.074 756.947 69.4416C757.281 69.8092 757.253 70.3777 756.883 70.711C755.128 72.301 753.375 73.9658 751.68 75.6626C751.505 75.8379 751.276 75.9255 751.045 75.9255ZM954.014 70.8521C953.801 70.8521 953.583 70.7751 953.412 70.6191C951.652 69.0249 949.821 67.4477 947.97 65.9304C947.583 65.6163 947.527 65.0499 947.843 64.6653C948.16 64.2827 948.728 64.2272 949.107 64.5413C950.981 66.0779 952.834 67.6764 954.617 69.2899C954.985 69.6211 955.015 70.1896 954.681 70.5593C954.502 70.7516 954.26 70.8521 954.014 70.8521ZM761.744 66.2232C761.483 66.2232 761.229 66.1099 761.049 65.8941C760.733 65.5094 760.788 64.9452 761.175 64.6289C763.067 63.0753 764.995 61.5729 766.901 60.156C767.305 59.8633 767.863 59.9466 768.163 60.342C768.458 60.7395 768.374 61.3036 767.977 61.5986C766.087 62.9962 764.185 64.4836 762.314 66.018C762.148 66.1569 761.945 66.2232 761.744 66.2232ZM942.84 61.6883C942.654 61.6883 942.463 61.6306 942.305 61.5109C940.392 60.0941 938.415 58.7028 936.425 57.3757C936.01 57.1 935.901 56.5423 936.175 56.1298C936.453 55.7131 937.006 55.6062 937.421 55.8798C939.437 57.2261 941.437 58.6344 943.372 60.0684C943.771 60.3633 943.857 60.9275 943.562 61.325C943.385 61.5622 943.113 61.6883 942.84 61.6883ZM773.335 57.6151C773.047 57.6151 772.762 57.474 772.587 57.2176C772.314 56.8051 772.423 56.2473 772.837 55.9717C774.844 54.6253 776.909 53.3174 778.97 52.0801C779.402 51.8215 779.942 51.9625 780.205 52.3899C780.458 52.8152 780.321 53.3666 779.895 53.6209C777.856 54.8433 775.819 56.1362 773.833 57.4633C773.684 57.5659 773.506 57.6151 773.335 57.6151ZM930.816 53.6551C930.658 53.6551 930.5 53.6145 930.356 53.5268C928.292 52.2938 926.186 51.0991 924.094 49.9836C923.658 49.7485 923.493 49.2036 923.726 48.7676C923.961 48.3295 924.502 48.1671 924.944 48.3979C927.058 49.5305 929.189 50.738 931.278 51.986C931.705 52.2403 931.842 52.7917 931.59 53.217C931.421 53.4991 931.122 53.6551 930.816 53.6551ZM785.703 50.1823C785.384 50.1823 785.07 50.0114 784.91 49.7079C784.679 49.2698 784.839 48.7249 785.278 48.4919C787.398 47.3571 789.578 46.2565 791.754 45.2222C792.212 45.0106 792.737 45.2008 792.951 45.6475C793.165 46.0963 792.977 46.6327 792.526 46.8442C790.373 47.8679 788.223 48.9535 786.126 50.0755C785.989 50.1481 785.846 50.1823 785.703 50.1823ZM918.053 46.8378C917.923 46.8378 917.792 46.81 917.67 46.7523C915.505 45.7287 913.288 44.7499 911.089 43.8416C910.632 43.6514 910.411 43.1279 910.602 42.6684C910.792 42.2047 911.318 41.9888 911.777 42.1812C914.007 43.1001 916.247 44.0917 918.436 45.1282C918.884 45.3397 919.079 45.8761 918.863 46.3249C918.713 46.6476 918.391 46.8378 918.053 46.8378ZM798.733 44.0041C798.383 44.0041 798.045 43.7946 797.904 43.4506C797.711 42.9932 797.927 42.4675 798.389 42.2773C800.601 41.3584 802.878 40.4779 805.154 39.6637C805.607 39.5013 806.131 39.7363 806.302 40.2065C806.471 40.6724 806.229 41.1874 805.757 41.3562C803.511 42.1619 801.264 43.0317 799.077 43.94C798.964 43.9827 798.849 44.0041 798.733 44.0041ZM904.674 41.3092C904.572 41.3092 904.471 41.2943 904.373 41.2558C902.133 40.4565 899.831 39.7 897.535 39.0076C897.061 38.8644 896.791 38.3643 896.934 37.8878C897.076 37.4176 897.569 37.1398 898.055 37.2873C900.378 37.9882 902.71 38.7533 904.978 39.5632C905.444 39.7299 905.69 40.245 905.523 40.7108C905.39 41.0806 905.044 41.3092 904.674 41.3092ZM812.315 39.1315C811.928 39.1315 811.573 38.8815 811.456 38.4947C811.312 38.0181 811.577 37.5181 812.056 37.3727C814.384 36.6654 816.742 36.0136 819.063 35.4323C819.561 35.3041 820.029 35.6054 820.151 36.0862C820.273 36.5671 819.98 37.0543 819.499 37.1761C817.208 37.7489 814.88 38.3943 812.576 39.0931C812.49 39.1187 812.403 39.1315 812.315 39.1315ZM890.83 37.1313C890.759 37.1313 890.687 37.1227 890.612 37.1056C888.295 36.5307 885.935 36.0071 883.601 35.5477C883.113 35.4536 882.797 34.9814 882.891 34.492C882.985 34.0069 883.464 33.6799 883.945 33.7846C886.311 34.2505 888.699 34.7805 891.046 35.3596C891.527 35.4793 891.817 35.9665 891.698 36.4474C891.604 36.8577 891.234 37.1313 890.83 37.1313ZM826.328 35.6203C825.907 35.6203 825.531 35.3233 825.448 34.898C825.349 34.4108 825.666 33.9385 826.153 33.8423C828.509 33.3743 830.92 32.9576 833.318 32.6028C833.795 32.5259 834.265 32.8699 834.335 33.3593C834.408 33.8508 834.068 34.306 833.581 34.3787C831.21 34.7292 828.831 35.1416 826.504 35.6032C826.444 35.6139 826.384 35.6203 826.328 35.6203ZM876.656 34.3445C876.613 34.3445 876.573 34.3402 876.526 34.336C874.159 33.9919 871.761 33.7012 869.393 33.4747C868.901 33.4277 868.54 32.9875 868.585 32.4938C868.634 32.0001 868.995 31.6347 869.568 31.6839C871.962 31.9147 874.39 32.2096 876.786 32.5558C877.278 32.6284 877.618 33.0836 877.545 33.5752C877.481 34.024 877.094 34.3445 876.656 34.3445ZM840.618 33.5068C840.162 33.5068 839.769 33.1606 839.722 32.6968C839.673 32.2032 840.034 31.7629 840.53 31.7138C842.92 31.4787 845.361 31.2992 847.778 31.1795C847.795 31.1774 847.81 31.1774 847.823 31.1774C848.3 31.1774 848.697 31.5514 848.721 32.0322C848.744 32.528 848.362 32.949 847.868 32.9725C845.478 33.0922 843.065 33.2696 840.703 33.5025C840.677 33.5046 840.645 33.5068 840.618 33.5068ZM862.273 32.9618C862.258 32.9618 862.245 32.9618 862.23 32.9597C859.9 32.8507 857.53 32.7951 855.195 32.7951C854.699 32.7951 854.223 32.3934 854.223 31.8976C854.223 31.4018 854.552 31 855.048 31H855.195C857.557 31 859.956 31.0556 862.315 31.1688C862.811 31.1923 863.194 31.6133 863.173 32.107C863.147 32.5857 862.751 32.9618 862.273 32.9618Z" fill="#3C251D"/>
<path d="M858.394 215.517C860.664 205.759 868.692 196.118 865.385 186.963C855.564 179.647 843.689 173.827 830.363 171.214C824.795 170.124 818.911 169.367 812.901 168.835C812.658 169.601 812.433 170.367 812.244 171.115C810.424 178.593 809.37 187.585 814.857 192.991C817.019 195.118 819.956 196.37 821.975 198.623C826.056 203.182 825.336 210.507 824.813 216.084C824.534 219.112 823.651 222.103 821.84 224.545C814.74 234.14 802.9 227.013 799.972 218.12C797.548 210.75 799.089 202.767 799.359 195.018C799.693 185.846 798.17 176.611 794.944 168.006C785.952 167.943 776.969 168.367 768.418 169.195C766.427 175.169 767.346 182.188 771.401 187.063C776.032 192.631 783.601 195.1 787.439 201.614C788.935 204.146 789.511 207.254 788.565 210.047C786.547 216.039 779.762 216.246 775.365 213.498C771.978 211.381 769.707 207.921 767.626 204.515C762.742 196.523 758.309 188.252 754.354 179.755C753.065 176.98 751.768 174.124 749.921 171.718C738.73 173.737 729.233 176.44 722.908 179.539C722.26 186.378 725.999 193.739 732.297 196.811C735.288 198.271 738.658 198.875 741.559 200.506C744.452 202.146 746.902 205.398 746.055 208.615C744.947 212.795 739.253 213.841 735.171 212.399C727.071 209.552 722.584 201.208 717.232 194.496C714.745 191.378 711.393 188.504 707.789 186.702C695.265 192.478 685.85 196.631 683.111 199.83C679.362 204.209 672.307 197.406 669.532 209.056C666.766 220.706 675.2 224.139 685.111 236.024C687.084 238.384 689.039 240.988 691.085 243.754C701.59 238.646 711.538 231.573 723.773 231.816C728.738 231.915 733.549 233.906 737.099 237.375C738.171 238.42 739.199 239.727 739.298 241.24C739.388 242.538 738.784 243.781 738.117 244.89C732.072 255.008 718.953 260.315 707.573 257.233C705.393 256.648 702.708 256.053 700.401 256.125C705.303 262.333 711.132 268.956 718.656 275.614C722.638 279.137 728.423 280.146 733.225 277.858C735.973 276.551 738.613 274.974 741.082 273.307C749.984 267.289 758.525 259.828 769.401 258.648C772.005 258.369 774.744 258.846 776.789 260.477C782.429 264.964 778.861 273.298 775.104 279.047C770.842 285.561 765.742 292.652 758.075 294.031C754.948 294.589 751.678 294.121 748.632 295.013C747.028 295.481 745.506 296.581 744.56 297.932C753.804 306.438 764.112 313.673 799.485 324.584C799.503 324.584 799.521 324.575 799.539 324.575C803.378 321.187 806.847 317.025 810.216 313.249C816.488 306.23 823.651 300.004 831.462 294.77C833.949 293.103 837.373 292.959 839.707 294.833C843.689 298.022 840.905 303.726 838.076 307.546C834.616 312.231 831.147 316.916 827.687 321.602C825.957 323.935 824.245 326.711 823.317 329.495C857.943 333.108 875.999 317.971 879.117 307.708C879.261 305.699 879.468 303.699 879.757 301.707C879.207 290.075 870.134 276.452 873.089 269.172C880.757 250.314 894.65 252.386 894.263 231.582C894.119 224.193 890.677 215.354 884.676 206.705C879.486 207.29 874.684 210.237 873.161 215.21C871.756 219.796 872.738 225.833 868.701 228.419C865.719 230.329 861.43 228.752 859.502 225.779C857.601 222.815 857.592 218.967 858.394 215.517ZM824.579 278.398C824.534 279.966 823.903 281.462 823.146 282.831C820.443 287.751 816.596 292.256 812.109 295.644C808.64 298.266 799.792 302.59 795.836 299.374C794.782 298.518 794.07 297.112 793.908 294.995C793.71 292.418 794.809 289.922 796.143 287.706C799.63 281.876 804.937 277.191 811.09 274.326C813.604 273.154 817.172 271.37 819.947 272.154C822.515 272.884 824.66 275.758 824.579 278.398ZM763.607 238.664C765.319 239.817 765.436 241.997 764.986 243.889C763.391 250.656 757.354 255.098 750.461 253.269C749.362 252.981 748.263 252.53 747.497 251.692C746.227 250.269 746.254 248.07 746.911 246.277C747.722 244.079 749.128 241.484 750.867 239.889C753.137 237.817 760.336 236.447 763.607 238.664ZM769.761 222.824C769.833 223.445 769.851 224.103 769.572 224.662C769.419 224.968 769.184 225.229 768.95 225.491C768.166 226.347 767.391 227.212 766.607 228.077C766.391 228.311 766.166 228.563 765.869 228.68C765.589 228.788 765.274 228.779 764.977 228.743C763.103 228.509 761.409 227.392 760.183 225.95C758.958 224.509 758.165 222.743 757.543 220.959C757.048 219.526 756.651 217.985 756.94 216.499C757.228 215.012 758.381 213.588 759.895 213.453C760.309 213.417 760.724 213.471 761.129 213.552C765.553 214.408 769.211 218.337 769.761 222.824ZM849.131 227.914C850.032 228.815 850.825 229.87 851.176 231.095C851.573 232.483 851.366 233.96 851.113 235.384C850.636 238.15 850.032 240.889 849.293 243.592C848.987 244.709 848.618 245.899 847.708 246.629C846.302 247.764 844.239 247.34 842.545 246.71C840.788 246.061 839.049 245.223 837.733 243.889C834.652 240.763 834.616 235.789 835.202 231.437C835.58 228.653 836.481 225.446 839.103 224.428C840.373 223.932 841.806 224.085 843.121 224.446C845.383 225.058 847.473 226.266 849.131 227.914Z" fill="#AEAF71"/>
<path d="M935 288.805C935.063 288.95 935.09 289.121 935.063 289.292C935 289.787 934.541 290.139 934.045 290.076C905.023 286.255 853.756 267.596 816.328 253.972C798.253 247.395 782.639 241.709 774.169 239.385C748.391 232.303 671.715 211.886 670.949 211.679C670.463 211.553 670.174 211.048 670.301 210.57C670.427 210.084 670.931 209.796 671.409 209.922C672.184 210.12 748.869 230.546 774.647 237.628C783.189 239.97 798.83 245.665 816.949 252.26C854.296 265.857 905.456 284.48 934.279 288.274C934.613 288.31 934.883 288.517 935 288.805Z" fill="#697055"/>
<path d="M937.425 162.602C930.701 157.656 920.389 155.9 917.527 148.313C919.778 138.36 924.144 128.239 931.167 119.362C934.098 115.652 937.41 111.988 940.929 108.393C941.494 108.744 942.059 109.103 942.578 109.477C947.783 113.225 953.325 118.347 952.775 124.743C952.561 127.262 951.378 129.643 951.325 132.17C951.21 137.268 955.637 141.512 958.988 144.764C960.805 146.527 962.988 147.947 965.453 148.512C975.147 150.74 978.788 139.81 975.819 132.589C973.361 126.613 968.056 122.384 963.682 117.629C958.5 111.996 954.462 105.325 951.844 98.1347C957.5 93.2192 963.415 88.6242 969.285 84.5101C973.781 87.2197 977.002 92.1582 977.078 97.4401C977.162 103.47 973.704 109.141 974.811 115.339C975.239 117.751 976.559 120.033 978.666 121.285C983.192 123.987 987.596 120.438 988.894 116.316C989.894 113.141 989.451 109.721 988.924 106.432C987.688 98.7225 986.009 91.082 983.917 83.5636C983.23 81.1058 982.505 78.5946 982.368 76.0681C990.55 71.2823 998.023 67.8475 1003.71 66.382C1007.82 70.3664 1009.45 77.0528 1007.12 82.4034C1006.01 84.9451 1004.21 87.1587 1003.26 89.7615C1002.31 92.3719 1002.53 95.7533 1004.81 97.3333C1007.77 99.3789 1011.95 96.9517 1013.75 93.8374C1017.33 87.6472 1015.65 79.9304 1015.41 72.7784C1015.3 69.4581 1015.86 65.8248 1017.17 62.7259C1028.23 59.5964 1036.45 57.1234 1039.9 57.6653C1044.64 58.4057 1045.43 50.2691 1053.5 56.1464C1061.57 62.0237 1058.08 68.7635 1058.25 81.663C1058.28 84.2277 1058.45 86.9373 1058.66 89.7996C1049.23 92.2574 1039.11 93.1657 1031.49 99.9513C1028.4 102.707 1026.44 106.577 1026.07 110.698C1025.95 111.943 1026.01 113.324 1026.77 114.339C1027.42 115.209 1028.47 115.667 1029.5 116.011C1038.81 119.14 1049.99 115.393 1055.54 107.279C1056.6 105.722 1057.98 103.898 1059.47 102.692C1059.73 109.279 1059.63 116.629 1058.47 124.926C1057.86 129.315 1054.74 133.093 1050.46 134.246C1048.01 134.902 1045.48 135.337 1043.02 135.62C1034.12 136.627 1024.67 136.536 1017.15 141.688C1015.35 142.917 1013.88 144.71 1013.46 146.848C1012.33 152.74 1019.1 156.091 1024.59 157.694C1030.82 159.511 1037.9 161.236 1043.49 157.953C1045.77 156.618 1047.59 154.542 1050 153.458C1051.27 152.885 1052.83 152.755 1054.16 153.099C1052.92 163.495 1050.32 173.654 1033.83 199.743C1033.81 199.751 1033.81 199.759 1033.79 199.766C1029.52 199.698 1025.07 198.942 1020.89 198.385C1013.11 197.339 1005.21 197.278 997.42 198.194C994.939 198.484 992.695 200.247 992.229 202.705C991.443 206.88 996.282 208.987 1000.15 209.872C1004.88 210.964 1009.62 212.048 1014.35 213.139C1016.71 213.681 1019.3 214.505 1021.39 215.765C1001.43 236.816 981.795 237.015 974.254 232.214C973.071 231.015 971.857 229.863 970.598 228.756C964.644 221.092 963.003 207.552 957.187 204.544C942.112 196.759 934.433 205.598 923.412 192.217C919.496 187.462 916.893 179.997 916 171.273C919.603 168.838 924.243 168.09 927.9 170.418C931.273 172.563 933.922 176.921 937.876 176.364C940.799 175.952 942.662 172.639 942.272 169.708C941.891 166.792 939.807 164.35 937.425 162.602ZM992.909 184.096C993.787 185.065 995 185.668 996.221 186.126C1000.6 187.775 1005.48 188.538 1010.15 188.256C1013.77 188.035 1021.72 185.981 1022.48 181.806C1022.68 180.684 1022.37 179.417 1021.33 177.99C1020.05 176.249 1018.01 175.265 1015.96 174.578C1010.59 172.776 1004.69 172.685 999.244 174.211C997.023 174.83 993.794 175.639 992.458 177.639C991.229 179.486 991.436 182.463 992.909 184.096ZM1009.98 125.895C1009.53 127.552 1010.63 128.994 1011.95 129.949C1016.62 133.368 1022.85 132.91 1026.23 128.017C1026.76 127.239 1027.23 126.361 1027.24 125.415C1027.28 123.827 1026.07 122.445 1024.68 121.674C1022.97 120.72 1020.68 119.843 1018.71 119.774C1016.16 119.682 1010.85 122.713 1009.98 125.895ZM997.511 119.201C997.801 119.636 998.145 120.064 998.626 120.262C998.893 120.377 999.183 120.415 999.465 120.453C1000.43 120.575 1001.39 120.697 1002.34 120.82C1002.61 120.85 1002.88 120.888 1003.14 120.797C1003.37 120.713 1003.56 120.537 1003.74 120.354C1004.8 119.186 1005.27 117.568 1005.26 115.988C1005.25 114.408 1004.8 112.866 1004.22 111.401C1003.75 110.225 1003.17 109.034 1002.19 108.248C1001.21 107.462 999.702 107.187 998.664 107.92C998.381 108.118 998.152 108.378 997.939 108.653C995.611 111.599 995.428 116.064 997.511 119.201ZM950.012 165.434C949.928 166.495 949.997 167.586 950.44 168.555C950.943 169.647 951.874 170.471 952.798 171.235C954.599 172.723 956.469 174.135 958.401 175.448C959.202 175.99 960.08 176.539 961.049 176.509C962.553 176.463 963.637 175.074 964.369 173.761C965.133 172.395 965.774 170.929 965.888 169.372C966.148 165.724 963.476 162.556 960.744 160.121C958.996 158.564 956.691 157.015 954.477 157.793C953.409 158.167 952.577 159.045 951.943 159.984C950.836 161.594 950.165 163.487 950.012 165.434Z" fill="#96965F"/>
<path d="M923.9 254.572C923.938 254.702 924.014 254.816 924.121 254.915C924.434 255.198 924.915 255.167 925.19 254.862C941.501 236.718 963.843 197.119 980.162 168.214C988.039 154.253 994.847 142.193 998.946 136.133C1011.43 117.684 1048.92 63.2083 1049.29 62.6588C1049.53 62.3153 1049.45 61.842 1049.1 61.6054C1048.76 61.3688 1048.28 61.4528 1048.05 61.7962C1047.67 62.3458 1010.18 116.829 997.694 135.278C993.557 141.392 986.734 153.475 978.841 167.466C962.56 196.318 940.257 235.825 924.068 253.847C923.877 254.045 923.824 254.327 923.9 254.572Z" fill="#697055"/>
<path d="M844.005 329.291C844.025 323.698 842.006 319.155 839.492 319.145C836.978 319.135 834.919 323.668 834.899 329.261C834.878 334.854 836.898 339.397 839.411 339.407C841.925 339.417 843.985 334.884 844.005 329.291Z" fill="#5B5B57"/>
<path d="M851.954 319.195L839.506 319.147L839.427 339.409L851.875 339.458L851.954 319.195Z" fill="#5B5B57"/>
<g opacity="0.27">
<g opacity="0.27">
<path opacity="0.27" d="M851.91 325.303L835.474 325.242C835.11 326.686 834.898 328.342 834.898 330.108C834.898 331.219 834.969 332.279 835.121 333.278L851.89 333.339L851.91 325.303Z" fill="white"/>
</g>
</g>
<path d="M856.443 329.34C856.463 323.747 854.444 319.203 851.93 319.193C849.416 319.183 847.357 323.716 847.337 329.309C847.316 334.902 849.336 339.446 851.849 339.456C854.373 339.456 856.423 334.933 856.443 329.34Z" fill="#5B5B57"/>
<g opacity="0.57">
<g opacity="0.57">
<path opacity="0.57" d="M855.615 328.896C855.635 324.08 853.98 320.173 851.93 320.163C849.871 320.153 848.195 324.05 848.174 328.866C848.154 333.681 849.81 337.588 851.859 337.599C853.919 337.609 855.595 333.712 855.615 328.896Z" fill="#5B5B57"/>
</g>
</g>
<path d="M922.772 329.291C922.792 323.698 920.773 319.155 918.259 319.145C915.745 319.135 913.686 323.668 913.666 329.261C913.645 334.854 915.665 339.397 918.178 339.407C920.692 339.417 922.752 334.884 922.772 329.291Z" fill="#5B5B57"/>
<path d="M930.721 319.195L918.273 319.147L918.195 339.409L930.643 339.458L930.721 319.195Z" fill="#5B5B57"/>
<g opacity="0.27">
<g opacity="0.27">
<path opacity="0.27" d="M930.677 325.303L914.241 325.242C913.877 326.686 913.666 328.342 913.666 330.108C913.666 331.219 913.736 332.279 913.888 333.278L930.657 333.339L930.677 325.303Z" fill="white"/>
</g>
</g>
<path d="M935.22 329.34C935.241 323.747 933.221 319.203 930.708 319.193C928.194 319.183 926.134 323.716 926.114 329.309C926.094 334.902 928.113 339.446 930.627 339.456C933.141 339.456 935.19 334.933 935.22 329.34Z" fill="#5B5B57"/>
<g opacity="0.57">
<g opacity="0.57">
<path opacity="0.57" d="M934.382 328.896C934.402 324.08 932.747 320.173 930.697 320.163C928.638 320.153 926.962 324.05 926.942 328.866C926.921 333.681 928.577 337.588 930.627 337.599C932.686 337.609 934.362 333.712 934.382 328.896Z" fill="#5B5B57"/>
</g>
</g>
<path d="M947.598 322.957H827.953V328.883H947.598V322.957Z" fill="#3D3D3B"/>
<path d="M923.701 71.8169H916.453V132.614H923.701V71.8169Z" fill="#B6BFF0"/>
<path d="M879.855 71.8169H872.606V132.614H879.855V71.8169Z" fill="#B6BFF0"/>
<path d="M924.529 80.7706H872.284C869.588 80.7706 867.407 78.5899 867.407 75.8943V71.9974C867.407 69.3018 869.588 67.1211 872.284 67.1211H924.529C927.225 67.1211 929.405 69.3018 929.405 71.9974V75.8943C929.405 78.5798 927.225 80.7706 924.529 80.7706Z" fill="#604640"/>
<g opacity="0.11">
<g opacity="0.11">
<path opacity="0.11" d="M929.405 77.4378V70.4415C929.405 68.604 927.911 67.1099 926.073 67.1099H923.67C921.833 67.1099 920.339 68.604 920.339 70.4415V77.4378C920.339 79.2752 921.833 80.7695 923.67 80.7695H926.073C927.911 80.7695 929.405 79.2752 929.405 77.4378Z" fill="white"/>
</g>
</g>
<path d="M967.497 126.464H814.071C812.688 126.464 811.578 127.585 811.578 128.958V324.139C811.578 325.523 812.698 326.633 814.071 326.633H967.497C968.88 326.633 969.99 325.512 969.99 324.139V128.958C969.99 127.585 968.88 126.464 967.497 126.464Z" fill="#E06D6A"/>
<path d="M948.405 126.464H911.041C922.964 126.464 932.636 136.126 932.636 148.059V305.048C932.636 316.971 922.974 326.643 911.041 326.643H948.405C960.329 326.643 970 316.982 970 305.048V148.059C969.99 136.136 960.329 126.464 948.405 126.464Z" fill="#E06D6A"/>
<path d="M938.754 126.464H911.041C913.292 126.464 915.453 126.808 917.492 127.444H932.172C943.539 127.444 952.777 136.691 952.777 148.049V305.038C952.777 316.406 943.529 325.644 932.172 325.644H917.492C915.453 326.28 913.292 326.623 911.041 326.623H938.754C948.002 323.796 954.746 315.195 954.746 305.028V148.039C954.736 137.903 947.992 129.291 938.754 126.464Z" fill="#B0B0B0"/>
<path d="M910.445 143.96H824.379C824.056 143.96 823.793 144.223 823.793 144.546V190.633C823.793 190.956 824.056 191.219 824.379 191.219H910.445C910.768 191.219 911.031 190.956 911.031 190.633V144.556C911.031 144.233 910.768 143.96 910.445 143.96Z" fill="#E27C7C"/>
<path d="M910.435 199.89H824.389C824.056 199.89 823.793 200.163 823.793 200.486V304.2C823.793 304.533 824.066 304.795 824.389 304.795H910.435C910.768 304.795 911.031 304.523 911.031 304.2V200.496C911.031 200.163 910.768 199.89 910.435 199.89Z" fill="#E27C7C"/>
<path d="M898.158 150.997H829.426V152.956H898.158V150.997Z" fill="#D1D7E0"/>
<path d="M956.249 152.953H951.343V159.172H956.249V152.953Z" fill="#D1D7E0"/>
<path d="M956.795 162.917L955.361 158.728C955.321 158.606 955.2 158.516 955.068 158.516H952.655C952.524 158.516 952.403 158.596 952.363 158.728L950.929 162.917C950.242 164.926 951.737 167.016 953.867 167.016C955.997 167.016 957.481 164.926 956.795 162.917ZM953.796 165.855C952.423 165.855 951.454 164.502 951.898 163.2L952.827 160.484C952.857 160.403 952.928 160.353 953.019 160.353H954.584C954.674 160.353 954.745 160.403 954.775 160.484L955.704 163.2C956.138 164.502 955.169 165.855 953.796 165.855Z" fill="#D1D7E0"/>
<path d="M899.219 149.027H894.312V155.246H899.219V149.027Z" fill="#B0B0B0"/>
<path d="M899.754 158.993L898.32 154.803C898.28 154.682 898.159 154.591 898.028 154.591H895.615C895.484 154.591 895.362 154.672 895.322 154.803L893.888 158.993C893.202 161.002 894.696 163.092 896.826 163.092C898.946 163.102 900.441 161.012 899.754 158.993ZM896.766 161.931C895.393 161.931 894.424 160.578 894.868 159.276L895.797 156.56C895.827 156.479 895.898 156.429 895.988 156.429H897.553C897.644 156.429 897.715 156.479 897.745 156.56L898.674 159.276C899.098 160.578 898.139 161.931 896.766 161.931Z" fill="#B0B0B0"/>
<path d="M898.159 214.448H829.427V216.407H898.159V214.448Z" fill="#D1D7E0"/>
<path d="M899.219 212.49H894.312V218.709H899.219V212.49Z" fill="#B0B0B0"/>
<path d="M899.754 222.444L898.32 218.255C898.28 218.133 898.159 218.042 898.027 218.042H895.614C895.483 218.042 895.362 218.123 895.322 218.255L893.888 222.444C893.201 224.453 894.696 226.543 896.826 226.543C898.946 226.553 900.44 224.463 899.754 222.444ZM896.765 225.382C895.392 225.382 894.423 224.029 894.867 222.727L895.796 220.011C895.826 219.93 895.897 219.88 895.988 219.88H897.553C897.644 219.88 897.714 219.93 897.745 220.011L898.673 222.727C899.097 224.029 898.138 225.382 896.765 225.382Z" fill="#B0B0B0"/>
<path d="M938.875 204.826V199.839H951.989C951.989 199.839 961.59 224.796 951.989 253.215H940.47V248.612C940.46 248.591 949.566 223.251 938.875 204.826Z" fill="#E06D6A"/>
<path d="M964.367 216.407L943.236 217.002V230.399H964.367V216.407Z" fill="#F7F3C3"/>
<g opacity="0.29">
<g opacity="0.29">
<path opacity="0.29" d="M961.045 221.061H946.033C946.013 221.061 946.002 221.051 946.002 221.031V220.455C946.002 220.435 946.013 220.425 946.033 220.425H961.045C961.065 220.425 961.075 220.435 961.075 220.455V221.031C961.075 221.051 961.065 221.061 961.045 221.061Z" fill="black"/>
</g>
</g>
<g opacity="0.29">
<g opacity="0.29">
<path opacity="0.29" d="M961.045 224.211H946.033C946.013 224.211 946.002 224.201 946.002 224.181V223.606C946.002 223.585 946.013 223.575 946.033 223.575H961.045C961.065 223.575 961.075 223.585 961.075 223.606V224.181C961.075 224.201 961.065 224.211 961.045 224.211Z" fill="black"/>
</g>
</g>
<g opacity="0.29">
<g opacity="0.29">
<path opacity="0.29" d="M961.045 225.888H946.033C946.013 225.888 946.002 225.877 946.002 225.857V225.282C946.002 225.262 946.013 225.251 946.033 225.251H961.045C961.065 225.251 961.075 225.262 961.075 225.282V225.857C961.075 225.877 961.065 225.888 961.045 225.888Z" fill="black"/>
</g>
</g>
</g>
<defs>
<clipPath id="clip0_205_7713">
<rect width="1170" height="350" rx="28" fill="white"/>
</clipPath>
</defs>
</svg>
