<svg width="596" height="350" viewBox="0 0 596 350" fill="none" xmlns="http://www.w3.org/2000/svg">
<g opacity="0.1">
<path d="M633.517 -20.0475C626.486 -23.1661 619.267 -25.9382 611.868 -28.2988L339.013 125.255C337.216 132.705 335.823 140.307 334.826 148.045L633.517 -20.0475Z" fill="#49C8C0"/>
<path d="M716.889 45.7099C712.795 40.3607 708.457 35.2064 703.887 30.2686L341.251 234.348C343.107 240.859 345.265 247.234 347.705 253.471L716.889 45.7099Z" fill="#49C8C0"/>
<path d="M734.431 72.5516C731.399 67.0436 728.143 61.6799 724.656 56.4823L352.917 265.68C355.574 271.383 358.476 276.941 361.609 282.355L734.431 72.5516Z" fill="#49C8C0"/>
<path d="M730.171 285.971L546.262 389.469C546.486 389.469 546.702 389.483 546.919 389.483C560.021 389.483 572.82 388.241 585.273 385.989L706.854 317.568C715.553 307.786 723.378 297.225 730.171 285.971Z" fill="#49C8C0"/>
<path d="M647.948 -13.022L333.318 164.037C333.116 167.856 333 171.696 333 175.558C333 179.334 333.101 183.08 333.296 186.805L667.395 -1.21185C661.144 -5.47824 654.654 -9.427 647.948 -13.022Z" fill="#49C8C0"/>
<path d="M694.257 20.5453C689.399 15.9251 684.324 11.536 679.047 7.38513L334.588 201.228C335.39 207.949 336.494 214.569 337.902 221.087L694.257 20.5453Z" fill="#49C8C0"/>
<path d="M760.376 189.107L447.702 365.069C456.285 369.573 465.193 373.536 474.419 376.857L756.622 218.048C758.513 208.613 759.762 198.946 760.376 189.107Z" fill="#49C8C0"/>
<path d="M741.491 264.46C745.728 255.198 749.33 245.582 752.225 235.663L491.723 382.258C501.548 384.871 511.647 386.792 521.977 387.99L741.491 264.46Z" fill="#49C8C0"/>
<path d="M534.856 -38C466.695 -34.2028 407.074 1.49478 370.632 54.4168L534.856 -38Z" fill="#49C8C0"/>
<path d="M752.254 115.562L389.091 319.937C394.217 325.532 399.653 330.831 405.341 335.862L757.445 137.717C756.095 130.188 754.369 122.795 752.254 115.562Z" fill="#49C8C0"/>
<path d="M748.118 102.748C745.844 96.4603 743.267 90.317 740.43 84.3181L368.532 293.602C372.221 299.161 376.162 304.532 380.342 309.715L748.118 102.748Z" fill="#49C8C0"/>
<path d="M760.801 173.724C760.736 166.289 760.296 158.94 759.487 151.706L416.242 344.871C422.046 349.361 428.073 353.562 434.332 357.446L760.801 173.724Z" fill="#49C8C0"/>
<path d="M344.24 107.172L593.647 -33.1857C583.179 -35.5175 572.423 -37.084 561.443 -37.8203L356.953 77.2567C351.979 86.8363 347.727 96.8273 344.24 107.172Z" fill="#49C8C0"/>
</g>
<path d="M494.293 234.846C483.339 245.078 500.981 202.898 505.966 194.527C510.953 186.157 515.069 180 515.069 180C515.069 180 516.564 214.044 494.293 234.846Z" fill="#697055"/>
<path d="M486.792 242.405C486.383 237.836 484.901 230.144 482.845 225.597C480.791 221.049 477.825 205.666 480.021 200.553C482.217 195.44 483.403 202.202 483.242 206.865C483.08 211.528 486.483 219.701 487.737 226.21C488.992 232.717 486.792 242.405 486.792 242.405Z" fill="#697055"/>
<path d="M487.823 243.153C487.823 243.153 495.276 239.326 497.86 236.834C500.444 234.342 504.856 232.165 512.058 229.782C519.259 227.398 523.147 223.11 524.288 224.451C525.431 225.792 518.731 231.388 513.792 234.505C508.854 237.622 501.196 239.163 497.927 241.155C494.657 243.146 487.823 243.153 487.823 243.153Z" fill="#697055"/>
<path d="M476.43 256.522C476.065 255.849 479.293 242.333 478.245 236.584C477.195 230.837 468.902 220.523 467.439 220.883C465.976 221.241 469.609 227.548 471.252 232.101C472.896 236.656 475.979 241.952 475.429 245.518C474.879 249.087 476.43 256.522 476.43 256.522Z" fill="#697055"/>
<path d="M472.886 261.06C478.26 256.837 481.437 256.2 485.711 254.535C489.987 252.867 497.415 253.194 502.673 251.428C507.932 249.663 512.641 246.89 513.441 247.979C514.24 249.07 510.741 254.455 505.849 255.368C500.957 256.28 491.128 257.258 487.951 257.893C484.773 258.528 472.886 261.06 472.886 261.06Z" fill="#697055"/>
<path d="M463.238 270.002C467.607 260.878 468.455 255.189 466.881 250.38C465.306 245.57 458.5 232.273 458.156 235.073C457.813 237.874 460.896 244.697 461.464 252.23C462.03 259.765 463.238 270.002 463.238 270.002Z" fill="#697055"/>
<path d="M460.513 273.005C454.476 272.742 469.041 269.248 474.138 269.095C479.235 268.942 489.314 271.096 489.793 272.36C490.273 273.625 481.564 273.995 476.674 273.381C471.781 272.772 463.485 273.135 460.513 273.005Z" fill="#697055"/>
<path d="M449.656 279.332C451.124 266.771 451.974 259.558 450.237 256.361C448.501 253.164 446.152 243.112 447.203 242.759C448.255 242.406 452.184 249.641 454.191 256.393C456.199 263.146 449.656 279.332 449.656 279.332Z" fill="#697055"/>
<path d="M425.074 298.555C425.209 298.803 425.501 298.925 425.76 298.832C431.012 296.893 446.277 284.465 448.993 282.074C449.894 281.281 451.249 280.192 452.962 278.813C457.266 275.349 463.771 270.115 470.187 263.809C479.043 255.11 493.196 233.552 493.338 233.334C493.501 233.08 493.435 232.727 493.176 232.541C492.92 232.359 492.578 232.419 492.41 232.672C492.27 232.889 478.18 254.352 469.406 262.972C463.023 269.242 456.544 274.456 452.257 277.908C450.534 279.292 449.173 280.388 448.255 281.198C445.001 284.062 430.204 295.968 425.347 297.759C425.064 297.864 424.927 298.189 425.039 298.485C425.052 298.508 425.062 298.533 425.074 298.555Z" fill="#697055"/>
<path d="M71.3196 200.988C82.3016 211.246 64.6141 168.957 59.6158 160.564C54.6159 152.173 50.4897 146 50.4897 146C50.4897 146 48.9913 180.132 71.3196 200.988Z" fill="#697055"/>
<path d="M78.8389 208.565C79.2498 203.984 80.7349 196.273 82.7964 191.713C84.8561 187.154 87.8297 171.731 85.6279 166.605C83.4261 161.479 82.2367 168.259 82.3988 172.934C82.5608 177.608 79.1496 185.802 77.8917 192.328C76.6338 198.852 78.8389 208.565 78.8389 208.565Z" fill="#697055"/>
<path d="M77.807 209.315C77.807 209.315 70.3347 205.478 67.7437 202.98C65.1527 200.481 60.7291 198.298 53.5091 195.91C46.2891 193.52 42.3917 189.221 41.2474 190.565C40.1014 191.91 46.8186 197.52 51.7701 200.645C56.7215 203.77 64.3993 205.315 67.6769 207.312C70.9544 209.308 77.807 209.315 77.807 209.315Z" fill="#697055"/>
<path d="M89.2284 222.718C89.5942 222.043 86.3584 208.493 87.4092 202.729C88.4616 196.967 96.7758 186.627 98.2425 186.988C99.7093 187.347 96.0675 193.67 94.4204 198.235C92.7716 202.801 89.6811 208.111 90.2324 211.686C90.7836 215.264 89.2284 222.718 89.2284 222.718Z" fill="#697055"/>
<path d="M92.7802 227.268C87.3927 223.034 84.2071 222.396 79.9221 220.726C75.6356 219.054 68.1883 219.381 62.9161 217.611C57.644 215.842 52.923 213.061 52.1212 214.154C51.3193 215.248 54.8274 220.646 59.7321 221.561C64.6368 222.476 74.4913 223.457 77.677 224.093C80.8627 224.729 92.7802 227.268 92.7802 227.268Z" fill="#697055"/>
<path d="M102.454 236.233C98.0734 227.086 97.2231 221.382 98.8018 216.56C100.38 211.738 107.205 198.407 107.549 201.214C107.893 204.022 104.802 210.863 104.233 218.416C103.665 225.97 102.454 236.233 102.454 236.233Z" fill="#697055"/>
<path d="M105.184 239.244C111.236 238.98 96.6341 235.478 91.524 235.324C86.4138 235.171 76.3088 237.33 75.8277 238.598C75.3466 239.865 84.0784 240.236 88.9814 239.622C93.8861 239.01 102.204 239.374 105.184 239.244Z" fill="#697055"/>
<path d="M116.072 245.588C114.6 232.994 113.748 225.762 115.489 222.557C117.229 219.352 119.585 209.274 118.531 208.92C117.477 208.566 113.537 215.82 111.524 222.589C109.511 229.36 116.072 245.588 116.072 245.588Z" fill="#697055"/>
<path d="M140.716 264.86C140.581 265.109 140.289 265.231 140.028 265.138C134.763 263.193 119.459 250.734 116.736 248.337C115.832 247.542 114.474 246.45 112.757 245.067C108.442 241.595 101.92 236.347 95.4868 230.025C86.608 221.303 72.4185 199.689 72.2765 199.471C72.1128 199.217 72.1796 198.863 72.4385 198.676C72.6958 198.494 73.0383 198.554 73.207 198.808C73.3473 199.025 87.4733 220.543 96.2703 229.185C102.67 235.472 109.165 240.699 113.463 244.16C115.191 245.548 116.556 246.647 117.476 247.459C120.739 250.33 135.573 262.266 140.442 264.062C140.726 264.167 140.863 264.493 140.751 264.79C140.738 264.813 140.728 264.839 140.716 264.86Z" fill="#697055"/>
<path d="M119.322 253.947C120.43 249.192 124.343 244.494 122.731 240.034C117.943 236.468 112.157 233.631 105.658 232.359C102.944 231.828 100.078 231.456 97.1479 231.198C97.0299 231.571 96.9176 231.945 96.8291 232.307C95.9417 235.951 95.4278 240.335 98.1013 242.966C99.1544 244.002 100.585 244.61 101.571 245.712C103.559 247.936 103.208 251.503 102.954 254.221C102.816 255.695 102.387 257.155 101.506 258.345C98.0451 263.023 92.2727 259.549 90.8447 255.213C89.6624 251.624 90.4123 247.729 90.5485 243.953C90.7085 239.48 89.9685 234.981 88.3987 230.791C84.015 230.76 79.6369 230.966 75.4666 231.369C74.4978 234.282 74.9443 237.702 76.9199 240.077C79.1764 242.791 82.8678 243.995 84.7367 247.168C85.4641 248.403 85.7449 249.917 85.2872 251.276C84.3029 254.196 80.9947 254.295 78.8534 252.959C77.2035 251.928 76.0957 250.24 75.0819 248.58C72.7005 244.685 70.5395 240.654 68.6116 236.516C67.9812 235.164 67.3507 233.771 66.4507 232.597C60.9956 233.581 56.3676 234.9 53.2813 236.409C52.9668 239.743 54.7893 243.331 57.856 244.826C59.3149 245.537 60.9577 245.83 62.3703 246.629C63.7814 247.428 64.9763 249.013 64.5607 250.581C64.0215 252.616 61.2441 253.126 59.2573 252.427C55.3103 251.038 53.1198 246.973 50.5109 243.703C49.2992 242.186 47.6647 240.783 45.9068 239.903C39.8002 242.719 35.2101 244.743 33.8775 246.3C32.0521 248.433 28.6092 245.118 27.2598 250.795C25.9105 256.474 30.0218 258.145 34.852 263.938C35.8124 265.091 36.7686 266.357 37.7656 267.706C42.8879 265.216 47.7349 261.768 53.6983 261.887C56.1176 261.935 58.4639 262.908 60.1952 264.598C60.719 265.109 61.2175 265.744 61.268 266.481C61.3101 267.114 61.0167 267.717 60.6909 268.261C57.7422 273.194 51.3478 275.777 45.8 274.279C44.7357 273.991 43.4271 273.706 42.3023 273.739C44.6936 276.764 47.5342 279.99 51.2018 283.237C53.1437 284.955 55.9646 285.447 58.3053 284.331C59.6448 283.692 60.9324 282.924 62.1358 282.111C66.4745 279.177 70.6378 275.543 75.9398 274.968C77.2092 274.831 78.5445 275.064 79.5428 275.858C82.2907 278.046 80.5552 282.107 78.7214 284.908C76.6419 288.083 74.1566 291.538 70.4216 292.212C68.8995 292.486 67.3016 292.255 65.8174 292.689C65.0367 292.918 64.2925 293.451 63.832 294.114C68.3378 298.257 73.3618 301.783 90.6074 307.104C90.6173 307.102 90.6243 307.101 90.6341 307.098C92.5044 305.446 94.1936 303.42 95.8392 301.58C98.8974 298.16 102.385 295.125 106.198 292.571C107.411 291.758 109.079 291.688 110.218 292.602C112.158 294.158 110.805 296.934 109.424 298.799C107.735 301.081 106.047 303.364 104.36 305.647C103.518 306.784 102.68 308.136 102.228 309.493C119.107 311.256 127.91 303.878 129.43 298.877C129.499 297.897 129.602 296.922 129.741 295.952C129.471 290.284 125.051 283.641 126.493 280.095C130.229 270.903 137.004 271.914 136.813 261.778C136.745 258.176 135.064 253.87 132.14 249.654C129.612 249.942 127.269 251.375 126.528 253.798C125.844 256.032 126.323 258.977 124.354 260.235C122.9 261.164 120.81 260.398 119.871 258.95C118.932 257.506 118.93 255.628 119.322 253.947ZM102.837 284.593C102.816 285.358 102.506 286.085 102.138 286.755C100.818 289.151 98.9438 291.348 96.7603 292.998C95.0684 294.277 90.7563 296.384 88.8298 294.817C88.3145 294.398 87.9691 293.715 87.8918 292.684C87.7963 291.429 88.3327 290.21 88.9786 289.129C90.679 286.289 93.2669 284.002 96.2661 282.61C97.4905 282.041 99.2288 281.171 100.584 281.552C101.831 281.905 102.874 283.306 102.837 284.593ZM73.1161 265.227C73.9488 265.791 74.0063 266.853 73.7887 267.774C73.0108 271.07 70.0691 273.236 66.7076 272.347C66.1726 272.206 65.6335 271.989 65.2642 271.578C64.6435 270.886 64.659 269.813 64.9805 268.94C65.3751 267.871 66.0603 266.606 66.9098 265.827C68.0121 264.816 71.5196 264.146 73.1161 265.227ZM76.1153 257.509C76.1518 257.811 76.1603 258.132 76.0241 258.406C75.9482 258.557 75.8345 258.684 75.7208 258.81C75.3403 259.23 74.9597 259.648 74.5792 260.068C74.4739 260.184 74.363 260.304 74.2169 260.361C74.0793 260.416 73.9263 260.409 73.7803 260.391C72.8648 260.277 72.0405 259.732 71.4452 259.028C70.8498 258.323 70.4623 257.467 70.1604 256.595C69.9175 255.896 69.7237 255.147 69.8655 254.42C70.0059 253.693 70.569 253.002 71.3076 252.935C71.5084 252.917 71.7106 252.945 71.9085 252.983C74.0667 253.408 75.8486 255.323 76.1153 257.509ZM114.805 259.988C115.246 260.424 115.632 260.938 115.802 261.536C115.994 262.212 115.892 262.933 115.772 263.625C115.541 264.972 115.244 266.308 114.885 267.626C114.736 268.172 114.554 268.751 114.113 269.106C113.427 269.658 112.419 269.453 111.594 269.148C110.737 268.832 109.892 268.424 109.25 267.774C107.748 266.249 107.731 263.827 108.017 261.706C108.201 260.349 108.639 258.785 109.917 258.289C110.536 258.049 111.236 258.124 111.876 258.299C112.978 258.598 113.996 259.186 114.805 259.988Z" fill="#AEAF71"/>
<path d="M160.307 289.664C160.338 289.736 160.351 289.817 160.34 289.9C160.307 290.143 160.085 290.314 159.842 290.282C145.694 288.422 120.706 279.325 102.462 272.686C93.6515 269.478 86.0397 266.708 81.9115 265.575C69.3459 262.126 31.9692 252.176 31.5943 252.075C31.357 252.011 31.2166 251.769 31.2798 251.533C31.343 251.295 31.5859 251.155 31.8218 251.218C32.1981 251.317 69.5776 261.27 82.146 264.72C86.3079 265.863 93.9351 268.639 102.764 271.852C120.972 278.478 145.906 287.554 159.956 289.404C160.119 289.424 160.247 289.526 160.307 289.664Z" fill="#697055"/>
<path d="M421.526 44.8767C420.877 44.8767 420.322 45.2786 420.095 45.8464L416.438 45.1762C416.495 44.7846 416.525 44.3853 416.525 43.9782C416.525 43.3171 416.447 42.6753 416.301 42.0582L419.638 41.1351C419.892 41.6369 420.411 41.9804 421.012 41.9804C421.864 41.9804 422.554 41.2907 422.554 40.4403C422.554 39.5898 421.864 38.9001 421.012 38.9001C420.161 38.9001 419.47 39.5898 419.47 40.4403C419.47 40.4779 419.473 40.5141 419.476 40.5504L416.138 41.4735C415.763 40.2886 415.129 39.219 414.302 38.3309L416.559 36.0764C416.803 36.2398 417.098 36.3344 417.413 36.3344C418.265 36.3344 418.955 35.6447 418.955 34.7942C418.955 33.9438 418.265 33.2541 417.413 33.2541C416.562 33.2541 415.871 33.9438 415.871 34.7942C415.871 35.1093 415.967 35.4036 416.129 35.6473L413.872 37.9018C412.826 36.9295 411.528 36.2242 410.087 35.8936L410.63 33.0816C411.476 33.0752 412.16 32.388 412.16 31.5415C412.16 30.691 411.47 30.0013 410.618 30.0013C409.767 30.0013 409.076 30.691 409.076 31.5415C409.076 32.1858 409.472 32.7368 410.034 32.9663L409.491 35.7782C409.076 35.7147 408.652 35.681 408.219 35.681C407.321 35.681 406.458 35.8236 405.648 36.0868L404.45 32.8211C404.864 32.5449 405.135 32.0743 405.135 31.5402C405.135 30.6897 404.445 30 403.593 30C402.742 30 402.051 30.6897 402.051 31.5402C402.051 32.3906 402.742 33.0803 403.593 33.0803C403.695 33.0803 403.792 33.07 403.888 33.0518L405.078 36.2955C403.926 36.7661 402.903 37.4883 402.077 38.3932L399.976 36.6196C400.098 36.3992 400.168 36.1464 400.168 35.8768C400.168 35.0263 399.478 34.3366 398.626 34.3366C397.775 34.3366 397.084 35.0263 397.084 35.8768C397.084 36.7272 397.775 37.417 398.626 37.417C398.988 37.417 399.32 37.2912 399.584 37.0825L401.685 38.8573C400.838 39.9346 400.252 41.2272 400.024 42.639L397.079 42.2682C397.022 41.4696 396.356 40.8409 395.542 40.8409C394.691 40.8409 394 41.5306 394 42.381C394 43.2315 394.691 43.9212 395.542 43.9212C396.222 43.9212 396.798 43.4804 397.004 42.8711L399.949 43.2419C399.928 43.4843 399.916 43.7306 399.916 43.9782C399.916 45.1982 400.18 46.3559 400.653 47.3996L398.302 48.5677C398.02 48.2046 397.58 47.9713 397.084 47.9713C396.233 47.9713 395.542 48.661 395.542 49.5115C395.542 50.3619 396.233 51.0516 397.084 51.0516C397.935 51.0516 398.626 50.3619 398.626 49.5115C398.626 49.3727 398.607 49.2392 398.571 49.1109L400.923 47.9428C401.65 49.2742 402.732 50.384 404.04 51.1476L403.012 53.0689C402.87 53.0261 402.722 53.0028 402.567 53.0028C401.715 53.0028 401.025 53.6925 401.025 54.543C401.025 55.3934 401.715 56.0831 402.567 56.0831C403.418 56.0831 404.109 55.3934 404.109 54.543C404.109 54.0646 403.891 53.6367 403.547 53.3541L404.575 51.4328C405.675 51.9708 406.912 52.2729 408.219 52.2729C408.576 52.2729 408.927 52.2508 409.272 52.2068L409.702 54.8022C409.12 55.0226 408.705 55.5827 408.705 56.2413C408.705 57.0918 409.395 57.7815 410.247 57.7815C411.098 57.7815 411.789 57.0918 411.789 56.2413C411.789 55.409 411.127 54.7322 410.3 54.7037L409.87 52.1082C411.475 51.7854 412.912 50.9998 414.036 49.8978L416.623 52.3442C416.473 52.5814 416.386 52.8602 416.386 53.1609C416.386 54.0114 417.077 54.7011 417.928 54.7011C418.78 54.7011 419.47 54.0114 419.47 53.1609C419.47 52.3105 418.78 51.6208 417.928 51.6208C417.597 51.6208 417.291 51.7258 417.041 51.9034L414.455 49.457C415.366 48.4237 416.023 47.1636 416.331 45.7712L419.987 46.4415C420.001 47.2803 420.685 47.9557 421.528 47.9557C422.379 47.9557 423.07 47.266 423.07 46.4156C423.068 45.5664 422.379 44.8767 421.526 44.8767Z" fill="white"/>
<path d="M18.8141 101.616C18.8141 101.616 19.8174 104.382 22.0941 110.657C22.1123 110.662 22.1317 110.669 22.1499 110.674C23.2999 111.034 24.5577 111.379 25.9115 111.706C27.4911 112.087 29.1993 112.444 31.0099 112.773C31.4552 112.853 31.9056 112.932 32.3624 113.01C32.9725 113.114 33.5916 113.214 34.2212 113.311C51.7958 116.019 76.7301 116.247 89.4231 111.653L201.108 71.2283C201.77 70.9885 202.12 70.8614 202.12 70.8614L202.114 70.8562L194.074 63.6091L187.617 57.7894L186.847 57.0945L186.272 56.5759L183.967 54.4977L180.735 51.5846L173.945 45.4654L18.8141 101.616Z" fill="white"/>
<path d="M166.845 69.5562C167.293 70.7891 168.154 71.825 169.361 72.6599C174.878 76.4805 187.627 76.1097 201.111 71.2299C201.448 71.108 201.783 70.9836 202.117 70.8578C218 64.8579 228.789 54.7508 226.347 48.0197C226.089 47.3066 225.692 46.6584 225.169 46.0789C224.734 45.594 224.21 45.1558 223.607 44.7643C223.281 44.553 222.931 44.3546 222.56 44.1705C222.274 44.0279 221.974 43.8944 221.662 43.7686C220.292 43.2177 218.681 42.8235 216.875 42.5889C210.4 41.7501 201.417 42.9674 192.083 46.346C187.926 47.8511 184.097 49.6402 180.736 51.5862C176.553 54.008 173.096 56.6695 170.637 59.3247C169.4 60.66 168.414 61.994 167.717 63.2931C167.559 63.59 167.414 63.8843 167.285 64.176C167.118 64.5558 166.976 64.9305 166.862 65.3026C166.395 66.8129 166.37 68.2481 166.845 69.5562Z" fill="white"/>
<path d="M22.1495 110.675C23.2995 111.036 24.5572 111.38 25.911 111.707C27.4907 112.088 29.1988 112.445 31.0095 112.774C31.4547 112.854 31.9051 112.934 32.362 113.011C32.9721 113.115 33.5912 113.215 34.2207 113.312C51.7954 116.02 76.7297 116.249 89.4226 111.654L201.108 71.2296C201.77 70.9898 202.12 70.8627 202.12 70.8627L202.114 70.8575C217.997 64.8576 228.786 54.7505 226.344 48.0194C226.086 47.3063 225.689 46.6581 225.166 46.0786C223.878 48.6611 221.012 52.1511 214.659 55.4311C212.164 56.7185 204.569 59.6952 194.074 63.6104C186.944 66.2707 178.476 69.3653 169.359 72.6596C126.557 88.1235 69.4584 107.985 69.4584 107.985C69.4584 107.985 59.5924 112.139 48.6595 112.09C42.4889 112.064 31.1938 111.225 22.1495 110.675Z" fill="#92C6FF"/>
<path d="M158.809 58.0047C160.059 61.4506 169.134 61.3275 179.079 57.7273C189.019 54.1296 200.497 47.0588 197.866 44.5165L197.862 44.5126C197.796 44.4504 197.729 44.3882 197.66 44.3285C196.463 43.2901 194.687 42.647 192.511 42.3657C192.472 42.3605 192.433 42.3553 192.394 42.3515C187.698 41.7745 181.173 42.8519 174.552 45.2477C164.607 48.8466 157.559 54.5575 158.809 58.0047Z" fill="white"/>
<path d="M111.818 103.549C113.211 107.386 117.454 109.371 121.298 107.98L140.316 101.097C144.158 99.7064 144.561 96.0413 143.169 92.2026C141.776 88.3651 139.116 85.8072 135.273 87.1983L116.255 94.0811C112.412 95.4722 110.426 99.7103 111.818 103.549Z" fill="white"/>
<path d="M142.353 92.8168C141.166 89.5446 139.204 87.2525 137.973 87.6985C136.741 88.1445 136.704 91.1587 137.892 94.4322C139.08 97.7044 141.041 99.9966 142.273 99.5506C143.505 99.1033 143.54 96.0891 142.353 92.8168Z" fill="#4F5DA8"/>
<path d="M0.625 80.8169L2.47852 82.5671L4.70845 84.6725L5.26529 85.1975L6.01033 85.9002L27.3816 106.074L58.114 94.9507L24.6208 79.1652L23.4526 78.6142L22.5804 78.2032L19.0849 76.5554L16.1813 75.1864L0.625 80.8169Z" fill="white"/>
<path d="M17.0631 107.364C17.9691 109.861 19.4916 111.6 21.9902 110.695L33.3138 106.597C35.8137 105.692 37.1052 102.934 36.2005 100.437C35.2945 97.9402 32.5337 96.6503 30.0338 97.5539L18.7102 101.652C16.2103 102.558 16.1571 104.867 17.0631 107.364Z" fill="white"/>
<path d="M188.648 47.852L197.866 44.515L197.862 44.5111C197.796 44.4489 197.729 44.3867 197.66 44.327C196.463 43.2886 194.687 42.6455 192.511 42.3642C192.491 42.3655 192.473 42.3655 192.454 42.3668L185.134 45.0167C183.507 45.6053 187.022 48.4406 188.648 47.852Z" fill="#4F5DA8"/>
<path d="M111.3 100.234L129.179 93.7617L156.313 73.1262L108.776 90.3326L111.3 100.234Z" fill="#91B8E6"/>
<path d="M155.682 71.3751L149.569 73.5875L150.205 75.3415L156.318 73.1291L155.682 71.3751Z" fill="#91B8E6"/>
<path d="M111.88 98.0423L110.668 98.481L111.304 100.235L112.516 99.7964L111.88 98.0423Z" fill="#91B8E6"/>
<path d="M110.664 98.4796L128.544 92.0078L155.677 71.3723L108.141 88.5787L110.664 98.4796Z" fill="white"/>
<path d="M25.911 111.707C27.492 112.088 29.2001 112.445 31.0108 112.774L221.66 43.7696C220.289 43.2173 218.678 42.8245 216.872 42.5898L25.911 111.707Z" fill="#4F5DA8"/>
<path d="M32.3622 113.012C32.9722 113.115 33.5927 113.215 34.2209 113.311L223.604 44.7655C223.279 44.5542 222.929 44.3558 222.557 44.1718L32.3622 113.012Z" fill="#536BB0"/>
<path d="M2.47821 82.5674L4.70814 84.6728L22.5801 78.2036L19.0846 76.5558L2.47821 82.5674Z" fill="#4F5DA8"/>
<path d="M5.26504 85.1973L23.4524 78.614L24.6206 79.165L6.01008 85.9L5.26504 85.1973Z" fill="#536BB0"/>
<path d="M30.2359 109.458L39.3373 106.164L53.9863 98.022L26.8858 107.831L30.2359 109.458Z" fill="#91B8E6"/>
<path d="M53.535 96.77L45.5221 99.6702L45.9776 100.926L53.9905 98.0255L53.535 96.77Z" fill="#91B8E6"/>
<path d="M28.2142 106.02L26.4606 106.654L26.8886 107.834L28.6423 107.199L28.2142 106.02Z" fill="#91B8E6"/>
<path d="M29.7819 108.203L38.8821 104.909L53.5311 96.767L26.4305 106.576L29.7819 108.203Z" fill="white"/>
<path d="M36.3431 111.571L32.3622 113.012C32.9722 113.115 33.5927 113.215 34.2209 113.311L38.6587 111.705C37.9007 111.663 37.1258 111.618 36.3431 111.571Z" fill="#435899"/>
<path d="M25.911 111.707C27.492 112.089 29.2001 112.445 31.0108 112.774L34.6257 111.466C32.3646 111.328 30.0529 111.177 27.7814 111.031L25.911 111.707Z" fill="#435899"/>
<path d="M198.832 106.594V323.363H352.969V106.594H198.832ZM333.136 112.602C337.144 112.602 340.391 115.751 340.391 119.635C340.391 123.518 337.144 126.667 333.136 126.667C329.129 126.667 325.881 123.518 325.881 119.635C325.881 115.751 329.129 112.602 333.136 112.602ZM279.286 112.602C283.293 112.602 286.542 115.751 286.542 119.635C286.542 123.518 283.293 126.667 279.286 126.667C275.278 126.667 272.03 123.518 272.03 119.635C272.03 115.751 275.278 112.602 279.286 112.602ZM231.885 126.667C228.285 126.667 225.298 124.124 224.727 120.793C224.663 120.417 224.629 120.03 224.629 119.635C224.629 115.751 227.877 112.602 231.885 112.602C235.892 112.602 239.141 115.751 239.141 119.635C239.141 120.712 238.89 121.734 238.443 122.647C237.278 125.023 234.78 126.667 231.885 126.667Z" fill="#FAFAFA"/>
<path d="M199.404 106.594C199.41 106.726 199.419 106.86 199.431 106.993C200.177 115.433 215.85 119.199 224.727 120.791C224.664 120.415 224.63 120.029 224.63 119.634C224.63 115.749 227.878 112.6 231.886 112.6C235.893 112.6 239.141 115.749 239.141 119.634C239.141 120.711 238.891 121.733 238.443 122.645C248.652 123.676 258.915 124.329 268.712 127.459C301.343 137.882 321.905 173.048 352.838 188.285C352.881 188.306 352.925 188.328 352.969 188.349V106.594H199.404ZM279.287 126.667C275.279 126.667 272.031 123.518 272.031 119.635C272.031 115.751 275.279 112.602 279.287 112.602C283.294 112.602 286.542 115.751 286.542 119.635C286.542 123.518 283.294 126.667 279.287 126.667ZM333.136 126.667C329.129 126.667 325.882 123.518 325.882 119.635C325.882 115.751 329.129 112.602 333.136 112.602C337.144 112.602 340.392 115.751 340.392 119.635C340.392 123.518 337.144 126.667 333.136 126.667Z" fill="#FAB75E"/>
<path d="M313.358 307.368C303.15 306.337 292.886 305.684 283.089 302.554C250.458 292.131 229.897 256.965 198.963 241.727C198.92 241.707 198.876 241.685 198.832 241.664V323.42H352.396C352.39 323.288 352.381 323.154 352.369 323.021C351.623 314.581 335.95 310.815 327.073 309.223L313.358 307.368Z" fill="#FAB75E"/>
<path d="M234.137 163.346V150.744H238.224C239.773 150.744 240.783 150.808 241.254 150.934C241.977 151.123 242.582 151.534 243.07 152.166C243.558 152.799 243.802 153.617 243.802 154.621C243.802 155.395 243.661 156.044 243.38 156.572C243.098 157.099 242.741 157.513 242.309 157.814C241.875 158.115 241.435 158.314 240.988 158.411C240.379 158.532 239.499 158.592 238.346 158.592H236.685V163.346H234.137ZM236.685 152.876V156.451H238.079C239.082 156.451 239.755 156.385 240.092 156.254C240.431 156.122 240.696 155.916 240.888 155.636C241.08 155.354 241.176 155.029 241.176 154.656C241.176 154.197 241.041 153.819 240.771 153.521C240.501 153.223 240.159 153.038 239.747 152.962C239.443 152.905 238.832 152.877 237.914 152.877H236.685V152.876Z" fill="#4F5DA8"/>
<path d="M259.271 163.346V150.744H264.633C265.982 150.744 266.961 150.857 267.572 151.084C268.183 151.311 268.671 151.713 269.039 152.292C269.406 152.87 269.589 153.533 269.589 154.278C269.589 155.223 269.311 156.005 268.754 156.621C268.198 157.237 267.366 157.626 266.258 157.785C266.809 158.107 267.264 158.458 267.623 158.842C267.981 159.226 268.465 159.908 269.073 160.888L270.613 163.346H267.567L265.725 160.604C265.071 159.624 264.623 159.007 264.383 158.751C264.141 158.496 263.887 158.321 263.617 158.227C263.347 158.133 262.92 158.086 262.335 158.086H261.818V163.347H259.271V163.346ZM261.818 156.074H263.703C264.925 156.074 265.687 156.022 265.992 155.92C266.296 155.816 266.535 155.638 266.706 155.387C266.879 155.135 266.965 154.819 266.965 154.442C266.965 154.018 266.852 153.676 266.624 153.415C266.397 153.154 266.078 152.99 265.665 152.921C265.459 152.892 264.84 152.878 263.807 152.878H261.818V156.074Z" fill="#4F5DA8"/>
<path d="M254.103 158.712L256.573 159.494C256.194 160.869 255.564 161.891 254.684 162.559C253.803 163.226 252.687 163.559 251.333 163.559C249.657 163.559 248.28 162.988 247.201 161.844C246.123 160.701 245.584 159.139 245.584 157.155C245.584 155.057 246.127 153.429 247.21 152.269C248.294 151.108 249.721 150.528 251.487 150.528C253.031 150.528 254.284 150.983 255.247 151.894C255.821 152.433 256.251 153.206 256.539 154.215L254.017 154.816C253.868 154.163 253.556 153.647 253.084 153.27C252.61 152.891 252.035 152.702 251.359 152.702C250.423 152.702 249.665 153.038 249.082 153.708C248.499 154.378 248.209 155.465 248.209 156.966C248.209 158.559 248.495 159.693 249.069 160.37C249.643 161.047 250.389 161.384 251.307 161.384C251.984 161.384 252.566 161.169 253.054 160.74C253.541 160.311 253.89 159.635 254.103 158.712Z" fill="#4F5DA8"/>
<path d="M279.086 163.346V152.876H275.343V150.744H285.368V152.876H281.634V163.346H279.086Z" fill="#4F5DA8"/>
<path d="M287.011 163.346V150.744H296.366V152.876H289.558V155.669H295.892V157.793H289.558V161.222H296.606V163.346H287.011Z" fill="#4F5DA8"/>
<path d="M298.122 159.245L300.599 159.004C300.749 159.835 301.051 160.446 301.508 160.835C301.964 161.225 302.579 161.419 303.354 161.419C304.174 161.419 304.792 161.246 305.209 160.899C305.624 160.553 305.833 160.147 305.833 159.683C305.833 159.385 305.746 159.132 305.571 158.922C305.396 158.714 305.09 158.531 304.654 158.377C304.356 158.273 303.676 158.09 302.615 157.827C301.25 157.488 300.292 157.074 299.741 156.581C298.967 155.887 298.58 155.042 298.58 154.045C298.58 153.403 298.761 152.803 299.126 152.244C299.491 151.686 300.015 151.26 300.701 150.967C301.386 150.676 302.214 150.529 303.184 150.529C304.767 150.529 305.959 150.877 306.76 151.569C307.561 152.263 307.98 153.188 308.02 154.346L305.473 154.457C305.364 153.81 305.131 153.344 304.772 153.061C304.414 152.777 303.876 152.636 303.159 152.636C302.419 152.636 301.839 152.788 301.421 153.091C301.151 153.285 301.016 153.546 301.016 153.873C301.016 154.171 301.142 154.426 301.395 154.638C301.717 154.907 302.497 155.187 303.735 155.48C304.975 155.772 305.891 156.075 306.485 156.387C307.079 156.699 307.544 157.125 307.879 157.667C308.213 158.209 308.382 158.878 308.382 159.674C308.382 160.396 308.181 161.073 307.78 161.703C307.379 162.333 306.81 162.803 306.076 163.109C305.341 163.415 304.426 163.569 303.33 163.569C301.735 163.569 300.511 163.201 299.656 162.464C298.799 161.728 298.289 160.654 298.122 159.245Z" fill="#4F5DA8"/>
<path d="M313.363 163.346V152.876H309.62V150.744H319.646V152.876H315.911V163.346H313.363Z" fill="#4F5DA8"/>
<path d="M242.209 179.836L244.679 180.618C244.3 181.994 243.671 183.015 242.791 183.683C241.909 184.351 240.793 184.684 239.439 184.684C237.764 184.684 236.386 184.112 235.308 182.969C234.229 181.825 233.691 180.263 233.691 178.279C233.691 176.182 234.233 174.553 235.317 173.393C236.401 172.233 237.827 171.652 239.594 171.652C241.137 171.652 242.391 172.107 243.354 173.018C243.928 173.558 244.357 174.33 244.645 175.339L242.124 175.941C241.974 175.287 241.663 174.771 241.19 174.394C240.717 174.015 240.142 173.826 239.465 173.826C238.529 173.826 237.771 174.162 237.189 174.832C236.606 175.502 236.315 176.589 236.315 178.09C236.315 179.683 236.602 180.818 237.176 181.495C237.749 182.171 238.496 182.508 239.413 182.508C240.091 182.508 240.672 182.293 241.16 181.864C241.647 181.436 241.998 180.76 242.209 179.836Z" fill="#4F5DA8"/>
<path d="M246.348 178.247C246.348 176.963 246.54 175.886 246.924 175.015C247.211 174.373 247.603 173.797 248.099 173.287C248.595 172.777 249.139 172.398 249.729 172.152C250.516 171.82 251.422 171.653 252.449 171.653C254.307 171.653 255.795 172.229 256.911 173.381C258.027 174.532 258.585 176.135 258.585 178.186C258.585 180.22 258.031 181.812 256.924 182.961C255.817 184.109 254.336 184.684 252.484 184.684C250.608 184.684 249.115 184.112 248.008 182.968C246.902 181.826 246.348 180.252 246.348 178.247ZM248.974 178.16C248.974 179.587 249.304 180.669 249.963 181.405C250.622 182.141 251.461 182.509 252.476 182.509C253.491 182.509 254.324 182.144 254.976 181.414C255.627 180.683 255.953 179.587 255.953 178.126C255.953 176.682 255.636 175.605 255.002 174.894C254.368 174.184 253.526 173.828 252.476 173.828C251.426 173.828 250.58 174.188 249.937 174.907C249.295 175.627 248.974 176.71 248.974 178.16Z" fill="#4F5DA8"/>
<path d="M263.794 184.47L259.284 171.869H262.047L265.24 181.195L268.329 171.869H271.031L266.513 184.47H263.794Z" fill="#4F5DA8"/>
<path d="M272.252 184.47V171.869H274.799V184.47H272.252Z" fill="#4F5DA8"/>
<path d="M277.219 171.869H281.875C282.925 171.869 283.724 171.949 284.276 172.11C285.016 172.328 285.651 172.714 286.178 173.27C286.706 173.826 287.107 174.507 287.382 175.312C287.657 176.117 287.795 177.11 287.795 178.29C287.795 179.327 287.666 180.222 287.408 180.972C287.093 181.889 286.642 182.632 286.057 183.198C285.615 183.627 285.018 183.963 284.267 184.204C283.705 184.382 282.953 184.471 282.012 184.471H277.219V171.869ZM279.765 174V182.346H281.667C282.378 182.346 282.892 182.306 283.208 182.226C283.62 182.122 283.963 181.948 284.236 181.702C284.508 181.456 284.73 181.05 284.903 180.486C285.076 179.922 285.161 179.152 285.161 178.178C285.161 177.205 285.076 176.457 284.903 175.936C284.73 175.414 284.49 175.007 284.18 174.714C283.87 174.423 283.478 174.224 283.001 174.122C282.646 174.041 281.949 174.001 280.91 174.001H279.765V174Z" fill="#4F5DA8"/>
<path d="M289.662 181.11V178.694H294.412V181.11H289.662Z" fill="#4F5DA8"/>
<path d="M301.478 184.47H299.06V175.367C298.176 176.192 297.135 176.803 295.935 177.198V175.006C296.566 174.8 297.252 174.408 297.993 173.832C298.733 173.257 299.24 172.585 299.517 171.816H301.479V184.47H301.478Z" fill="#4F5DA8"/>
<path d="M305.144 181.556L307.484 181.298C307.541 181.773 307.691 182.126 307.932 182.355C308.174 182.585 308.492 182.699 308.887 182.699C309.387 182.699 309.812 182.47 310.161 182.012C310.511 181.553 310.735 180.603 310.832 179.158C310.223 179.864 309.464 180.216 308.551 180.216C307.558 180.216 306.702 179.834 305.983 179.069C305.262 178.304 304.903 177.308 304.903 176.082C304.903 174.804 305.283 173.774 306.044 172.991C306.804 172.21 307.773 171.818 308.948 171.818C310.228 171.818 311.277 172.312 312.099 173.301C312.919 174.289 313.329 175.916 313.329 178.18C313.329 180.483 312.902 182.145 312.047 183.166C311.191 184.186 310.079 184.696 308.708 184.696C307.722 184.696 306.924 184.434 306.316 183.909C305.709 183.384 305.315 182.599 305.144 181.556ZM310.618 176.278C310.618 175.499 310.439 174.894 310.08 174.464C309.722 174.035 309.307 173.82 308.837 173.82C308.389 173.82 308.018 173.996 307.722 174.349C307.426 174.701 307.278 175.278 307.278 176.081C307.278 176.895 307.439 177.491 307.76 177.872C308.081 178.254 308.482 178.444 308.964 178.444C309.429 178.444 309.821 178.261 310.139 177.894C310.458 177.528 310.618 176.99 310.618 176.278Z" fill="#4F5DA8"/>
<path d="M260.224 210.26H235.195V213.813H260.224V210.26Z" fill="#4F5DA8"/>
<path d="M314.425 231.289H298.59C292.327 231.289 287.232 226.2 287.232 219.945V204.128C287.232 197.873 292.327 192.784 298.59 192.784H314.425C320.688 192.784 325.782 197.873 325.782 204.128V219.945C325.782 226.2 320.688 231.289 314.425 231.289ZM298.59 193.951C292.971 193.951 288.4 198.516 288.4 204.128V219.945C288.4 225.557 292.971 230.122 298.59 230.122H314.425C320.044 230.122 324.614 225.557 324.614 219.945V204.128C324.614 198.516 320.044 193.951 314.425 193.951H298.59Z" fill="#4F5DA8"/>
<path d="M260.224 255.895H235.195V259.447H260.224V255.895Z" fill="#4F5DA8"/>
<path d="M249.487 270.172V245.173H245.931V270.172H249.487Z" fill="#4F5DA8"/>
<path d="M314.425 276.923H298.59C292.327 276.923 287.232 271.835 287.232 265.579V249.763C287.232 243.508 292.327 238.419 298.59 238.419H314.425C320.688 238.419 325.782 243.508 325.782 249.763V265.579C325.782 271.835 320.688 276.923 314.425 276.923ZM298.59 239.586C292.971 239.586 288.4 244.151 288.4 249.763V265.579C288.4 271.192 292.971 275.757 298.59 275.757H314.425C320.044 275.757 324.614 271.192 324.614 265.579V249.763C324.614 244.151 320.044 239.586 314.425 239.586H298.59Z" fill="#4F5DA8"/>
<path d="M305.991 213.404C307.383 209.581 309.035 205.82 311.409 202.599C313.783 199.379 316.94 196.71 320.623 195.571C314.394 204.448 309.89 214.704 307.477 225.501C307.596 224.97 306.608 223.414 306.377 222.907C305.987 222.054 305.577 221.211 305.145 220.381C304.231 218.626 303.221 216.929 302.125 215.298C301.047 213.697 299.887 212.161 298.649 210.7C297.928 209.85 295.029 207.574 295.036 206.546C296.617 205.968 299.726 207.845 301.085 208.702C302.989 209.902 304.676 211.502 305.991 213.404Z" fill="#4F5DA8"/>
<path d="M409.785 190.222L378.236 200.542C372.232 202.506 366.432 199.345 365.282 193.485L343.94 84.7863C342.79 78.9264 346.723 72.5816 352.727 70.6175L384.276 60.2978C390.147 58.3389 396.107 61.4555 397.23 67.3543L418.572 176.053C419.76 181.929 415.671 188.338 409.785 190.222Z" fill="white"/>
<path d="M376.999 106.447C377.043 107.473 377.189 108.548 377.398 109.526L371.587 110.101L371.651 110.427L374.525 110.963C374.528 110.981 374.644 111.575 374.648 111.592C374.652 111.61 374.658 111.627 374.665 111.644C374.666 111.647 374.669 111.653 374.671 111.657L375.322 111.444C375.329 111.383 375.274 111.161 375.264 111.1L376.185 111.271C376.198 111.319 376.299 111.902 376.324 111.925L376.975 111.712C376.982 111.654 376.935 111.467 376.926 111.409L377.798 111.571C378.177 112.76 378.134 115.965 379.736 116.14C381.079 115.004 379.859 112.205 379.754 110.93L380.462 110.251C380.476 110.308 380.502 110.499 380.53 110.548L381.182 110.335C381.195 110.302 381.068 109.724 381.063 109.676L381.809 108.959C381.811 108.973 381.86 109.218 381.863 109.231C381.869 109.253 381.876 109.275 381.887 109.294L382.537 109.082C382.538 109.058 382.537 109.034 382.533 109.012C382.531 108.991 382.414 108.401 382.41 108.382L384.74 106.144L384.676 105.817L379.354 108.885C379.17 107.857 378.891 106.79 378.531 105.828L380.809 103.574L380.756 103.304H380.755L380.397 103.475L377.936 104.654C377.611 104.211 377.202 104.351 377.084 104.933C376.264 105.084 374.926 105.329 374.105 105.478L374.159 105.749C374.843 105.889 376.329 106.193 376.992 106.331C376.995 106.371 376.997 106.41 376.999 106.447Z" fill="#4F5DA8"/>
<path d="M401.139 158.779L400.747 156.783L404.758 155.471L405.15 157.467L401.139 158.779Z" fill="#E8E8E8"/>
<path d="M393.121 161.402L392.729 159.406L396.738 158.095L397.13 160.09L393.121 161.402Z" fill="#E8E8E8"/>
<path d="M385.102 164.025L384.71 162.03L388.72 160.718L389.112 162.714L385.102 164.025Z" fill="#E8E8E8"/>
<path d="M377.083 166.649L376.691 164.653L380.7 163.341L381.092 165.337L377.083 166.649Z" fill="#E8E8E8"/>
<path d="M369.062 169.272L368.67 167.276L372.681 165.964L373.073 167.961L369.062 169.272Z" fill="#E8E8E8"/>
<path d="M361.044 171.896L360.652 169.899L364.661 168.587L365.053 170.584L361.044 171.896Z" fill="#E8E8E8"/>
<path d="M411.446 189.535L385.986 59.8649C391.345 58.9535 396.188 62.0455 397.227 67.3454L418.57 176.044C419.611 181.347 416.495 187.042 411.446 189.535Z" fill="#4F5DA8"/>
<path d="M376.496 200.968L351.036 71.2981C346.004 73.786 342.898 79.4787 343.939 84.7785L365.281 193.477C366.322 198.779 371.152 201.875 376.496 200.968Z" fill="#4F5DA8"/>
<path d="M369.662 156.32L366.119 138.27L369.496 137.165L373.04 155.214L369.662 156.32Z" fill="#C7C7C7"/>
<path d="M372.549 100.707L367.304 73.9922C367.162 73.2713 367.646 72.4909 368.385 72.2484L373.525 70.5669C374.263 70.3258 374.977 70.7134 375.119 71.4356L380.364 98.1501C380.505 98.8709 380.021 99.6514 379.283 99.8938L374.143 101.575C373.404 101.816 372.69 101.427 372.549 100.707Z" fill="#E8E8E8"/>
<path d="M382.149 149.6L376.904 122.885C376.762 122.164 377.246 121.384 377.985 121.141L383.125 119.46C383.863 119.219 384.577 119.606 384.719 120.328L389.964 147.043C390.105 147.764 389.621 148.544 388.883 148.787L383.743 150.468C383.004 150.709 382.29 150.32 382.149 149.6Z" fill="#E8E8E8"/>
<path d="M374.185 176.694L373.47 173.052L401.202 163.979L401.917 167.622L374.185 176.694Z" fill="#C7C7C7"/>
<path d="M375.242 182.084L374.746 179.56L391.21 174.175L391.706 176.699L375.242 182.084Z" fill="#E8E8E8"/>
<path d="M375.944 185.66L375.448 183.136L391.912 177.75L392.406 180.274L375.944 185.66Z" fill="#E8E8E8"/>
<path d="M396.284 79.6577L395.994 78.1901L391.473 78.5116L391.245 77.3487L395.766 77.0272L395.479 75.5661L396.494 75.4935L397.299 79.5851L396.284 79.6577Z" fill="white"/>
<path d="M392.127 81.8316L391.899 80.6726L397.435 80.2785L397.663 81.4375L392.127 81.8316Z" fill="white"/>
<path d="M393.282 86.6793C390.111 81.4508 399.215 80.8816 398.509 86.3072L397.308 86.3928C398.518 82.5696 391.675 83.0026 394.42 86.5989L393.282 86.6793Z" fill="white"/>
<path d="M394.102 91.8688L393.814 90.4038C393.949 90.3118 396.089 88.5525 396.202 88.5745L396.198 88.5564L393.488 88.7495L393.26 87.5905L398.796 87.1964L399.024 88.3554L396.407 88.5421L396.411 88.5603C396.554 88.5551 399.134 89.8515 399.337 89.9397L399.608 91.3217L396.615 89.7154L394.102 91.8688Z" fill="white"/>
<path d="M394.807 95.4472L394.199 92.3604L399.735 91.9663L400.319 94.9351L399.304 95.0078L398.949 93.1992L397.717 93.2874L398.048 94.9715L397.037 95.0441L396.706 93.36L395.439 93.4507L395.818 95.3785L394.807 95.4472Z" fill="white"/>
<path d="M400.213 99.6309L399.923 98.1633L395.403 98.4848L395.174 97.3219L399.695 97.0004L399.408 95.5393L400.423 95.4667L401.228 99.5583L400.213 99.6309Z" fill="white"/>
<path d="M409.289 197.368L379.533 189.264C373.869 187.721 371.148 181.618 373.45 175.633L416.167 64.619C418.469 58.6334 424.927 55.0305 430.59 56.572L460.346 64.6761C465.904 66.1488 468.774 72.3018 466.429 78.3069L423.712 189.321C421.429 195.341 414.817 198.919 409.289 197.368Z" fill="white"/>
<path d="M429.702 102.736C429.178 103.695 428.707 104.757 428.336 105.767L423.575 103.064L423.447 103.397L425.356 105.482C425.349 105.501 425.114 106.105 425.109 106.125C425.103 106.143 425.098 106.162 425.094 106.18C425.092 106.186 425.092 106.191 425.091 106.196L425.705 106.363C425.744 106.313 425.822 106.079 425.848 106.018L426.459 106.686C426.444 106.738 426.203 107.324 426.21 107.36L426.824 107.527C426.86 107.478 426.926 107.281 426.951 107.224L427.531 107.857C427.176 109.152 425.403 112.052 426.533 113.101C428.178 112.81 428.764 109.58 429.377 108.36L430.288 108.133C430.267 108.194 430.184 108.382 430.179 108.441L430.793 108.609C430.822 108.585 431.038 107.988 431.06 107.94L432.021 107.7C432.016 107.714 431.918 107.964 431.915 107.979C431.907 108.002 431.9 108.025 431.898 108.05L432.512 108.217C432.526 108.196 432.538 108.174 432.547 108.151C432.556 108.13 432.787 107.527 432.795 107.508L435.793 106.76L435.921 106.427L430.18 106.27C430.598 105.229 430.964 104.102 431.211 103.025L434.178 102.234L434.285 101.957H434.283L433.916 101.914L431.391 101.623C431.384 101.039 430.994 100.94 430.588 101.404C429.878 101.085 428.722 100.566 428.012 100.248L427.905 100.525C428.353 101.034 429.324 102.137 429.759 102.629C429.742 102.664 429.721 102.699 429.702 102.736Z" fill="#FAB75E"/>
<path d="M419.752 163.882L420.537 161.843L424.318 162.874L423.534 164.912L419.752 163.882Z" fill="#E8E8E8"/>
<path d="M412.189 161.822L412.974 159.784L416.755 160.814L415.971 162.852L412.189 161.822Z" fill="#E8E8E8"/>
<path d="M404.626 159.762L405.41 157.724L409.192 158.754L408.408 160.793L404.626 159.762Z" fill="#E8E8E8"/>
<path d="M397.062 157.702L397.846 155.664L401.628 156.694L400.843 158.733L397.062 157.702Z" fill="#E8E8E8"/>
<path d="M389.497 155.642L390.282 153.604L394.063 154.633L393.279 156.673L389.497 155.642Z" fill="#E8E8E8"/>
<path d="M381.934 153.582L382.719 151.544L386.5 152.573L385.716 154.613L381.934 153.582Z" fill="#E8E8E8"/>
<path d="M410.931 197.664L461.889 65.2311C466.486 67.3754 468.514 72.8853 466.43 78.2992L423.714 189.314C421.631 194.728 416.151 198.193 410.931 197.664Z" fill="#FAB75E"/>
<path d="M377.967 188.686L428.924 56.253C423.721 55.728 418.251 59.1973 416.168 64.6099L373.451 175.624C371.369 181.038 373.385 186.546 377.967 188.686Z" fill="#FAB75E"/>
<path d="M396.993 144.16L404.087 125.726L407.272 126.593L400.178 145.027L396.993 144.16Z" fill="#C7C7C7"/>
<path d="M429.416 95.0283L439.914 67.7446C440.197 67.0083 440.992 66.5649 441.689 66.7554L446.537 68.0765C447.234 68.2658 447.569 69.0177 447.286 69.7541L436.787 97.0378C436.505 97.7741 435.71 98.2175 435.013 98.0269L430.165 96.7059C429.467 96.5153 429.132 95.7647 429.416 95.0283Z" fill="#E8E8E8"/>
<path d="M410.203 144.962L420.701 117.678C420.984 116.942 421.778 116.499 422.475 116.689L427.323 118.01C428.02 118.2 428.355 118.952 428.072 119.688L417.574 146.972C417.291 147.708 416.496 148.151 415.799 147.961L410.951 146.64C410.254 146.449 409.92 145.698 410.203 144.962Z" fill="#E8E8E8"/>
<path d="M389.385 165.258L390.816 161.537L416.974 168.661L415.542 172.381L389.385 165.258Z" fill="#C7C7C7"/>
<path d="M387.267 170.762L388.259 168.184L403.786 172.413L402.795 174.99L387.267 170.762Z" fill="#E8E8E8"/>
<path d="M385.863 174.413L386.855 171.836L402.382 176.065L401.391 178.642L385.863 174.413Z" fill="#E8E8E8"/>
<path d="M459.742 87.399L460.334 85.9055L456.594 83.9712L457.063 82.7875L460.802 84.7218L461.392 83.2348L462.231 83.6691L460.58 87.832L459.742 87.399Z" fill="white"/>
<path d="M455.255 87.3498L455.723 86.17L460.302 88.5374L459.835 89.7171L455.255 87.3498Z" fill="white"/>
<path d="M453.458 92.3788C453.88 86.0029 461.366 89.97 457.782 94.6152L456.789 94.1018C459.876 91.1796 454.245 88.2029 454.401 92.8663L453.458 92.3788Z" fill="white"/>
<path d="M451.207 97.5605L451.798 96.0709C451.955 96.0527 454.622 95.4901 454.7 95.5652L454.708 95.5471L452.466 94.3881L452.933 93.2083L457.513 95.5756L457.045 96.7554L454.88 95.6353L454.873 95.6534C454.988 95.7182 456.296 98.1854 456.407 98.3656L455.85 99.7709L454.39 96.815L451.207 97.5605Z" fill="white"/>
<path d="M449.764 101.201L451.009 98.0594L455.588 100.427L454.391 103.447L453.552 103.013L454.281 101.172L453.262 100.646L452.583 102.358L451.747 101.925L452.426 100.213L451.379 99.6709L450.601 101.632L449.764 101.201Z" fill="white"/>
<path d="M451.686 107.718L452.278 106.225L448.539 104.292L449.007 103.108L452.747 105.041L453.336 103.555L454.176 103.99L452.525 108.153L451.686 107.718Z" fill="white"/>
<path d="M457.047 324L345.062 323.505C344.453 323.502 343.961 323.007 343.964 322.399L344.683 136.253C344.685 135.644 345.181 135.152 345.791 135.155L457.776 135.65C458.385 135.653 458.877 136.148 458.874 136.756L458.155 322.902C458.151 323.511 457.655 324.002 457.047 324Z" fill="#3796F2"/>
<path d="M366.503 282.424L366.486 286.638L363.912 286.626L363.959 274.394L367.991 274.412C370.87 274.425 372.305 275.731 372.295 278.33C372.29 279.558 371.873 280.551 371.044 281.306C370.214 282.061 369.109 282.436 367.728 282.43L366.503 282.424ZM366.526 276.523L366.512 280.336L367.525 280.34C368.895 280.346 369.583 279.706 369.588 278.421C369.594 277.165 368.911 276.533 367.54 276.527L366.526 276.523Z" fill="white"/>
<path d="M383.023 286.712L380.218 286.7L379.416 283.975L375.352 283.957L374.537 286.674L371.747 286.661L375.954 274.447L379.006 274.46L383.023 286.712ZM378.833 281.857L377.622 277.739C377.532 277.432 377.47 277.065 377.435 276.638H377.371C377.343 276.996 377.275 277.351 377.168 277.704L375.909 281.845L378.833 281.857Z" fill="white"/>
<path d="M383.924 286.246L383.935 283.516C384.396 283.934 384.897 284.247 385.437 284.457C385.978 284.667 386.524 284.774 387.077 284.776C387.402 284.778 387.685 284.748 387.926 284.687C388.169 284.626 388.37 284.539 388.532 284.429C388.694 284.319 388.816 284.189 388.896 284.039C388.976 283.888 389.016 283.725 389.018 283.549C389.019 283.31 388.955 283.096 388.829 282.908C388.702 282.72 388.53 282.545 388.309 282.386C388.09 282.225 387.827 282.071 387.526 281.922C387.224 281.772 386.898 281.621 386.548 281.465C385.657 281.063 384.993 280.575 384.557 279.998C384.12 279.422 383.904 278.727 383.908 277.913C383.91 277.276 384.032 276.729 384.272 276.273C384.512 275.817 384.839 275.441 385.252 275.148C385.665 274.853 386.143 274.638 386.685 274.502C387.228 274.365 387.801 274.298 388.408 274.301C389.002 274.304 389.529 274.344 389.989 274.423C390.448 274.502 390.871 274.621 391.258 274.782L391.248 277.332C391.057 277.19 390.849 277.064 390.623 276.954C390.397 276.845 390.166 276.754 389.928 276.681C389.689 276.609 389.451 276.556 389.215 276.521C388.979 276.486 388.754 276.467 388.541 276.466C388.249 276.465 387.983 276.493 387.744 276.552C387.506 276.61 387.303 276.693 387.138 276.801C386.973 276.908 386.845 277.037 386.754 277.187C386.663 277.337 386.618 277.506 386.616 277.694C386.615 277.899 386.666 278.083 386.766 278.245C386.866 278.407 387.008 278.561 387.194 278.708C387.38 278.853 387.604 278.997 387.87 279.137C388.135 279.277 388.435 279.422 388.768 279.571C389.224 279.779 389.634 279.998 389.998 280.23C390.361 280.462 390.671 280.724 390.931 281.014C391.19 281.306 391.388 281.638 391.524 282.011C391.66 282.384 391.728 282.817 391.727 283.313C391.724 283.995 391.601 284.568 391.358 285.03C391.114 285.493 390.786 285.867 390.369 286.152C389.954 286.437 389.471 286.641 388.92 286.764C388.37 286.887 387.79 286.947 387.178 286.944C386.552 286.941 385.956 286.882 385.39 286.765C384.827 286.65 384.337 286.476 383.924 286.246Z" fill="white"/>
<path d="M393.073 286.288L393.084 283.558C393.544 283.975 394.045 284.289 394.585 284.499C395.127 284.709 395.673 284.815 396.226 284.818C396.55 284.819 396.833 284.789 397.075 284.727C397.316 284.666 397.519 284.579 397.681 284.469C397.843 284.359 397.965 284.229 398.044 284.079C398.125 283.928 398.165 283.765 398.166 283.589C398.168 283.35 398.104 283.136 397.978 282.948C397.851 282.76 397.678 282.585 397.458 282.426C397.238 282.266 396.977 282.111 396.675 281.962C396.373 281.813 396.047 281.661 395.696 281.505C394.806 281.103 394.141 280.615 393.705 280.038C393.269 279.461 393.052 278.767 393.056 277.953C393.059 277.317 393.181 276.769 393.421 276.313C393.661 275.857 393.988 275.481 394.401 275.187C394.814 274.892 395.291 274.677 395.834 274.54C396.376 274.402 396.95 274.336 397.556 274.339C398.151 274.341 398.678 274.383 399.137 274.46C399.597 274.54 400.02 274.659 400.407 274.82L400.396 277.37C400.206 277.227 399.998 277.101 399.772 276.991C399.546 276.882 399.315 276.792 399.076 276.719C398.837 276.646 398.6 276.593 398.364 276.558C398.127 276.523 397.903 276.505 397.69 276.504C397.398 276.502 397.132 276.531 396.893 276.589C396.654 276.648 396.452 276.731 396.287 276.838C396.122 276.946 395.994 277.074 395.903 277.225C395.812 277.375 395.766 277.543 395.765 277.731C395.764 277.936 395.814 278.12 395.914 278.282C396.014 278.444 396.157 278.599 396.343 278.745C396.528 278.89 396.753 279.034 397.019 279.174C397.284 279.314 397.584 279.46 397.917 279.609C398.373 279.815 398.783 280.035 399.146 280.267C399.51 280.499 399.82 280.761 400.08 281.052C400.339 281.343 400.537 281.675 400.673 282.049C400.809 282.422 400.877 282.855 400.875 283.35C400.873 284.032 400.749 284.605 400.507 285.068C400.263 285.531 399.934 285.904 399.518 286.189C399.102 286.475 398.619 286.678 398.069 286.801C397.519 286.925 396.939 286.984 396.327 286.982C395.7 286.979 395.104 286.919 394.539 286.803C393.975 286.69 393.486 286.517 393.073 286.288Z" fill="white"/>
<path d="M405.335 282.597L405.318 286.81L402.744 286.799L402.791 274.567L406.823 274.585C409.702 274.598 411.137 275.903 411.127 278.503C411.122 279.73 410.705 280.722 409.876 281.478C409.046 282.234 407.942 282.609 406.56 282.602L405.335 282.597ZM405.357 276.694L405.343 280.507L406.355 280.511C407.726 280.517 408.414 279.877 408.419 278.592C408.424 277.336 407.742 276.705 406.371 276.698L405.357 276.694Z" fill="white"/>
<path d="M417.597 287.079C415.96 287.071 414.629 286.495 413.603 285.351C412.576 284.206 412.067 282.718 412.074 280.887C412.081 278.954 412.61 277.392 413.661 276.203C414.713 275.013 416.101 274.422 417.828 274.429C419.458 274.437 420.775 275.014 421.777 276.161C422.779 277.309 423.277 278.818 423.27 280.689C423.262 282.611 422.735 284.158 421.687 285.33C420.639 286.503 419.276 287.087 417.597 287.079ZM417.748 276.801C416.845 276.797 416.126 277.156 415.593 277.879C415.058 278.601 414.789 279.561 414.784 280.755C414.779 281.966 415.041 282.925 415.569 283.633C416.097 284.341 416.792 284.696 417.652 284.7C418.54 284.704 419.245 284.364 419.768 283.681C420.291 282.998 420.556 282.049 420.56 280.831C420.565 279.563 420.316 278.575 419.815 277.868C419.314 277.16 418.625 276.804 417.748 276.801Z" fill="white"/>
<path d="M434.73 286.941L431.773 286.928L430.008 283.773C429.876 283.533 429.75 283.319 429.628 283.131C429.506 282.943 429.384 282.782 429.259 282.647C429.135 282.514 429.005 282.41 428.87 282.339C428.735 282.268 428.587 282.231 428.429 282.23L427.735 282.227L427.717 286.91L425.143 286.898L425.19 274.667L429.27 274.685C432.042 274.698 433.426 275.811 433.417 278.029C433.415 278.456 433.352 278.85 433.229 279.211C433.105 279.571 432.931 279.896 432.707 280.184C432.482 280.473 432.212 280.722 431.895 280.931C431.579 281.14 431.226 281.303 430.838 281.421V281.455C431.008 281.513 431.171 281.605 431.331 281.735C431.489 281.863 431.644 282.013 431.792 282.185C431.94 282.356 432.081 282.54 432.216 282.737C432.351 282.934 432.473 283.126 432.585 283.314L434.73 286.941ZM427.757 276.742L427.745 280.145L428.859 280.15C429.412 280.153 429.856 279.984 430.193 279.645C430.534 279.3 430.705 278.871 430.708 278.359C430.712 277.289 430.116 276.752 428.921 276.747L427.757 276.742Z" fill="white"/>
<path d="M443.534 276.991L440.275 276.977L440.236 286.966L437.654 286.954L437.693 276.965L434.45 276.951L434.459 274.708L443.543 274.748L443.534 276.991Z" fill="white"/>
<path d="M364.33 211.363C364.33 211.355 364.33 211.35 364.33 211.342C364.373 200.208 368.464 189.759 375.848 181.92C383.233 174.08 393.029 169.787 403.429 169.833C413.83 169.878 423.592 174.258 430.915 182.163C438.235 190.063 442.244 200.542 442.207 211.666C442.207 211.674 442.207 211.679 442.207 211.687C442.164 222.821 438.072 233.269 430.688 241.11C423.304 248.95 413.508 253.242 403.107 253.197C392.707 253.151 382.945 248.772 375.621 240.866C368.302 232.966 364.292 222.488 364.33 211.363ZM441.031 211.663C441.107 189.381 424.241 171.185 403.424 171.093C393.337 171.049 383.839 175.21 376.677 182.814C369.514 190.418 365.548 200.551 365.506 211.347C365.506 211.354 365.506 211.36 365.506 211.367C365.47 222.157 369.357 232.317 376.456 239.978C383.558 247.644 393.026 251.891 403.113 251.935C423.935 252.027 440.945 233.969 441.031 211.681C441.031 211.677 441.031 211.668 441.031 211.663Z" fill="white"/>
<path d="M402.841 170.458L402.524 252.562L403.7 252.566L404.017 170.462L402.841 170.458Z" fill="white"/>
<path d="M364.922 210.732L364.917 211.99L441.619 212.292L441.624 211.033L364.922 210.732Z" fill="white"/>
<path d="M381.353 211.586C381.353 211.578 381.353 211.571 381.353 211.563C381.377 205.458 382.527 199.468 384.771 193.761C386.563 189.202 389.054 184.813 392.175 180.716C397.483 173.744 402.703 170.087 402.922 169.934L403.562 170.991C403.51 171.027 398.254 174.714 393.061 181.545C388.286 187.825 382.583 198.132 382.531 211.569C382.531 211.576 382.531 211.585 382.531 211.591C382.485 225.02 387.922 235.249 392.493 241.469C397.465 248.235 402.521 251.859 402.572 251.894L401.923 252.944C401.711 252.793 396.684 249.196 391.594 242.283C386.896 235.9 381.307 225.394 381.353 211.586Z" fill="white"/>
<path d="M403.104 170.988L403.752 169.937C403.97 170.091 409.161 173.795 414.416 180.814C417.504 184.938 419.961 189.35 421.719 193.924C423.916 199.644 425.019 205.636 424.999 211.733C424.999 211.741 424.999 211.747 424.999 211.755C424.945 225.575 419.272 236.037 414.521 242.382C409.379 249.249 404.324 252.804 404.112 252.952L403.47 251.897C403.521 251.862 408.605 248.284 413.63 241.562C418.25 235.379 423.771 225.189 423.823 211.751C423.823 211.745 423.823 211.737 423.823 211.73C423.868 198.286 418.235 187.928 413.5 181.602C408.357 174.736 403.156 171.026 403.104 170.988Z" fill="white"/>
<path d="M378.234 179.454L379.393 179.241C379.401 179.288 380.183 183.939 383.493 188.529C387.917 194.662 394.525 197.791 403.136 197.83C411.744 197.867 418.332 194.798 422.72 188.708C426.003 184.149 426.759 179.506 426.767 179.46L427.927 179.666C427.896 179.866 427.129 184.624 423.685 189.43C420.508 193.864 414.362 199.139 403.13 199.088C391.901 199.039 385.73 193.712 382.529 189.252C379.059 184.418 378.266 179.655 378.234 179.454Z" fill="white"/>
<path d="M377.991 243.012C378.025 242.832 378.859 238.533 382.375 234.201C385.608 230.22 391.815 225.485 403.028 225.535C414.244 225.584 420.347 230.376 423.492 234.387C426.914 238.751 427.651 243.059 427.681 243.24L426.522 243.458C426.515 243.418 425.794 239.255 422.552 235.148C418.27 229.721 411.517 226.831 403.023 226.795C394.526 226.757 387.707 229.587 383.302 234.979C379.967 239.06 379.152 243.218 379.144 243.26L377.991 243.012Z" fill="white"/>
<g clip-path="url(#clip0_1574_5197)">
<path d="M446.239 323.911C468.25 315.663 482.837 294.598 482.837 271.06V256.794C475.291 256.794 469.174 250.667 469.174 243.109H446.239H423.304C423.304 250.667 417.187 256.794 409.641 256.794V271.06C409.641 294.598 424.228 315.663 446.239 323.911Z" fill="white"/>
<path d="M446.239 323.911C468.25 315.663 482.837 294.598 482.837 271.06V256.794C475.291 256.794 469.174 250.667 469.174 243.109H446.239C446.239 243.109 446.239 305.92 446.239 323.911Z" fill="#E8E8E8"/>
<path d="M442.227 285.784L423.655 289.808V284.778L442.227 273.714V261.14C442.227 258.921 444.03 257.117 446.243 257.117C448.461 257.117 450.259 258.919 450.259 261.14V273.714L468.831 284.778V289.808L450.259 285.784V294.837L453.772 302.366L446.243 300.872L438.714 302.366L442.227 294.837V285.784Z" fill="#3796F2"/>
</g>
<path d="M147.062 141.659H142.294V193.265H147.062V141.659Z" fill="#DCE0E8"/>
<path d="M177.921 142.254H173.153V193.265H177.921V142.254Z" fill="#DCE0E8"/>
<path d="M118.824 314.601C118.824 319.46 122.767 323.4 127.633 323.4C132.499 323.4 136.442 319.46 136.442 314.601C136.442 309.742 132.499 305.802 127.633 305.802C122.767 305.802 118.824 309.742 118.824 314.601Z" fill="#5E2C1C"/>
<g opacity="0.5">
<g opacity="0.5">
<path opacity="0.5" d="M121.808 314.601C121.808 317.813 124.416 320.419 127.633 320.419C130.851 320.419 133.459 317.813 133.459 314.601C133.459 311.388 130.85 308.782 127.633 308.782C124.417 308.782 121.808 311.388 121.808 314.601Z" fill="#CC5F3C"/>
</g>
</g>
<path d="M182.016 314.601C182.016 319.46 185.959 323.4 190.826 323.4C195.69 323.4 199.634 319.46 199.634 314.601C199.634 309.742 195.69 305.802 190.826 305.802C185.959 305.803 182.016 309.742 182.016 314.601Z" fill="#5E2C1C"/>
<g opacity="0.5">
<g opacity="0.5">
<path opacity="0.5" d="M185 314.601C185 317.813 187.607 320.419 190.825 320.419C194.042 320.419 196.65 317.813 196.65 314.601C196.65 311.388 194.042 308.782 190.825 308.782C187.609 308.784 185 311.388 185 314.601Z" fill="#CC5F3C"/>
</g>
</g>
<path d="M113.411 181.25V302.323C113.411 307.963 117.919 312.546 123.528 312.679C123.612 312.681 123.698 312.683 123.781 312.683H196.433C196.517 312.683 196.603 312.681 196.689 312.679C202.297 312.546 206.804 307.963 206.804 302.323V181.252C206.804 178.666 205.855 176.3 204.286 174.485C204.043 174.204 203.782 173.937 203.511 173.681C201.717 172.005 199.324 170.96 196.689 170.898C196.603 170.895 196.516 170.894 196.432 170.894H123.782C123.699 170.894 123.614 170.895 123.529 170.898C117.919 171.029 113.411 175.615 113.411 181.25Z" fill="#CC5F3C"/>
<g opacity="0.3">
<g opacity="0.3">
<path opacity="0.3" d="M113.411 201.929C123.047 233.089 124.584 252.057 123.862 264.092C123.862 264.092 122.413 288.98 131.955 295.585C132.133 295.709 134.178 297.078 136.736 299.261C137.887 300.242 138.669 301.001 138.83 301.133C143.485 304.953 149.307 306.78 155.126 307.444C170.093 308.939 184.726 306.448 199.693 308.442C201.208 308.634 202.742 308.849 204.278 309.094C202.428 311.232 199.719 312.608 196.688 312.68C196.603 312.682 196.518 312.684 196.433 312.684H123.781C123.695 312.684 123.612 312.683 123.528 312.68C117.919 312.545 113.411 307.961 113.411 302.324V220.515V201.929Z" fill="#CC5F3C"/>
</g>
</g>
<g opacity="0.3">
<g opacity="0.3">
<path opacity="0.3" d="M198.862 208.244C196.19 191.035 194.559 186.405 190.294 183.025C187.567 180.865 184.976 180.147 180.066 178.789C168.532 175.598 163.24 177.907 152.3 176.021C148.611 175.383 143.028 174.055 136.376 170.893H196.43C196.513 170.893 196.6 170.893 196.685 170.895C199.322 170.957 201.714 172.006 203.509 173.681C203.78 173.933 204.04 174.202 204.284 174.484C205.851 176.299 206.799 178.665 206.799 181.252V253.149C206.407 251.746 205.822 249.605 205.178 246.985C201.752 233.033 201.569 225.671 198.862 208.244Z" fill="#365970"/>
</g>
</g>
<path d="M178.032 133.231H141.962V138.655H178.032V133.231Z" fill="#413632"/>
<path d="M147.395 133.231H141.962V147.428H147.395V133.231Z" fill="#413632"/>
<path d="M178.252 133.231H172.821V147.428H178.252V133.231Z" fill="#413632"/>
<g opacity="0.3">
<path opacity="0.3" d="M181.383 191.118V292.46C181.383 294.454 183.001 296.071 184.999 296.071C186.996 296.071 188.615 294.454 188.615 292.46V191.118C188.615 189.122 186.996 187.506 184.999 187.506C183.001 187.506 181.383 189.122 181.383 191.118Z" fill="black"/>
</g>
<g opacity="0.3">
<path opacity="0.3" d="M171.99 187.497H164.757V296.064H171.99V187.497Z" fill="#FAB75E"/>
<path opacity="0.3" d="M164.753 191.117V292.46C164.753 294.454 166.372 296.071 168.369 296.071C170.367 296.071 171.986 294.454 171.986 292.46V191.117C171.986 189.122 170.367 187.505 168.369 187.505C166.372 187.505 164.753 189.122 164.753 191.117Z" fill="black"/>
</g>
<g opacity="0.3">
<path opacity="0.3" d="M148.124 191.118V292.46C148.124 294.454 149.743 296.071 151.74 296.071C153.738 296.071 155.356 294.454 155.356 292.46V191.118C155.356 189.122 153.738 187.506 151.74 187.506C149.743 187.506 148.124 189.122 148.124 191.118Z" fill="black"/>
</g>
<g opacity="0.3">
<path opacity="0.3" d="M131.495 191.118V292.46C131.495 294.454 133.113 296.071 135.111 296.071C137.108 296.071 138.727 294.454 138.727 292.46V191.118C138.727 189.122 137.108 187.506 135.111 187.506C133.113 187.506 131.495 189.122 131.495 191.118Z" fill="black"/>
</g>
<defs>
<clipPath id="clip0_1574_5197">
<rect width="80.6724" height="80.8016" fill="white" transform="translate(405.903 243.109)"/>
</clipPath>
</defs>
</svg>
