<svg width="30" height="30" viewBox="0 0 30 30" fill="none" xmlns="http://www.w3.org/2000/svg">
<rect width="30" height="30" rx="8" fill="#DAF0A2"/>
<g clip-path="url(#clip0_1507_5709)">
<path d="M14.9992 25.7137C20.8458 23.5266 24.7206 17.9401 24.7206 11.6978V7.91445C22.7162 7.91445 21.0913 6.28956 21.0913 4.28516H14.9992H8.90713C8.90713 6.28956 7.28224 7.91445 5.27783 7.91445V11.6978C5.27783 17.9401 9.1526 23.5266 14.9992 25.7137Z" fill="#90AAF8"/>
<path d="M14.9995 25.7137C20.8461 23.5266 24.7209 17.9401 24.7209 11.6978V7.91445C22.7165 7.91445 21.0916 6.28956 21.0916 4.28516H14.9995C14.9995 4.28516 14.9995 20.9425 14.9995 25.7137Z" fill="#4872F2"/>
<path fill-rule="evenodd" clip-rule="evenodd" d="M16.6483 10.7148H13.3516V13.3522H10.7144V16.6489H13.3516V19.2863H16.6483V16.6489H19.2858V13.3522H16.6483V10.7148Z" fill="#F1F1F2"/>
<path fill-rule="evenodd" clip-rule="evenodd" d="M16.648 10.7148H14.9971V19.2863H16.648V16.6489H19.2854V13.3522H16.648V10.7148Z" fill="#E6E6E6"/>
</g>
<defs>
<clipPath id="clip0_1507_5709">
<rect width="21.4286" height="21.4286" fill="white" transform="translate(4.28516 4.28516)"/>
</clipPath>
</defs>
</svg>
