<svg width="56" height="56" viewBox="0 0 56 56" fill="none" xmlns="http://www.w3.org/2000/svg">
<rect width="56" height="56" rx="8" fill="#FFF6D8"/>
<g clip-path="url(#clip0_334_6217)">
<path d="M27.9981 47.9985C38.9118 43.9159 46.1447 33.4877 46.1447 21.8355V14.7732C42.4031 14.7732 39.37 11.7401 39.37 7.99854H27.9981H16.6263C16.6263 11.7401 13.5931 14.7732 9.85156 14.7732V21.8354C9.85156 33.4877 17.0845 43.9159 27.9981 47.9985Z" fill="#82DCD7"/>
<path d="M27.998 47.9985C38.9117 43.9159 46.1446 33.4877 46.1446 21.8355V14.7732C42.403 14.7732 39.3699 11.7401 39.3699 7.99854H27.998C27.998 7.99854 27.998 39.0923 27.998 47.9985Z" fill="#49C8C0"/>
<path d="M26.0087 29.1247L16.7998 31.1165V28.6267L26.0087 23.1493V16.9249C26.0087 15.8262 26.9024 14.9331 27.9998 14.9331C29.0995 14.9331 29.9909 15.8251 29.9909 16.9249V23.1493L39.1998 28.6267V31.1165L29.9909 29.1247V33.6062L31.7331 37.3331L27.9998 36.5939L24.2665 37.3331L26.0087 33.6062V29.1247Z" fill="#F1F1F2"/>
</g>
<defs>
<clipPath id="clip0_334_6217">
<rect width="40" height="40" fill="white" transform="translate(7.99805 7.99854)"/>
</clipPath>
</defs>
</svg>
