<svg width="56" height="56" viewBox="0 0 56 56" fill="none" xmlns="http://www.w3.org/2000/svg">
<rect width="56" height="56" rx="8" fill="#B3E5FC"/>
<g clip-path="url(#clip0_334_6348)">
<path d="M27.9991 47.999C38.9128 43.9164 46.1457 33.4882 46.1457 21.836V14.7737C42.4041 14.7737 39.371 11.7406 39.371 7.99902H27.9991H16.6272C16.6272 11.7406 13.5941 14.7737 9.85254 14.7737V21.8359C9.85254 33.4882 17.0854 43.9164 27.9991 47.999Z" fill="#958BD4"/>
<path d="M27.999 47.999C38.9127 43.9164 46.1456 33.4882 46.1456 21.836V14.7737C42.404 14.7737 39.3709 11.7406 39.3709 7.99902H27.999C27.999 7.99902 27.999 39.0928 27.999 47.999Z" fill="#C0B8F8"/>
<path fill-rule="evenodd" clip-rule="evenodd" d="M26.8946 16.8711C26.0966 17.0356 25.2246 17.3934 24.6303 17.8C24.2323 18.0724 23.5074 18.7803 23.228 19.1696L22.9825 19.5115L22.6309 19.4293C22.1588 19.319 21.1268 19.3641 20.6075 19.5179C19.9199 19.7214 19.3577 20.0624 18.7963 20.6162C18.2054 21.1992 17.9399 21.621 17.6882 22.3769C17.527 22.8607 17.5112 22.9723 17.5093 23.6345C17.508 24.1424 17.535 24.4595 17.5993 24.688L17.6914 25.0149L17.4335 25.3298C16.1931 26.8444 16.8565 29.1002 18.7259 29.7243L19.152 29.8666H28.7158C39.3463 29.8666 38.5724 29.8942 39.3636 29.4868C39.6026 29.3638 39.8926 29.1483 40.1024 28.9381C41.6766 27.3603 41.2718 24.8349 39.2751 23.7764C38.9147 23.5854 38.3592 23.4409 37.9807 23.4397L37.7218 23.4388L37.6911 23.0057C37.6438 22.338 37.3555 21.6868 36.8559 21.1194C36.5808 20.8071 35.8971 20.383 35.4593 20.2534C34.9938 20.1155 34.1468 20.1012 33.7387 20.2244C33.4004 20.3264 33.3223 20.3291 33.3223 20.2385C33.3223 20.1058 32.7321 19.191 32.3761 18.7719C31.6806 17.9533 30.5554 17.26 29.4549 16.9723C28.7731 16.794 27.5105 16.7441 26.8946 16.8711Z" fill="#F1F1F2"/>
<path d="M21.4675 31.7334C20.7632 32.8445 19.7771 36.4001 21.4675 36.4001C23.1579 36.4001 22.1718 33.289 21.4675 31.7334Z" fill="#DEDEDE"/>
<path d="M27.0671 36.3999C26.3628 37.511 25.3767 41.0666 27.0671 41.0666C28.7575 41.0666 27.7714 37.9555 27.0671 36.3999Z" fill="#F1F1F2"/>
<path d="M30.8005 31.7334C30.0962 32.8445 29.1101 36.4001 30.8005 36.4001C32.4909 36.4001 31.5048 33.289 30.8005 31.7334Z" fill="#DEDEDE"/>
<path d="M36.4011 34.0669C35.6968 35.178 34.7107 38.7336 36.4011 38.7336C38.0914 38.7336 37.1054 35.6224 36.4011 34.0669Z" fill="#F1F1F2"/>
</g>
<defs>
<clipPath id="clip0_334_6348">
<rect width="40" height="40" fill="white" transform="translate(7.99902 7.99902)"/>
</clipPath>
</defs>
</svg>
