<svg width="56" height="56" viewBox="0 0 56 56" fill="none" xmlns="http://www.w3.org/2000/svg">
<rect width="56" height="56" rx="8" fill="#B3E5FC"/>
<g clip-path="url(#clip0_334_6152)">
<path d="M27.9991 47.9985C38.9128 43.9159 46.1457 33.4877 46.1457 21.8355V14.7732C42.4041 14.7732 39.371 11.7401 39.371 7.99854H27.9991H16.6272C16.6272 11.7401 13.5941 14.7732 9.85254 14.7732V21.8354C9.85254 33.4877 17.0854 43.9159 27.9991 47.9985Z" fill="#958BD4"/>
<path d="M27.999 47.9985C38.9127 43.9159 46.1456 33.4877 46.1456 21.8355V14.7732C42.404 14.7732 39.3709 11.7401 39.3709 7.99854H27.999C27.999 7.99854 27.999 39.0923 27.999 47.9985Z" fill="#C0B8F8"/>
<path d="M25.4709 35.0518L19.4551 29.0361L22.7696 25.7215L25.4709 28.4227L33.2281 20.6655L36.5426 23.9801L25.4709 35.0518Z" fill="#F1F1F2"/>
<path d="M27.999 32.5238V25.8947L33.2282 20.6655L36.5428 23.9801L27.999 32.5238Z" fill="#E6E6E6"/>
</g>
<defs>
<clipPath id="clip0_334_6152">
<rect width="40" height="40" fill="white" transform="translate(7.99902 7.99854)"/>
</clipPath>
</defs>
</svg>
