<svg width="30" height="30" viewBox="0 0 30 30" fill="none" xmlns="http://www.w3.org/2000/svg">
<circle cx="15" cy="15" r="15" fill="#EDF1FE"/>
<path d="M12.296 10.5683V25.7494C12.296 26.4405 12.8494 27.0003 13.5321 27.0003C14.2148 27.0003 14.7682 26.4405 14.7682 25.7494V16.6151H15.2318V25.7494C15.2318 26.4405 15.7854 27.0003 16.4679 27.0003C17.1506 27.0003 17.7043 26.4405 17.7043 25.7494V10.5686C18.1511 11.5094 18.5494 13.4049 18.3437 16.9602C18.3179 17.4065 18.6544 17.7896 19.0955 17.8155C19.1115 17.8164 19.1273 17.8169 19.1431 17.8169C19.5634 17.8169 19.916 17.485 19.9409 17.0547C20.188 12.7798 19.6595 9.99069 18.3705 8.76499C17.8109 8.23298 17.2643 8.14033 16.982 8.13292C16.9653 8.13199 16.9486 8.13037 16.9314 8.13037H13.0686C13.0516 8.13037 13.0349 8.13199 13.0182 8.13292C12.7361 8.1401 12.1893 8.23228 11.6295 8.76476C10.3405 9.99069 9.81201 12.7798 10.0591 17.0547C10.084 17.485 10.4366 17.8169 10.8569 17.8169C10.8727 17.8169 10.8885 17.8167 10.9045 17.8155C11.3456 17.7896 11.6821 17.4065 11.6563 16.9602C11.4506 13.4047 11.8489 11.5091 12.296 10.5683Z" fill="#4872F2"/>
<path d="M17.2503 5.27674C17.2503 5.35131 17.2467 5.42566 17.2396 5.50001C17.2322 5.57412 17.2215 5.64778 17.2071 5.72097C17.1927 5.79415 17.1748 5.86642 17.1535 5.93775C17.132 6.00909 17.1073 6.07904 17.0792 6.14806C17.0508 6.21684 17.0195 6.28424 16.9847 6.35002C16.9499 6.4158 16.9122 6.47972 16.8712 6.54156C16.8303 6.60363 16.7863 6.66339 16.7397 6.72106C16.693 6.77873 16.6436 6.83386 16.5914 6.88666C16.5392 6.93947 16.4848 6.9895 16.4278 7.03675C16.3709 7.084 16.3118 7.12846 16.2505 7.16969C16.1892 7.21115 16.1261 7.2496 16.0611 7.28457C15.9961 7.31978 15.9298 7.35174 15.8616 7.38023C15.7934 7.40871 15.7243 7.43373 15.6536 7.4555C15.5831 7.47704 15.5118 7.4951 15.4395 7.5097C15.3672 7.52429 15.2944 7.53517 15.2212 7.54258C15.1478 7.54976 15.0743 7.55347 15.0006 7.55347C14.927 7.55347 14.8535 7.54976 14.7801 7.54258C14.7069 7.53517 14.6341 7.52429 14.5618 7.5097C14.4895 7.4951 14.4182 7.47704 14.3477 7.4555C14.277 7.43373 14.2079 7.40871 14.1397 7.38023C14.0718 7.35174 14.0052 7.31978 13.9402 7.28457C13.8752 7.2496 13.8121 7.21115 13.7508 7.16969C13.6895 7.12846 13.6304 7.084 13.5735 7.03675C13.5165 6.9895 13.462 6.93947 13.4099 6.88666C13.3577 6.83386 13.3083 6.77873 13.2616 6.72106C13.215 6.66339 13.171 6.60363 13.1301 6.54156C13.0891 6.47972 13.0514 6.4158 13.0166 6.35002C12.9818 6.28424 12.9505 6.21684 12.9221 6.14806C12.894 6.07904 12.8693 6.00909 12.8478 5.93775C12.8265 5.86642 12.8086 5.79415 12.7942 5.72097C12.7798 5.64778 12.7691 5.57412 12.7617 5.50001C12.7546 5.42566 12.751 5.35131 12.751 5.27674C12.751 5.20216 12.7546 5.12781 12.7617 5.05369C12.7691 4.97935 12.7798 4.90569 12.7942 4.83251C12.8086 4.75955 12.8265 4.68729 12.8478 4.61595C12.8693 4.54461 12.894 4.47444 12.9221 4.40542C12.9505 4.33663 12.9818 4.26923 13.0166 4.20345C13.0514 4.13767 13.0891 4.07398 13.1301 4.01191C13.171 3.94984 13.215 3.89008 13.2616 3.83241C13.3083 3.77474 13.3577 3.71962 13.4099 3.66681C13.462 3.61423 13.5165 3.5642 13.5735 3.51696C13.6304 3.46948 13.6895 3.42524 13.7508 3.38378C13.8121 3.34232 13.8752 3.30411 13.9402 3.2689C14.0052 3.2337 14.0718 3.20196 14.1397 3.17348C14.2079 3.14476 14.277 3.11974 14.3477 3.0982C14.4182 3.07643 14.4895 3.05837 14.5618 3.04377C14.6341 3.02918 14.7069 3.0183 14.7801 3.01112C14.8535 3.00371 14.927 3 15.0006 3C15.0743 3 15.1478 3.00371 15.2212 3.01112C15.2944 3.0183 15.3672 3.02918 15.4395 3.04377C15.5118 3.05837 15.5831 3.07643 15.6536 3.0982C15.7243 3.11974 15.7934 3.14476 15.8616 3.17348C15.9298 3.20196 15.9961 3.2337 16.0611 3.2689C16.1261 3.30411 16.1892 3.34232 16.2505 3.38378C16.3118 3.42524 16.3709 3.46948 16.4278 3.51696C16.4848 3.5642 16.5392 3.61423 16.5914 3.66681C16.6436 3.71962 16.693 3.77474 16.7397 3.83241C16.7863 3.89008 16.8303 3.94984 16.8712 4.01191C16.9122 4.07398 16.9499 4.13767 16.9847 4.20345C17.0195 4.26923 17.0508 4.33663 17.0792 4.40542C17.1073 4.47444 17.132 4.54461 17.1535 4.61595C17.1748 4.68729 17.1927 4.75955 17.2071 4.83251C17.2215 4.90569 17.2322 4.97935 17.2396 5.05369C17.2467 5.12781 17.2503 5.20216 17.2503 5.27674Z" fill="#4872F2"/>
</svg>
