<svg width="30" height="30" viewBox="0 0 30 30" fill="none" xmlns="http://www.w3.org/2000/svg">
<circle cx="15" cy="15" r="15" fill="#EDF1FE"/>
<path d="M18.1281 8.10443C18.1281 9.81916 16.7281 11.2091 15.001 11.2091C13.274 11.2091 11.874 9.81916 11.874 8.10443C11.874 6.3897 13.274 5 15.001 5C16.7281 5 18.1281 6.3897 18.1281 8.10443Z" fill="#4872F2"/>
<path d="M21.6694 15.6453L17.266 11.2744C16.6256 11.7267 15.8442 11.994 15 11.994C14.1558 11.994 13.3744 11.7267 12.7337 11.2744L8.3306 15.6453C7.8898 16.0837 7.8898 16.7937 8.3306 17.2321C8.7719 17.6694 9.48714 17.6694 9.9287 17.2321L12.076 15.0992V23.8044C12.076 24.4654 12.6157 25.0006 13.2806 25.0006C13.9465 25.0006 14.4854 24.4654 14.4854 23.8044V20.2475C14.4854 19.9654 14.7159 19.7365 15 19.7365C15.2841 19.7365 15.5146 19.9654 15.5146 20.2475V23.8044C15.5146 24.4654 16.0535 25.0006 16.7192 25.0006C17.3843 25.0006 17.924 24.4654 17.924 23.8044V15.0992L20.0713 17.2321C20.5129 17.6694 21.2281 17.6694 21.6694 17.2321C22.1102 16.7937 22.1102 16.0837 21.6694 15.6453Z" fill="#4872F2"/>
</svg>

