<svg width="30" height="30" viewBox="0 0 30 30" fill="none" xmlns="http://www.w3.org/2000/svg">
<circle cx="15" cy="15" r="15" fill="#EDF1FE"/>
<path d="M17.9474 7.97098C17.9474 8.06841 17.9428 8.16553 17.9332 8.26235C17.924 8.35916 17.9098 8.45535 17.8909 8.5506C17.8721 8.64617 17.8486 8.74049 17.8205 8.83357C17.7924 8.92665 17.76 9.01817 17.7233 9.10813C17.6862 9.19809 17.6448 9.28588 17.5994 9.37179C17.5541 9.4574 17.5043 9.54083 17.4506 9.62176C17.3972 9.7027 17.3398 9.78083 17.2783 9.85585C17.2172 9.93119 17.1523 10.0031 17.0841 10.0719C17.0159 10.1407 16.9445 10.2061 16.8698 10.2677C16.7954 10.3296 16.7179 10.3875 16.6376 10.4414C16.5573 10.4956 16.4746 10.5454 16.3894 10.5914C16.3045 10.6372 16.2171 10.6789 16.1279 10.716C16.0389 10.7533 15.9482 10.786 15.8558 10.8143C15.7632 10.8423 15.6696 10.866 15.5752 10.885C15.4804 10.904 15.385 10.9183 15.2889 10.9279C15.1929 10.9373 15.0966 10.9423 15.0002 10.9423C14.9036 10.9423 14.8073 10.9373 14.7112 10.9279C14.6152 10.9183 14.5198 10.904 14.425 10.885C14.3305 10.866 14.237 10.8423 14.1446 10.8143C14.052 10.786 13.9612 10.7533 13.8723 10.716C13.7831 10.6789 13.696 10.6372 13.6108 10.5914C13.5256 10.5454 13.4428 10.4956 13.3625 10.4414C13.2822 10.3875 13.2051 10.3296 13.1303 10.2677C13.0556 10.2061 12.9843 10.1407 12.916 10.0719C12.8478 10.0031 12.783 9.93119 12.7218 9.85585C12.6604 9.78083 12.603 9.7027 12.5495 9.62176C12.4958 9.54083 12.4464 9.4574 12.4007 9.37179C12.3553 9.28588 12.314 9.19809 12.2772 9.10813C12.2402 9.01817 12.2077 8.92665 12.1796 8.83357C12.1515 8.74049 12.1281 8.64617 12.1092 8.5506C12.0904 8.45535 12.0765 8.35916 12.0669 8.26235C12.0574 8.16553 12.0527 8.06841 12.0527 7.97098C12.0527 7.87385 12.0574 7.77673 12.0669 7.67992C12.0765 7.58311 12.0904 7.48692 12.1092 7.39166C12.1281 7.29609 12.1515 7.20177 12.1796 7.1087C12.2077 7.01562 12.2402 6.9241 12.2772 6.83414C12.314 6.74417 12.3553 6.65639 12.4007 6.57047C12.4464 6.48487 12.4958 6.40144 12.5495 6.3205C12.603 6.23957 12.6604 6.16143 12.7218 6.08641C12.783 6.01108 12.8478 5.93917 12.916 5.87037C12.9843 5.80158 13.0556 5.73621 13.1303 5.67457C13.2051 5.61262 13.2822 5.55472 13.3625 5.50087C13.4428 5.4467 13.5256 5.3969 13.6108 5.35083C13.696 5.30507 13.7831 5.26335 13.8723 5.22631C13.9612 5.18895 14.052 5.15627 14.1446 5.12794C14.237 5.09992 14.3305 5.07627 14.425 5.05728C14.5198 5.03829 14.6152 5.02397 14.7112 5.01432C14.8073 5.00498 14.9036 5 15.0002 5C15.0966 5 15.1929 5.00498 15.2889 5.01432C15.385 5.02397 15.4804 5.03829 15.5752 5.05728C15.6696 5.07627 15.7632 5.09992 15.8558 5.12794C15.9482 5.15627 16.0389 5.18895 16.1279 5.22631C16.2171 5.26335 16.3045 5.30507 16.3894 5.35083C16.4746 5.3969 16.5573 5.4467 16.6376 5.50087C16.7179 5.55472 16.7954 5.61262 16.8698 5.67457C16.9445 5.73621 17.0159 5.80158 17.0841 5.87037C17.1523 5.93917 17.2172 6.01108 17.2783 6.08641C17.3398 6.16143 17.3972 6.23957 17.4506 6.3205C17.5043 6.40144 17.5541 6.48487 17.5994 6.57047C17.6448 6.65639 17.6862 6.74417 17.7233 6.83414C17.76 6.9241 17.7924 7.01562 17.8205 7.1087C17.8486 7.20177 17.8721 7.29609 17.8909 7.39166C17.9098 7.48692 17.924 7.58311 17.9332 7.67992C17.9428 7.77673 17.9474 7.87385 17.9474 7.97098Z" fill="#4872F2"/>
<path d="M12.0521 18.5324V18.5249L10.2461 20.3447C9.67057 20.9247 9.67057 21.8651 10.2461 22.445L12.4566 24.6736C12.8885 25.1087 13.5876 25.1087 14.0196 24.6736C14.4512 24.2381 14.4512 23.5333 14.0196 23.0981L12.8509 21.9199L14.1631 20.5978H14.1588L12.0521 18.5324Z" fill="#4872F2"/>
<path d="M15.8407 20.5978H15.8364L17.1487 21.9199L15.98 23.0981C15.5483 23.5333 15.5483 24.2381 15.98 24.6736C16.412 25.1087 17.1113 25.1087 17.543 24.6736L19.7534 22.445C20.329 21.8651 20.329 20.9247 19.7534 20.3447L17.9475 18.5249V18.5324L15.8407 20.5978Z" fill="#4872F2"/>
<path d="M21.676 15.7247L17.9918 12.011C17.7849 11.8024 17.5043 11.6851 17.2109 11.6851H12.7897C12.4967 11.6851 12.2157 11.8024 12.0079 12.011L8.32397 15.7247C7.89201 16.1602 7.89201 16.8656 8.32397 17.3002C8.5398 17.5187 8.82263 17.627 9.10547 17.627C9.38861 17.627 9.67144 17.5187 9.88665 17.3002L12.053 15.1174V16.8843H17.9477V15.1174L20.1133 17.3002C20.3292 17.5187 20.612 17.627 20.8952 17.627C21.178 17.627 21.4608 17.5187 21.676 17.3002C22.108 16.8665 22.108 16.1602 21.676 15.7247Z" fill="#4872F2"/>
<path d="M12.0527 18.5241V18.5316L14.1595 20.597H15.8407L17.9474 18.5316V16.8833H12.0527V18.5241Z" fill="white"/>
</svg>
