<svg width="16" height="16" viewBox="0 0 16 16" fill="none" xmlns="http://www.w3.org/2000/svg">
<path d="M10.6666 2.00004C10.6666 1.82323 10.5963 1.65366 10.4713 1.52864C10.3463 1.40361 10.1767 1.33337 9.99992 1.33337H5.99992C5.82311 1.33337 5.65354 1.40361 5.52851 1.52864C5.40349 1.65366 5.33325 1.82323 5.33325 2.00004V5.33337H1.99992C1.82311 5.33337 1.65354 5.40361 1.52851 5.52864C1.40349 5.65366 1.33325 5.82323 1.33325 6.00004V10C1.33325 10.1769 1.40349 10.3464 1.52851 10.4714C1.65354 10.5965 1.82311 10.6667 1.99992 10.6667H5.33325V14C5.33325 14.1769 5.40349 14.3464 5.52851 14.4714C5.65354 14.5965 5.82311 14.6667 5.99992 14.6667H9.99992C10.1767 14.6667 10.3463 14.5965 10.4713 14.4714C10.5963 14.3464 10.6666 14.1769 10.6666 14V10.6667H13.9999C14.1767 10.6667 14.3463 10.5965 14.4713 10.4714C14.5963 10.3464 14.6666 10.1769 14.6666 10V6.00004C14.6666 5.82323 14.5963 5.65366 14.4713 5.52864C14.3463 5.40361 14.1767 5.33337 13.9999 5.33337H10.6666V2.00004Z" stroke="#3C3C3C" stroke-width="1.5" stroke-linecap="round" stroke-linejoin="round"/>
</svg>
