<svg width="56" height="56" viewBox="0 0 56 56" fill="none" xmlns="http://www.w3.org/2000/svg">
<rect width="56" height="56" rx="8" fill="#DAF0A2"/>
<g clip-path="url(#clip0_334_6232)">
<path d="M27.9981 47.9985C38.9118 43.9159 46.1447 33.4877 46.1447 21.8355V14.7732C42.4031 14.7732 39.37 11.7401 39.37 7.99854H27.9981H16.6263C16.6263 11.7401 13.5931 14.7732 9.85156 14.7732V21.8354C9.85156 33.4877 17.0845 43.9159 27.9981 47.9985Z" fill="#90AAF8"/>
<path d="M27.998 47.9985C38.9117 43.9159 46.1446 33.4877 46.1446 21.8355V14.7732C42.403 14.7732 39.3699 11.7401 39.3699 7.99854H27.998C27.998 7.99854 27.998 39.0923 27.998 47.9985Z" fill="#4872F2"/>
<path d="M39.3084 33.1925C39.3467 33.0599 39.3568 32.9196 39.3412 32.7823C39.3139 32.5385 39.2053 32.3032 39.0295 32.1276C38.8889 31.9888 38.7014 31.8853 38.5029 31.8892C38.2842 31.8945 38.0928 32.0241 37.8928 32.1115C37.2561 32.3875 36.535 31.6369 36.0537 31.3095C35.7912 31.1301 35.5233 30.9431 35.2303 30.8235C35.3834 30.4194 35.5029 30.01 35.5873 29.5975C35.8053 29.5623 36.0217 29.4925 36.2311 29.4189C36.5084 29.3208 36.7857 29.2226 37.0631 29.1245C37.7678 28.8761 38.0123 29.0325 38.6107 29.4097C38.9912 29.6497 39.4123 29.8996 39.8615 29.849C41.0576 29.7164 41.4654 28.0013 40.6178 27.2507C40.2139 26.8934 39.5842 26.8076 39.0967 27.0445C38.7451 27.2154 38.4154 27.4899 38.0014 27.4731C37.5045 27.4531 36.8397 27.0475 36.3951 26.8398C36.135 26.7179 35.8717 26.5891 35.5928 26.5254C35.5428 26.2755 35.4818 26.0286 35.4076 25.7848C35.499 25.7058 35.5842 25.6161 35.6561 25.5579C35.8615 25.3884 36.0858 25.2121 36.3529 25.1891C36.6256 25.1653 36.9139 25.3041 37.1631 25.1952C37.2873 25.14 37.3803 25.0273 37.4256 24.9016C37.4998 24.69 37.4397 24.4393 37.2787 24.2821C37.1162 24.1265 36.8592 24.072 36.6451 24.1495C36.3584 24.253 36.1803 24.5589 35.8881 24.6517C35.5943 24.7452 35.2709 24.5988 34.9678 24.6532C34.874 24.4577 34.7733 24.2668 34.6639 24.0797C34.7678 23.8137 34.8514 23.3897 35.1108 22.9335C35.4139 22.4022 35.5311 22.1668 35.6193 21.9759C35.8428 21.4898 36.0498 21.4431 36.5522 21.3288C36.8717 21.256 37.217 21.1671 37.4178 20.9125C37.9514 20.234 37.2475 19.1591 36.4209 19.2128C36.0279 19.2381 35.6647 19.5172 35.5436 19.8852C35.4561 20.152 35.4358 20.4587 35.217 20.6618C34.9553 20.9056 34.4045 21.0406 34.0701 21.1625C33.8811 21.2307 32.9975 21.4768 32.4881 21.6692C32.0983 21.384 31.6764 21.1295 31.2248 20.9102C31.2803 20.3843 31.2983 19.6138 31.2522 19.3776C31.2029 19.1185 31.1529 18.8601 31.1029 18.6002C30.9764 17.9439 31.1545 17.75 31.5881 17.2761C31.8615 16.9756 32.1514 16.6398 32.1701 16.2365C32.2209 15.1616 30.7084 14.5544 29.9006 15.1946C29.5139 15.4982 29.3451 16.0425 29.492 16.5064C29.5975 16.8414 29.8006 17.1719 29.7256 17.5353C29.6358 17.9708 29.1686 18.4998 28.9147 18.8609C28.7936 19.0334 28.399 19.6153 28.1092 20.0983C27.917 20.0876 27.7264 20.083 27.5358 20.0853C27.4678 19.9825 27.3842 19.8836 27.3342 19.8039C27.192 19.5808 27.0436 19.3393 27.0561 19.0763C27.0686 18.808 27.2483 18.5465 27.1725 18.2897C27.1334 18.1609 27.0326 18.0551 26.9108 17.9945C26.7084 17.8933 26.4467 17.9179 26.2662 18.0543C26.0866 18.1908 25.9975 18.4338 26.0467 18.6516C26.1123 18.946 26.3967 19.1599 26.4506 19.4566C26.4959 19.7004 26.3764 19.9427 26.3381 20.188C25.9975 20.2424 25.6608 20.3168 25.3303 20.4134C25.2944 20.3751 25.26 20.3352 25.2241 20.2969C24.767 19.8054 23.9834 19.209 23.9975 18.4798C24.0045 18.1141 24.1795 17.7461 24.0772 17.3942C24.0092 17.1604 23.8241 16.9725 23.6123 16.8476C23.1662 16.5854 22.5772 16.5769 22.1241 16.8284C21.9616 16.9189 21.8186 17.0415 21.7022 17.1849C21.4967 17.441 21.3748 17.7622 21.3741 18.0896C21.3741 18.3487 21.453 18.6186 21.6452 18.7965C21.8545 18.9928 22.1592 19.0457 22.4303 19.1476C23.1873 19.4298 23.2553 20.5154 23.3553 21.2844C22.7264 21.6677 22.1475 22.1362 21.6381 22.6851C20.9772 22.5939 19.9639 22.6567 19.5545 22.6215C19.0178 22.5739 18.4225 22.4168 18.16 21.9545C18.0147 21.6984 17.9983 21.3902 17.878 21.1218C17.5592 20.4104 16.5256 20.1995 15.8499 20.6013C15.1725 21.0045 14.8663 21.8517 14.946 22.6245C14.9803 22.9435 15.0842 23.2793 15.3436 23.4763C15.8288 23.8436 16.5186 23.5446 17.1303 23.5269C18.1327 23.497 18.7827 24.2606 19.4077 24.9208C19.6139 25.1385 19.7936 25.3271 19.9553 25.4935C19.792 25.9627 19.6756 26.4403 19.6061 26.9187C19.2733 26.9977 18.8741 27.1219 18.7389 27.1832C18.5694 27.2592 18.3991 27.3351 18.2288 27.4102C17.7983 27.6026 17.6358 27.5168 17.2374 27.309C16.9858 27.1763 16.7069 27.0399 16.4264 27.0935C15.6788 27.2384 15.5108 28.3409 16.085 28.7718C16.3584 28.9773 16.7608 28.9988 17.0553 28.8255C17.2678 28.6998 17.4616 28.5104 17.7249 28.4996C18.0381 28.4874 18.4795 28.7097 18.7709 28.8186C18.9084 28.87 19.2811 28.9965 19.5959 29.0816C19.6483 29.4695 19.7295 29.8528 19.8381 30.2278C19.6983 30.3129 19.5631 30.4685 19.4577 30.5551C19.253 30.7253 19.0295 30.9032 18.7623 30.9277C18.4905 30.953 18.2014 30.815 17.953 30.9254C17.8288 30.9814 17.7366 31.0949 17.6928 31.2214C17.6186 31.4322 17.6803 31.6829 17.8436 31.8386C18.0061 31.9942 18.2639 32.0471 18.4756 31.9689C18.7639 31.8623 18.9397 31.5572 19.2311 31.4621C19.5327 31.3647 19.867 31.5219 20.1764 31.4514C20.2069 31.4453 20.2381 31.4353 20.2592 31.413C20.2663 31.4054 20.2694 31.3946 20.2741 31.3839C20.453 31.7657 20.6647 32.1322 20.9038 32.4826C20.8084 32.6489 20.7272 32.8299 20.6514 32.9549C20.4311 33.3183 20.1866 33.7016 19.7944 33.8749C19.3959 34.052 18.8842 33.9906 18.5663 34.2858C18.4077 34.4338 18.3272 34.6523 18.3272 34.867C18.328 35.225 18.5545 35.5731 18.8842 35.7257C19.2139 35.8782 19.6319 35.8269 19.9123 35.5984C20.2913 35.2925 20.3959 34.7382 20.7873 34.4461C21.1889 34.147 21.7717 34.2084 22.203 33.9538C22.4405 34.1639 22.6936 34.3625 22.96 34.5473C22.9397 35.0839 22.9475 35.6743 22.9631 35.8591C22.9842 36.1213 23.0053 36.3842 23.0264 36.6472C23.0795 37.3135 22.8811 37.4875 22.3991 37.913C22.0936 38.1829 21.7686 38.4857 21.7053 38.8844C21.5366 39.9478 22.9725 40.7122 23.8483 40.1609C24.2639 39.8995 24.4928 39.3766 24.3975 38.8997C24.3295 38.5555 24.1639 38.2059 24.278 37.8532C24.4155 37.4292 24.9389 36.9531 25.2311 36.6204C25.3256 36.513 25.603 36.1826 25.8967 35.8184C26.2928 35.9035 26.6905 35.9587 27.0889 35.9848C27.3147 36.3934 27.6365 36.8243 27.7561 37.0175C28.0358 37.4729 28.2319 37.9789 28.3233 38.5034C28.3623 38.7303 28.3826 38.968 28.3162 39.1895C28.2475 39.4142 28.0951 39.6074 28.0256 39.832C27.8928 40.2713 28.1428 40.7835 28.5655 40.9767C28.9889 41.1699 29.5334 41.0403 29.8373 40.6922C30.1405 40.3434 30.1928 39.8129 29.9834 39.4027C29.8662 39.1704 29.6772 38.981 29.5397 38.7594C29.2436 38.2841 29.2006 37.6945 29.2561 37.1402C29.3022 36.6886 29.4037 36.2447 29.4662 35.7954C29.8467 35.7088 30.2209 35.5953 30.5842 35.4558C30.6092 35.4803 30.6311 35.5041 30.6506 35.5263C30.8225 35.728 31.0029 35.9472 31.028 36.2102C31.0522 36.477 30.9108 36.7599 31.0233 37.0053C31.0803 37.1272 31.1951 37.2176 31.3233 37.2613C31.5389 37.3342 31.7944 37.2751 31.9529 37.1141C32.1115 36.9554 32.1662 36.7024 32.0873 36.4939C31.9795 36.2117 31.6694 36.0385 31.574 35.7517C31.4928 35.5102 31.5834 35.248 31.5819 34.9942C31.8545 34.8455 32.1186 34.6837 32.3725 34.5043C32.4772 34.5404 32.5803 34.5756 32.6858 34.6124C33.3279 34.8355 33.4092 35.0839 33.6092 35.6889C33.7365 36.073 33.8865 36.487 34.2326 36.7055C35.1537 37.2889 36.4475 36.3099 36.2904 35.3017C36.2162 34.8217 35.8217 34.4047 35.3397 34.2966C34.992 34.2184 34.5983 34.2245 34.3162 33.9784C34.1147 33.8036 33.9529 33.5 33.8139 33.1979C34.0123 32.9687 34.1975 32.7264 34.3709 32.4711C34.4912 32.5899 34.6373 32.6942 34.8186 32.7739C35.1358 32.9142 35.4654 32.9334 35.7779 32.9487C36.2881 32.974 37.0295 32.8851 37.4147 33.283C37.6076 33.4831 37.7139 33.7706 37.9576 33.9055C38.1209 33.9952 38.3209 33.9991 38.5022 33.9561C38.8826 33.8641 39.2022 33.5621 39.3084 33.1925Z" fill="#F1F1F2"/>
<path d="M20.767 26.333C20.7144 26.8073 20.732 27.3012 20.9167 27.7432C21.1007 28.1853 21.4718 28.5693 21.9417 28.6855C22.3033 28.7766 22.6903 28.7028 23.0376 28.5661C23.6843 28.3094 24.2258 27.8382 24.6678 27.3059C25.34 26.4971 25.8171 25.4936 25.8226 24.4485C25.8298 22.9801 24.9338 21.6225 23.423 22.4375C21.9775 23.2173 20.9478 24.717 20.767 26.333Z" fill="#DEDEDE"/>
<path d="M28.0888 27.8747C27.9151 28.4761 27.9992 29.1493 28.3148 29.6862C28.4091 29.8466 28.5273 29.9998 28.689 30.0893C29.0823 30.3078 29.5716 30.0845 29.9284 29.8096C30.2924 29.5298 30.623 29.1775 30.7785 28.7414C31.5159 26.6743 28.7858 25.4764 28.0888 27.8747Z" fill="#DEDEDE"/>
<path d="M28.2896 23.8646C28.695 24.1255 29.1657 24.3143 29.6618 24.36C30.1579 24.4057 30.6776 24.301 31.074 24.0282C31.253 23.9051 31.4058 23.7481 31.5022 23.566C31.6755 23.2408 31.6616 22.8523 31.5259 22.5132C31.3903 22.174 31.1435 21.8806 30.864 21.6233C30.3262 21.1264 29.6095 20.7349 28.8388 20.7408C26.7172 20.7577 26.9779 23.0219 28.2896 23.8646Z" fill="#DEDEDE"/>
<path d="M31.0294 31.1127C30.923 31.4409 30.8664 31.7898 30.9328 32.128C30.9985 32.4648 31.2007 32.7886 31.5161 32.9563C32.0729 33.2501 32.7837 32.9835 33.2674 32.5909C34.0295 31.9732 34.5003 31.0432 34.532 30.0924C34.5426 29.8094 34.5116 29.5171 34.3826 29.262C34.2536 29.0055 34.0114 28.7905 33.7179 28.7389C33.1602 28.6429 32.6147 29.085 32.2231 29.401C31.6662 29.8495 31.2429 30.4492 31.0294 31.1127Z" fill="#DEDEDE"/>
<path d="M25.1343 34.3949C25.5315 34.5664 26.0382 34.6283 26.333 34.2838C26.5641 34.0139 26.5761 33.5931 26.5217 33.2232C26.3549 32.0974 25.6842 31.0972 24.8015 30.5343C24.3704 30.2588 23.7124 30.0016 23.2452 30.3366C22.8106 30.6486 22.8961 31.2893 23.0155 31.768C23.3095 32.9469 24.1145 33.9567 25.1343 34.3949Z" fill="#DEDEDE"/>
</g>
<defs>
<clipPath id="clip0_334_6232">
<rect width="40" height="40" fill="white" transform="translate(7.99805 7.99854)"/>
</clipPath>
</defs>
</svg>
