<svg width="56" height="56" viewBox="0 0 56 56" fill="none" xmlns="http://www.w3.org/2000/svg">
<rect width="56" height="56" rx="8" fill="#FFEDBF"/>
<g clip-path="url(#clip0_334_6360)">
<path d="M27.9991 47.999C38.9128 43.9164 46.1457 33.4882 46.1457 21.836V14.7737C42.4041 14.7737 39.371 11.7406 39.371 7.99902H27.9991H16.6272C16.6272 11.7406 13.5941 14.7737 9.85254 14.7737V21.8359C9.85254 33.4882 17.0854 43.9164 27.9991 47.999Z" fill="#82DCD7"/>
<path d="M27.999 47.999C38.9127 43.9164 46.1456 33.4882 46.1456 21.836V14.7737C42.404 14.7737 39.3709 11.7406 39.3709 7.99902H27.999C27.999 7.99902 27.999 39.0928 27.999 47.999Z" fill="#49C8C0"/>
<path fill-rule="evenodd" clip-rule="evenodd" d="M27.5865 14.9445C25.6452 15.0478 23.7682 15.6022 22.2463 16.5217C19.7657 18.0204 17.8869 20.498 17.1644 23.2231C16.6577 25.1346 16.6816 27.3611 17.2297 29.2868C18.2833 32.9894 21.3916 36.0158 25.1234 36.9726C27.4208 37.5617 29.7844 37.4295 32.0482 36.5853C34.9977 35.4853 37.4288 33.0042 38.5272 29.973C39.4615 27.3946 39.4223 24.4931 38.4194 21.9832C37.3836 19.3913 35.242 17.1328 32.7226 15.9755C31.2001 15.2761 29.1369 14.862 27.5865 14.9445ZM28.5585 20.0395C28.8559 20.1911 28.9768 20.325 29.1391 20.6824C29.2614 20.9518 29.2684 21.0918 29.2698 23.3L29.2712 25.6329L30.9532 27.3376C31.8783 28.2752 32.6674 29.1259 32.7067 29.2281C32.8715 29.6562 32.7276 30.3175 32.4089 30.597C32.0599 30.9031 31.618 30.9987 31.1662 30.8661C30.8499 30.7733 30.7084 30.6469 28.9122 28.852C27.858 27.7987 26.9426 26.8369 26.8778 26.7147C26.7694 26.5102 26.7584 26.2762 26.7402 23.7933C26.7191 20.9199 26.7319 20.7658 27.0239 20.3794C27.3558 19.9402 28.0585 19.7845 28.5585 20.0395Z" fill="#F1F1F2"/>
</g>
<defs>
<clipPath id="clip0_334_6360">
<rect width="40" height="40" fill="white" transform="translate(7.99902 7.99902)"/>
</clipPath>
</defs>
</svg>
