<svg width="56" height="56" viewBox="0 0 56 56" fill="none" xmlns="http://www.w3.org/2000/svg">
<rect width="56" height="56" rx="8" fill="#DAF0A2"/>
<g clip-path="url(#clip0_1370_7802)">
<path d="M27.9986 47.998C38.9123 43.9154 46.1452 33.4872 46.1452 21.835V14.7727C42.4036 14.7727 39.3705 11.7396 39.3705 7.99805H27.9986H16.6267C16.6267 11.7396 13.5936 14.7727 9.85205 14.7727V21.8349C9.85205 33.4872 17.0849 43.9154 27.9986 47.998Z" fill="#90AAF8"/>
<path d="M27.9985 47.998C38.9122 43.9154 46.1451 33.4872 46.1451 21.835V14.7727C42.4035 14.7727 39.3704 11.7396 39.3704 7.99805H27.9985C27.9985 7.99805 27.9985 39.0918 27.9985 47.998Z" fill="#4872F2"/>
<path fill-rule="evenodd" clip-rule="evenodd" d="M31.0768 20H24.9229V24.9231H20V31.077H24.9229V36H31.0768V31.077H36V24.9231H31.0768V20Z" fill="#F1F1F2"/>
<path fill-rule="evenodd" clip-rule="evenodd" d="M31.0764 20H27.9946V36H31.0764V31.077H35.9996V24.9231H31.0764V20Z" fill="#E6E6E6"/>
</g>
<defs>
<clipPath id="clip0_1370_7802">
<rect width="40" height="40" fill="white" transform="translate(7.99854 7.99805)"/>
</clipPath>
</defs>
</svg>
