<svg width="87" height="22" viewBox="0 0 87 22" fill="none" xmlns="http://www.w3.org/2000/svg">
<rect width="87" height="22" rx="6" fill="#DAF0A2"/>
<path d="M30.7305 11.7051C30.7305 12.3652 30.6465 12.9668 30.4785 13.5098C30.3145 14.0488 30.0664 14.5137 29.7344 14.9043C29.4023 15.291 28.9863 15.5898 28.4863 15.8008C27.9863 16.0117 27.4004 16.1172 26.7285 16.1172C26.0449 16.1172 25.4512 16.0117 24.9473 15.8008C24.4473 15.5898 24.0312 15.2891 23.6992 14.8984C23.3711 14.5078 23.125 14.041 22.9609 13.498C22.7969 12.9551 22.7148 12.3535 22.7148 11.6934C22.7148 10.8105 22.8594 10.041 23.1484 9.38477C23.4414 8.72461 23.8848 8.21289 24.4785 7.84961C25.0762 7.48242 25.8301 7.29883 26.7402 7.29883C27.6309 7.29883 28.3711 7.48047 28.9609 7.84375C29.5508 8.20703 29.9922 8.71875 30.2852 9.37891C30.582 10.0352 30.7305 10.8105 30.7305 11.7051ZM24.1914 11.7051C24.1914 12.3652 24.2812 12.9375 24.4609 13.4219C24.6406 13.9023 24.916 14.2734 25.2871 14.5352C25.6621 14.793 26.1426 14.9219 26.7285 14.9219C27.3184 14.9219 27.7988 14.793 28.1699 14.5352C28.541 14.2734 28.8145 13.9023 28.9902 13.4219C29.166 12.9375 29.2539 12.3652 29.2539 11.7051C29.2539 10.7012 29.0527 9.91602 28.6504 9.34961C28.252 8.7793 27.6152 8.49414 26.7402 8.49414C26.1543 8.49414 25.6719 8.62305 25.293 8.88086C24.918 9.13867 24.6406 9.50781 24.4609 9.98828C24.2812 10.4648 24.1914 11.0371 24.1914 11.7051ZM38.0957 9.51367V16H36.707V10.6035H33.8125V16H32.4297V9.51367H38.0957ZM45.4082 16H44.0195V10.5918H42.2207C42.1426 11.5762 42.0449 12.418 41.9277 13.1172C41.8105 13.8164 41.6641 14.3867 41.4883 14.8281C41.3125 15.2656 41.0957 15.5859 40.8379 15.7891C40.5801 15.9922 40.2695 16.0938 39.9062 16.0938C39.7461 16.0938 39.6016 16.082 39.4727 16.0586C39.3438 16.0391 39.2285 16.0078 39.127 15.9648V14.8809C39.1934 14.9043 39.2656 14.9238 39.3438 14.9395C39.4219 14.9551 39.502 14.9629 39.584 14.9629C39.7285 14.9629 39.8613 14.9043 39.9824 14.7871C40.1074 14.666 40.2227 14.4766 40.3281 14.2188C40.4336 13.9609 40.5293 13.6211 40.6152 13.1992C40.7012 12.7734 40.7793 12.2578 40.8496 11.6523C40.9199 11.043 40.9824 10.3301 41.0371 9.51367H45.4082V16ZM49.9258 9.39062C50.7461 9.39062 51.3652 9.57227 51.7832 9.93555C52.2051 10.2988 52.416 10.8652 52.416 11.6348V16H51.4375L51.1738 15.0801H51.127C50.9434 15.3145 50.7539 15.5078 50.5586 15.6602C50.3633 15.8125 50.1367 15.9258 49.8789 16C49.625 16.0781 49.3145 16.1172 48.9473 16.1172C48.5605 16.1172 48.2148 16.0469 47.9102 15.9062C47.6055 15.7617 47.3652 15.543 47.1895 15.25C47.0137 14.957 46.9258 14.5859 46.9258 14.1367C46.9258 13.4688 47.1738 12.9668 47.6699 12.6309C48.1699 12.2949 48.9238 12.1094 49.9316 12.0742L51.0566 12.0332V11.6934C51.0566 11.2441 50.9512 10.9238 50.7402 10.7324C50.5332 10.541 50.2402 10.4453 49.8613 10.4453C49.5371 10.4453 49.2227 10.4922 48.918 10.5859C48.6133 10.6797 48.3164 10.7949 48.0273 10.9316L47.582 9.95898C47.8984 9.79102 48.2578 9.6543 48.6602 9.54883C49.0664 9.44336 49.4883 9.39062 49.9258 9.39062ZM51.0508 12.9004L50.2129 12.9297C49.5254 12.9531 49.043 13.0703 48.7656 13.2812C48.4883 13.4922 48.3496 13.7812 48.3496 14.1484C48.3496 14.4688 48.4453 14.7031 48.6367 14.8516C48.8281 14.9961 49.0801 15.0684 49.3926 15.0684C49.8691 15.0684 50.2637 14.9336 50.5762 14.6641C50.8926 14.3906 51.0508 13.9902 51.0508 13.4629V12.9004ZM55.5508 9.51367V11.8633C55.5508 12.207 55.6406 12.4629 55.8203 12.6309C56 12.7988 56.2578 12.8828 56.5938 12.8828C56.9688 12.8828 57.3125 12.832 57.625 12.7305C57.9414 12.6289 58.2598 12.4922 58.5801 12.3203V9.51367H59.957V16H58.5801V13.2578C58.2559 13.4492 57.918 13.6094 57.5664 13.7383C57.2148 13.8672 56.8027 13.9316 56.3301 13.9316C55.6582 13.9316 55.1309 13.7578 54.748 13.4102C54.3652 13.0625 54.1738 12.5664 54.1738 11.9219V9.51367H55.5508ZM64.5098 9.39062C65.0879 9.39062 65.584 9.50977 65.998 9.74805C66.4121 9.98633 66.7305 10.3242 66.9531 10.7617C67.1758 11.1992 67.2871 11.7227 67.2871 12.332V13.0703H62.957C62.9727 13.6992 63.1406 14.1836 63.4609 14.5234C63.7852 14.8633 64.2383 15.0332 64.8203 15.0332C65.2344 15.0332 65.6055 14.9941 65.9336 14.916C66.2656 14.834 66.6074 14.7148 66.959 14.5586V15.6777C66.6348 15.8301 66.3047 15.9414 65.9688 16.0117C65.6328 16.082 65.2305 16.1172 64.7617 16.1172C64.125 16.1172 63.5645 15.9941 63.0801 15.748C62.5996 15.498 62.2227 15.127 61.9492 14.6348C61.6797 14.1426 61.5449 13.5312 61.5449 12.8008C61.5449 12.0742 61.668 11.457 61.9141 10.9492C62.1602 10.4414 62.5059 10.0547 62.9512 9.78906C63.3965 9.52344 63.916 9.39062 64.5098 9.39062ZM64.5098 10.4277C64.0762 10.4277 63.7246 10.5684 63.4551 10.8496C63.1895 11.1309 63.0332 11.543 62.9863 12.0859H65.9395C65.9355 11.7617 65.8809 11.4746 65.7754 11.2246C65.6738 10.9746 65.5176 10.7793 65.3066 10.6387C65.0996 10.498 64.834 10.4277 64.5098 10.4277ZM70.2227 9.51367V12.1211H73.2578V9.51367H74.6406V16H73.2578V13.1992H70.2227V16H68.8398V9.51367H70.2227ZM82.3516 12.7422C82.3516 13.2812 82.2812 13.7598 82.1406 14.1777C82 14.5957 81.7949 14.9492 81.5254 15.2383C81.2559 15.5234 80.9316 15.7422 80.5527 15.8945C80.1738 16.043 79.7461 16.1172 79.2695 16.1172C78.8242 16.1172 78.416 16.043 78.0449 15.8945C77.6738 15.7422 77.3516 15.5234 77.0781 15.2383C76.8086 14.9492 76.5996 14.5957 76.4512 14.1777C76.3027 13.7598 76.2285 13.2812 76.2285 12.7422C76.2285 12.0273 76.3516 11.4219 76.5977 10.9258C76.8477 10.4258 77.2031 10.0449 77.6641 9.7832C78.125 9.52148 78.6738 9.39062 79.3105 9.39062C79.9082 9.39062 80.4355 9.52148 80.8926 9.7832C81.3496 10.0449 81.707 10.4258 81.9648 10.9258C82.2227 11.4258 82.3516 12.0312 82.3516 12.7422ZM77.6465 12.7422C77.6465 13.2148 77.7031 13.6191 77.8164 13.9551C77.9336 14.291 78.1133 14.5488 78.3555 14.7285C78.5977 14.9043 78.9102 14.9922 79.293 14.9922C79.6758 14.9922 79.9883 14.9043 80.2305 14.7285C80.4727 14.5488 80.6504 14.291 80.7637 13.9551C80.877 13.6191 80.9336 13.2148 80.9336 12.7422C80.9336 12.2695 80.877 11.8691 80.7637 11.541C80.6504 11.209 80.4727 10.957 80.2305 10.7852C79.9883 10.6094 79.6738 10.5215 79.2871 10.5215C78.7168 10.5215 78.3008 10.7129 78.0391 11.0957C77.7773 11.4785 77.6465 12.0273 77.6465 12.7422Z" fill="#037318"/>
<path d="M5.3335 11L8.8335 14.3333L10.5835 12.3333" stroke="#037318" stroke-width="1.2" stroke-linecap="round" stroke-linejoin="round"/>
<path d="M9.3335 10.9998L12.8335 14.3332L18.6668 7.6665" stroke="#037318" stroke-width="1.2" stroke-linecap="round" stroke-linejoin="round"/>
<path d="M14.6668 7.6665L12.3335 10.3332" stroke="#037318" stroke-width="1.2" stroke-linecap="round" stroke-linejoin="round"/>
</svg>
