<svg width="16" height="16" viewBox="0 0 16 16" fill="none" xmlns="http://www.w3.org/2000/svg">
<path d="M12.3334 12.3333L13.3334 13.3333M8.00004 1.99998V1.33331V1.99998ZM8.00004 14.6666V14V14.6666ZM14 7.99998H14.6667H14ZM1.33337 7.99998H2.00004H1.33337ZM12.3334 3.66665L13.3334 2.66665L12.3334 3.66665ZM2.66671 13.3333L3.66671 12.3333L2.66671 13.3333ZM2.66671 2.66665L3.66671 3.66665L2.66671 2.66665Z" stroke="#3C3C3C" stroke-width="1.5" stroke-linecap="round" stroke-linejoin="round"/>
<path d="M8.00004 10.6666C9.4728 10.6666 10.6667 9.47274 10.6667 7.99998C10.6667 6.52722 9.4728 5.33331 8.00004 5.33331C6.52728 5.33331 5.33337 6.52722 5.33337 7.99998C5.33337 9.47274 6.52728 10.6666 8.00004 10.6666Z" stroke="#3C3C3C" stroke-width="1.5" stroke-linecap="round" stroke-linejoin="round"/>
</svg>
