<svg width="16" height="16" viewBox="0 0 16 16" fill="none" xmlns="http://www.w3.org/2000/svg">
<path d="M10.6665 7.3335H13.9998C14.1766 7.3335 14.3462 7.26326 14.4712 7.13823C14.5963 7.01321 14.6665 6.84364 14.6665 6.66683V2.00016C14.6665 1.82335 14.5963 1.65378 14.4712 1.52876C14.3462 1.40373 14.1766 1.3335 13.9998 1.3335L10.6665 1.3335C9.95926 1.3335 9.28098 1.61445 8.78089 2.11454C8.28079 2.61464 7.99984 3.29292 7.99984 4.00016V4.66683C7.99984 5.37407 8.28079 6.05235 8.78089 6.55245C9.28098 7.05254 9.95926 7.3335 10.6665 7.3335Z" stroke="#3C3C3C" stroke-width="1.2" stroke-linecap="round" stroke-linejoin="round"/>
<path d="M5.33317 10H14.6665V12C14.6665 12.7072 14.3856 13.3855 13.8855 13.8856C13.3854 14.3857 12.7071 14.6667 11.9998 14.6667H5.33317V12" stroke="#3C3C3C" stroke-width="1.2" stroke-linecap="round" stroke-linejoin="round"/>
<path d="M5.3335 10H2.00016C1.82335 10 1.65378 10.0702 1.52876 10.1953C1.40373 10.3203 1.3335 10.4899 1.3335 10.6667V11.3333C1.3335 11.5101 1.40373 11.6797 1.52876 11.8047C1.65378 11.9298 1.82335 12 2.00016 12H5.3335" stroke="#3C3C3C" stroke-width="1.2" stroke-linecap="round" stroke-linejoin="round"/>
<path d="M8 3.3335L2 3.3335C1.82319 3.3335 1.65362 3.40373 1.52859 3.52876C1.40357 3.65378 1.33333 3.82335 1.33333 4.00016V4.66683C1.33333 4.84364 1.40357 5.01321 1.52859 5.13823C1.65362 5.26326 1.82319 5.3335 2 5.3335H8" stroke="#3C3C3C" stroke-width="1.2" stroke-linecap="round" stroke-linejoin="round"/>
<path d="M11.9998 3.3335H14.6665" stroke="#3C3C3C" stroke-width="1.2" stroke-linecap="round" stroke-linejoin="round"/>
<path d="M11.9998 5.3335H14.6665" stroke="#3C3C3C" stroke-width="1.2" stroke-linecap="round" stroke-linejoin="round"/>
</svg>
