<svg width="16" height="14" viewBox="0 0 16 14" fill="none" xmlns="http://www.w3.org/2000/svg">
<path d="M1.8685 7.76472L2.64717 8.87805C3.6436 10.3014 5.03367 11.4031 6.64699 12.0482C8.2603 12.6932 10.0268 12.8535 11.7298 12.5094C11.8138 12.4924 11.8926 12.4563 11.9604 12.404C12.0281 12.3516 12.0829 12.2843 12.1205 12.2074L14.6665 7.00005L12.1205 1.79339C12.083 1.71632 12.0283 1.64893 11.9605 1.59644C11.8928 1.54396 11.8138 1.50778 11.7298 1.49072C10.0267 1.14671 8.26019 1.3071 6.64687 1.95224C5.03355 2.59738 3.64351 3.69923 2.64717 5.12272L1.8685 6.23605C1.71175 6.46011 1.62768 6.72694 1.62768 7.00039C1.62768 7.27383 1.71175 7.54066 1.8685 7.76472V7.76472Z" stroke="#3C3C3C" stroke-width="1.5" stroke-linecap="round" stroke-linejoin="round"/>
</svg>
