<svg width="16" height="16" viewBox="0 0 16 16" fill="none" xmlns="http://www.w3.org/2000/svg">
<path d="M14.2445 7.38272C14.8072 7.59605 14.8072 8.40338 14.2445 8.61738L10.4218 9.99738C10.1685 10.0941 9.99984 10.3401 9.99984 10.6147V14.0061C9.99984 14.6327 9.21984 14.9061 8.83784 14.4134L6.6665 12.0001C6.5834 11.8919 6.46819 11.8129 6.3374 11.7744C6.20661 11.7358 6.06697 11.7397 5.9385 11.7854L2.20317 12.6667C1.60317 12.8814 1.08784 12.1867 1.45717 11.6614L3.53717 8.38338C3.61607 8.27113 3.6584 8.13726 3.6584 8.00005C3.6584 7.86284 3.61607 7.72898 3.53717 7.61672L1.45717 4.33872C1.08784 3.81405 1.60384 3.11872 2.20317 3.33338L5.9385 4.21472C6.06697 4.26044 6.20661 4.26429 6.3374 4.22572C6.46819 4.18716 6.5834 4.10816 6.6665 4.00005L8.83784 1.58672C9.21984 1.09338 9.99984 1.36805 9.99984 1.99338V5.38472C9.99939 5.51825 10.0395 5.64876 10.1149 5.759C10.1902 5.86923 10.2973 5.95399 10.4218 6.00205L14.2445 7.38205V7.38272Z" stroke="#3C3C3C" stroke-width="1.5" stroke-linecap="round" stroke-linejoin="round"/>
</svg>
