<svg width="18" height="18" viewBox="0 0 18 18" fill="none" xmlns="http://www.w3.org/2000/svg">
<path d="M1.50006 5.25008C1.50006 4.85225 1.6581 4.47072 1.9394 4.18942C2.22071 3.90811 2.60224 3.75008 3.00006 3.75008H15.0001C15.3979 3.75008 15.7794 3.90811 16.0607 4.18942C16.342 4.47072 16.5001 4.85225 16.5001 5.25008V12.7501C16.5001 13.1479 16.342 13.5294 16.0607 13.8107C15.7794 14.092 15.3979 14.2501 15.0001 14.2501H3.00006C2.60224 14.2501 2.22071 14.092 1.9394 13.8107C1.6581 13.5294 1.50006 13.1479 1.50006 12.7501V5.25008Z" stroke="#037318" stroke-linecap="round" stroke-linejoin="round"/>
<path d="M9 11.25C10.2426 11.25 11.25 10.2426 11.25 9C11.25 7.75736 10.2426 6.75 9 6.75C7.75736 6.75 6.75 7.75736 6.75 9C6.75 10.2426 7.75736 11.25 9 11.25Z" stroke="#037318" stroke-linecap="round" stroke-linejoin="round"/>
<path d="M1.50006 6.75008C2.29571 6.75008 3.05877 6.43401 3.62138 5.8714C4.18399 5.30879 4.50006 4.54573 4.50006 3.75008" stroke="#037318" stroke-linecap="round" stroke-linejoin="round"/>
<path d="M13.5 14.25C13.5 13.4544 13.8161 12.6913 14.3787 12.1287C14.9413 11.5661 15.7044 11.25 16.5 11.25" stroke="#037318" stroke-linecap="round" stroke-linejoin="round"/>
</svg>
